<?xml version="1.0" encoding="utf-8" standalone="no"?>
<!DOCTYPE svg PUBLIC "-//W3C//DTD SVG 1.1//EN"
  "http://www.w3.org/Graphics/SVG/1.1/DTD/svg11.dtd">
<svg xmlns:xlink="http://www.w3.org/1999/xlink" width="864pt" height="432pt" viewBox="0 0 864 432" xmlns="http://www.w3.org/2000/svg" version="1.1">
 <metadata>
  <rdf:RDF xmlns:dc="http://purl.org/dc/elements/1.1/" xmlns:cc="http://creativecommons.org/ns#" xmlns:rdf="http://www.w3.org/1999/02/22-rdf-syntax-ns#">
   <cc:Work>
    <dc:type rdf:resource="http://purl.org/dc/dcmitype/StillImage"/>
    <dc:date>2023-10-22T23:50:23.711633</dc:date>
    <dc:format>image/svg+xml</dc:format>
    <dc:creator>
     <cc:Agent>
      <dc:title>Matplotlib v3.7.2, https://matplotlib.org/</dc:title>
     </cc:Agent>
    </dc:creator>
   </cc:Work>
  </rdf:RDF>
 </metadata>
 <defs>
  <style type="text/css">*{stroke-linejoin: round; stroke-linecap: butt}</style>
 </defs>
 <g id="figure_1">
  <g id="patch_1">
   <path d="M 0 432 
L 864 432 
L 864 0 
L 0 0 
z
" style="fill: #ffffff"/>
  </g>
  <g id="axes_1">
   <g id="patch_2">
    <path d="M 108 384.48 
L 777.6 384.48 
L 777.6 51.84 
L 108 51.84 
z
" style="fill: #ffffff"/>
   </g>
   <g id="PolyCollection_1"/>
   <g id="matplotlib.axis_1">
    <g id="xtick_1">
     <g id="line2d_1">
      <defs>
       <path id="mc974eb89fc" d="M 0 0 
L 0 3.5 
" style="stroke: #58544f; stroke-width: 0.8"/>
      </defs>
      <g>
       <use xlink:href="#mc974eb89fc" x="191.36917" y="384.48" style="fill: #58544f; stroke: #58544f; stroke-width: 0.8"/>
      </g>
     </g>
     <g id="text_1">
      <!-- 100 -->
      <g style="fill: #58544f" transform="translate(185.36917 396.7775) scale(0.08 -0.08)">
       <defs>
        <path id="TimesNewRomanPS-BoldMT-31" d="M 2084 4325 
L 2084 859 
Q 2084 469 2118 361 
Q 2153 253 2262 184 
Q 2372 116 2613 116 
L 2709 116 
L 2709 0 
L 478 0 
L 478 116 
L 591 116 
Q 863 116 978 178 
Q 1094 241 1134 350 
Q 1175 459 1175 859 
L 1175 3056 
Q 1175 3350 1147 3423 
Q 1119 3497 1042 3548 
Q 966 3600 866 3600 
Q 706 3600 478 3500 
L 422 3613 
L 1981 4325 
L 2084 4325 
z
" transform="scale(0.015625)"/>
        <path id="TimesNewRomanPS-BoldMT-30" d="M 2966 2119 
Q 2966 1484 2788 934 
Q 2681 597 2501 381 
Q 2322 166 2094 39 
Q 1866 -88 1597 -88 
Q 1291 -88 1044 68 
Q 797 225 606 516 
Q 469 728 366 1081 
Q 231 1559 231 2069 
Q 231 2759 425 3338 
Q 584 3816 909 4070 
Q 1234 4325 1597 4325 
Q 1966 4325 2286 4073 
Q 2606 3822 2756 3397 
Q 2966 2813 2966 2119 
z
M 2003 2125 
Q 2003 3238 1991 3422 
Q 1959 3856 1841 4009 
Q 1763 4109 1588 4109 
Q 1453 4109 1375 4034 
Q 1259 3925 1218 3648 
Q 1178 3372 1178 1719 
Q 1178 819 1241 513 
Q 1288 291 1375 216 
Q 1463 141 1606 141 
Q 1763 141 1841 241 
Q 1972 416 1991 781 
L 2003 2125 
z
" transform="scale(0.015625)"/>
       </defs>
       <use xlink:href="#TimesNewRomanPS-BoldMT-31"/>
       <use xlink:href="#TimesNewRomanPS-BoldMT-30" x="50"/>
       <use xlink:href="#TimesNewRomanPS-BoldMT-30" x="100"/>
      </g>
     </g>
    </g>
    <g id="xtick_2">
     <g id="line2d_2">
      <g>
       <use xlink:href="#mc974eb89fc" x="297.234783" y="384.48" style="fill: #58544f; stroke: #58544f; stroke-width: 0.8"/>
      </g>
     </g>
     <g id="text_2">
      <!-- 200 -->
      <g style="fill: #58544f" transform="translate(291.234783 396.7775) scale(0.08 -0.08)">
       <defs>
        <path id="TimesNewRomanPS-BoldMT-32" d="M 2650 0 
L 156 0 
L 156 69 
Q 1303 1434 1548 1906 
Q 1794 2378 1794 2828 
Q 1794 3156 1591 3373 
Q 1388 3591 1094 3591 
Q 613 3591 347 3109 
L 231 3150 
Q 400 3750 744 4037 
Q 1088 4325 1538 4325 
Q 1859 4325 2125 4175 
Q 2391 4025 2541 3764 
Q 2691 3503 2691 3275 
Q 2691 2859 2459 2431 
Q 2144 1853 1081 819 
L 1997 819 
Q 2334 819 2436 847 
Q 2538 875 2603 942 
Q 2669 1009 2775 1225 
L 2888 1225 
L 2650 0 
z
" transform="scale(0.015625)"/>
       </defs>
       <use xlink:href="#TimesNewRomanPS-BoldMT-32"/>
       <use xlink:href="#TimesNewRomanPS-BoldMT-30" x="50"/>
       <use xlink:href="#TimesNewRomanPS-BoldMT-30" x="100"/>
      </g>
     </g>
    </g>
    <g id="xtick_3">
     <g id="line2d_3">
      <g>
       <use xlink:href="#mc974eb89fc" x="403.100395" y="384.48" style="fill: #58544f; stroke: #58544f; stroke-width: 0.8"/>
      </g>
     </g>
     <g id="text_3">
      <!-- 300 -->
      <g style="fill: #58544f" transform="translate(397.100395 396.7775) scale(0.08 -0.08)">
       <defs>
        <path id="TimesNewRomanPS-BoldMT-33" d="M 947 2125 
L 947 2234 
Q 1303 2338 1440 2427 
Q 1578 2516 1678 2698 
Q 1778 2881 1778 3069 
Q 1778 3328 1589 3514 
Q 1400 3700 1119 3700 
Q 681 3700 375 3238 
L 259 3278 
Q 484 3800 836 4062 
Q 1188 4325 1619 4325 
Q 2059 4325 2345 4056 
Q 2631 3788 2631 3428 
Q 2631 3194 2498 2976 
Q 2366 2759 2081 2594 
Q 2447 2416 2639 2155 
Q 2831 1894 2831 1500 
Q 2831 838 2351 373 
Q 1872 -91 1066 -91 
Q 528 -91 281 88 
Q 103 213 103 409 
Q 103 553 206 654 
Q 309 756 444 756 
Q 547 756 638 713 
Q 688 688 992 439 
Q 1297 191 1563 191 
Q 1794 191 1959 373 
Q 2125 556 2125 838 
Q 2125 1266 1825 1627 
Q 1525 1988 947 2125 
z
" transform="scale(0.015625)"/>
       </defs>
       <use xlink:href="#TimesNewRomanPS-BoldMT-33"/>
       <use xlink:href="#TimesNewRomanPS-BoldMT-30" x="50"/>
       <use xlink:href="#TimesNewRomanPS-BoldMT-30" x="100"/>
      </g>
     </g>
    </g>
    <g id="xtick_4">
     <g id="line2d_4">
      <g>
       <use xlink:href="#mc974eb89fc" x="508.966008" y="384.48" style="fill: #58544f; stroke: #58544f; stroke-width: 0.8"/>
      </g>
     </g>
     <g id="text_4">
      <!-- 400 -->
      <g style="fill: #58544f" transform="translate(502.966008 396.7775) scale(0.08 -0.08)">
       <defs>
        <path id="TimesNewRomanPS-BoldMT-34" d="M 159 1597 
L 2172 4325 
L 2553 4325 
L 2553 1597 
L 2941 1597 
L 2941 950 
L 2553 950 
L 2553 0 
L 1694 0 
L 1694 950 
L 159 950 
L 159 1597 
z
M 463 1597 
L 1694 1597 
L 1694 3269 
L 463 1597 
z
" transform="scale(0.015625)"/>
       </defs>
       <use xlink:href="#TimesNewRomanPS-BoldMT-34"/>
       <use xlink:href="#TimesNewRomanPS-BoldMT-30" x="50"/>
       <use xlink:href="#TimesNewRomanPS-BoldMT-30" x="100"/>
      </g>
     </g>
    </g>
    <g id="xtick_5">
     <g id="line2d_5">
      <g>
       <use xlink:href="#mc974eb89fc" x="614.831621" y="384.48" style="fill: #58544f; stroke: #58544f; stroke-width: 0.8"/>
      </g>
     </g>
     <g id="text_5">
      <!-- 500 -->
      <g style="fill: #58544f" transform="translate(608.831621 396.7775) scale(0.08 -0.08)">
       <defs>
        <path id="TimesNewRomanPS-BoldMT-35" d="M 975 4238 
L 2959 4238 
L 2644 3431 
L 975 3431 
L 816 3009 
Q 1894 2969 2475 2472 
Q 2953 2063 2953 1453 
Q 2953 1063 2731 689 
Q 2509 316 2106 114 
Q 1703 -88 1222 -88 
Q 703 -88 425 106 
Q 231 244 231 419 
Q 231 553 332 656 
Q 434 759 569 759 
Q 691 759 816 709 
Q 941 659 1244 447 
Q 1434 316 1572 266 
Q 1669 228 1791 228 
Q 2047 228 2226 415 
Q 2406 603 2406 866 
Q 2406 1416 1856 1759 
Q 1306 2103 469 2103 
Q 384 2103 216 2100 
L 975 4238 
z
" transform="scale(0.015625)"/>
       </defs>
       <use xlink:href="#TimesNewRomanPS-BoldMT-35"/>
       <use xlink:href="#TimesNewRomanPS-BoldMT-30" x="50"/>
       <use xlink:href="#TimesNewRomanPS-BoldMT-30" x="100"/>
      </g>
     </g>
    </g>
    <g id="xtick_6">
     <g id="line2d_6">
      <g>
       <use xlink:href="#mc974eb89fc" x="720.697233" y="384.48" style="fill: #58544f; stroke: #58544f; stroke-width: 0.8"/>
      </g>
     </g>
     <g id="text_6">
      <!-- 600 -->
      <g style="fill: #58544f" transform="translate(714.697233 396.7775) scale(0.08 -0.08)">
       <defs>
        <path id="TimesNewRomanPS-BoldMT-36" d="M 3006 4325 
L 3006 4238 
Q 2441 4094 2098 3867 
Q 1756 3641 1557 3317 
Q 1359 2994 1250 2516 
Q 1388 2609 1478 2638 
Q 1681 2700 1888 2700 
Q 2363 2700 2680 2354 
Q 2997 2009 2997 1413 
Q 2997 994 2825 644 
Q 2653 294 2337 103 
Q 2022 -88 1663 -88 
Q 1272 -88 940 126 
Q 609 341 423 753 
Q 238 1166 238 1650 
Q 238 2363 580 2977 
Q 922 3591 1551 3955 
Q 2181 4319 3006 4325 
z
M 1209 2263 
Q 1184 1831 1184 1631 
Q 1184 1200 1267 797 
Q 1350 394 1494 231 
Q 1597 116 1738 116 
Q 1881 116 1993 283 
Q 2106 450 2106 963 
Q 2106 1825 1897 2153 
Q 1763 2366 1534 2366 
Q 1409 2366 1209 2263 
z
" transform="scale(0.015625)"/>
       </defs>
       <use xlink:href="#TimesNewRomanPS-BoldMT-36"/>
       <use xlink:href="#TimesNewRomanPS-BoldMT-30" x="50"/>
       <use xlink:href="#TimesNewRomanPS-BoldMT-30" x="100"/>
      </g>
     </g>
    </g>
    <g id="text_7">
     <!-- WZ_Length -->
     <g style="fill: #58544f" transform="translate(403.7025 413.59875) scale(0.16 -0.16)">
      <defs>
       <path id="TimesNewRomanPSMT-57" d="M 5991 4238 
L 5991 4122 
Q 5825 4122 5722 4062 
Q 5619 4003 5525 3841 
Q 5463 3731 5328 3319 
L 4147 -97 
L 4022 -97 
L 3056 2613 
L 2097 -97 
L 1984 -97 
L 725 3422 
Q 584 3816 547 3888 
Q 484 4006 376 4064 
Q 269 4122 84 4122 
L 84 4238 
L 1653 4238 
L 1653 4122 
L 1578 4122 
Q 1413 4122 1325 4047 
Q 1238 3972 1238 3866 
Q 1238 3756 1375 3363 
L 2209 984 
L 2913 3006 
L 2788 3363 
L 2688 3647 
Q 2622 3803 2541 3922 
Q 2500 3981 2441 4022 
Q 2363 4078 2284 4103 
Q 2225 4122 2097 4122 
L 2097 4238 
L 3747 4238 
L 3747 4122 
L 3634 4122 
Q 3459 4122 3378 4047 
Q 3297 3972 3297 3844 
Q 3297 3684 3438 3288 
L 4250 984 
L 5056 3319 
Q 5194 3706 5194 3856 
Q 5194 3928 5148 3990 
Q 5103 4053 5034 4078 
Q 4916 4122 4725 4122 
L 4725 4238 
L 5991 4238 
z
" transform="scale(0.015625)"/>
       <path id="TimesNewRomanPSMT-5a" d="M 3681 4238 
L 897 256 
L 2634 256 
Q 3034 256 3248 431 
Q 3463 606 3628 1141 
L 3731 1122 
L 3531 0 
L 81 0 
L 81 116 
L 2800 3984 
L 1444 3984 
Q 1106 3984 954 3911 
Q 803 3838 723 3698 
Q 644 3559 578 3178 
L 459 3178 
L 547 4238 
L 3681 4238 
z
" transform="scale(0.015625)"/>
       <path id="TimesNewRomanPSMT-5f" d="M 3256 -1381 
L -53 -1381 
L -53 -1119 
L 3256 -1119 
L 3256 -1381 
z
" transform="scale(0.015625)"/>
       <path id="TimesNewRomanPSMT-4c" d="M 3669 1172 
L 3772 1150 
L 3409 0 
L 128 0 
L 128 116 
L 288 116 
Q 556 116 672 291 
Q 738 391 738 753 
L 738 3488 
Q 738 3884 650 3984 
Q 528 4122 288 4122 
L 128 4122 
L 128 4238 
L 2047 4238 
L 2047 4122 
Q 1709 4125 1573 4059 
Q 1438 3994 1388 3894 
Q 1338 3794 1338 3416 
L 1338 753 
Q 1338 494 1388 397 
Q 1425 331 1503 300 
Q 1581 269 1991 269 
L 2300 269 
Q 2788 269 2984 341 
Q 3181 413 3343 595 
Q 3506 778 3669 1172 
z
" transform="scale(0.015625)"/>
       <path id="TimesNewRomanPSMT-65" d="M 681 1784 
Q 678 1147 991 784 
Q 1303 422 1725 422 
Q 2006 422 2214 576 
Q 2422 731 2563 1106 
L 2659 1044 
Q 2594 616 2278 264 
Q 1963 -88 1488 -88 
Q 972 -88 605 314 
Q 238 716 238 1394 
Q 238 2128 614 2539 
Q 991 2950 1559 2950 
Q 2041 2950 2350 2633 
Q 2659 2316 2659 1784 
L 681 1784 
z
M 681 1966 
L 2006 1966 
Q 1991 2241 1941 2353 
Q 1863 2528 1708 2628 
Q 1553 2728 1384 2728 
Q 1125 2728 920 2526 
Q 716 2325 681 1966 
z
" transform="scale(0.015625)"/>
       <path id="TimesNewRomanPSMT-6e" d="M 1034 2341 
Q 1538 2947 1994 2947 
Q 2228 2947 2397 2830 
Q 2566 2713 2666 2444 
Q 2734 2256 2734 1869 
L 2734 647 
Q 2734 375 2778 278 
Q 2813 200 2889 156 
Q 2966 113 3172 113 
L 3172 0 
L 1756 0 
L 1756 113 
L 1816 113 
Q 2016 113 2095 173 
Q 2175 234 2206 353 
Q 2219 400 2219 647 
L 2219 1819 
Q 2219 2209 2117 2386 
Q 2016 2563 1775 2563 
Q 1403 2563 1034 2156 
L 1034 647 
Q 1034 356 1069 288 
Q 1113 197 1189 155 
Q 1266 113 1500 113 
L 1500 0 
L 84 0 
L 84 113 
L 147 113 
Q 366 113 442 223 
Q 519 334 519 647 
L 519 1709 
Q 519 2225 495 2337 
Q 472 2450 423 2490 
Q 375 2531 294 2531 
Q 206 2531 84 2484 
L 38 2597 
L 900 2947 
L 1034 2947 
L 1034 2341 
z
" transform="scale(0.015625)"/>
       <path id="TimesNewRomanPSMT-67" d="M 966 1044 
Q 703 1172 562 1401 
Q 422 1631 422 1909 
Q 422 2334 742 2640 
Q 1063 2947 1563 2947 
Q 1972 2947 2272 2747 
L 2878 2747 
Q 3013 2747 3034 2739 
Q 3056 2731 3066 2713 
Q 3084 2684 3084 2613 
Q 3084 2531 3069 2500 
Q 3059 2484 3036 2475 
Q 3013 2466 2878 2466 
L 2506 2466 
Q 2681 2241 2681 1891 
Q 2681 1491 2375 1206 
Q 2069 922 1553 922 
Q 1341 922 1119 984 
Q 981 866 932 777 
Q 884 688 884 625 
Q 884 572 936 522 
Q 988 472 1138 450 
Q 1225 438 1575 428 
Q 2219 413 2409 384 
Q 2700 344 2873 169 
Q 3047 -6 3047 -263 
Q 3047 -616 2716 -925 
Q 2228 -1381 1444 -1381 
Q 841 -1381 425 -1109 
Q 191 -953 191 -784 
Q 191 -709 225 -634 
Q 278 -519 444 -313 
Q 466 -284 763 25 
Q 600 122 533 198 
Q 466 275 466 372 
Q 466 481 555 628 
Q 644 775 966 1044 
z
M 1509 2797 
Q 1278 2797 1122 2612 
Q 966 2428 966 2047 
Q 966 1553 1178 1281 
Q 1341 1075 1591 1075 
Q 1828 1075 1981 1253 
Q 2134 1431 2134 1813 
Q 2134 2309 1919 2591 
Q 1759 2797 1509 2797 
z
M 934 0 
Q 788 -159 713 -296 
Q 638 -434 638 -550 
Q 638 -700 819 -813 
Q 1131 -1006 1722 -1006 
Q 2284 -1006 2551 -807 
Q 2819 -609 2819 -384 
Q 2819 -222 2659 -153 
Q 2497 -84 2016 -72 
Q 1313 -53 934 0 
z
" transform="scale(0.015625)"/>
       <path id="TimesNewRomanPSMT-74" d="M 1031 3803 
L 1031 2863 
L 1700 2863 
L 1700 2644 
L 1031 2644 
L 1031 788 
Q 1031 509 1111 412 
Q 1191 316 1316 316 
Q 1419 316 1516 380 
Q 1613 444 1666 569 
L 1788 569 
Q 1678 263 1478 108 
Q 1278 -47 1066 -47 
Q 922 -47 784 33 
Q 647 113 581 261 
Q 516 409 516 719 
L 516 2644 
L 63 2644 
L 63 2747 
Q 234 2816 414 2980 
Q 594 3144 734 3369 
Q 806 3488 934 3803 
L 1031 3803 
z
" transform="scale(0.015625)"/>
       <path id="TimesNewRomanPSMT-68" d="M 1041 4444 
L 1041 2350 
Q 1388 2731 1591 2839 
Q 1794 2947 1997 2947 
Q 2241 2947 2416 2812 
Q 2591 2678 2675 2391 
Q 2734 2191 2734 1659 
L 2734 647 
Q 2734 375 2778 275 
Q 2809 200 2884 156 
Q 2959 113 3159 113 
L 3159 0 
L 1753 0 
L 1753 113 
L 1819 113 
Q 2019 113 2097 173 
Q 2175 234 2206 353 
Q 2216 403 2216 647 
L 2216 1659 
Q 2216 2128 2167 2275 
Q 2119 2422 2012 2495 
Q 1906 2569 1756 2569 
Q 1603 2569 1437 2487 
Q 1272 2406 1041 2159 
L 1041 647 
Q 1041 353 1073 281 
Q 1106 209 1195 161 
Q 1284 113 1503 113 
L 1503 0 
L 84 0 
L 84 113 
Q 275 113 384 172 
Q 447 203 484 290 
Q 522 378 522 647 
L 522 3238 
Q 522 3728 498 3840 
Q 475 3953 426 3993 
Q 378 4034 297 4034 
Q 231 4034 84 3984 
L 41 4094 
L 897 4444 
L 1041 4444 
z
" transform="scale(0.015625)"/>
      </defs>
      <use xlink:href="#TimesNewRomanPSMT-57"/>
      <use xlink:href="#TimesNewRomanPSMT-5a" x="94.384766"/>
      <use xlink:href="#TimesNewRomanPSMT-5f" x="155.46875"/>
      <use xlink:href="#TimesNewRomanPSMT-4c" x="205.46875"/>
      <use xlink:href="#TimesNewRomanPSMT-65" x="266.552734"/>
      <use xlink:href="#TimesNewRomanPSMT-6e" x="310.9375"/>
      <use xlink:href="#TimesNewRomanPSMT-67" x="360.9375"/>
      <use xlink:href="#TimesNewRomanPSMT-74" x="410.9375"/>
      <use xlink:href="#TimesNewRomanPSMT-68" x="438.720703"/>
     </g>
    </g>
   </g>
   <g id="matplotlib.axis_2">
    <g id="ytick_1">
     <g id="line2d_7">
      <defs>
       <path id="m4b8c116e6b" d="M 0 0 
L -3.5 0 
" style="stroke: #58544f; stroke-width: 0.8"/>
      </defs>
      <g>
       <use xlink:href="#m4b8c116e6b" x="108" y="354.579933" style="fill: #58544f; stroke: #58544f; stroke-width: 0.8"/>
      </g>
     </g>
     <g id="text_8">
      <!-- 2.0 -->
      <g style="fill: #58544f" transform="translate(91 357.228683) scale(0.08 -0.08)">
       <defs>
        <path id="TimesNewRomanPS-BoldMT-2e" d="M 800 963 
Q 1019 963 1170 809 
Q 1322 656 1322 441 
Q 1322 225 1169 73 
Q 1016 -78 800 -78 
Q 584 -78 432 73 
Q 281 225 281 441 
Q 281 656 432 809 
Q 584 963 800 963 
z
" transform="scale(0.015625)"/>
       </defs>
       <use xlink:href="#TimesNewRomanPS-BoldMT-32"/>
       <use xlink:href="#TimesNewRomanPS-BoldMT-2e" x="50"/>
       <use xlink:href="#TimesNewRomanPS-BoldMT-30" x="75"/>
      </g>
     </g>
    </g>
    <g id="ytick_2">
     <g id="line2d_8">
      <g>
       <use xlink:href="#m4b8c116e6b" x="108" y="302.572357" style="fill: #58544f; stroke: #58544f; stroke-width: 0.8"/>
      </g>
     </g>
     <g id="text_9">
      <!-- 2.5 -->
      <g style="fill: #58544f" transform="translate(91 305.221107) scale(0.08 -0.08)">
       <use xlink:href="#TimesNewRomanPS-BoldMT-32"/>
       <use xlink:href="#TimesNewRomanPS-BoldMT-2e" x="50"/>
       <use xlink:href="#TimesNewRomanPS-BoldMT-35" x="75"/>
      </g>
     </g>
    </g>
    <g id="ytick_3">
     <g id="line2d_9">
      <g>
       <use xlink:href="#m4b8c116e6b" x="108" y="250.564782" style="fill: #58544f; stroke: #58544f; stroke-width: 0.8"/>
      </g>
     </g>
     <g id="text_10">
      <!-- 3.0 -->
      <g style="fill: #58544f" transform="translate(91 253.213532) scale(0.08 -0.08)">
       <use xlink:href="#TimesNewRomanPS-BoldMT-33"/>
       <use xlink:href="#TimesNewRomanPS-BoldMT-2e" x="50"/>
       <use xlink:href="#TimesNewRomanPS-BoldMT-30" x="75"/>
      </g>
     </g>
    </g>
    <g id="ytick_4">
     <g id="line2d_10">
      <g>
       <use xlink:href="#m4b8c116e6b" x="108" y="198.557206" style="fill: #58544f; stroke: #58544f; stroke-width: 0.8"/>
      </g>
     </g>
     <g id="text_11">
      <!-- 3.5 -->
      <g style="fill: #58544f" transform="translate(91 201.205956) scale(0.08 -0.08)">
       <use xlink:href="#TimesNewRomanPS-BoldMT-33"/>
       <use xlink:href="#TimesNewRomanPS-BoldMT-2e" x="50"/>
       <use xlink:href="#TimesNewRomanPS-BoldMT-35" x="75"/>
      </g>
     </g>
    </g>
    <g id="ytick_5">
     <g id="line2d_11">
      <g>
       <use xlink:href="#m4b8c116e6b" x="108" y="146.549631" style="fill: #58544f; stroke: #58544f; stroke-width: 0.8"/>
      </g>
     </g>
     <g id="text_12">
      <!-- 4.0 -->
      <g style="fill: #58544f" transform="translate(91 149.198381) scale(0.08 -0.08)">
       <use xlink:href="#TimesNewRomanPS-BoldMT-34"/>
       <use xlink:href="#TimesNewRomanPS-BoldMT-2e" x="50"/>
       <use xlink:href="#TimesNewRomanPS-BoldMT-30" x="75"/>
      </g>
     </g>
    </g>
    <g id="ytick_6">
     <g id="line2d_12">
      <g>
       <use xlink:href="#m4b8c116e6b" x="108" y="94.542055" style="fill: #58544f; stroke: #58544f; stroke-width: 0.8"/>
      </g>
     </g>
     <g id="text_13">
      <!-- 4.5 -->
      <g style="fill: #58544f" transform="translate(91 97.190805) scale(0.08 -0.08)">
       <use xlink:href="#TimesNewRomanPS-BoldMT-34"/>
       <use xlink:href="#TimesNewRomanPS-BoldMT-2e" x="50"/>
       <use xlink:href="#TimesNewRomanPS-BoldMT-35" x="75"/>
      </g>
     </g>
    </g>
    <g id="text_14">
     <!-- UnderConstructionTime -->
     <g style="fill: #58544f" transform="translate(83.5775 296.0875) rotate(-90) scale(0.16 -0.16)">
      <defs>
       <path id="TimesNewRomanPSMT-55" d="M 3053 4122 
L 3053 4238 
L 4553 4238 
L 4553 4122 
L 4394 4122 
Q 4144 4122 4009 3913 
Q 3944 3816 3944 3463 
L 3944 1744 
Q 3944 1106 3817 754 
Q 3691 403 3320 151 
Q 2950 -100 2313 -100 
Q 1619 -100 1259 140 
Q 900 381 750 788 
Q 650 1066 650 1831 
L 650 3488 
Q 650 3878 542 4000 
Q 434 4122 194 4122 
L 34 4122 
L 34 4238 
L 1866 4238 
L 1866 4122 
L 1703 4122 
Q 1441 4122 1328 3956 
Q 1250 3844 1250 3488 
L 1250 1641 
Q 1250 1394 1295 1075 
Q 1341 756 1459 578 
Q 1578 400 1801 284 
Q 2025 169 2350 169 
Q 2766 169 3094 350 
Q 3422 531 3542 814 
Q 3663 1097 3663 1772 
L 3663 3488 
Q 3663 3884 3575 3984 
Q 3453 4122 3213 4122 
L 3053 4122 
z
" transform="scale(0.015625)"/>
       <path id="TimesNewRomanPSMT-64" d="M 2222 322 
Q 2013 103 1813 7 
Q 1613 -88 1381 -88 
Q 913 -88 563 304 
Q 213 697 213 1313 
Q 213 1928 600 2439 
Q 988 2950 1597 2950 
Q 1975 2950 2222 2709 
L 2222 3238 
Q 2222 3728 2198 3840 
Q 2175 3953 2125 3993 
Q 2075 4034 2000 4034 
Q 1919 4034 1784 3984 
L 1744 4094 
L 2597 4444 
L 2738 4444 
L 2738 1134 
Q 2738 631 2761 520 
Q 2784 409 2836 365 
Q 2888 322 2956 322 
Q 3041 322 3181 375 
L 3216 266 
L 2366 -88 
L 2222 -88 
L 2222 322 
z
M 2222 541 
L 2222 2016 
Q 2203 2228 2109 2403 
Q 2016 2578 1861 2667 
Q 1706 2756 1559 2756 
Q 1284 2756 1069 2509 
Q 784 2184 784 1559 
Q 784 928 1059 592 
Q 1334 256 1672 256 
Q 1956 256 2222 541 
z
" transform="scale(0.015625)"/>
       <path id="TimesNewRomanPSMT-72" d="M 1038 2947 
L 1038 2303 
Q 1397 2947 1775 2947 
Q 1947 2947 2059 2842 
Q 2172 2738 2172 2600 
Q 2172 2478 2090 2393 
Q 2009 2309 1897 2309 
Q 1788 2309 1652 2417 
Q 1516 2525 1450 2525 
Q 1394 2525 1328 2463 
Q 1188 2334 1038 2041 
L 1038 669 
Q 1038 431 1097 309 
Q 1138 225 1241 169 
Q 1344 113 1538 113 
L 1538 0 
L 72 0 
L 72 113 
Q 291 113 397 181 
Q 475 231 506 341 
Q 522 394 522 644 
L 522 1753 
Q 522 2253 501 2348 
Q 481 2444 426 2487 
Q 372 2531 291 2531 
Q 194 2531 72 2484 
L 41 2597 
L 906 2947 
L 1038 2947 
z
" transform="scale(0.015625)"/>
       <path id="TimesNewRomanPSMT-43" d="M 3853 4334 
L 3950 2894 
L 3853 2894 
Q 3659 3541 3300 3825 
Q 2941 4109 2438 4109 
Q 2016 4109 1675 3895 
Q 1334 3681 1139 3212 
Q 944 2744 944 2047 
Q 944 1472 1128 1050 
Q 1313 628 1683 403 
Q 2053 178 2528 178 
Q 2941 178 3256 354 
Q 3572 531 3950 1056 
L 4047 994 
Q 3728 428 3303 165 
Q 2878 -97 2294 -97 
Q 1241 -97 663 684 
Q 231 1266 231 2053 
Q 231 2688 515 3219 
Q 800 3750 1298 4042 
Q 1797 4334 2388 4334 
Q 2847 4334 3294 4109 
Q 3425 4041 3481 4041 
Q 3566 4041 3628 4100 
Q 3709 4184 3744 4334 
L 3853 4334 
z
" transform="scale(0.015625)"/>
       <path id="TimesNewRomanPSMT-6f" d="M 1600 2947 
Q 2250 2947 2644 2453 
Q 2978 2031 2978 1484 
Q 2978 1100 2793 706 
Q 2609 313 2286 112 
Q 1963 -88 1566 -88 
Q 919 -88 538 428 
Q 216 863 216 1403 
Q 216 1797 411 2186 
Q 606 2575 925 2761 
Q 1244 2947 1600 2947 
z
M 1503 2744 
Q 1338 2744 1170 2645 
Q 1003 2547 900 2300 
Q 797 2053 797 1666 
Q 797 1041 1045 587 
Q 1294 134 1700 134 
Q 2003 134 2200 384 
Q 2397 634 2397 1244 
Q 2397 2006 2069 2444 
Q 1847 2744 1503 2744 
z
" transform="scale(0.015625)"/>
       <path id="TimesNewRomanPSMT-73" d="M 2050 2947 
L 2050 1972 
L 1947 1972 
Q 1828 2431 1642 2597 
Q 1456 2763 1169 2763 
Q 950 2763 815 2647 
Q 681 2531 681 2391 
Q 681 2216 781 2091 
Q 878 1963 1175 1819 
L 1631 1597 
Q 2266 1288 2266 781 
Q 2266 391 1970 151 
Q 1675 -88 1309 -88 
Q 1047 -88 709 6 
Q 606 38 541 38 
Q 469 38 428 -44 
L 325 -44 
L 325 978 
L 428 978 
Q 516 541 762 319 
Q 1009 97 1316 97 
Q 1531 97 1667 223 
Q 1803 350 1803 528 
Q 1803 744 1651 891 
Q 1500 1038 1047 1263 
Q 594 1488 453 1669 
Q 313 1847 313 2119 
Q 313 2472 555 2709 
Q 797 2947 1181 2947 
Q 1350 2947 1591 2875 
Q 1750 2828 1803 2828 
Q 1853 2828 1881 2850 
Q 1909 2872 1947 2947 
L 2050 2947 
z
" transform="scale(0.015625)"/>
       <path id="TimesNewRomanPSMT-75" d="M 2709 2863 
L 2709 1128 
Q 2709 631 2732 520 
Q 2756 409 2807 365 
Q 2859 322 2928 322 
Q 3025 322 3147 375 
L 3191 266 
L 2334 -88 
L 2194 -88 
L 2194 519 
Q 1825 119 1631 15 
Q 1438 -88 1222 -88 
Q 981 -88 804 51 
Q 628 191 559 409 
Q 491 628 491 1028 
L 491 2306 
Q 491 2509 447 2587 
Q 403 2666 317 2708 
Q 231 2750 6 2747 
L 6 2863 
L 1009 2863 
L 1009 947 
Q 1009 547 1148 422 
Q 1288 297 1484 297 
Q 1619 297 1789 381 
Q 1959 466 2194 703 
L 2194 2325 
Q 2194 2569 2105 2655 
Q 2016 2741 1734 2747 
L 1734 2863 
L 2709 2863 
z
" transform="scale(0.015625)"/>
       <path id="TimesNewRomanPSMT-63" d="M 2631 1088 
Q 2516 522 2178 217 
Q 1841 -88 1431 -88 
Q 944 -88 581 321 
Q 219 731 219 1428 
Q 219 2103 620 2525 
Q 1022 2947 1584 2947 
Q 2006 2947 2278 2723 
Q 2550 2500 2550 2259 
Q 2550 2141 2473 2067 
Q 2397 1994 2259 1994 
Q 2075 1994 1981 2113 
Q 1928 2178 1911 2362 
Q 1894 2547 1784 2644 
Q 1675 2738 1481 2738 
Q 1169 2738 978 2506 
Q 725 2200 725 1697 
Q 725 1184 976 792 
Q 1228 400 1656 400 
Q 1963 400 2206 609 
Q 2378 753 2541 1131 
L 2631 1088 
z
" transform="scale(0.015625)"/>
       <path id="TimesNewRomanPSMT-69" d="M 928 4444 
Q 1059 4444 1151 4351 
Q 1244 4259 1244 4128 
Q 1244 3997 1151 3903 
Q 1059 3809 928 3809 
Q 797 3809 703 3903 
Q 609 3997 609 4128 
Q 609 4259 701 4351 
Q 794 4444 928 4444 
z
M 1188 2947 
L 1188 647 
Q 1188 378 1227 289 
Q 1266 200 1342 156 
Q 1419 113 1622 113 
L 1622 0 
L 231 0 
L 231 113 
Q 441 113 512 153 
Q 584 194 626 287 
Q 669 381 669 647 
L 669 1750 
Q 669 2216 641 2353 
Q 619 2453 572 2492 
Q 525 2531 444 2531 
Q 356 2531 231 2484 
L 188 2597 
L 1050 2947 
L 1188 2947 
z
" transform="scale(0.015625)"/>
       <path id="TimesNewRomanPSMT-54" d="M 3703 4238 
L 3750 3244 
L 3631 3244 
Q 3597 3506 3538 3619 
Q 3441 3800 3280 3886 
Q 3119 3972 2856 3972 
L 2259 3972 
L 2259 734 
Q 2259 344 2344 247 
Q 2463 116 2709 116 
L 2856 116 
L 2856 0 
L 1059 0 
L 1059 116 
L 1209 116 
Q 1478 116 1591 278 
Q 1659 378 1659 734 
L 1659 3972 
L 1150 3972 
Q 853 3972 728 3928 
Q 566 3869 450 3700 
Q 334 3531 313 3244 
L 194 3244 
L 244 4238 
L 3703 4238 
z
" transform="scale(0.015625)"/>
       <path id="TimesNewRomanPSMT-6d" d="M 1050 2338 
Q 1363 2650 1419 2697 
Q 1559 2816 1721 2881 
Q 1884 2947 2044 2947 
Q 2313 2947 2506 2790 
Q 2700 2634 2766 2338 
Q 3088 2713 3309 2830 
Q 3531 2947 3766 2947 
Q 3994 2947 4170 2830 
Q 4347 2713 4450 2447 
Q 4519 2266 4519 1878 
L 4519 647 
Q 4519 378 4559 278 
Q 4591 209 4675 161 
Q 4759 113 4950 113 
L 4950 0 
L 3538 0 
L 3538 113 
L 3597 113 
Q 3781 113 3884 184 
Q 3956 234 3988 344 
Q 4000 397 4000 647 
L 4000 1878 
Q 4000 2228 3916 2372 
Q 3794 2572 3525 2572 
Q 3359 2572 3192 2489 
Q 3025 2406 2788 2181 
L 2781 2147 
L 2788 2013 
L 2788 647 
Q 2788 353 2820 281 
Q 2853 209 2943 161 
Q 3034 113 3253 113 
L 3253 0 
L 1806 0 
L 1806 113 
Q 2044 113 2133 169 
Q 2222 225 2256 338 
Q 2272 391 2272 647 
L 2272 1878 
Q 2272 2228 2169 2381 
Q 2031 2581 1784 2581 
Q 1616 2581 1450 2491 
Q 1191 2353 1050 2181 
L 1050 647 
Q 1050 366 1089 281 
Q 1128 197 1204 155 
Q 1281 113 1516 113 
L 1516 0 
L 100 0 
L 100 113 
Q 297 113 375 155 
Q 453 197 493 289 
Q 534 381 534 647 
L 534 1741 
Q 534 2213 506 2350 
Q 484 2453 437 2492 
Q 391 2531 309 2531 
Q 222 2531 100 2484 
L 53 2597 
L 916 2947 
L 1050 2947 
L 1050 2338 
z
" transform="scale(0.015625)"/>
      </defs>
      <use xlink:href="#TimesNewRomanPSMT-55"/>
      <use xlink:href="#TimesNewRomanPSMT-6e" x="72.216797"/>
      <use xlink:href="#TimesNewRomanPSMT-64" x="122.216797"/>
      <use xlink:href="#TimesNewRomanPSMT-65" x="172.216797"/>
      <use xlink:href="#TimesNewRomanPSMT-72" x="216.601562"/>
      <use xlink:href="#TimesNewRomanPSMT-43" x="249.902344"/>
      <use xlink:href="#TimesNewRomanPSMT-6f" x="316.601562"/>
      <use xlink:href="#TimesNewRomanPSMT-6e" x="366.601562"/>
      <use xlink:href="#TimesNewRomanPSMT-73" x="416.601562"/>
      <use xlink:href="#TimesNewRomanPSMT-74" x="455.517578"/>
      <use xlink:href="#TimesNewRomanPSMT-72" x="483.300781"/>
      <use xlink:href="#TimesNewRomanPSMT-75" x="516.601562"/>
      <use xlink:href="#TimesNewRomanPSMT-63" x="566.601562"/>
      <use xlink:href="#TimesNewRomanPSMT-74" x="610.986328"/>
      <use xlink:href="#TimesNewRomanPSMT-69" x="638.769531"/>
      <use xlink:href="#TimesNewRomanPSMT-6f" x="666.552734"/>
      <use xlink:href="#TimesNewRomanPSMT-6e" x="716.552734"/>
      <use xlink:href="#TimesNewRomanPSMT-54" x="766.552734"/>
      <use xlink:href="#TimesNewRomanPSMT-69" x="824.136719"/>
      <use xlink:href="#TimesNewRomanPSMT-6d" x="851.919922"/>
      <use xlink:href="#TimesNewRomanPSMT-65" x="929.703125"/>
     </g>
    </g>
   </g>
   <g id="line2d_13">
    <path d="M 138.436364 323.072471 
L 144.523636 354.05558 
L 150.610909 345.417988 
L 156.698182 339.701835 
L 162.785455 333.599038 
L 168.872727 340.096737 
L 174.96 311.578092 
L 181.047273 305.941718 
L 187.134545 300.15082 
L 193.221818 312.26054 
L 199.309091 315.562869 
L 205.396364 301.848421 
L 211.483636 305.122404 
L 217.570909 298.71242 
L 223.658182 285.98483 
L 229.745455 293.509113 
L 235.832727 256.226104 
L 241.92 253.355157 
L 248.007273 276.208908 
L 254.094545 274.465404 
L 260.181818 263.925569 
L 266.269091 288.124078 
L 272.356364 264.185662 
L 278.443636 274.441001 
L 284.530909 279.299799 
L 290.618182 208.678258 
L 296.705455 294.440272 
L 302.792727 290.078524 
L 308.88 366.888567 
L 314.967273 348.446336 
L 321.054545 351.042881 
L 327.141818 351.578021 
L 333.229091 306.014305 
L 339.316364 268.575086 
L 345.403636 312.56676 
L 351.490909 348.389645 
L 357.578182 309.258256 
L 363.665455 282.481479 
L 369.752727 270.648642 
L 375.84 293.24659 
L 381.927273 165.525688 
L 388.014545 273.856659 
L 394.101818 252.570537 
L 400.189091 141.101556 
L 406.276364 252.514491 
L 412.363636 253.013673 
L 418.450909 301.477078 
L 424.538182 288.974466 
L 430.625455 255.242719 
L 436.712727 272.630837 
L 442.8 317.427268 
L 448.887273 297.539272 
L 454.974545 262.239599 
L 461.061818 256.428564 
L 467.149091 282.551958 
L 473.236364 228.861612 
L 479.323636 345.233731 
L 485.410909 360.470449 
L 491.498182 347.62164 
L 497.585455 344.897132 
L 503.672727 290.1092 
L 509.76 335.950865 
L 515.847273 348.501117 
L 521.934545 344.270309 
L 528.021818 339.01165 
L 534.109091 284.421219 
L 540.196364 369.36 
L 546.283636 340.844728 
L 552.370909 345.135179 
L 558.458182 350.727733 
L 564.545455 336.229459 
L 570.632727 345.0893 
L 576.72 344.219793 
L 582.807273 66.96 
L 588.894545 346.37836 
L 594.981818 362.252516 
L 601.069091 272.925848 
L 607.156364 349.815645 
L 613.243636 281.683914 
L 619.330909 337.09857 
L 625.418182 365.983919 
L 631.505455 335.966464 
L 637.592727 338.691592 
L 643.68 343.494963 
L 649.767273 350.475799 
L 655.854545 338.055668 
L 661.941818 343.911366 
L 668.029091 176.560216 
L 674.116364 345.497866 
L 680.203636 333.844773 
L 686.290909 343.567303 
L 692.378182 333.468644 
L 698.465455 345.827422 
L 704.552727 336.257953 
L 710.64 344.138154 
L 716.727273 349.906038 
L 722.814545 349.691327 
L 728.901818 342.513711 
L 734.989091 332.26787 
L 741.076364 336.52194 
" clip-path="url(#pf68cac0935)" style="fill: none; stroke: #ff0000; stroke-width: 1.5; stroke-linecap: square"/>
   </g>
   <g id="patch_3">
    <path d="M 108 384.48 
L 108 51.84 
" style="fill: none; stroke: #58544f; stroke-width: 0.8; stroke-linejoin: miter; stroke-linecap: square"/>
   </g>
   <g id="patch_4">
    <path d="M 777.6 384.48 
L 777.6 51.84 
" style="fill: none; stroke: #58544f; stroke-width: 0.8; stroke-linejoin: miter; stroke-linecap: square"/>
   </g>
   <g id="patch_5">
    <path d="M 108 384.48 
L 777.6 384.48 
" style="fill: none; stroke: #58544f; stroke-width: 0.8; stroke-linejoin: miter; stroke-linecap: square"/>
   </g>
   <g id="patch_6">
    <path d="M 108 51.84 
L 777.6 51.84 
" style="fill: none; stroke: #58544f; stroke-width: 0.8; stroke-linejoin: miter; stroke-linecap: square"/>
   </g>
  </g>
  <g id="axes_2">
   <g id="patch_7">
    <path d="M 138.436364 384.48 
L 150.610909 384.48 
L 150.610909 227.48698 
L 138.436364 227.48698 
z
" clip-path="url(#pf68cac0935)" style="fill: #0088ed; opacity: 0.4"/>
   </g>
   <g id="patch_8">
    <path d="M 150.610909 384.48 
L 162.785455 384.48 
L 162.785455 67.68 
L 150.610909 67.68 
z
" clip-path="url(#pf68cac0935)" style="fill: #0088ed; opacity: 0.4"/>
   </g>
   <g id="patch_9">
    <path d="M 162.785455 384.48 
L 174.96 384.48 
L 174.96 384.48 
L 162.785455 384.48 
z
" clip-path="url(#pf68cac0935)" style="fill: #0088ed; opacity: 0.4"/>
   </g>
   <g id="patch_10">
    <path d="M 174.96 384.48 
L 187.134545 384.48 
L 187.134545 384.48 
L 174.96 384.48 
z
" clip-path="url(#pf68cac0935)" style="fill: #0088ed; opacity: 0.4"/>
   </g>
   <g id="patch_11">
    <path d="M 187.134545 384.48 
L 199.309091 384.48 
L 199.309091 384.48 
L 187.134545 384.48 
z
" clip-path="url(#pf68cac0935)" style="fill: #0088ed; opacity: 0.4"/>
   </g>
   <g id="patch_12">
    <path d="M 199.309091 384.48 
L 211.483636 384.48 
L 211.483636 384.48 
L 199.309091 384.48 
z
" clip-path="url(#pf68cac0935)" style="fill: #0088ed; opacity: 0.4"/>
   </g>
   <g id="patch_13">
    <path d="M 211.483636 384.48 
L 223.658182 384.48 
L 223.658182 384.079044 
L 211.483636 384.079044 
z
" clip-path="url(#pf68cac0935)" style="fill: #0088ed; opacity: 0.4"/>
   </g>
   <g id="patch_14">
    <path d="M 223.658182 384.48 
L 235.832727 384.48 
L 235.832727 384.48 
L 223.658182 384.48 
z
" clip-path="url(#pf68cac0935)" style="fill: #0088ed; opacity: 0.4"/>
   </g>
   <g id="patch_15">
    <path d="M 235.832727 384.48 
L 248.007273 384.48 
L 248.007273 384.48 
L 235.832727 384.48 
z
" clip-path="url(#pf68cac0935)" style="fill: #0088ed; opacity: 0.4"/>
   </g>
   <g id="patch_16">
    <path d="M 248.007273 384.48 
L 260.181818 384.48 
L 260.181818 384.48 
L 248.007273 384.48 
z
" clip-path="url(#pf68cac0935)" style="fill: #0088ed; opacity: 0.4"/>
   </g>
   <g id="patch_17">
    <path d="M 260.181818 384.48 
L 272.356364 384.48 
L 272.356364 384.48 
L 260.181818 384.48 
z
" clip-path="url(#pf68cac0935)" style="fill: #0088ed; opacity: 0.4"/>
   </g>
   <g id="patch_18">
    <path d="M 272.356364 384.48 
L 284.530909 384.48 
L 284.530909 384.48 
L 272.356364 384.48 
z
" clip-path="url(#pf68cac0935)" style="fill: #0088ed; opacity: 0.4"/>
   </g>
   <g id="patch_19">
    <path d="M 284.530909 384.48 
L 296.705455 384.48 
L 296.705455 384.48 
L 284.530909 384.48 
z
" clip-path="url(#pf68cac0935)" style="fill: #0088ed; opacity: 0.4"/>
   </g>
   <g id="patch_20">
    <path d="M 296.705455 384.48 
L 308.88 384.48 
L 308.88 384.48 
L 296.705455 384.48 
z
" clip-path="url(#pf68cac0935)" style="fill: #0088ed; opacity: 0.4"/>
   </g>
   <g id="patch_21">
    <path d="M 308.88 384.48 
L 321.054545 384.48 
L 321.054545 384.48 
L 308.88 384.48 
z
" clip-path="url(#pf68cac0935)" style="fill: #0088ed; opacity: 0.4"/>
   </g>
   <g id="patch_22">
    <path d="M 321.054545 384.48 
L 333.229091 384.48 
L 333.229091 384.48 
L 321.054545 384.48 
z
" clip-path="url(#pf68cac0935)" style="fill: #0088ed; opacity: 0.4"/>
   </g>
   <g id="patch_23">
    <path d="M 333.229091 384.48 
L 345.403636 384.48 
L 345.403636 384.48 
L 333.229091 384.48 
z
" clip-path="url(#pf68cac0935)" style="fill: #0088ed; opacity: 0.4"/>
   </g>
   <g id="patch_24">
    <path d="M 345.403636 384.48 
L 357.578182 384.48 
L 357.578182 384.48 
L 345.403636 384.48 
z
" clip-path="url(#pf68cac0935)" style="fill: #0088ed; opacity: 0.4"/>
   </g>
   <g id="patch_25">
    <path d="M 357.578182 384.48 
L 369.752727 384.48 
L 369.752727 384.48 
L 357.578182 384.48 
z
" clip-path="url(#pf68cac0935)" style="fill: #0088ed; opacity: 0.4"/>
   </g>
   <g id="patch_26">
    <path d="M 369.752727 384.48 
L 381.927273 384.48 
L 381.927273 384.48 
L 369.752727 384.48 
z
" clip-path="url(#pf68cac0935)" style="fill: #0088ed; opacity: 0.4"/>
   </g>
   <g id="patch_27">
    <path d="M 381.927273 384.48 
L 394.101818 384.48 
L 394.101818 384.48 
L 381.927273 384.48 
z
" clip-path="url(#pf68cac0935)" style="fill: #0088ed; opacity: 0.4"/>
   </g>
   <g id="patch_28">
    <path d="M 394.101818 384.48 
L 406.276364 384.48 
L 406.276364 384.48 
L 394.101818 384.48 
z
" clip-path="url(#pf68cac0935)" style="fill: #0088ed; opacity: 0.4"/>
   </g>
   <g id="patch_29">
    <path d="M 406.276364 384.48 
L 418.450909 384.48 
L 418.450909 384.48 
L 406.276364 384.48 
z
" clip-path="url(#pf68cac0935)" style="fill: #0088ed; opacity: 0.4"/>
   </g>
   <g id="patch_30">
    <path d="M 418.450909 384.48 
L 430.625455 384.48 
L 430.625455 384.48 
L 418.450909 384.48 
z
" clip-path="url(#pf68cac0935)" style="fill: #0088ed; opacity: 0.4"/>
   </g>
   <g id="patch_31">
    <path d="M 430.625455 384.48 
L 442.8 384.48 
L 442.8 384.48 
L 430.625455 384.48 
z
" clip-path="url(#pf68cac0935)" style="fill: #0088ed; opacity: 0.4"/>
   </g>
   <g id="patch_32">
    <path d="M 442.8 384.48 
L 454.974545 384.48 
L 454.974545 384.48 
L 442.8 384.48 
z
" clip-path="url(#pf68cac0935)" style="fill: #0088ed; opacity: 0.4"/>
   </g>
   <g id="patch_33">
    <path d="M 454.974545 384.48 
L 467.149091 384.48 
L 467.149091 384.48 
L 454.974545 384.48 
z
" clip-path="url(#pf68cac0935)" style="fill: #0088ed; opacity: 0.4"/>
   </g>
   <g id="patch_34">
    <path d="M 467.149091 384.48 
L 479.323636 384.48 
L 479.323636 384.48 
L 467.149091 384.48 
z
" clip-path="url(#pf68cac0935)" style="fill: #0088ed; opacity: 0.4"/>
   </g>
   <g id="patch_35">
    <path d="M 479.323636 384.48 
L 491.498182 384.48 
L 491.498182 384.48 
L 479.323636 384.48 
z
" clip-path="url(#pf68cac0935)" style="fill: #0088ed; opacity: 0.4"/>
   </g>
   <g id="patch_36">
    <path d="M 491.498182 384.48 
L 503.672727 384.48 
L 503.672727 384.48 
L 491.498182 384.48 
z
" clip-path="url(#pf68cac0935)" style="fill: #0088ed; opacity: 0.4"/>
   </g>
   <g id="patch_37">
    <path d="M 503.672727 384.48 
L 515.847273 384.48 
L 515.847273 384.48 
L 503.672727 384.48 
z
" clip-path="url(#pf68cac0935)" style="fill: #0088ed; opacity: 0.4"/>
   </g>
   <g id="patch_38">
    <path d="M 515.847273 384.48 
L 528.021818 384.48 
L 528.021818 384.48 
L 515.847273 384.48 
z
" clip-path="url(#pf68cac0935)" style="fill: #0088ed; opacity: 0.4"/>
   </g>
   <g id="patch_39">
    <path d="M 528.021818 384.48 
L 540.196364 384.48 
L 540.196364 384.48 
L 528.021818 384.48 
z
" clip-path="url(#pf68cac0935)" style="fill: #0088ed; opacity: 0.4"/>
   </g>
   <g id="patch_40">
    <path d="M 540.196364 384.48 
L 552.370909 384.48 
L 552.370909 375.408221 
L 540.196364 375.408221 
z
" clip-path="url(#pf68cac0935)" style="fill: #0088ed; opacity: 0.4"/>
   </g>
   <g id="patch_41">
    <path d="M 552.370909 384.48 
L 564.545455 384.48 
L 564.545455 310.851894 
L 552.370909 310.851894 
z
" clip-path="url(#pf68cac0935)" style="fill: #0088ed; opacity: 0.4"/>
   </g>
   <g id="patch_42">
    <path d="M 564.545455 384.48 
L 576.72 384.48 
L 576.72 384.48 
L 564.545455 384.48 
z
" clip-path="url(#pf68cac0935)" style="fill: #0088ed; opacity: 0.4"/>
   </g>
   <g id="patch_43">
    <path d="M 576.72 384.48 
L 588.894545 384.48 
L 588.894545 384.48 
L 576.72 384.48 
z
" clip-path="url(#pf68cac0935)" style="fill: #0088ed; opacity: 0.4"/>
   </g>
   <g id="patch_44">
    <path d="M 588.894545 384.48 
L 601.069091 384.48 
L 601.069091 384.48 
L 588.894545 384.48 
z
" clip-path="url(#pf68cac0935)" style="fill: #0088ed; opacity: 0.4"/>
   </g>
   <g id="patch_45">
    <path d="M 601.069091 384.48 
L 613.243636 384.48 
L 613.243636 384.48 
L 601.069091 384.48 
z
" clip-path="url(#pf68cac0935)" style="fill: #0088ed; opacity: 0.4"/>
   </g>
   <g id="patch_46">
    <path d="M 613.243636 384.48 
L 625.418182 384.48 
L 625.418182 384.16505 
L 613.243636 384.16505 
z
" clip-path="url(#pf68cac0935)" style="fill: #0088ed; opacity: 0.4"/>
   </g>
   <g id="patch_47">
    <path d="M 625.418182 384.48 
L 637.592727 384.48 
L 637.592727 384.48 
L 625.418182 384.48 
z
" clip-path="url(#pf68cac0935)" style="fill: #0088ed; opacity: 0.4"/>
   </g>
   <g id="patch_48">
    <path d="M 637.592727 384.48 
L 649.767273 384.48 
L 649.767273 384.48 
L 637.592727 384.48 
z
" clip-path="url(#pf68cac0935)" style="fill: #0088ed; opacity: 0.4"/>
   </g>
   <g id="patch_49">
    <path d="M 649.767273 384.48 
L 661.941818 384.48 
L 661.941818 384.48 
L 649.767273 384.48 
z
" clip-path="url(#pf68cac0935)" style="fill: #0088ed; opacity: 0.4"/>
   </g>
   <g id="patch_50">
    <path d="M 661.941818 384.48 
L 674.116364 384.48 
L 674.116364 384.48 
L 661.941818 384.48 
z
" clip-path="url(#pf68cac0935)" style="fill: #0088ed; opacity: 0.4"/>
   </g>
   <g id="patch_51">
    <path d="M 674.116364 384.48 
L 686.290909 384.48 
L 686.290909 384.48 
L 674.116364 384.48 
z
" clip-path="url(#pf68cac0935)" style="fill: #0088ed; opacity: 0.4"/>
   </g>
   <g id="patch_52">
    <path d="M 686.290909 384.48 
L 698.465455 384.48 
L 698.465455 384.48 
L 686.290909 384.48 
z
" clip-path="url(#pf68cac0935)" style="fill: #0088ed; opacity: 0.4"/>
   </g>
   <g id="patch_53">
    <path d="M 698.465455 384.48 
L 710.64 384.48 
L 710.64 384.48 
L 698.465455 384.48 
z
" clip-path="url(#pf68cac0935)" style="fill: #0088ed; opacity: 0.4"/>
   </g>
   <g id="patch_54">
    <path d="M 710.64 384.48 
L 722.814545 384.48 
L 722.814545 384.48 
L 710.64 384.48 
z
" clip-path="url(#pf68cac0935)" style="fill: #0088ed; opacity: 0.4"/>
   </g>
   <g id="patch_55">
    <path d="M 722.814545 384.48 
L 734.989091 384.48 
L 734.989091 384.48 
L 722.814545 384.48 
z
" clip-path="url(#pf68cac0935)" style="fill: #0088ed; opacity: 0.4"/>
   </g>
   <g id="patch_56">
    <path d="M 734.989091 384.48 
L 747.163636 384.48 
L 747.163636 353.236933 
L 734.989091 353.236933 
z
" clip-path="url(#pf68cac0935)" style="fill: #0088ed; opacity: 0.4"/>
   </g>
   <g id="matplotlib.axis_3">
    <g id="ytick_7">
     <g id="line2d_14">
      <defs>
       <path id="m21dfb18ceb" d="M 0 0 
L 3.5 0 
" style="stroke: #58544f; stroke-width: 0.8"/>
      </defs>
      <g>
       <use xlink:href="#m21dfb18ceb" x="777.6" y="384.48" style="fill: #58544f; stroke: #58544f; stroke-width: 0.8"/>
      </g>
     </g>
     <g id="text_15">
      <!-- 0 -->
      <g style="fill: #58544f" transform="translate(784.6 387.12875) scale(0.08 -0.08)">
       <use xlink:href="#TimesNewRomanPS-BoldMT-30"/>
      </g>
     </g>
    </g>
    <g id="ytick_8">
     <g id="line2d_15">
      <g>
       <use xlink:href="#m21dfb18ceb" x="777.6" y="323.91264" style="fill: #58544f; stroke: #58544f; stroke-width: 0.8"/>
      </g>
     </g>
     <g id="text_16">
      <!-- 50000 -->
      <g style="fill: #58544f" transform="translate(784.6 326.56139) scale(0.08 -0.08)">
       <use xlink:href="#TimesNewRomanPS-BoldMT-35"/>
       <use xlink:href="#TimesNewRomanPS-BoldMT-30" x="50"/>
       <use xlink:href="#TimesNewRomanPS-BoldMT-30" x="100"/>
       <use xlink:href="#TimesNewRomanPS-BoldMT-30" x="150"/>
       <use xlink:href="#TimesNewRomanPS-BoldMT-30" x="200"/>
      </g>
     </g>
    </g>
    <g id="ytick_9">
     <g id="line2d_16">
      <g>
       <use xlink:href="#m21dfb18ceb" x="777.6" y="263.34528" style="fill: #58544f; stroke: #58544f; stroke-width: 0.8"/>
      </g>
     </g>
     <g id="text_17">
      <!-- 100000 -->
      <g style="fill: #58544f" transform="translate(784.6 265.99403) scale(0.08 -0.08)">
       <use xlink:href="#TimesNewRomanPS-BoldMT-31"/>
       <use xlink:href="#TimesNewRomanPS-BoldMT-30" x="50"/>
       <use xlink:href="#TimesNewRomanPS-BoldMT-30" x="100"/>
       <use xlink:href="#TimesNewRomanPS-BoldMT-30" x="150"/>
       <use xlink:href="#TimesNewRomanPS-BoldMT-30" x="200"/>
       <use xlink:href="#TimesNewRomanPS-BoldMT-30" x="250"/>
      </g>
     </g>
    </g>
    <g id="ytick_10">
     <g id="line2d_17">
      <g>
       <use xlink:href="#m21dfb18ceb" x="777.6" y="202.77792" style="fill: #58544f; stroke: #58544f; stroke-width: 0.8"/>
      </g>
     </g>
     <g id="text_18">
      <!-- 150000 -->
      <g style="fill: #58544f" transform="translate(784.6 205.42667) scale(0.08 -0.08)">
       <use xlink:href="#TimesNewRomanPS-BoldMT-31"/>
       <use xlink:href="#TimesNewRomanPS-BoldMT-35" x="50"/>
       <use xlink:href="#TimesNewRomanPS-BoldMT-30" x="100"/>
       <use xlink:href="#TimesNewRomanPS-BoldMT-30" x="150"/>
       <use xlink:href="#TimesNewRomanPS-BoldMT-30" x="200"/>
       <use xlink:href="#TimesNewRomanPS-BoldMT-30" x="250"/>
      </g>
     </g>
    </g>
    <g id="ytick_11">
     <g id="line2d_18">
      <g>
       <use xlink:href="#m21dfb18ceb" x="777.6" y="142.210559" style="fill: #58544f; stroke: #58544f; stroke-width: 0.8"/>
      </g>
     </g>
     <g id="text_19">
      <!-- 200000 -->
      <g style="fill: #58544f" transform="translate(784.6 144.859309) scale(0.08 -0.08)">
       <use xlink:href="#TimesNewRomanPS-BoldMT-32"/>
       <use xlink:href="#TimesNewRomanPS-BoldMT-30" x="50"/>
       <use xlink:href="#TimesNewRomanPS-BoldMT-30" x="100"/>
       <use xlink:href="#TimesNewRomanPS-BoldMT-30" x="150"/>
       <use xlink:href="#TimesNewRomanPS-BoldMT-30" x="200"/>
       <use xlink:href="#TimesNewRomanPS-BoldMT-30" x="250"/>
      </g>
     </g>
    </g>
    <g id="ytick_12">
     <g id="line2d_19">
      <g>
       <use xlink:href="#m21dfb18ceb" x="777.6" y="81.643199" style="fill: #58544f; stroke: #58544f; stroke-width: 0.8"/>
      </g>
     </g>
     <g id="text_20">
      <!-- 250000 -->
      <g style="fill: #58544f" transform="translate(784.6 84.291949) scale(0.08 -0.08)">
       <use xlink:href="#TimesNewRomanPS-BoldMT-32"/>
       <use xlink:href="#TimesNewRomanPS-BoldMT-35" x="50"/>
       <use xlink:href="#TimesNewRomanPS-BoldMT-30" x="100"/>
       <use xlink:href="#TimesNewRomanPS-BoldMT-30" x="150"/>
       <use xlink:href="#TimesNewRomanPS-BoldMT-30" x="200"/>
       <use xlink:href="#TimesNewRomanPS-BoldMT-30" x="250"/>
      </g>
     </g>
    </g>
    <g id="text_21">
     <!-- Distribution of WZ_Length -->
     <g style="fill: #58544f" transform="translate(826.71 306.44875) rotate(-90) scale(0.16 -0.16)">
      <defs>
       <path id="TimesNewRomanPSMT-44" d="M 109 0 
L 109 116 
L 269 116 
Q 538 116 650 288 
Q 719 391 719 750 
L 719 3488 
Q 719 3884 631 3984 
Q 509 4122 269 4122 
L 109 4122 
L 109 4238 
L 1834 4238 
Q 2784 4238 3279 4022 
Q 3775 3806 4076 3303 
Q 4378 2800 4378 2141 
Q 4378 1256 3841 663 
Q 3238 0 2003 0 
L 109 0 
z
M 1319 306 
Q 1716 219 1984 219 
Q 2709 219 3187 728 
Q 3666 1238 3666 2109 
Q 3666 2988 3187 3494 
Q 2709 4000 1959 4000 
Q 1678 4000 1319 3909 
L 1319 306 
z
" transform="scale(0.015625)"/>
       <path id="TimesNewRomanPSMT-62" d="M 984 2369 
Q 1400 2947 1881 2947 
Q 2322 2947 2650 2570 
Q 2978 2194 2978 1541 
Q 2978 778 2472 313 
Q 2038 -88 1503 -88 
Q 1253 -88 995 3 
Q 738 94 469 275 
L 469 3241 
Q 469 3728 445 3840 
Q 422 3953 372 3993 
Q 322 4034 247 4034 
Q 159 4034 28 3984 
L -16 4094 
L 844 4444 
L 984 4444 
L 984 2369 
z
M 984 2169 
L 984 456 
Q 1144 300 1314 220 
Q 1484 141 1663 141 
Q 1947 141 2192 453 
Q 2438 766 2438 1363 
Q 2438 1913 2192 2208 
Q 1947 2503 1634 2503 
Q 1469 2503 1303 2419 
Q 1178 2356 984 2169 
z
" transform="scale(0.015625)"/>
       <path id="TimesNewRomanPSMT-20" transform="scale(0.015625)"/>
       <path id="TimesNewRomanPSMT-66" d="M 1319 2638 
L 1319 756 
Q 1319 356 1406 250 
Q 1522 113 1716 113 
L 1975 113 
L 1975 0 
L 266 0 
L 266 113 
L 394 113 
Q 519 113 622 175 
Q 725 238 764 344 
Q 803 450 803 756 
L 803 2638 
L 247 2638 
L 247 2863 
L 803 2863 
L 803 3050 
Q 803 3478 940 3775 
Q 1078 4072 1361 4255 
Q 1644 4438 1997 4438 
Q 2325 4438 2600 4225 
Q 2781 4084 2781 3909 
Q 2781 3816 2700 3733 
Q 2619 3650 2525 3650 
Q 2453 3650 2373 3701 
Q 2294 3753 2178 3923 
Q 2063 4094 1966 4153 
Q 1869 4213 1750 4213 
Q 1606 4213 1506 4136 
Q 1406 4059 1362 3898 
Q 1319 3738 1319 3069 
L 1319 2863 
L 2056 2863 
L 2056 2638 
L 1319 2638 
z
" transform="scale(0.015625)"/>
      </defs>
      <use xlink:href="#TimesNewRomanPSMT-44"/>
      <use xlink:href="#TimesNewRomanPSMT-69" x="72.216797"/>
      <use xlink:href="#TimesNewRomanPSMT-73" x="100"/>
      <use xlink:href="#TimesNewRomanPSMT-74" x="138.916016"/>
      <use xlink:href="#TimesNewRomanPSMT-72" x="166.699219"/>
      <use xlink:href="#TimesNewRomanPSMT-69" x="200"/>
      <use xlink:href="#TimesNewRomanPSMT-62" x="227.783203"/>
      <use xlink:href="#TimesNewRomanPSMT-75" x="277.783203"/>
      <use xlink:href="#TimesNewRomanPSMT-74" x="327.783203"/>
      <use xlink:href="#TimesNewRomanPSMT-69" x="355.566406"/>
      <use xlink:href="#TimesNewRomanPSMT-6f" x="383.349609"/>
      <use xlink:href="#TimesNewRomanPSMT-6e" x="433.349609"/>
      <use xlink:href="#TimesNewRomanPSMT-20" x="483.349609"/>
      <use xlink:href="#TimesNewRomanPSMT-6f" x="508.349609"/>
      <use xlink:href="#TimesNewRomanPSMT-66" x="558.349609"/>
      <use xlink:href="#TimesNewRomanPSMT-20" x="591.650391"/>
      <use xlink:href="#TimesNewRomanPSMT-57" x="614.900391"/>
      <use xlink:href="#TimesNewRomanPSMT-5a" x="709.285156"/>
      <use xlink:href="#TimesNewRomanPSMT-5f" x="770.369141"/>
      <use xlink:href="#TimesNewRomanPSMT-4c" x="820.369141"/>
      <use xlink:href="#TimesNewRomanPSMT-65" x="881.453125"/>
      <use xlink:href="#TimesNewRomanPSMT-6e" x="925.837891"/>
      <use xlink:href="#TimesNewRomanPSMT-67" x="975.837891"/>
      <use xlink:href="#TimesNewRomanPSMT-74" x="1025.837891"/>
      <use xlink:href="#TimesNewRomanPSMT-68" x="1053.621094"/>
     </g>
    </g>
   </g>
   <g id="patch_57">
    <path d="M 108 384.48 
L 108 51.84 
" style="fill: none; stroke: #58544f; stroke-width: 0.8; stroke-linejoin: miter; stroke-linecap: square"/>
   </g>
   <g id="patch_58">
    <path d="M 777.6 384.48 
L 777.6 51.84 
" style="fill: none; stroke: #58544f; stroke-width: 0.8; stroke-linejoin: miter; stroke-linecap: square"/>
   </g>
   <g id="patch_59">
    <path d="M 108 384.48 
L 777.6 384.48 
" style="fill: none; stroke: #58544f; stroke-width: 0.8; stroke-linejoin: miter; stroke-linecap: square"/>
   </g>
   <g id="patch_60">
    <path d="M 108 51.84 
L 777.6 51.84 
" style="fill: none; stroke: #58544f; stroke-width: 0.8; stroke-linejoin: miter; stroke-linecap: square"/>
   </g>
   <g id="text_22">
    <!-- Impact of WZ_Length on UnderConstructionTime -->
    <g style="fill: #262626" transform="translate(301.26 38.84) scale(0.14 -0.14)">
     <defs>
      <path id="TimesNewRomanPSMT-49" d="M 1975 116 
L 1975 0 
L 159 0 
L 159 116 
L 309 116 
Q 572 116 691 269 
Q 766 369 766 750 
L 766 3488 
Q 766 3809 725 3913 
Q 694 3991 597 4047 
Q 459 4122 309 4122 
L 159 4122 
L 159 4238 
L 1975 4238 
L 1975 4122 
L 1822 4122 
Q 1563 4122 1444 3969 
Q 1366 3869 1366 3488 
L 1366 750 
Q 1366 428 1406 325 
Q 1438 247 1538 191 
Q 1672 116 1822 116 
L 1975 116 
z
" transform="scale(0.015625)"/>
      <path id="TimesNewRomanPSMT-70" d="M -6 2578 
L 875 2934 
L 994 2934 
L 994 2266 
Q 1216 2644 1439 2795 
Q 1663 2947 1909 2947 
Q 2341 2947 2628 2609 
Q 2981 2197 2981 1534 
Q 2981 794 2556 309 
Q 2206 -88 1675 -88 
Q 1444 -88 1275 -22 
Q 1150 25 994 166 
L 994 -706 
Q 994 -1000 1030 -1079 
Q 1066 -1159 1155 -1206 
Q 1244 -1253 1478 -1253 
L 1478 -1369 
L -22 -1369 
L -22 -1253 
L 56 -1253 
Q 228 -1256 350 -1188 
Q 409 -1153 442 -1076 
Q 475 -1000 475 -688 
L 475 2019 
Q 475 2297 450 2372 
Q 425 2447 370 2484 
Q 316 2522 222 2522 
Q 147 2522 31 2478 
L -6 2578 
z
M 994 2081 
L 994 1013 
Q 994 666 1022 556 
Q 1066 375 1236 237 
Q 1406 100 1666 100 
Q 1978 100 2172 344 
Q 2425 663 2425 1241 
Q 2425 1897 2138 2250 
Q 1938 2494 1663 2494 
Q 1513 2494 1366 2419 
Q 1253 2363 994 2081 
z
" transform="scale(0.015625)"/>
      <path id="TimesNewRomanPSMT-61" d="M 1822 413 
Q 1381 72 1269 19 
Q 1100 -59 909 -59 
Q 613 -59 420 144 
Q 228 347 228 678 
Q 228 888 322 1041 
Q 450 1253 767 1440 
Q 1084 1628 1822 1897 
L 1822 2009 
Q 1822 2438 1686 2597 
Q 1550 2756 1291 2756 
Q 1094 2756 978 2650 
Q 859 2544 859 2406 
L 866 2225 
Q 866 2081 792 2003 
Q 719 1925 600 1925 
Q 484 1925 411 2006 
Q 338 2088 338 2228 
Q 338 2497 613 2722 
Q 888 2947 1384 2947 
Q 1766 2947 2009 2819 
Q 2194 2722 2281 2516 
Q 2338 2381 2338 1966 
L 2338 994 
Q 2338 584 2353 492 
Q 2369 400 2405 369 
Q 2441 338 2488 338 
Q 2538 338 2575 359 
Q 2641 400 2828 588 
L 2828 413 
Q 2478 -56 2159 -56 
Q 2006 -56 1915 50 
Q 1825 156 1822 413 
z
M 1822 616 
L 1822 1706 
Q 1350 1519 1213 1441 
Q 966 1303 859 1153 
Q 753 1003 753 825 
Q 753 600 887 451 
Q 1022 303 1197 303 
Q 1434 303 1822 616 
z
" transform="scale(0.015625)"/>
     </defs>
     <use xlink:href="#TimesNewRomanPSMT-49"/>
     <use xlink:href="#TimesNewRomanPSMT-6d" x="33.300781"/>
     <use xlink:href="#TimesNewRomanPSMT-70" x="111.083984"/>
     <use xlink:href="#TimesNewRomanPSMT-61" x="161.083984"/>
     <use xlink:href="#TimesNewRomanPSMT-63" x="205.46875"/>
     <use xlink:href="#TimesNewRomanPSMT-74" x="249.853516"/>
     <use xlink:href="#TimesNewRomanPSMT-20" x="277.636719"/>
     <use xlink:href="#TimesNewRomanPSMT-6f" x="302.636719"/>
     <use xlink:href="#TimesNewRomanPSMT-66" x="352.636719"/>
     <use xlink:href="#TimesNewRomanPSMT-20" x="385.9375"/>
     <use xlink:href="#TimesNewRomanPSMT-57" x="409.1875"/>
     <use xlink:href="#TimesNewRomanPSMT-5a" x="503.572266"/>
     <use xlink:href="#TimesNewRomanPSMT-5f" x="564.65625"/>
     <use xlink:href="#TimesNewRomanPSMT-4c" x="614.65625"/>
     <use xlink:href="#TimesNewRomanPSMT-65" x="675.740234"/>
     <use xlink:href="#TimesNewRomanPSMT-6e" x="720.125"/>
     <use xlink:href="#TimesNewRomanPSMT-67" x="770.125"/>
     <use xlink:href="#TimesNewRomanPSMT-74" x="820.125"/>
     <use xlink:href="#TimesNewRomanPSMT-68" x="847.908203"/>
     <use xlink:href="#TimesNewRomanPSMT-20" x="897.908203"/>
     <use xlink:href="#TimesNewRomanPSMT-6f" x="922.908203"/>
     <use xlink:href="#TimesNewRomanPSMT-6e" x="972.908203"/>
     <use xlink:href="#TimesNewRomanPSMT-20" x="1022.908203"/>
     <use xlink:href="#TimesNewRomanPSMT-55" x="1047.908203"/>
     <use xlink:href="#TimesNewRomanPSMT-6e" x="1120.125"/>
     <use xlink:href="#TimesNewRomanPSMT-64" x="1170.125"/>
     <use xlink:href="#TimesNewRomanPSMT-65" x="1220.125"/>
     <use xlink:href="#TimesNewRomanPSMT-72" x="1264.509766"/>
     <use xlink:href="#TimesNewRomanPSMT-43" x="1297.810547"/>
     <use xlink:href="#TimesNewRomanPSMT-6f" x="1364.509766"/>
     <use xlink:href="#TimesNewRomanPSMT-6e" x="1414.509766"/>
     <use xlink:href="#TimesNewRomanPSMT-73" x="1464.509766"/>
     <use xlink:href="#TimesNewRomanPSMT-74" x="1503.425781"/>
     <use xlink:href="#TimesNewRomanPSMT-72" x="1531.208984"/>
     <use xlink:href="#TimesNewRomanPSMT-75" x="1564.509766"/>
     <use xlink:href="#TimesNewRomanPSMT-63" x="1614.509766"/>
     <use xlink:href="#TimesNewRomanPSMT-74" x="1658.894531"/>
     <use xlink:href="#TimesNewRomanPSMT-69" x="1686.677734"/>
     <use xlink:href="#TimesNewRomanPSMT-6f" x="1714.460938"/>
     <use xlink:href="#TimesNewRomanPSMT-6e" x="1764.460938"/>
     <use xlink:href="#TimesNewRomanPSMT-54" x="1814.460938"/>
     <use xlink:href="#TimesNewRomanPSMT-69" x="1872.044922"/>
     <use xlink:href="#TimesNewRomanPSMT-6d" x="1899.828125"/>
     <use xlink:href="#TimesNewRomanPSMT-65" x="1977.611328"/>
    </g>
   </g>
  </g>
 </g>
 <defs>
  <clipPath id="pf68cac0935">
   <rect x="108" y="51.84" width="669.6" height="332.64"/>
  </clipPath>
 </defs>
</svg>
