<?xml version="1.0" encoding="utf-8" standalone="no"?>
<!DOCTYPE svg PUBLIC "-//W3C//DTD SVG 1.1//EN"
  "http://www.w3.org/Graphics/SVG/1.1/DTD/svg11.dtd">
<svg xmlns:xlink="http://www.w3.org/1999/xlink" width="864pt" height="432pt" viewBox="0 0 864 432" xmlns="http://www.w3.org/2000/svg" version="1.1">
 <metadata>
  <rdf:RDF xmlns:dc="http://purl.org/dc/elements/1.1/" xmlns:cc="http://creativecommons.org/ns#" xmlns:rdf="http://www.w3.org/1999/02/22-rdf-syntax-ns#">
   <cc:Work>
    <dc:type rdf:resource="http://purl.org/dc/dcmitype/StillImage"/>
    <dc:date>2023-11-03T19:49:55.879695</dc:date>
    <dc:format>image/svg+xml</dc:format>
    <dc:creator>
     <cc:Agent>
      <dc:title>Matplotlib v3.7.2, https://matplotlib.org/</dc:title>
     </cc:Agent>
    </dc:creator>
   </cc:Work>
  </rdf:RDF>
 </metadata>
 <defs>
  <style type="text/css">*{stroke-linejoin: round; stroke-linecap: butt}</style>
 </defs>
 <g id="figure_1">
  <g id="patch_1">
   <path d="M 0 432 
L 864 432 
L 864 0 
L 0 0 
z
" style="fill: #ffffff"/>
  </g>
  <g id="axes_1">
   <g id="patch_2">
    <path d="M 47.269928 389.210385 
L 809.915073 389.210385 
L 809.915073 29.88774 
L 47.269928 29.88774 
z
" style="fill: #ffffff"/>
   </g>
   <g id="matplotlib.axis_1">
    <g id="xtick_1">
     <g id="line2d_1">
      <defs>
       <path id="m11977a1a97" d="M 0 0 
L 0 3.5 
" style="stroke: #58544f; stroke-width: 0.8"/>
      </defs>
      <g>
       <use xlink:href="#m11977a1a97" x="137.400717" y="389.210385" style="fill: #58544f; stroke: #58544f; stroke-width: 0.8"/>
      </g>
     </g>
     <g id="text_1">
      <!-- 90 -->
      <g style="fill: #58544f" transform="translate(130.400717 405.931635) scale(0.14 -0.14)">
       <defs>
        <path id="TimesNewRomanPSMT-39" d="M 338 -88 
L 338 28 
Q 744 34 1094 217 
Q 1444 400 1770 856 
Q 2097 1313 2225 1859 
Q 1734 1544 1338 1544 
Q 891 1544 572 1889 
Q 253 2234 253 2806 
Q 253 3363 572 3797 
Q 956 4325 1575 4325 
Q 2097 4325 2469 3894 
Q 2925 3359 2925 2575 
Q 2925 1869 2578 1258 
Q 2231 647 1613 244 
Q 1109 -88 516 -88 
L 338 -88 
z
M 2275 2091 
Q 2331 2497 2331 2741 
Q 2331 3044 2228 3395 
Q 2125 3747 1936 3934 
Q 1747 4122 1506 4122 
Q 1228 4122 1018 3872 
Q 809 3622 809 3128 
Q 809 2469 1088 2097 
Q 1291 1828 1588 1828 
Q 1731 1828 1928 1897 
Q 2125 1966 2275 2091 
z
" transform="scale(0.015625)"/>
        <path id="TimesNewRomanPSMT-30" d="M 231 2094 
Q 231 2819 450 3342 
Q 669 3866 1031 4122 
Q 1313 4325 1613 4325 
Q 2100 4325 2488 3828 
Q 2972 3213 2972 2159 
Q 2972 1422 2759 906 
Q 2547 391 2217 158 
Q 1888 -75 1581 -75 
Q 975 -75 572 641 
Q 231 1244 231 2094 
z
M 844 2016 
Q 844 1141 1059 588 
Q 1238 122 1591 122 
Q 1759 122 1940 273 
Q 2122 425 2216 781 
Q 2359 1319 2359 2297 
Q 2359 3022 2209 3506 
Q 2097 3866 1919 4016 
Q 1791 4119 1609 4119 
Q 1397 4119 1231 3928 
Q 1006 3669 925 3112 
Q 844 2556 844 2016 
z
" transform="scale(0.015625)"/>
       </defs>
       <use xlink:href="#TimesNewRomanPSMT-39"/>
       <use xlink:href="#TimesNewRomanPSMT-30" x="50"/>
      </g>
     </g>
    </g>
    <g id="xtick_2">
     <g id="line2d_2">
      <g>
       <use xlink:href="#m11977a1a97" x="229.842553" y="389.210385" style="fill: #58544f; stroke: #58544f; stroke-width: 0.8"/>
      </g>
     </g>
     <g id="text_2">
      <!-- 100 -->
      <g style="fill: #58544f" transform="translate(219.342553 405.931635) scale(0.14 -0.14)">
       <defs>
        <path id="TimesNewRomanPSMT-31" d="M 750 3822 
L 1781 4325 
L 1884 4325 
L 1884 747 
Q 1884 391 1914 303 
Q 1944 216 2037 169 
Q 2131 122 2419 116 
L 2419 0 
L 825 0 
L 825 116 
Q 1125 122 1212 167 
Q 1300 213 1334 289 
Q 1369 366 1369 747 
L 1369 3034 
Q 1369 3497 1338 3628 
Q 1316 3728 1258 3775 
Q 1200 3822 1119 3822 
Q 1003 3822 797 3725 
L 750 3822 
z
" transform="scale(0.015625)"/>
       </defs>
       <use xlink:href="#TimesNewRomanPSMT-31"/>
       <use xlink:href="#TimesNewRomanPSMT-30" x="50"/>
       <use xlink:href="#TimesNewRomanPSMT-30" x="100"/>
      </g>
     </g>
    </g>
    <g id="xtick_3">
     <g id="line2d_3">
      <g>
       <use xlink:href="#m11977a1a97" x="322.284389" y="389.210385" style="fill: #58544f; stroke: #58544f; stroke-width: 0.8"/>
      </g>
     </g>
     <g id="text_3">
      <!-- 110 -->
      <g style="fill: #58544f" transform="translate(312.046889 405.931635) scale(0.14 -0.14)">
       <use xlink:href="#TimesNewRomanPSMT-31"/>
       <use xlink:href="#TimesNewRomanPSMT-31" x="46.25"/>
       <use xlink:href="#TimesNewRomanPSMT-30" x="96.25"/>
      </g>
     </g>
    </g>
    <g id="xtick_4">
     <g id="line2d_4">
      <g>
       <use xlink:href="#m11977a1a97" x="414.726225" y="389.210385" style="fill: #58544f; stroke: #58544f; stroke-width: 0.8"/>
      </g>
     </g>
     <g id="text_4">
      <!-- 120 -->
      <g style="fill: #58544f" transform="translate(404.226225 405.931635) scale(0.14 -0.14)">
       <defs>
        <path id="TimesNewRomanPSMT-32" d="M 2934 816 
L 2638 0 
L 138 0 
L 138 116 
Q 1241 1122 1691 1759 
Q 2141 2397 2141 2925 
Q 2141 3328 1894 3587 
Q 1647 3847 1303 3847 
Q 991 3847 742 3664 
Q 494 3481 375 3128 
L 259 3128 
Q 338 3706 661 4015 
Q 984 4325 1469 4325 
Q 1984 4325 2329 3994 
Q 2675 3663 2675 3213 
Q 2675 2891 2525 2569 
Q 2294 2063 1775 1497 
Q 997 647 803 472 
L 1909 472 
Q 2247 472 2383 497 
Q 2519 522 2628 598 
Q 2738 675 2819 816 
L 2934 816 
z
" transform="scale(0.015625)"/>
       </defs>
       <use xlink:href="#TimesNewRomanPSMT-31"/>
       <use xlink:href="#TimesNewRomanPSMT-32" x="50"/>
       <use xlink:href="#TimesNewRomanPSMT-30" x="100"/>
      </g>
     </g>
    </g>
    <g id="xtick_5">
     <g id="line2d_5">
      <g>
       <use xlink:href="#m11977a1a97" x="507.16806" y="389.210385" style="fill: #58544f; stroke: #58544f; stroke-width: 0.8"/>
      </g>
     </g>
     <g id="text_5">
      <!-- 130 -->
      <g style="fill: #58544f" transform="translate(496.66806 405.931635) scale(0.14 -0.14)">
       <defs>
        <path id="TimesNewRomanPSMT-33" d="M 325 3431 
Q 506 3859 782 4092 
Q 1059 4325 1472 4325 
Q 1981 4325 2253 3994 
Q 2459 3747 2459 3466 
Q 2459 3003 1878 2509 
Q 2269 2356 2469 2072 
Q 2669 1788 2669 1403 
Q 2669 853 2319 450 
Q 1863 -75 997 -75 
Q 569 -75 414 31 
Q 259 138 259 259 
Q 259 350 332 419 
Q 406 488 509 488 
Q 588 488 669 463 
Q 722 447 909 348 
Q 1097 250 1169 231 
Q 1284 197 1416 197 
Q 1734 197 1970 444 
Q 2206 691 2206 1028 
Q 2206 1275 2097 1509 
Q 2016 1684 1919 1775 
Q 1784 1900 1550 2001 
Q 1316 2103 1072 2103 
L 972 2103 
L 972 2197 
Q 1219 2228 1467 2375 
Q 1716 2522 1828 2728 
Q 1941 2934 1941 3181 
Q 1941 3503 1739 3701 
Q 1538 3900 1238 3900 
Q 753 3900 428 3381 
L 325 3431 
z
" transform="scale(0.015625)"/>
       </defs>
       <use xlink:href="#TimesNewRomanPSMT-31"/>
       <use xlink:href="#TimesNewRomanPSMT-33" x="50"/>
       <use xlink:href="#TimesNewRomanPSMT-30" x="100"/>
      </g>
     </g>
    </g>
    <g id="xtick_6">
     <g id="line2d_6">
      <g>
       <use xlink:href="#m11977a1a97" x="599.609896" y="389.210385" style="fill: #58544f; stroke: #58544f; stroke-width: 0.8"/>
      </g>
     </g>
     <g id="text_6">
      <!-- 140 -->
      <g style="fill: #58544f" transform="translate(589.109896 405.931635) scale(0.14 -0.14)">
       <defs>
        <path id="TimesNewRomanPSMT-34" d="M 2978 1563 
L 2978 1119 
L 2409 1119 
L 2409 0 
L 1894 0 
L 1894 1119 
L 100 1119 
L 100 1519 
L 2066 4325 
L 2409 4325 
L 2409 1563 
L 2978 1563 
z
M 1894 1563 
L 1894 3666 
L 406 1563 
L 1894 1563 
z
" transform="scale(0.015625)"/>
       </defs>
       <use xlink:href="#TimesNewRomanPSMT-31"/>
       <use xlink:href="#TimesNewRomanPSMT-34" x="50"/>
       <use xlink:href="#TimesNewRomanPSMT-30" x="100"/>
      </g>
     </g>
    </g>
    <g id="xtick_7">
     <g id="line2d_7">
      <g>
       <use xlink:href="#m11977a1a97" x="692.051732" y="389.210385" style="fill: #58544f; stroke: #58544f; stroke-width: 0.8"/>
      </g>
     </g>
     <g id="text_7">
      <!-- 150 -->
      <g style="fill: #58544f" transform="translate(681.551732 405.931635) scale(0.14 -0.14)">
       <defs>
        <path id="TimesNewRomanPSMT-35" d="M 2778 4238 
L 2534 3706 
L 1259 3706 
L 981 3138 
Q 1809 3016 2294 2522 
Q 2709 2097 2709 1522 
Q 2709 1188 2573 903 
Q 2438 619 2231 419 
Q 2025 219 1772 97 
Q 1413 -75 1034 -75 
Q 653 -75 479 54 
Q 306 184 306 341 
Q 306 428 378 495 
Q 450 563 559 563 
Q 641 563 702 538 
Q 763 513 909 409 
Q 1144 247 1384 247 
Q 1750 247 2026 523 
Q 2303 800 2303 1197 
Q 2303 1581 2056 1914 
Q 1809 2247 1375 2428 
Q 1034 2569 447 2591 
L 1259 4238 
L 2778 4238 
z
" transform="scale(0.015625)"/>
       </defs>
       <use xlink:href="#TimesNewRomanPSMT-31"/>
       <use xlink:href="#TimesNewRomanPSMT-35" x="50"/>
       <use xlink:href="#TimesNewRomanPSMT-30" x="100"/>
      </g>
     </g>
    </g>
    <g id="xtick_8">
     <g id="line2d_8">
      <g>
       <use xlink:href="#m11977a1a97" x="784.493568" y="389.210385" style="fill: #58544f; stroke: #58544f; stroke-width: 0.8"/>
      </g>
     </g>
     <g id="text_8">
      <!-- 160 -->
      <g style="fill: #58544f" transform="translate(773.993568 405.931635) scale(0.14 -0.14)">
       <defs>
        <path id="TimesNewRomanPSMT-36" d="M 2869 4325 
L 2869 4209 
Q 2456 4169 2195 4045 
Q 1934 3922 1679 3669 
Q 1425 3416 1258 3105 
Q 1091 2794 978 2366 
Q 1428 2675 1881 2675 
Q 2316 2675 2634 2325 
Q 2953 1975 2953 1425 
Q 2953 894 2631 456 
Q 2244 -75 1606 -75 
Q 1172 -75 869 213 
Q 275 772 275 1663 
Q 275 2231 503 2743 
Q 731 3256 1154 3653 
Q 1578 4050 1965 4187 
Q 2353 4325 2688 4325 
L 2869 4325 
z
M 925 2138 
Q 869 1716 869 1456 
Q 869 1156 980 804 
Q 1091 453 1309 247 
Q 1469 100 1697 100 
Q 1969 100 2183 356 
Q 2397 613 2397 1088 
Q 2397 1622 2184 2012 
Q 1972 2403 1581 2403 
Q 1463 2403 1327 2353 
Q 1191 2303 925 2138 
z
" transform="scale(0.015625)"/>
       </defs>
       <use xlink:href="#TimesNewRomanPSMT-31"/>
       <use xlink:href="#TimesNewRomanPSMT-36" x="50"/>
       <use xlink:href="#TimesNewRomanPSMT-30" x="100"/>
      </g>
     </g>
    </g>
    <g id="text_9">
     <!-- Created Date: Day Of Year -->
     <g style="fill: #58544f" transform="translate(324.627031 425.115698) scale(0.18 -0.18)">
      <defs>
       <path id="TimesNewRomanPS-BoldMT-43" d="M 4272 4334 
L 4272 2866 
L 4150 2866 
Q 4013 3441 3638 3747 
Q 3263 4053 2788 4053 
Q 2391 4053 2059 3825 
Q 1728 3597 1575 3228 
Q 1378 2756 1378 2178 
Q 1378 1609 1522 1142 
Q 1666 675 1972 436 
Q 2278 197 2766 197 
Q 3166 197 3498 372 
Q 3831 547 4200 975 
L 4200 609 
Q 3844 238 3458 70 
Q 3072 -97 2556 -97 
Q 1878 -97 1351 175 
Q 825 447 539 956 
Q 253 1466 253 2041 
Q 253 2647 570 3190 
Q 888 3734 1427 4034 
Q 1966 4334 2572 4334 
Q 3019 4334 3516 4141 
Q 3803 4028 3881 4028 
Q 3981 4028 4054 4101 
Q 4128 4175 4150 4334 
L 4272 4334 
z
" transform="scale(0.015625)"/>
       <path id="TimesNewRomanPS-BoldMT-72" d="M 1428 2922 
L 1428 2259 
Q 1719 2713 1937 2861 
Q 2156 3009 2359 3009 
Q 2534 3009 2639 2901 
Q 2744 2794 2744 2597 
Q 2744 2388 2642 2272 
Q 2541 2156 2397 2156 
Q 2231 2156 2109 2262 
Q 1988 2369 1966 2381 
Q 1934 2400 1894 2400 
Q 1803 2400 1722 2331 
Q 1594 2225 1528 2028 
Q 1428 1725 1428 1359 
L 1428 688 
L 1431 513 
Q 1431 334 1453 284 
Q 1491 200 1564 161 
Q 1638 122 1813 113 
L 1813 0 
L 234 0 
L 234 113 
Q 425 128 492 217 
Q 559 306 559 688 
L 559 2303 
Q 559 2553 534 2622 
Q 503 2709 443 2750 
Q 384 2791 234 2806 
L 234 2922 
L 1428 2922 
z
" transform="scale(0.015625)"/>
       <path id="TimesNewRomanPS-BoldMT-65" d="M 2691 1566 
L 1088 1566 
Q 1116 984 1397 647 
Q 1613 388 1916 388 
Q 2103 388 2256 492 
Q 2409 597 2584 869 
L 2691 800 
Q 2453 316 2165 114 
Q 1878 -88 1500 -88 
Q 850 -88 516 413 
Q 247 816 247 1413 
Q 247 2144 642 2576 
Q 1038 3009 1569 3009 
Q 2013 3009 2339 2645 
Q 2666 2281 2691 1566 
z
M 1922 1775 
Q 1922 2278 1867 2465 
Q 1813 2653 1697 2750 
Q 1631 2806 1522 2806 
Q 1359 2806 1256 2647 
Q 1072 2369 1072 1884 
L 1072 1775 
L 1922 1775 
z
" transform="scale(0.015625)"/>
       <path id="TimesNewRomanPS-BoldMT-61" d="M 1828 431 
Q 1294 -41 869 -41 
Q 619 -41 453 123 
Q 288 288 288 534 
Q 288 869 575 1136 
Q 863 1403 1828 1847 
L 1828 2141 
Q 1828 2472 1792 2558 
Q 1756 2644 1656 2708 
Q 1556 2772 1431 2772 
Q 1228 2772 1097 2681 
Q 1016 2625 1016 2550 
Q 1016 2484 1103 2388 
Q 1222 2253 1222 2128 
Q 1222 1975 1108 1867 
Q 994 1759 809 1759 
Q 613 1759 480 1878 
Q 347 1997 347 2156 
Q 347 2381 525 2586 
Q 703 2791 1022 2900 
Q 1341 3009 1684 3009 
Q 2100 3009 2342 2832 
Q 2584 2656 2656 2450 
Q 2700 2319 2700 1847 
L 2700 713 
Q 2700 513 2715 461 
Q 2731 409 2762 384 
Q 2794 359 2834 359 
Q 2916 359 3000 475 
L 3094 400 
Q 2938 169 2770 64 
Q 2603 -41 2391 -41 
Q 2141 -41 2000 76 
Q 1859 194 1828 431 
z
M 1828 659 
L 1828 1638 
Q 1450 1416 1266 1163 
Q 1144 994 1144 822 
Q 1144 678 1247 569 
Q 1325 484 1466 484 
Q 1622 484 1828 659 
z
" transform="scale(0.015625)"/>
       <path id="TimesNewRomanPS-BoldMT-74" d="M 1375 3991 
L 1375 2922 
L 2069 2922 
L 2069 2613 
L 1375 2613 
L 1375 809 
Q 1375 556 1398 482 
Q 1422 409 1481 364 
Q 1541 319 1591 319 
Q 1794 319 1975 628 
L 2069 559 
Q 1816 -41 1247 -41 
Q 969 -41 776 114 
Q 584 269 531 459 
Q 500 566 500 1034 
L 500 2613 
L 119 2613 
L 119 2722 
Q 513 3000 789 3306 
Q 1066 3613 1272 3991 
L 1375 3991 
z
" transform="scale(0.015625)"/>
       <path id="TimesNewRomanPS-BoldMT-64" d="M 3056 4238 
L 3056 875 
Q 3056 534 3075 472 
Q 3100 369 3170 319 
Q 3241 269 3416 256 
L 3416 153 
L 2181 -88 
L 2181 375 
Q 1959 106 1786 9 
Q 1613 -88 1394 -88 
Q 834 -88 509 413 
Q 247 819 247 1409 
Q 247 1881 409 2254 
Q 572 2628 855 2818 
Q 1138 3009 1463 3009 
Q 1672 3009 1834 2928 
Q 1997 2847 2181 2644 
L 2181 3525 
Q 2181 3859 2153 3928 
Q 2116 4019 2041 4062 
Q 1966 4106 1759 4106 
L 1759 4238 
L 3056 4238 
z
M 2181 2256 
Q 1950 2700 1616 2700 
Q 1500 2700 1425 2638 
Q 1309 2541 1236 2297 
Q 1163 2053 1163 1550 
Q 1163 997 1244 731 
Q 1325 466 1466 347 
Q 1538 288 1663 288 
Q 1938 288 2181 719 
L 2181 2256 
z
" transform="scale(0.015625)"/>
       <path id="TimesNewRomanPS-BoldMT-20" transform="scale(0.015625)"/>
       <path id="TimesNewRomanPS-BoldMT-44" d="M 84 0 
L 84 116 
L 225 116 
Q 409 116 507 173 
Q 606 231 653 331 
Q 681 397 681 725 
L 681 3513 
Q 681 3838 647 3919 
Q 613 4000 508 4061 
Q 403 4122 225 4122 
L 84 4122 
L 84 4238 
L 1981 4238 
Q 2741 4238 3203 4031 
Q 3769 3778 4061 3265 
Q 4353 2753 4353 2106 
Q 4353 1659 4209 1282 
Q 4066 906 3837 661 
Q 3609 416 3311 267 
Q 3013 119 2581 38 
Q 2391 0 1981 0 
L 84 0 
z
M 1700 3997 
L 1700 691 
Q 1700 428 1725 368 
Q 1750 309 1809 278 
Q 1894 231 2053 231 
Q 2575 231 2850 588 
Q 3225 1069 3225 2081 
Q 3225 2897 2969 3384 
Q 2766 3766 2447 3903 
Q 2222 4000 1700 3997 
z
" transform="scale(0.015625)"/>
       <path id="TimesNewRomanPS-BoldMT-3a" d="M 1069 3006 
Q 1284 3006 1436 2854 
Q 1588 2703 1588 2488 
Q 1588 2272 1436 2120 
Q 1284 1969 1069 1969 
Q 853 1969 701 2120 
Q 550 2272 550 2488 
Q 550 2703 701 2854 
Q 853 3006 1069 3006 
z
M 1066 963 
Q 1284 963 1436 809 
Q 1588 656 1588 441 
Q 1588 225 1434 73 
Q 1281 -78 1066 -78 
Q 850 -78 698 73 
Q 547 225 547 441 
Q 547 656 698 809 
Q 850 963 1066 963 
z
" transform="scale(0.015625)"/>
       <path id="TimesNewRomanPS-BoldMT-79" d="M 1556 -119 
L 613 2047 
Q 400 2538 298 2650 
Q 197 2763 53 2806 
L 53 2922 
L 1606 2922 
L 1606 2806 
Q 1453 2800 1390 2747 
Q 1328 2694 1328 2619 
Q 1328 2500 1484 2150 
L 1984 1006 
L 2325 1891 
Q 2509 2363 2509 2547 
Q 2509 2663 2432 2731 
Q 2356 2800 2163 2806 
L 2163 2922 
L 3141 2922 
L 3141 2806 
Q 2997 2791 2906 2695 
Q 2816 2600 2603 2047 
L 1769 -119 
Q 1453 -931 1300 -1119 
Q 1084 -1381 759 -1381 
Q 500 -1381 339 -1232 
Q 178 -1084 178 -875 
Q 178 -694 289 -575 
Q 400 -456 563 -456 
Q 719 -456 814 -556 
Q 909 -656 913 -866 
Q 916 -984 941 -1019 
Q 966 -1053 1013 -1053 
Q 1088 -1053 1172 -963 
Q 1297 -831 1466 -363 
L 1556 -119 
z
" transform="scale(0.015625)"/>
       <path id="TimesNewRomanPS-BoldMT-4f" d="M 2472 4297 
Q 3484 4334 4117 3706 
Q 4750 3078 4750 2134 
Q 4750 1328 4278 716 
Q 3653 -97 2513 -97 
Q 1369 -97 744 678 
Q 250 1291 250 2131 
Q 250 3075 892 3704 
Q 1534 4334 2472 4297 
z
M 2509 4097 
Q 1928 4097 1625 3503 
Q 1378 3016 1378 2103 
Q 1378 1019 1759 500 
Q 2025 138 2503 138 
Q 2825 138 3041 294 
Q 3316 494 3469 933 
Q 3622 1372 3622 2078 
Q 3622 2919 3465 3336 
Q 3309 3753 3067 3925 
Q 2825 4097 2509 4097 
z
" transform="scale(0.015625)"/>
       <path id="TimesNewRomanPS-BoldMT-66" d="M 1497 2616 
L 1497 588 
Q 1497 294 1559 219 
Q 1659 103 1928 113 
L 1928 0 
L 206 0 
L 206 113 
Q 403 116 486 158 
Q 569 200 600 275 
Q 631 350 631 588 
L 631 2616 
L 206 2616 
L 206 2922 
L 631 2922 
L 631 3138 
L 628 3284 
Q 628 3734 958 4034 
Q 1288 4334 1850 4334 
Q 2234 4334 2420 4190 
Q 2606 4047 2606 3872 
Q 2606 3731 2490 3628 
Q 2375 3525 2184 3525 
Q 2022 3525 1926 3609 
Q 1831 3694 1831 3797 
Q 1831 3825 1850 3913 
Q 1863 3966 1863 4013 
Q 1863 4078 1825 4109 
Q 1775 4156 1703 4156 
Q 1613 4156 1552 4081 
Q 1491 4006 1491 3841 
L 1497 3294 
L 1497 2922 
L 1928 2922 
L 1928 2616 
L 1497 2616 
z
" transform="scale(0.015625)"/>
       <path id="TimesNewRomanPS-BoldMT-59" d="M 4550 4238 
L 4550 4122 
Q 4341 4094 4228 4000 
Q 4072 3869 3734 3284 
L 2816 1750 
L 2816 725 
Q 2816 397 2850 317 
Q 2884 238 2986 177 
Q 3088 116 3256 116 
L 3494 116 
L 3494 0 
L 1116 0 
L 1116 116 
L 1338 116 
Q 1525 116 1634 181 
Q 1716 225 1763 331 
Q 1797 406 1797 725 
L 1797 1575 
L 800 3391 
Q 503 3928 381 4023 
Q 259 4119 56 4122 
L 56 4238 
L 2088 4238 
L 2088 4122 
L 1997 4122 
Q 1813 4122 1739 4069 
Q 1666 4016 1666 3956 
Q 1666 3844 1916 3391 
L 2681 1988 
L 3444 3266 
Q 3728 3734 3728 3888 
Q 3728 3972 3647 4028 
Q 3541 4106 3256 4122 
L 3256 4238 
L 4550 4238 
z
" transform="scale(0.015625)"/>
      </defs>
      <use xlink:href="#TimesNewRomanPS-BoldMT-43"/>
      <use xlink:href="#TimesNewRomanPS-BoldMT-72" x="72.216797"/>
      <use xlink:href="#TimesNewRomanPS-BoldMT-65" x="114.851562"/>
      <use xlink:href="#TimesNewRomanPS-BoldMT-61" x="159.236328"/>
      <use xlink:href="#TimesNewRomanPS-BoldMT-74" x="209.236328"/>
      <use xlink:href="#TimesNewRomanPS-BoldMT-65" x="242.537109"/>
      <use xlink:href="#TimesNewRomanPS-BoldMT-64" x="286.921875"/>
      <use xlink:href="#TimesNewRomanPS-BoldMT-20" x="342.537109"/>
      <use xlink:href="#TimesNewRomanPS-BoldMT-44" x="367.537109"/>
      <use xlink:href="#TimesNewRomanPS-BoldMT-61" x="439.753906"/>
      <use xlink:href="#TimesNewRomanPS-BoldMT-74" x="489.753906"/>
      <use xlink:href="#TimesNewRomanPS-BoldMT-65" x="523.054688"/>
      <use xlink:href="#TimesNewRomanPS-BoldMT-3a" x="567.439453"/>
      <use xlink:href="#TimesNewRomanPS-BoldMT-20" x="600.740234"/>
      <use xlink:href="#TimesNewRomanPS-BoldMT-44" x="625.740234"/>
      <use xlink:href="#TimesNewRomanPS-BoldMT-61" x="697.957031"/>
      <use xlink:href="#TimesNewRomanPS-BoldMT-79" x="747.957031"/>
      <use xlink:href="#TimesNewRomanPS-BoldMT-20" x="797.957031"/>
      <use xlink:href="#TimesNewRomanPS-BoldMT-4f" x="822.957031"/>
      <use xlink:href="#TimesNewRomanPS-BoldMT-66" x="900.740234"/>
      <use xlink:href="#TimesNewRomanPS-BoldMT-20" x="934.041016"/>
      <use xlink:href="#TimesNewRomanPS-BoldMT-59" x="955.291016"/>
      <use xlink:href="#TimesNewRomanPS-BoldMT-65" x="1016.382812"/>
      <use xlink:href="#TimesNewRomanPS-BoldMT-61" x="1060.767578"/>
      <use xlink:href="#TimesNewRomanPS-BoldMT-72" x="1110.767578"/>
     </g>
    </g>
   </g>
   <g id="matplotlib.axis_2">
    <g id="ytick_1">
     <g id="line2d_9">
      <defs>
       <path id="mcc9977e689" d="M 0 0 
L -3.5 0 
" style="stroke: #ff0000; stroke-width: 0.8"/>
      </defs>
      <g>
       <use xlink:href="#mcc9977e689" x="47.269928" y="384.636014" style="fill: #ff0000; stroke: #ff0000; stroke-width: 0.8"/>
      </g>
     </g>
     <g id="text_10">
      <!-- 2.2 -->
      <g style="fill: #ff0000" transform="translate(22.769928 389.496639) scale(0.14 -0.14)">
       <defs>
        <path id="TimesNewRomanPSMT-2e" d="M 800 606 
Q 947 606 1047 504 
Q 1147 403 1147 259 
Q 1147 116 1045 14 
Q 944 -88 800 -88 
Q 656 -88 554 14 
Q 453 116 453 259 
Q 453 406 554 506 
Q 656 606 800 606 
z
" transform="scale(0.015625)"/>
       </defs>
       <use xlink:href="#TimesNewRomanPSMT-32"/>
       <use xlink:href="#TimesNewRomanPSMT-2e" x="50"/>
       <use xlink:href="#TimesNewRomanPSMT-32" x="75"/>
      </g>
     </g>
    </g>
    <g id="ytick_2">
     <g id="line2d_10">
      <g>
       <use xlink:href="#mcc9977e689" x="47.269928" y="337.962894" style="fill: #ff0000; stroke: #ff0000; stroke-width: 0.8"/>
      </g>
     </g>
     <g id="text_11">
      <!-- 2.3 -->
      <g style="fill: #ff0000" transform="translate(22.769928 342.823519) scale(0.14 -0.14)">
       <use xlink:href="#TimesNewRomanPSMT-32"/>
       <use xlink:href="#TimesNewRomanPSMT-2e" x="50"/>
       <use xlink:href="#TimesNewRomanPSMT-33" x="75"/>
      </g>
     </g>
    </g>
    <g id="ytick_3">
     <g id="line2d_11">
      <g>
       <use xlink:href="#mcc9977e689" x="47.269928" y="291.289774" style="fill: #ff0000; stroke: #ff0000; stroke-width: 0.8"/>
      </g>
     </g>
     <g id="text_12">
      <!-- 2.4 -->
      <g style="fill: #ff0000" transform="translate(22.769928 296.150399) scale(0.14 -0.14)">
       <use xlink:href="#TimesNewRomanPSMT-32"/>
       <use xlink:href="#TimesNewRomanPSMT-2e" x="50"/>
       <use xlink:href="#TimesNewRomanPSMT-34" x="75"/>
      </g>
     </g>
    </g>
    <g id="ytick_4">
     <g id="line2d_12">
      <g>
       <use xlink:href="#mcc9977e689" x="47.269928" y="244.616654" style="fill: #ff0000; stroke: #ff0000; stroke-width: 0.8"/>
      </g>
     </g>
     <g id="text_13">
      <!-- 2.5 -->
      <g style="fill: #ff0000" transform="translate(22.769928 249.477279) scale(0.14 -0.14)">
       <use xlink:href="#TimesNewRomanPSMT-32"/>
       <use xlink:href="#TimesNewRomanPSMT-2e" x="50"/>
       <use xlink:href="#TimesNewRomanPSMT-35" x="75"/>
      </g>
     </g>
    </g>
    <g id="ytick_5">
     <g id="line2d_13">
      <g>
       <use xlink:href="#mcc9977e689" x="47.269928" y="197.943533" style="fill: #ff0000; stroke: #ff0000; stroke-width: 0.8"/>
      </g>
     </g>
     <g id="text_14">
      <!-- 2.6 -->
      <g style="fill: #ff0000" transform="translate(22.769928 202.804158) scale(0.14 -0.14)">
       <use xlink:href="#TimesNewRomanPSMT-32"/>
       <use xlink:href="#TimesNewRomanPSMT-2e" x="50"/>
       <use xlink:href="#TimesNewRomanPSMT-36" x="75"/>
      </g>
     </g>
    </g>
    <g id="ytick_6">
     <g id="line2d_14">
      <g>
       <use xlink:href="#mcc9977e689" x="47.269928" y="151.270413" style="fill: #ff0000; stroke: #ff0000; stroke-width: 0.8"/>
      </g>
     </g>
     <g id="text_15">
      <!-- 2.7 -->
      <g style="fill: #ff0000" transform="translate(22.769928 156.131038) scale(0.14 -0.14)">
       <defs>
        <path id="TimesNewRomanPSMT-37" d="M 644 4238 
L 2916 4238 
L 2916 4119 
L 1503 -88 
L 1153 -88 
L 2419 3728 
L 1253 3728 
Q 900 3728 750 3644 
Q 488 3500 328 3200 
L 238 3234 
L 644 4238 
z
" transform="scale(0.015625)"/>
       </defs>
       <use xlink:href="#TimesNewRomanPSMT-32"/>
       <use xlink:href="#TimesNewRomanPSMT-2e" x="50"/>
       <use xlink:href="#TimesNewRomanPSMT-37" x="75"/>
      </g>
     </g>
    </g>
    <g id="ytick_7">
     <g id="line2d_15">
      <g>
       <use xlink:href="#mcc9977e689" x="47.269928" y="104.597293" style="fill: #ff0000; stroke: #ff0000; stroke-width: 0.8"/>
      </g>
     </g>
     <g id="text_16">
      <!-- 2.8 -->
      <g style="fill: #ff0000" transform="translate(22.769928 109.457918) scale(0.14 -0.14)">
       <defs>
        <path id="TimesNewRomanPSMT-38" d="M 1228 2134 
Q 725 2547 579 2797 
Q 434 3047 434 3316 
Q 434 3728 753 4026 
Q 1072 4325 1600 4325 
Q 2113 4325 2425 4047 
Q 2738 3769 2738 3413 
Q 2738 3175 2569 2928 
Q 2400 2681 1866 2347 
Q 2416 1922 2594 1678 
Q 2831 1359 2831 1006 
Q 2831 559 2490 242 
Q 2150 -75 1597 -75 
Q 994 -75 656 303 
Q 388 606 388 966 
Q 388 1247 577 1523 
Q 766 1800 1228 2134 
z
M 1719 2469 
Q 2094 2806 2194 3001 
Q 2294 3197 2294 3444 
Q 2294 3772 2109 3958 
Q 1925 4144 1606 4144 
Q 1288 4144 1088 3959 
Q 888 3775 888 3528 
Q 888 3366 970 3203 
Q 1053 3041 1206 2894 
L 1719 2469 
z
M 1375 2016 
Q 1116 1797 991 1539 
Q 866 1281 866 981 
Q 866 578 1086 336 
Q 1306 94 1647 94 
Q 1984 94 2187 284 
Q 2391 475 2391 747 
Q 2391 972 2272 1150 
Q 2050 1481 1375 2016 
z
" transform="scale(0.015625)"/>
       </defs>
       <use xlink:href="#TimesNewRomanPSMT-32"/>
       <use xlink:href="#TimesNewRomanPSMT-2e" x="50"/>
       <use xlink:href="#TimesNewRomanPSMT-38" x="75"/>
      </g>
     </g>
    </g>
    <g id="ytick_8">
     <g id="line2d_16">
      <g>
       <use xlink:href="#mcc9977e689" x="47.269928" y="57.924172" style="fill: #ff0000; stroke: #ff0000; stroke-width: 0.8"/>
      </g>
     </g>
     <g id="text_17">
      <!-- 2.9 -->
      <g style="fill: #ff0000" transform="translate(22.769928 62.784797) scale(0.14 -0.14)">
       <use xlink:href="#TimesNewRomanPSMT-32"/>
       <use xlink:href="#TimesNewRomanPSMT-2e" x="50"/>
       <use xlink:href="#TimesNewRomanPSMT-39" x="75"/>
      </g>
     </g>
    </g>
    <g id="text_18">
     <!-- Under Construction Time -->
     <g style="fill: #ff0000" transform="translate(14.919615 308.572969) rotate(-90) scale(0.18 -0.18)">
      <defs>
       <path id="TimesNewRomanPS-BoldMT-55" d="M 150 4238 
L 2338 4238 
L 2338 4122 
L 2228 4122 
Q 1981 4122 1889 4070 
Q 1797 4019 1758 3928 
Q 1719 3838 1719 3475 
L 1719 1400 
Q 1719 831 1805 647 
Q 1891 463 2087 341 
Q 2284 219 2584 219 
Q 2928 219 3170 373 
Q 3413 528 3533 800 
Q 3653 1072 3653 1747 
L 3653 3475 
Q 3653 3759 3593 3881 
Q 3534 4003 3444 4050 
Q 3303 4122 3047 4122 
L 3047 4238 
L 4513 4238 
L 4513 4122 
L 4425 4122 
Q 4247 4122 4128 4050 
Q 4009 3978 3956 3834 
Q 3916 3734 3916 3475 
L 3916 1866 
Q 3916 1119 3817 787 
Q 3719 456 3337 178 
Q 2956 -100 2297 -100 
Q 1747 -100 1447 47 
Q 1038 247 869 559 
Q 700 872 700 1400 
L 700 3475 
Q 700 3841 659 3930 
Q 619 4019 519 4072 
Q 419 4125 150 4122 
L 150 4238 
z
" transform="scale(0.015625)"/>
       <path id="TimesNewRomanPS-BoldMT-6e" d="M 1409 2922 
L 1409 2544 
Q 1634 2788 1840 2898 
Q 2047 3009 2284 3009 
Q 2569 3009 2756 2851 
Q 2944 2694 3006 2459 
Q 3056 2281 3056 1775 
L 3056 638 
Q 3056 300 3117 217 
Q 3178 134 3372 113 
L 3372 0 
L 1894 0 
L 1894 113 
Q 2059 134 2131 250 
Q 2181 328 2181 638 
L 2181 1938 
Q 2181 2297 2153 2390 
Q 2125 2484 2058 2536 
Q 1991 2588 1909 2588 
Q 1641 2588 1409 2203 
L 1409 638 
Q 1409 309 1470 221 
Q 1531 134 1697 113 
L 1697 0 
L 219 0 
L 219 113 
Q 403 131 481 231 
Q 534 300 534 638 
L 534 2288 
Q 534 2619 473 2700 
Q 413 2781 219 2806 
L 219 2922 
L 1409 2922 
z
" transform="scale(0.015625)"/>
       <path id="TimesNewRomanPS-BoldMT-6f" d="M 1594 3009 
Q 1975 3009 2303 2812 
Q 2631 2616 2801 2253 
Q 2972 1891 2972 1459 
Q 2972 838 2656 419 
Q 2275 -88 1603 -88 
Q 944 -88 587 375 
Q 231 838 231 1447 
Q 231 2075 595 2542 
Q 959 3009 1594 3009 
z
M 1606 2788 
Q 1447 2788 1333 2667 
Q 1219 2547 1183 2192 
Q 1147 1838 1147 1206 
Q 1147 872 1191 581 
Q 1225 359 1337 243 
Q 1450 128 1594 128 
Q 1734 128 1828 206 
Q 1950 313 1991 503 
Q 2053 800 2053 1703 
Q 2053 2234 1993 2432 
Q 1934 2631 1819 2722 
Q 1738 2788 1606 2788 
z
" transform="scale(0.015625)"/>
       <path id="TimesNewRomanPS-BoldMT-73" d="M 2063 3003 
L 2109 2006 
L 2003 2006 
Q 1813 2450 1608 2612 
Q 1403 2775 1200 2775 
Q 1072 2775 981 2689 
Q 891 2603 891 2491 
Q 891 2406 953 2328 
Q 1053 2200 1512 1889 
Q 1972 1578 2117 1361 
Q 2263 1144 2263 875 
Q 2263 631 2141 397 
Q 2019 163 1797 37 
Q 1575 -88 1306 -88 
Q 1097 -88 747 44 
Q 653 78 619 78 
Q 516 78 447 -78 
L 344 -78 
L 294 972 
L 400 972 
Q 541 559 786 353 
Q 1031 147 1250 147 
Q 1400 147 1495 239 
Q 1591 331 1591 463 
Q 1591 613 1497 722 
Q 1403 831 1078 1053 
Q 600 1384 459 1559 
Q 253 1816 253 2125 
Q 253 2463 486 2736 
Q 719 3009 1159 3009 
Q 1397 3009 1619 2894 
Q 1703 2847 1756 2847 
Q 1813 2847 1847 2870 
Q 1881 2894 1956 3003 
L 2063 3003 
z
" transform="scale(0.015625)"/>
       <path id="TimesNewRomanPS-BoldMT-75" d="M 3038 2922 
L 3038 634 
Q 3038 300 3100 217 
Q 3163 134 3353 113 
L 3353 0 
L 2163 0 
L 2163 391 
Q 1953 141 1743 26 
Q 1534 -88 1275 -88 
Q 1028 -88 836 64 
Q 644 216 578 419 
Q 513 622 513 1128 
L 513 2288 
Q 513 2619 452 2700 
Q 391 2781 197 2806 
L 197 2922 
L 1388 2922 
L 1388 925 
Q 1388 613 1417 522 
Q 1447 431 1511 384 
Q 1575 338 1659 338 
Q 1772 338 1863 397 
Q 1988 478 2163 725 
L 2163 2288 
Q 2163 2619 2102 2700 
Q 2041 2781 1847 2806 
L 1847 2922 
L 3038 2922 
z
" transform="scale(0.015625)"/>
       <path id="TimesNewRomanPS-BoldMT-63" d="M 2600 753 
L 2697 678 
Q 2491 291 2183 101 
Q 1875 -88 1528 -88 
Q 944 -88 594 353 
Q 244 794 244 1413 
Q 244 2009 563 2463 
Q 947 3009 1622 3009 
Q 2075 3009 2342 2781 
Q 2609 2553 2609 2272 
Q 2609 2094 2501 1987 
Q 2394 1881 2219 1881 
Q 2034 1881 1914 2003 
Q 1794 2125 1766 2438 
Q 1747 2634 1675 2713 
Q 1603 2791 1506 2791 
Q 1356 2791 1250 2631 
Q 1088 2391 1088 1894 
Q 1088 1481 1219 1104 
Q 1350 728 1578 544 
Q 1750 409 1984 409 
Q 2138 409 2275 481 
Q 2413 553 2600 753 
z
" transform="scale(0.015625)"/>
       <path id="TimesNewRomanPS-BoldMT-69" d="M 919 4338 
Q 1122 4338 1262 4195 
Q 1403 4053 1403 3853 
Q 1403 3653 1261 3512 
Q 1119 3372 919 3372 
Q 719 3372 578 3512 
Q 438 3653 438 3853 
Q 438 4053 578 4195 
Q 719 4338 919 4338 
z
M 1356 2922 
L 1356 606 
Q 1356 297 1428 211 
Q 1500 125 1709 113 
L 1709 0 
L 131 0 
L 131 113 
Q 325 119 419 225 
Q 481 297 481 606 
L 481 2313 
Q 481 2622 409 2708 
Q 338 2794 131 2806 
L 131 2922 
L 1356 2922 
z
" transform="scale(0.015625)"/>
       <path id="TimesNewRomanPS-BoldMT-54" d="M 4038 4238 
L 4038 3091 
L 3925 3091 
Q 3825 3488 3703 3661 
Q 3581 3834 3369 3938 
Q 3250 3994 2953 3994 
L 2638 3994 
L 2638 725 
Q 2638 400 2673 319 
Q 2709 238 2814 177 
Q 2919 116 3100 116 
L 3241 116 
L 3241 0 
L 1022 0 
L 1022 116 
L 1163 116 
Q 1347 116 1459 181 
Q 1541 225 1588 331 
Q 1622 406 1622 725 
L 1622 3994 
L 1316 3994 
Q 888 3994 694 3813 
Q 422 3559 350 3091 
L 231 3091 
L 231 4238 
L 4038 4238 
z
" transform="scale(0.015625)"/>
       <path id="TimesNewRomanPS-BoldMT-6d" d="M 1428 2922 
L 1428 2538 
Q 1669 2800 1873 2904 
Q 2078 3009 2322 3009 
Q 2603 3009 2793 2878 
Q 2984 2747 3088 2478 
Q 3338 2759 3567 2884 
Q 3797 3009 4047 3009 
Q 4350 3009 4529 2870 
Q 4709 2731 4779 2517 
Q 4850 2303 4850 1834 
L 4850 638 
Q 4850 300 4911 219 
Q 4972 138 5166 113 
L 5166 0 
L 3656 0 
L 3656 113 
Q 3834 128 3919 250 
Q 3975 334 3975 638 
L 3975 1894 
Q 3975 2284 3944 2390 
Q 3913 2497 3845 2548 
Q 3778 2600 3688 2600 
Q 3553 2600 3415 2501 
Q 3278 2403 3138 2206 
L 3138 638 
Q 3138 322 3191 241 
Q 3263 125 3466 113 
L 3466 0 
L 1953 0 
L 1953 113 
Q 2075 119 2145 173 
Q 2216 228 2239 304 
Q 2263 381 2263 638 
L 2263 1894 
Q 2263 2291 2231 2391 
Q 2200 2491 2126 2547 
Q 2053 2603 1969 2603 
Q 1844 2603 1741 2538 
Q 1594 2441 1428 2206 
L 1428 638 
Q 1428 328 1489 229 
Q 1550 131 1744 113 
L 1744 0 
L 238 0 
L 238 113 
Q 422 131 500 231 
Q 553 300 553 638 
L 553 2288 
Q 553 2619 492 2700 
Q 431 2781 238 2806 
L 238 2922 
L 1428 2922 
z
" transform="scale(0.015625)"/>
      </defs>
      <use xlink:href="#TimesNewRomanPS-BoldMT-55"/>
      <use xlink:href="#TimesNewRomanPS-BoldMT-6e" x="72.216797"/>
      <use xlink:href="#TimesNewRomanPS-BoldMT-64" x="127.832031"/>
      <use xlink:href="#TimesNewRomanPS-BoldMT-65" x="183.447266"/>
      <use xlink:href="#TimesNewRomanPS-BoldMT-72" x="227.832031"/>
      <use xlink:href="#TimesNewRomanPS-BoldMT-20" x="270.466797"/>
      <use xlink:href="#TimesNewRomanPS-BoldMT-43" x="295.466797"/>
      <use xlink:href="#TimesNewRomanPS-BoldMT-6f" x="367.683594"/>
      <use xlink:href="#TimesNewRomanPS-BoldMT-6e" x="417.683594"/>
      <use xlink:href="#TimesNewRomanPS-BoldMT-73" x="473.298828"/>
      <use xlink:href="#TimesNewRomanPS-BoldMT-74" x="512.214844"/>
      <use xlink:href="#TimesNewRomanPS-BoldMT-72" x="545.515625"/>
      <use xlink:href="#TimesNewRomanPS-BoldMT-75" x="589.900391"/>
      <use xlink:href="#TimesNewRomanPS-BoldMT-63" x="645.515625"/>
      <use xlink:href="#TimesNewRomanPS-BoldMT-74" x="689.900391"/>
      <use xlink:href="#TimesNewRomanPS-BoldMT-69" x="723.201172"/>
      <use xlink:href="#TimesNewRomanPS-BoldMT-6f" x="750.984375"/>
      <use xlink:href="#TimesNewRomanPS-BoldMT-6e" x="800.984375"/>
      <use xlink:href="#TimesNewRomanPS-BoldMT-20" x="856.599609"/>
      <use xlink:href="#TimesNewRomanPS-BoldMT-54" x="879.849609"/>
      <use xlink:href="#TimesNewRomanPS-BoldMT-69" x="944.798828"/>
      <use xlink:href="#TimesNewRomanPS-BoldMT-6d" x="972.582031"/>
      <use xlink:href="#TimesNewRomanPS-BoldMT-65" x="1055.882812"/>
     </g>
    </g>
   </g>
   <g id="line2d_17">
    <path d="M 81.935616 46.220587 
L 88.868754 66.156277 
L 95.801891 84.469154 
L 102.735029 101.228247 
L 109.668167 116.502821 
L 116.601304 130.362286 
L 123.534442 142.876104 
L 130.46758 154.113688 
L 137.400717 164.144311 
L 144.333855 173.037001 
L 151.266993 180.860443 
L 158.20013 187.682875 
L 165.133268 193.571987 
L 172.066406 198.594818 
L 178.999543 202.817645 
L 185.932681 206.305884 
L 192.865819 209.123982 
L 199.798956 211.335307 
L 206.732094 213.002048 
L 213.665232 214.185104 
L 220.59837 214.943977 
L 227.531507 215.336673 
L 234.464645 215.41959 
L 241.397783 215.247419 
L 248.33092 214.873042 
L 255.264058 214.347426 
L 262.197196 213.719532 
L 269.130333 213.036213 
L 276.063471 212.342121 
L 282.996609 211.679616 
L 289.929746 211.088677 
L 296.862884 210.606819 
L 303.796022 210.26901 
L 310.729159 210.107593 
L 317.662297 210.152217 
L 324.595435 210.429768 
L 331.528572 210.964304 
L 338.46171 211.777005 
L 345.394848 212.886115 
L 352.327985 214.306904 
L 359.261123 216.05163 
L 366.194261 218.12951 
L 373.127399 220.546698 
L 380.060536 223.306274 
L 386.993674 226.40824 
L 393.926812 229.849528 
L 400.859949 233.624013 
L 407.793087 237.722545 
L 414.726225 242.132985 
L 421.659362 246.840255 
L 428.5925 251.826402 
L 435.525638 257.070677 
L 442.458775 262.549619 
L 449.391913 268.237167 
L 456.325051 274.104775 
L 463.258188 280.121551 
L 470.191326 286.254409 
L 477.124464 292.468236 
L 484.057601 298.726087 
L 490.990739 304.989385 
L 497.923877 311.218154 
L 504.857014 317.371264 
L 511.790152 323.406701 
L 518.72329 329.281859 
L 525.656428 334.953854 
L 532.589565 340.379866 
L 539.522703 345.517498 
L 546.455841 350.325173 
L 553.388978 354.762547 
L 560.322116 358.790957 
L 567.255254 362.373894 
L 574.188391 365.477509 
L 581.121529 368.071148 
L 588.054667 370.127924 
L 594.987804 371.625314 
L 601.920942 372.545799 
L 608.85408 372.877538 
L 615.787217 372.615071 
L 622.720355 371.760075 
L 629.653493 370.322146 
L 636.58663 368.319629 
L 643.519768 365.780488 
L 650.452906 362.743218 
L 657.386044 359.257808 
L 664.319181 355.386741 
L 671.252319 351.206047 
L 678.185457 346.806409 
L 685.118594 342.294308 
L 692.051732 337.793234 
L 698.98487 333.444938 
L 705.918007 329.410748 
L 712.851145 325.872939 
L 719.784283 323.036158 
L 726.71742 321.128918 
L 733.650558 320.40514 
L 740.583696 321.145774 
L 747.516833 323.660473 
L 754.449971 328.28934 
L 761.383109 335.404744 
L 768.316246 345.413206 
" clip-path="url(#pb93192a331)" style="fill: none; stroke: #ff0000; stroke-width: 1.5; stroke-linecap: square"/>
   </g>
   <g id="patch_3">
    <path d="M 47.269928 389.210385 
L 47.269928 29.88774 
" style="fill: none; stroke: #58544f; stroke-width: 0.8; stroke-linejoin: miter; stroke-linecap: square"/>
   </g>
   <g id="patch_4">
    <path d="M 809.915073 389.210385 
L 809.915073 29.88774 
" style="fill: none; stroke: #58544f; stroke-width: 0.8; stroke-linejoin: miter; stroke-linecap: square"/>
   </g>
   <g id="patch_5">
    <path d="M 47.269927 389.210385 
L 809.915072 389.210385 
" style="fill: none; stroke: #58544f; stroke-width: 0.8; stroke-linejoin: miter; stroke-linecap: square"/>
   </g>
   <g id="patch_6">
    <path d="M 47.269927 29.88774 
L 809.915072 29.88774 
" style="fill: none; stroke: #58544f; stroke-width: 0.8; stroke-linejoin: miter; stroke-linecap: square"/>
   </g>
  </g>
  <g id="axes_2">
   <g id="patch_7">
    <path d="M 81.935616 389.210385 
L 95.801891 389.210385 
L 95.801891 226.401697 
L 81.935616 226.401697 
z
" clip-path="url(#pb93192a331)" style="fill: #0088ed; opacity: 0.4"/>
   </g>
   <g id="patch_8">
    <path d="M 95.801891 389.210385 
L 109.668167 389.210385 
L 109.668167 389.210385 
L 95.801891 389.210385 
z
" clip-path="url(#pb93192a331)" style="fill: #0088ed; opacity: 0.4"/>
   </g>
   <g id="patch_9">
    <path d="M 109.668167 389.210385 
L 123.534442 389.210385 
L 123.534442 159.668001 
L 109.668167 159.668001 
z
" clip-path="url(#pb93192a331)" style="fill: #0088ed; opacity: 0.4"/>
   </g>
   <g id="patch_10">
    <path d="M 123.534442 389.210385 
L 137.400717 389.210385 
L 137.400717 261.297453 
L 123.534442 261.297453 
z
" clip-path="url(#pb93192a331)" style="fill: #0088ed; opacity: 0.4"/>
   </g>
   <g id="patch_11">
    <path d="M 137.400717 389.210385 
L 151.266993 389.210385 
L 151.266993 81.836836 
L 137.400717 81.836836 
z
" clip-path="url(#pb93192a331)" style="fill: #0088ed; opacity: 0.4"/>
   </g>
   <g id="patch_12">
    <path d="M 151.266993 389.210385 
L 165.133268 389.210385 
L 165.133268 290.856347 
L 151.266993 290.856347 
z
" clip-path="url(#pb93192a331)" style="fill: #0088ed; opacity: 0.4"/>
   </g>
   <g id="patch_13">
    <path d="M 165.133268 389.210385 
L 178.999543 389.210385 
L 178.999543 254.208358 
L 165.133268 254.208358 
z
" clip-path="url(#pb93192a331)" style="fill: #0088ed; opacity: 0.4"/>
   </g>
   <g id="patch_14">
    <path d="M 178.999543 389.210385 
L 192.865819 389.210385 
L 192.865819 310.944025 
L 178.999543 310.944025 
z
" clip-path="url(#pb93192a331)" style="fill: #0088ed; opacity: 0.4"/>
   </g>
   <g id="patch_15">
    <path d="M 192.865819 389.210385 
L 206.732094 389.210385 
L 206.732094 253.750258 
L 192.865819 253.750258 
z
" clip-path="url(#pb93192a331)" style="fill: #0088ed; opacity: 0.4"/>
   </g>
   <g id="patch_16">
    <path d="M 206.732094 389.210385 
L 220.59837 389.210385 
L 220.59837 329.852097 
L 206.732094 329.852097 
z
" clip-path="url(#pb93192a331)" style="fill: #0088ed; opacity: 0.4"/>
   </g>
   <g id="patch_17">
    <path d="M 220.59837 389.210385 
L 234.464645 389.210385 
L 234.464645 320.953507 
L 220.59837 320.953507 
z
" clip-path="url(#pb93192a331)" style="fill: #0088ed; opacity: 0.4"/>
   </g>
   <g id="patch_18">
    <path d="M 234.464645 389.210385 
L 248.33092 389.210385 
L 248.33092 356.353173 
L 234.464645 356.353173 
z
" clip-path="url(#pb93192a331)" style="fill: #0088ed; opacity: 0.4"/>
   </g>
   <g id="patch_19">
    <path d="M 248.33092 389.210385 
L 262.197196 389.210385 
L 262.197196 357.887808 
L 248.33092 357.887808 
z
" clip-path="url(#pb93192a331)" style="fill: #0088ed; opacity: 0.4"/>
   </g>
   <g id="patch_20">
    <path d="M 262.197196 389.210385 
L 276.063471 389.210385 
L 276.063471 364.358468 
L 262.197196 364.358468 
z
" clip-path="url(#pb93192a331)" style="fill: #0088ed; opacity: 0.4"/>
   </g>
   <g id="patch_21">
    <path d="M 276.063471 389.210385 
L 289.929746 389.210385 
L 289.929746 389.210385 
L 276.063471 389.210385 
z
" clip-path="url(#pb93192a331)" style="fill: #0088ed; opacity: 0.4"/>
   </g>
   <g id="patch_22">
    <path d="M 289.929746 389.210385 
L 303.796022 389.210385 
L 303.796022 389.210385 
L 289.929746 389.210385 
z
" clip-path="url(#pb93192a331)" style="fill: #0088ed; opacity: 0.4"/>
   </g>
   <g id="patch_23">
    <path d="M 303.796022 389.210385 
L 317.662297 389.210385 
L 317.662297 366.145057 
L 303.796022 366.145057 
z
" clip-path="url(#pb93192a331)" style="fill: #0088ed; opacity: 0.4"/>
   </g>
   <g id="patch_24">
    <path d="M 317.662297 389.210385 
L 331.528572 389.210385 
L 331.528572 347.706538 
L 317.662297 347.706538 
z
" clip-path="url(#pb93192a331)" style="fill: #0088ed; opacity: 0.4"/>
   </g>
   <g id="patch_25">
    <path d="M 331.528572 389.210385 
L 345.394848 389.210385 
L 345.394848 255.82316 
L 331.528572 255.82316 
z
" clip-path="url(#pb93192a331)" style="fill: #0088ed; opacity: 0.4"/>
   </g>
   <g id="patch_26">
    <path d="M 345.394848 389.210385 
L 359.261123 389.210385 
L 359.261123 325.92389 
L 345.394848 325.92389 
z
" clip-path="url(#pb93192a331)" style="fill: #0088ed; opacity: 0.4"/>
   </g>
   <g id="patch_27">
    <path d="M 359.261123 389.210385 
L 373.127399 389.210385 
L 373.127399 210.826302 
L 359.261123 210.826302 
z
" clip-path="url(#pb93192a331)" style="fill: #0088ed; opacity: 0.4"/>
   </g>
   <g id="patch_28">
    <path d="M 373.127399 389.210385 
L 386.993674 389.210385 
L 386.993674 269.909731 
L 373.127399 269.909731 
z
" clip-path="url(#pb93192a331)" style="fill: #0088ed; opacity: 0.4"/>
   </g>
   <g id="patch_29">
    <path d="M 386.993674 389.210385 
L 400.859949 389.210385 
L 400.859949 67.463953 
L 386.993674 67.463953 
z
" clip-path="url(#pb93192a331)" style="fill: #0088ed; opacity: 0.4"/>
   </g>
   <g id="patch_30">
    <path d="M 400.859949 389.210385 
L 414.726225 389.210385 
L 414.726225 234.097775 
L 400.859949 234.097775 
z
" clip-path="url(#pb93192a331)" style="fill: #0088ed; opacity: 0.4"/>
   </g>
   <g id="patch_31">
    <path d="M 414.726225 389.210385 
L 428.5925 389.210385 
L 428.5925 281.579824 
L 414.726225 281.579824 
z
" clip-path="url(#pb93192a331)" style="fill: #0088ed; opacity: 0.4"/>
   </g>
   <g id="patch_32">
    <path d="M 428.5925 389.210385 
L 442.458775 389.210385 
L 442.458775 201.114585 
L 428.5925 201.114585 
z
" clip-path="url(#pb93192a331)" style="fill: #0088ed; opacity: 0.4"/>
   </g>
   <g id="patch_33">
    <path d="M 442.458775 389.210385 
L 456.325051 389.210385 
L 456.325051 46.998342 
L 442.458775 46.998342 
z
" clip-path="url(#pb93192a331)" style="fill: #0088ed; opacity: 0.4"/>
   </g>
   <g id="patch_34">
    <path d="M 456.325051 389.210385 
L 470.191326 389.210385 
L 470.191326 222.210084 
L 456.325051 222.210084 
z
" clip-path="url(#pb93192a331)" style="fill: #0088ed; opacity: 0.4"/>
   </g>
   <g id="patch_35">
    <path d="M 470.191326 389.210385 
L 484.057601 389.210385 
L 484.057601 183.935841 
L 470.191326 183.935841 
z
" clip-path="url(#pb93192a331)" style="fill: #0088ed; opacity: 0.4"/>
   </g>
   <g id="patch_36">
    <path d="M 484.057601 389.210385 
L 497.923877 389.210385 
L 497.923877 389.210385 
L 484.057601 389.210385 
z
" clip-path="url(#pb93192a331)" style="fill: #0088ed; opacity: 0.4"/>
   </g>
   <g id="patch_37">
    <path d="M 497.923877 389.210385 
L 511.790152 389.210385 
L 511.790152 99.47368 
L 497.923877 99.47368 
z
" clip-path="url(#pb93192a331)" style="fill: #0088ed; opacity: 0.4"/>
   </g>
   <g id="patch_38">
    <path d="M 511.790152 389.210385 
L 525.656428 389.210385 
L 525.656428 266.290742 
L 511.790152 266.290742 
z
" clip-path="url(#pb93192a331)" style="fill: #0088ed; opacity: 0.4"/>
   </g>
   <g id="patch_39">
    <path d="M 525.656428 389.210385 
L 539.522703 389.210385 
L 539.522703 157.778339 
L 525.656428 157.778339 
z
" clip-path="url(#pb93192a331)" style="fill: #0088ed; opacity: 0.4"/>
   </g>
   <g id="patch_40">
    <path d="M 539.522703 389.210385 
L 553.388978 389.210385 
L 553.388978 348.519666 
L 539.522703 348.519666 
z
" clip-path="url(#pb93192a331)" style="fill: #0088ed; opacity: 0.4"/>
   </g>
   <g id="patch_41">
    <path d="M 553.388978 389.210385 
L 567.255254 389.210385 
L 567.255254 281.259155 
L 553.388978 281.259155 
z
" clip-path="url(#pb93192a331)" style="fill: #0088ed; opacity: 0.4"/>
   </g>
   <g id="patch_42">
    <path d="M 567.255254 389.210385 
L 581.121529 389.210385 
L 581.121529 238.129053 
L 567.255254 238.129053 
z
" clip-path="url(#pb93192a331)" style="fill: #0088ed; opacity: 0.4"/>
   </g>
   <g id="patch_43">
    <path d="M 581.121529 389.210385 
L 594.987804 389.210385 
L 594.987804 234.281015 
L 581.121529 234.281015 
z
" clip-path="url(#pb93192a331)" style="fill: #0088ed; opacity: 0.4"/>
   </g>
   <g id="patch_44">
    <path d="M 594.987804 389.210385 
L 608.85408 389.210385 
L 608.85408 370.542816 
L 594.987804 370.542816 
z
" clip-path="url(#pb93192a331)" style="fill: #0088ed; opacity: 0.4"/>
   </g>
   <g id="patch_45">
    <path d="M 608.85408 389.210385 
L 622.720355 389.210385 
L 622.720355 389.210385 
L 608.85408 389.210385 
z
" clip-path="url(#pb93192a331)" style="fill: #0088ed; opacity: 0.4"/>
   </g>
   <g id="patch_46">
    <path d="M 622.720355 389.210385 
L 636.58663 389.210385 
L 636.58663 389.210385 
L 622.720355 389.210385 
z
" clip-path="url(#pb93192a331)" style="fill: #0088ed; opacity: 0.4"/>
   </g>
   <g id="patch_47">
    <path d="M 636.58663 389.210385 
L 650.452906 389.210385 
L 650.452906 360.441714 
L 636.58663 360.441714 
z
" clip-path="url(#pb93192a331)" style="fill: #0088ed; opacity: 0.4"/>
   </g>
   <g id="patch_48">
    <path d="M 650.452906 389.210385 
L 664.319181 389.210385 
L 664.319181 300.590968 
L 650.452906 300.590968 
z
" clip-path="url(#pb93192a331)" style="fill: #0088ed; opacity: 0.4"/>
   </g>
   <g id="patch_49">
    <path d="M 664.319181 389.210385 
L 678.185457 389.210385 
L 678.185457 258.995502 
L 664.319181 258.995502 
z
" clip-path="url(#pb93192a331)" style="fill: #0088ed; opacity: 0.4"/>
   </g>
   <g id="patch_50">
    <path d="M 678.185457 389.210385 
L 692.051732 389.210385 
L 692.051732 389.210385 
L 678.185457 389.210385 
z
" clip-path="url(#pb93192a331)" style="fill: #0088ed; opacity: 0.4"/>
   </g>
   <g id="patch_51">
    <path d="M 692.051732 389.210385 
L 705.918007 389.210385 
L 705.918007 211.387474 
L 692.051732 211.387474 
z
" clip-path="url(#pb93192a331)" style="fill: #0088ed; opacity: 0.4"/>
   </g>
   <g id="patch_52">
    <path d="M 705.918007 389.210385 
L 719.784283 389.210385 
L 719.784283 300.041249 
L 705.918007 300.041249 
z
" clip-path="url(#pb93192a331)" style="fill: #0088ed; opacity: 0.4"/>
   </g>
   <g id="patch_53">
    <path d="M 719.784283 389.210385 
L 733.650558 389.210385 
L 733.650558 227.329349 
L 719.784283 227.329349 
z
" clip-path="url(#pb93192a331)" style="fill: #0088ed; opacity: 0.4"/>
   </g>
   <g id="patch_54">
    <path d="M 733.650558 389.210385 
L 747.516833 389.210385 
L 747.516833 383.003132 
L 733.650558 383.003132 
z
" clip-path="url(#pb93192a331)" style="fill: #0088ed; opacity: 0.4"/>
   </g>
   <g id="patch_55">
    <path d="M 747.516833 389.210385 
L 761.383109 389.210385 
L 761.383109 265.053872 
L 747.516833 265.053872 
z
" clip-path="url(#pb93192a331)" style="fill: #0088ed; opacity: 0.4"/>
   </g>
   <g id="patch_56">
    <path d="M 761.383109 389.210385 
L 775.249384 389.210385 
L 775.249384 287.397693 
L 761.383109 287.397693 
z
" clip-path="url(#pb93192a331)" style="fill: #0088ed; opacity: 0.4"/>
   </g>
   <g id="matplotlib.axis_3">
    <g id="ytick_9">
     <g id="line2d_18">
      <defs>
       <path id="m8891822b01" d="M 0 0 
L 3.5 0 
" style="stroke: #0088ed; stroke-width: 0.8"/>
      </defs>
      <g>
       <use xlink:href="#m8891822b01" x="809.915073" y="389.210385" style="fill: #0088ed; stroke: #0088ed; stroke-width: 0.8"/>
      </g>
     </g>
     <g id="text_19">
      <!-- 0k -->
      <g style="fill: #0088ed" transform="translate(816.915073 394.07101) scale(0.14 -0.14)">
       <defs>
        <path id="TimesNewRomanPSMT-6b" d="M 1047 4444 
L 1047 1597 
L 1775 2259 
Q 2006 2472 2044 2528 
Q 2069 2566 2069 2603 
Q 2069 2666 2017 2711 
Q 1966 2756 1847 2763 
L 1847 2863 
L 3091 2863 
L 3091 2763 
Q 2834 2756 2664 2684 
Q 2494 2613 2291 2428 
L 1556 1750 
L 2291 822 
Q 2597 438 2703 334 
Q 2853 188 2966 144 
Q 3044 113 3238 113 
L 3238 0 
L 1847 0 
L 1847 113 
Q 1966 116 2008 148 
Q 2050 181 2050 241 
Q 2050 313 1925 472 
L 1047 1594 
L 1047 644 
Q 1047 366 1086 278 
Q 1125 191 1197 153 
Q 1269 116 1509 113 
L 1509 0 
L 53 0 
L 53 113 
Q 272 113 381 166 
Q 447 200 481 272 
Q 528 375 528 628 
L 528 3234 
Q 528 3731 506 3842 
Q 484 3953 434 3995 
Q 384 4038 303 4038 
Q 238 4038 106 3984 
L 53 4094 
L 903 4444 
L 1047 4444 
z
" transform="scale(0.015625)"/>
       </defs>
       <use xlink:href="#TimesNewRomanPSMT-30"/>
       <use xlink:href="#TimesNewRomanPSMT-6b" x="50"/>
      </g>
     </g>
    </g>
    <g id="ytick_10">
     <g id="line2d_19">
      <g>
       <use xlink:href="#m8891822b01" x="809.915073" y="331.947903" style="fill: #0088ed; stroke: #0088ed; stroke-width: 0.8"/>
      </g>
     </g>
     <g id="text_20">
      <!-- 5k -->
      <g style="fill: #0088ed" transform="translate(816.915073 336.808528) scale(0.14 -0.14)">
       <use xlink:href="#TimesNewRomanPSMT-35"/>
       <use xlink:href="#TimesNewRomanPSMT-6b" x="50"/>
      </g>
     </g>
    </g>
    <g id="ytick_11">
     <g id="line2d_20">
      <g>
       <use xlink:href="#m8891822b01" x="809.915073" y="274.685422" style="fill: #0088ed; stroke: #0088ed; stroke-width: 0.8"/>
      </g>
     </g>
     <g id="text_21">
      <!-- 10k -->
      <g style="fill: #0088ed" transform="translate(816.915073 279.546047) scale(0.14 -0.14)">
       <use xlink:href="#TimesNewRomanPSMT-31"/>
       <use xlink:href="#TimesNewRomanPSMT-30" x="50"/>
       <use xlink:href="#TimesNewRomanPSMT-6b" x="100"/>
      </g>
     </g>
    </g>
    <g id="ytick_12">
     <g id="line2d_21">
      <g>
       <use xlink:href="#m8891822b01" x="809.915073" y="217.42294" style="fill: #0088ed; stroke: #0088ed; stroke-width: 0.8"/>
      </g>
     </g>
     <g id="text_22">
      <!-- 15k -->
      <g style="fill: #0088ed" transform="translate(816.915073 222.283565) scale(0.14 -0.14)">
       <use xlink:href="#TimesNewRomanPSMT-31"/>
       <use xlink:href="#TimesNewRomanPSMT-35" x="50"/>
       <use xlink:href="#TimesNewRomanPSMT-6b" x="100"/>
      </g>
     </g>
    </g>
    <g id="ytick_13">
     <g id="line2d_22">
      <g>
       <use xlink:href="#m8891822b01" x="809.915073" y="160.160458" style="fill: #0088ed; stroke: #0088ed; stroke-width: 0.8"/>
      </g>
     </g>
     <g id="text_23">
      <!-- 20k -->
      <g style="fill: #0088ed" transform="translate(816.915073 165.021083) scale(0.14 -0.14)">
       <use xlink:href="#TimesNewRomanPSMT-32"/>
       <use xlink:href="#TimesNewRomanPSMT-30" x="50"/>
       <use xlink:href="#TimesNewRomanPSMT-6b" x="100"/>
      </g>
     </g>
    </g>
    <g id="ytick_14">
     <g id="line2d_23">
      <g>
       <use xlink:href="#m8891822b01" x="809.915073" y="102.897977" style="fill: #0088ed; stroke: #0088ed; stroke-width: 0.8"/>
      </g>
     </g>
     <g id="text_24">
      <!-- 25k -->
      <g style="fill: #0088ed" transform="translate(816.915073 107.758602) scale(0.14 -0.14)">
       <use xlink:href="#TimesNewRomanPSMT-32"/>
       <use xlink:href="#TimesNewRomanPSMT-35" x="50"/>
       <use xlink:href="#TimesNewRomanPSMT-6b" x="100"/>
      </g>
     </g>
    </g>
    <g id="ytick_15">
     <g id="line2d_24">
      <g>
       <use xlink:href="#m8891822b01" x="809.915073" y="45.635495" style="fill: #0088ed; stroke: #0088ed; stroke-width: 0.8"/>
      </g>
     </g>
     <g id="text_25">
      <!-- 30k -->
      <g style="fill: #0088ed" transform="translate(816.915073 50.49612) scale(0.14 -0.14)">
       <use xlink:href="#TimesNewRomanPSMT-33"/>
       <use xlink:href="#TimesNewRomanPSMT-30" x="50"/>
       <use xlink:href="#TimesNewRomanPSMT-6b" x="100"/>
      </g>
     </g>
    </g>
    <g id="text_26">
     <!-- Distribution of Created Date: Day Of Year -->
     <g style="fill: #0088ed" transform="translate(857.115698 372.517969) rotate(-90) scale(0.18 -0.18)">
      <defs>
       <path id="TimesNewRomanPS-BoldMT-62" d="M 1347 4238 
L 1347 2628 
Q 1716 3009 2153 3009 
Q 2453 3009 2718 2832 
Q 2984 2656 3134 2331 
Q 3284 2006 3284 1581 
Q 3284 1103 3093 712 
Q 2903 322 2584 117 
Q 2266 -88 1856 -88 
Q 1619 -88 1434 -12 
Q 1250 63 1072 231 
L 588 -84 
L 481 -84 
L 481 3631 
Q 481 3884 459 3944 
Q 428 4031 361 4073 
Q 294 4116 134 4122 
L 134 4238 
L 1347 4238 
z
M 1347 2350 
L 1347 1050 
Q 1347 653 1366 544 
Q 1397 359 1515 245 
Q 1634 131 1819 131 
Q 1978 131 2092 222 
Q 2206 313 2282 581 
Q 2359 850 2359 1550 
Q 2359 2222 2191 2472 
Q 2069 2653 1863 2653 
Q 1594 2653 1347 2350 
z
" transform="scale(0.015625)"/>
      </defs>
      <use xlink:href="#TimesNewRomanPS-BoldMT-44"/>
      <use xlink:href="#TimesNewRomanPS-BoldMT-69" x="72.216797"/>
      <use xlink:href="#TimesNewRomanPS-BoldMT-73" x="100"/>
      <use xlink:href="#TimesNewRomanPS-BoldMT-74" x="138.916016"/>
      <use xlink:href="#TimesNewRomanPS-BoldMT-72" x="172.216797"/>
      <use xlink:href="#TimesNewRomanPS-BoldMT-69" x="216.601562"/>
      <use xlink:href="#TimesNewRomanPS-BoldMT-62" x="244.384766"/>
      <use xlink:href="#TimesNewRomanPS-BoldMT-75" x="300"/>
      <use xlink:href="#TimesNewRomanPS-BoldMT-74" x="355.615234"/>
      <use xlink:href="#TimesNewRomanPS-BoldMT-69" x="388.916016"/>
      <use xlink:href="#TimesNewRomanPS-BoldMT-6f" x="416.699219"/>
      <use xlink:href="#TimesNewRomanPS-BoldMT-6e" x="466.699219"/>
      <use xlink:href="#TimesNewRomanPS-BoldMT-20" x="522.314453"/>
      <use xlink:href="#TimesNewRomanPS-BoldMT-6f" x="547.314453"/>
      <use xlink:href="#TimesNewRomanPS-BoldMT-66" x="597.314453"/>
      <use xlink:href="#TimesNewRomanPS-BoldMT-20" x="630.615234"/>
      <use xlink:href="#TimesNewRomanPS-BoldMT-43" x="655.615234"/>
      <use xlink:href="#TimesNewRomanPS-BoldMT-72" x="727.832031"/>
      <use xlink:href="#TimesNewRomanPS-BoldMT-65" x="770.466797"/>
      <use xlink:href="#TimesNewRomanPS-BoldMT-61" x="814.851562"/>
      <use xlink:href="#TimesNewRomanPS-BoldMT-74" x="864.851562"/>
      <use xlink:href="#TimesNewRomanPS-BoldMT-65" x="898.152344"/>
      <use xlink:href="#TimesNewRomanPS-BoldMT-64" x="942.537109"/>
      <use xlink:href="#TimesNewRomanPS-BoldMT-20" x="998.152344"/>
      <use xlink:href="#TimesNewRomanPS-BoldMT-44" x="1023.152344"/>
      <use xlink:href="#TimesNewRomanPS-BoldMT-61" x="1095.369141"/>
      <use xlink:href="#TimesNewRomanPS-BoldMT-74" x="1145.369141"/>
      <use xlink:href="#TimesNewRomanPS-BoldMT-65" x="1178.669922"/>
      <use xlink:href="#TimesNewRomanPS-BoldMT-3a" x="1223.054688"/>
      <use xlink:href="#TimesNewRomanPS-BoldMT-20" x="1256.355469"/>
      <use xlink:href="#TimesNewRomanPS-BoldMT-44" x="1281.355469"/>
      <use xlink:href="#TimesNewRomanPS-BoldMT-61" x="1353.572266"/>
      <use xlink:href="#TimesNewRomanPS-BoldMT-79" x="1403.572266"/>
      <use xlink:href="#TimesNewRomanPS-BoldMT-20" x="1453.572266"/>
      <use xlink:href="#TimesNewRomanPS-BoldMT-4f" x="1478.572266"/>
      <use xlink:href="#TimesNewRomanPS-BoldMT-66" x="1556.355469"/>
      <use xlink:href="#TimesNewRomanPS-BoldMT-20" x="1589.65625"/>
      <use xlink:href="#TimesNewRomanPS-BoldMT-59" x="1610.90625"/>
      <use xlink:href="#TimesNewRomanPS-BoldMT-65" x="1671.998047"/>
      <use xlink:href="#TimesNewRomanPS-BoldMT-61" x="1716.382812"/>
      <use xlink:href="#TimesNewRomanPS-BoldMT-72" x="1766.382812"/>
     </g>
    </g>
   </g>
   <g id="patch_57">
    <path d="M 47.269928 389.210385 
L 47.269928 29.88774 
" style="fill: none; stroke: #58544f; stroke-width: 0.8; stroke-linejoin: miter; stroke-linecap: square"/>
   </g>
   <g id="patch_58">
    <path d="M 809.915073 389.210385 
L 809.915073 29.88774 
" style="fill: none; stroke: #58544f; stroke-width: 0.8; stroke-linejoin: miter; stroke-linecap: square"/>
   </g>
   <g id="patch_59">
    <path d="M 47.269927 389.210385 
L 809.915072 389.210385 
" style="fill: none; stroke: #58544f; stroke-width: 0.8; stroke-linejoin: miter; stroke-linecap: square"/>
   </g>
   <g id="patch_60">
    <path d="M 47.269927 29.88774 
L 809.915072 29.88774 
" style="fill: none; stroke: #58544f; stroke-width: 0.8; stroke-linejoin: miter; stroke-linecap: square"/>
   </g>
   <g id="text_27">
    <!-- Impact of Created Date: Day Of Year on Under Construction Time -->
    <g style="fill: #262626" transform="translate(162.245625 16.88774) scale(0.2 -0.2)">
     <defs>
      <path id="TimesNewRomanPSMT-49" d="M 1975 116 
L 1975 0 
L 159 0 
L 159 116 
L 309 116 
Q 572 116 691 269 
Q 766 369 766 750 
L 766 3488 
Q 766 3809 725 3913 
Q 694 3991 597 4047 
Q 459 4122 309 4122 
L 159 4122 
L 159 4238 
L 1975 4238 
L 1975 4122 
L 1822 4122 
Q 1563 4122 1444 3969 
Q 1366 3869 1366 3488 
L 1366 750 
Q 1366 428 1406 325 
Q 1438 247 1538 191 
Q 1672 116 1822 116 
L 1975 116 
z
" transform="scale(0.015625)"/>
      <path id="TimesNewRomanPSMT-6d" d="M 1050 2338 
Q 1363 2650 1419 2697 
Q 1559 2816 1721 2881 
Q 1884 2947 2044 2947 
Q 2313 2947 2506 2790 
Q 2700 2634 2766 2338 
Q 3088 2713 3309 2830 
Q 3531 2947 3766 2947 
Q 3994 2947 4170 2830 
Q 4347 2713 4450 2447 
Q 4519 2266 4519 1878 
L 4519 647 
Q 4519 378 4559 278 
Q 4591 209 4675 161 
Q 4759 113 4950 113 
L 4950 0 
L 3538 0 
L 3538 113 
L 3597 113 
Q 3781 113 3884 184 
Q 3956 234 3988 344 
Q 4000 397 4000 647 
L 4000 1878 
Q 4000 2228 3916 2372 
Q 3794 2572 3525 2572 
Q 3359 2572 3192 2489 
Q 3025 2406 2788 2181 
L 2781 2147 
L 2788 2013 
L 2788 647 
Q 2788 353 2820 281 
Q 2853 209 2943 161 
Q 3034 113 3253 113 
L 3253 0 
L 1806 0 
L 1806 113 
Q 2044 113 2133 169 
Q 2222 225 2256 338 
Q 2272 391 2272 647 
L 2272 1878 
Q 2272 2228 2169 2381 
Q 2031 2581 1784 2581 
Q 1616 2581 1450 2491 
Q 1191 2353 1050 2181 
L 1050 647 
Q 1050 366 1089 281 
Q 1128 197 1204 155 
Q 1281 113 1516 113 
L 1516 0 
L 100 0 
L 100 113 
Q 297 113 375 155 
Q 453 197 493 289 
Q 534 381 534 647 
L 534 1741 
Q 534 2213 506 2350 
Q 484 2453 437 2492 
Q 391 2531 309 2531 
Q 222 2531 100 2484 
L 53 2597 
L 916 2947 
L 1050 2947 
L 1050 2338 
z
" transform="scale(0.015625)"/>
      <path id="TimesNewRomanPSMT-70" d="M -6 2578 
L 875 2934 
L 994 2934 
L 994 2266 
Q 1216 2644 1439 2795 
Q 1663 2947 1909 2947 
Q 2341 2947 2628 2609 
Q 2981 2197 2981 1534 
Q 2981 794 2556 309 
Q 2206 -88 1675 -88 
Q 1444 -88 1275 -22 
Q 1150 25 994 166 
L 994 -706 
Q 994 -1000 1030 -1079 
Q 1066 -1159 1155 -1206 
Q 1244 -1253 1478 -1253 
L 1478 -1369 
L -22 -1369 
L -22 -1253 
L 56 -1253 
Q 228 -1256 350 -1188 
Q 409 -1153 442 -1076 
Q 475 -1000 475 -688 
L 475 2019 
Q 475 2297 450 2372 
Q 425 2447 370 2484 
Q 316 2522 222 2522 
Q 147 2522 31 2478 
L -6 2578 
z
M 994 2081 
L 994 1013 
Q 994 666 1022 556 
Q 1066 375 1236 237 
Q 1406 100 1666 100 
Q 1978 100 2172 344 
Q 2425 663 2425 1241 
Q 2425 1897 2138 2250 
Q 1938 2494 1663 2494 
Q 1513 2494 1366 2419 
Q 1253 2363 994 2081 
z
" transform="scale(0.015625)"/>
      <path id="TimesNewRomanPSMT-61" d="M 1822 413 
Q 1381 72 1269 19 
Q 1100 -59 909 -59 
Q 613 -59 420 144 
Q 228 347 228 678 
Q 228 888 322 1041 
Q 450 1253 767 1440 
Q 1084 1628 1822 1897 
L 1822 2009 
Q 1822 2438 1686 2597 
Q 1550 2756 1291 2756 
Q 1094 2756 978 2650 
Q 859 2544 859 2406 
L 866 2225 
Q 866 2081 792 2003 
Q 719 1925 600 1925 
Q 484 1925 411 2006 
Q 338 2088 338 2228 
Q 338 2497 613 2722 
Q 888 2947 1384 2947 
Q 1766 2947 2009 2819 
Q 2194 2722 2281 2516 
Q 2338 2381 2338 1966 
L 2338 994 
Q 2338 584 2353 492 
Q 2369 400 2405 369 
Q 2441 338 2488 338 
Q 2538 338 2575 359 
Q 2641 400 2828 588 
L 2828 413 
Q 2478 -56 2159 -56 
Q 2006 -56 1915 50 
Q 1825 156 1822 413 
z
M 1822 616 
L 1822 1706 
Q 1350 1519 1213 1441 
Q 966 1303 859 1153 
Q 753 1003 753 825 
Q 753 600 887 451 
Q 1022 303 1197 303 
Q 1434 303 1822 616 
z
" transform="scale(0.015625)"/>
      <path id="TimesNewRomanPSMT-63" d="M 2631 1088 
Q 2516 522 2178 217 
Q 1841 -88 1431 -88 
Q 944 -88 581 321 
Q 219 731 219 1428 
Q 219 2103 620 2525 
Q 1022 2947 1584 2947 
Q 2006 2947 2278 2723 
Q 2550 2500 2550 2259 
Q 2550 2141 2473 2067 
Q 2397 1994 2259 1994 
Q 2075 1994 1981 2113 
Q 1928 2178 1911 2362 
Q 1894 2547 1784 2644 
Q 1675 2738 1481 2738 
Q 1169 2738 978 2506 
Q 725 2200 725 1697 
Q 725 1184 976 792 
Q 1228 400 1656 400 
Q 1963 400 2206 609 
Q 2378 753 2541 1131 
L 2631 1088 
z
" transform="scale(0.015625)"/>
      <path id="TimesNewRomanPSMT-74" d="M 1031 3803 
L 1031 2863 
L 1700 2863 
L 1700 2644 
L 1031 2644 
L 1031 788 
Q 1031 509 1111 412 
Q 1191 316 1316 316 
Q 1419 316 1516 380 
Q 1613 444 1666 569 
L 1788 569 
Q 1678 263 1478 108 
Q 1278 -47 1066 -47 
Q 922 -47 784 33 
Q 647 113 581 261 
Q 516 409 516 719 
L 516 2644 
L 63 2644 
L 63 2747 
Q 234 2816 414 2980 
Q 594 3144 734 3369 
Q 806 3488 934 3803 
L 1031 3803 
z
" transform="scale(0.015625)"/>
      <path id="TimesNewRomanPSMT-20" transform="scale(0.015625)"/>
      <path id="TimesNewRomanPSMT-6f" d="M 1600 2947 
Q 2250 2947 2644 2453 
Q 2978 2031 2978 1484 
Q 2978 1100 2793 706 
Q 2609 313 2286 112 
Q 1963 -88 1566 -88 
Q 919 -88 538 428 
Q 216 863 216 1403 
Q 216 1797 411 2186 
Q 606 2575 925 2761 
Q 1244 2947 1600 2947 
z
M 1503 2744 
Q 1338 2744 1170 2645 
Q 1003 2547 900 2300 
Q 797 2053 797 1666 
Q 797 1041 1045 587 
Q 1294 134 1700 134 
Q 2003 134 2200 384 
Q 2397 634 2397 1244 
Q 2397 2006 2069 2444 
Q 1847 2744 1503 2744 
z
" transform="scale(0.015625)"/>
      <path id="TimesNewRomanPSMT-66" d="M 1319 2638 
L 1319 756 
Q 1319 356 1406 250 
Q 1522 113 1716 113 
L 1975 113 
L 1975 0 
L 266 0 
L 266 113 
L 394 113 
Q 519 113 622 175 
Q 725 238 764 344 
Q 803 450 803 756 
L 803 2638 
L 247 2638 
L 247 2863 
L 803 2863 
L 803 3050 
Q 803 3478 940 3775 
Q 1078 4072 1361 4255 
Q 1644 4438 1997 4438 
Q 2325 4438 2600 4225 
Q 2781 4084 2781 3909 
Q 2781 3816 2700 3733 
Q 2619 3650 2525 3650 
Q 2453 3650 2373 3701 
Q 2294 3753 2178 3923 
Q 2063 4094 1966 4153 
Q 1869 4213 1750 4213 
Q 1606 4213 1506 4136 
Q 1406 4059 1362 3898 
Q 1319 3738 1319 3069 
L 1319 2863 
L 2056 2863 
L 2056 2638 
L 1319 2638 
z
" transform="scale(0.015625)"/>
      <path id="TimesNewRomanPSMT-43" d="M 3853 4334 
L 3950 2894 
L 3853 2894 
Q 3659 3541 3300 3825 
Q 2941 4109 2438 4109 
Q 2016 4109 1675 3895 
Q 1334 3681 1139 3212 
Q 944 2744 944 2047 
Q 944 1472 1128 1050 
Q 1313 628 1683 403 
Q 2053 178 2528 178 
Q 2941 178 3256 354 
Q 3572 531 3950 1056 
L 4047 994 
Q 3728 428 3303 165 
Q 2878 -97 2294 -97 
Q 1241 -97 663 684 
Q 231 1266 231 2053 
Q 231 2688 515 3219 
Q 800 3750 1298 4042 
Q 1797 4334 2388 4334 
Q 2847 4334 3294 4109 
Q 3425 4041 3481 4041 
Q 3566 4041 3628 4100 
Q 3709 4184 3744 4334 
L 3853 4334 
z
" transform="scale(0.015625)"/>
      <path id="TimesNewRomanPSMT-72" d="M 1038 2947 
L 1038 2303 
Q 1397 2947 1775 2947 
Q 1947 2947 2059 2842 
Q 2172 2738 2172 2600 
Q 2172 2478 2090 2393 
Q 2009 2309 1897 2309 
Q 1788 2309 1652 2417 
Q 1516 2525 1450 2525 
Q 1394 2525 1328 2463 
Q 1188 2334 1038 2041 
L 1038 669 
Q 1038 431 1097 309 
Q 1138 225 1241 169 
Q 1344 113 1538 113 
L 1538 0 
L 72 0 
L 72 113 
Q 291 113 397 181 
Q 475 231 506 341 
Q 522 394 522 644 
L 522 1753 
Q 522 2253 501 2348 
Q 481 2444 426 2487 
Q 372 2531 291 2531 
Q 194 2531 72 2484 
L 41 2597 
L 906 2947 
L 1038 2947 
z
" transform="scale(0.015625)"/>
      <path id="TimesNewRomanPSMT-65" d="M 681 1784 
Q 678 1147 991 784 
Q 1303 422 1725 422 
Q 2006 422 2214 576 
Q 2422 731 2563 1106 
L 2659 1044 
Q 2594 616 2278 264 
Q 1963 -88 1488 -88 
Q 972 -88 605 314 
Q 238 716 238 1394 
Q 238 2128 614 2539 
Q 991 2950 1559 2950 
Q 2041 2950 2350 2633 
Q 2659 2316 2659 1784 
L 681 1784 
z
M 681 1966 
L 2006 1966 
Q 1991 2241 1941 2353 
Q 1863 2528 1708 2628 
Q 1553 2728 1384 2728 
Q 1125 2728 920 2526 
Q 716 2325 681 1966 
z
" transform="scale(0.015625)"/>
      <path id="TimesNewRomanPSMT-64" d="M 2222 322 
Q 2013 103 1813 7 
Q 1613 -88 1381 -88 
Q 913 -88 563 304 
Q 213 697 213 1313 
Q 213 1928 600 2439 
Q 988 2950 1597 2950 
Q 1975 2950 2222 2709 
L 2222 3238 
Q 2222 3728 2198 3840 
Q 2175 3953 2125 3993 
Q 2075 4034 2000 4034 
Q 1919 4034 1784 3984 
L 1744 4094 
L 2597 4444 
L 2738 4444 
L 2738 1134 
Q 2738 631 2761 520 
Q 2784 409 2836 365 
Q 2888 322 2956 322 
Q 3041 322 3181 375 
L 3216 266 
L 2366 -88 
L 2222 -88 
L 2222 322 
z
M 2222 541 
L 2222 2016 
Q 2203 2228 2109 2403 
Q 2016 2578 1861 2667 
Q 1706 2756 1559 2756 
Q 1284 2756 1069 2509 
Q 784 2184 784 1559 
Q 784 928 1059 592 
Q 1334 256 1672 256 
Q 1956 256 2222 541 
z
" transform="scale(0.015625)"/>
      <path id="TimesNewRomanPSMT-44" d="M 109 0 
L 109 116 
L 269 116 
Q 538 116 650 288 
Q 719 391 719 750 
L 719 3488 
Q 719 3884 631 3984 
Q 509 4122 269 4122 
L 109 4122 
L 109 4238 
L 1834 4238 
Q 2784 4238 3279 4022 
Q 3775 3806 4076 3303 
Q 4378 2800 4378 2141 
Q 4378 1256 3841 663 
Q 3238 0 2003 0 
L 109 0 
z
M 1319 306 
Q 1716 219 1984 219 
Q 2709 219 3187 728 
Q 3666 1238 3666 2109 
Q 3666 2988 3187 3494 
Q 2709 4000 1959 4000 
Q 1678 4000 1319 3909 
L 1319 306 
z
" transform="scale(0.015625)"/>
      <path id="TimesNewRomanPSMT-3a" d="M 903 2950 
Q 1047 2950 1148 2848 
Q 1250 2747 1250 2603 
Q 1250 2459 1148 2357 
Q 1047 2256 903 2256 
Q 759 2256 657 2357 
Q 556 2459 556 2603 
Q 556 2747 657 2848 
Q 759 2950 903 2950 
z
M 897 609 
Q 1044 609 1145 506 
Q 1247 403 1247 259 
Q 1247 116 1144 14 
Q 1041 -88 897 -88 
Q 753 -88 651 14 
Q 550 116 550 259 
Q 550 403 651 506 
Q 753 609 897 609 
z
" transform="scale(0.015625)"/>
      <path id="TimesNewRomanPSMT-79" d="M 38 2863 
L 1372 2863 
L 1372 2747 
L 1306 2747 
Q 1166 2747 1095 2686 
Q 1025 2625 1025 2534 
Q 1025 2413 1128 2197 
L 1825 753 
L 2466 2334 
Q 2519 2463 2519 2588 
Q 2519 2644 2497 2672 
Q 2472 2706 2419 2726 
Q 2366 2747 2231 2747 
L 2231 2863 
L 3163 2863 
L 3163 2747 
Q 3047 2734 2984 2696 
Q 2922 2659 2847 2556 
Q 2819 2513 2741 2316 
L 1575 -541 
Q 1406 -956 1132 -1168 
Q 859 -1381 606 -1381 
Q 422 -1381 303 -1275 
Q 184 -1169 184 -1031 
Q 184 -900 270 -820 
Q 356 -741 506 -741 
Q 609 -741 788 -809 
Q 913 -856 944 -856 
Q 1038 -856 1148 -759 
Q 1259 -663 1372 -384 
L 1575 113 
L 547 2272 
Q 500 2369 397 2513 
Q 319 2622 269 2659 
Q 197 2709 38 2747 
L 38 2863 
z
" transform="scale(0.015625)"/>
      <path id="TimesNewRomanPSMT-4f" d="M 2341 4334 
Q 3166 4334 3770 3707 
Q 4375 3081 4375 2144 
Q 4375 1178 3765 540 
Q 3156 -97 2291 -97 
Q 1416 -97 820 525 
Q 225 1147 225 2134 
Q 225 3144 913 3781 
Q 1509 4334 2341 4334 
z
M 2281 4106 
Q 1713 4106 1369 3684 
Q 941 3159 941 2147 
Q 941 1109 1384 550 
Q 1725 125 2284 125 
Q 2881 125 3270 590 
Q 3659 1056 3659 2059 
Q 3659 3147 3231 3681 
Q 2888 4106 2281 4106 
z
" transform="scale(0.015625)"/>
      <path id="TimesNewRomanPSMT-59" d="M 3050 4238 
L 4528 4238 
L 4528 4122 
L 4447 4122 
Q 4366 4122 4209 4050 
Q 4053 3978 3925 3843 
Q 3797 3709 3609 3406 
L 2588 1797 
L 2588 734 
Q 2588 344 2675 247 
Q 2794 116 3050 116 
L 3188 116 
L 3188 0 
L 1388 0 
L 1388 116 
L 1538 116 
Q 1806 116 1919 278 
Q 1988 378 1988 734 
L 1988 1738 
L 825 3513 
Q 619 3825 545 3903 
Q 472 3981 241 4091 
Q 178 4122 59 4122 
L 59 4238 
L 1872 4238 
L 1872 4122 
L 1778 4122 
Q 1631 4122 1507 4053 
Q 1384 3984 1384 3847 
Q 1384 3734 1575 3441 
L 2459 2075 
L 3291 3381 
Q 3478 3675 3478 3819 
Q 3478 3906 3433 3975 
Q 3388 4044 3303 4083 
Q 3219 4122 3050 4122 
L 3050 4238 
z
" transform="scale(0.015625)"/>
      <path id="TimesNewRomanPSMT-6e" d="M 1034 2341 
Q 1538 2947 1994 2947 
Q 2228 2947 2397 2830 
Q 2566 2713 2666 2444 
Q 2734 2256 2734 1869 
L 2734 647 
Q 2734 375 2778 278 
Q 2813 200 2889 156 
Q 2966 113 3172 113 
L 3172 0 
L 1756 0 
L 1756 113 
L 1816 113 
Q 2016 113 2095 173 
Q 2175 234 2206 353 
Q 2219 400 2219 647 
L 2219 1819 
Q 2219 2209 2117 2386 
Q 2016 2563 1775 2563 
Q 1403 2563 1034 2156 
L 1034 647 
Q 1034 356 1069 288 
Q 1113 197 1189 155 
Q 1266 113 1500 113 
L 1500 0 
L 84 0 
L 84 113 
L 147 113 
Q 366 113 442 223 
Q 519 334 519 647 
L 519 1709 
Q 519 2225 495 2337 
Q 472 2450 423 2490 
Q 375 2531 294 2531 
Q 206 2531 84 2484 
L 38 2597 
L 900 2947 
L 1034 2947 
L 1034 2341 
z
" transform="scale(0.015625)"/>
      <path id="TimesNewRomanPSMT-55" d="M 3053 4122 
L 3053 4238 
L 4553 4238 
L 4553 4122 
L 4394 4122 
Q 4144 4122 4009 3913 
Q 3944 3816 3944 3463 
L 3944 1744 
Q 3944 1106 3817 754 
Q 3691 403 3320 151 
Q 2950 -100 2313 -100 
Q 1619 -100 1259 140 
Q 900 381 750 788 
Q 650 1066 650 1831 
L 650 3488 
Q 650 3878 542 4000 
Q 434 4122 194 4122 
L 34 4122 
L 34 4238 
L 1866 4238 
L 1866 4122 
L 1703 4122 
Q 1441 4122 1328 3956 
Q 1250 3844 1250 3488 
L 1250 1641 
Q 1250 1394 1295 1075 
Q 1341 756 1459 578 
Q 1578 400 1801 284 
Q 2025 169 2350 169 
Q 2766 169 3094 350 
Q 3422 531 3542 814 
Q 3663 1097 3663 1772 
L 3663 3488 
Q 3663 3884 3575 3984 
Q 3453 4122 3213 4122 
L 3053 4122 
z
" transform="scale(0.015625)"/>
      <path id="TimesNewRomanPSMT-73" d="M 2050 2947 
L 2050 1972 
L 1947 1972 
Q 1828 2431 1642 2597 
Q 1456 2763 1169 2763 
Q 950 2763 815 2647 
Q 681 2531 681 2391 
Q 681 2216 781 2091 
Q 878 1963 1175 1819 
L 1631 1597 
Q 2266 1288 2266 781 
Q 2266 391 1970 151 
Q 1675 -88 1309 -88 
Q 1047 -88 709 6 
Q 606 38 541 38 
Q 469 38 428 -44 
L 325 -44 
L 325 978 
L 428 978 
Q 516 541 762 319 
Q 1009 97 1316 97 
Q 1531 97 1667 223 
Q 1803 350 1803 528 
Q 1803 744 1651 891 
Q 1500 1038 1047 1263 
Q 594 1488 453 1669 
Q 313 1847 313 2119 
Q 313 2472 555 2709 
Q 797 2947 1181 2947 
Q 1350 2947 1591 2875 
Q 1750 2828 1803 2828 
Q 1853 2828 1881 2850 
Q 1909 2872 1947 2947 
L 2050 2947 
z
" transform="scale(0.015625)"/>
      <path id="TimesNewRomanPSMT-75" d="M 2709 2863 
L 2709 1128 
Q 2709 631 2732 520 
Q 2756 409 2807 365 
Q 2859 322 2928 322 
Q 3025 322 3147 375 
L 3191 266 
L 2334 -88 
L 2194 -88 
L 2194 519 
Q 1825 119 1631 15 
Q 1438 -88 1222 -88 
Q 981 -88 804 51 
Q 628 191 559 409 
Q 491 628 491 1028 
L 491 2306 
Q 491 2509 447 2587 
Q 403 2666 317 2708 
Q 231 2750 6 2747 
L 6 2863 
L 1009 2863 
L 1009 947 
Q 1009 547 1148 422 
Q 1288 297 1484 297 
Q 1619 297 1789 381 
Q 1959 466 2194 703 
L 2194 2325 
Q 2194 2569 2105 2655 
Q 2016 2741 1734 2747 
L 1734 2863 
L 2709 2863 
z
" transform="scale(0.015625)"/>
      <path id="TimesNewRomanPSMT-69" d="M 928 4444 
Q 1059 4444 1151 4351 
Q 1244 4259 1244 4128 
Q 1244 3997 1151 3903 
Q 1059 3809 928 3809 
Q 797 3809 703 3903 
Q 609 3997 609 4128 
Q 609 4259 701 4351 
Q 794 4444 928 4444 
z
M 1188 2947 
L 1188 647 
Q 1188 378 1227 289 
Q 1266 200 1342 156 
Q 1419 113 1622 113 
L 1622 0 
L 231 0 
L 231 113 
Q 441 113 512 153 
Q 584 194 626 287 
Q 669 381 669 647 
L 669 1750 
Q 669 2216 641 2353 
Q 619 2453 572 2492 
Q 525 2531 444 2531 
Q 356 2531 231 2484 
L 188 2597 
L 1050 2947 
L 1188 2947 
z
" transform="scale(0.015625)"/>
      <path id="TimesNewRomanPSMT-54" d="M 3703 4238 
L 3750 3244 
L 3631 3244 
Q 3597 3506 3538 3619 
Q 3441 3800 3280 3886 
Q 3119 3972 2856 3972 
L 2259 3972 
L 2259 734 
Q 2259 344 2344 247 
Q 2463 116 2709 116 
L 2856 116 
L 2856 0 
L 1059 0 
L 1059 116 
L 1209 116 
Q 1478 116 1591 278 
Q 1659 378 1659 734 
L 1659 3972 
L 1150 3972 
Q 853 3972 728 3928 
Q 566 3869 450 3700 
Q 334 3531 313 3244 
L 194 3244 
L 244 4238 
L 3703 4238 
z
" transform="scale(0.015625)"/>
     </defs>
     <use xlink:href="#TimesNewRomanPSMT-49"/>
     <use xlink:href="#TimesNewRomanPSMT-6d" x="33.300781"/>
     <use xlink:href="#TimesNewRomanPSMT-70" x="111.083984"/>
     <use xlink:href="#TimesNewRomanPSMT-61" x="161.083984"/>
     <use xlink:href="#TimesNewRomanPSMT-63" x="205.46875"/>
     <use xlink:href="#TimesNewRomanPSMT-74" x="249.853516"/>
     <use xlink:href="#TimesNewRomanPSMT-20" x="277.636719"/>
     <use xlink:href="#TimesNewRomanPSMT-6f" x="302.636719"/>
     <use xlink:href="#TimesNewRomanPSMT-66" x="352.636719"/>
     <use xlink:href="#TimesNewRomanPSMT-20" x="385.9375"/>
     <use xlink:href="#TimesNewRomanPSMT-43" x="410.9375"/>
     <use xlink:href="#TimesNewRomanPSMT-72" x="477.636719"/>
     <use xlink:href="#TimesNewRomanPSMT-65" x="510.9375"/>
     <use xlink:href="#TimesNewRomanPSMT-61" x="555.322266"/>
     <use xlink:href="#TimesNewRomanPSMT-74" x="599.707031"/>
     <use xlink:href="#TimesNewRomanPSMT-65" x="627.490234"/>
     <use xlink:href="#TimesNewRomanPSMT-64" x="671.875"/>
     <use xlink:href="#TimesNewRomanPSMT-20" x="721.875"/>
     <use xlink:href="#TimesNewRomanPSMT-44" x="746.875"/>
     <use xlink:href="#TimesNewRomanPSMT-61" x="819.091797"/>
     <use xlink:href="#TimesNewRomanPSMT-74" x="863.476562"/>
     <use xlink:href="#TimesNewRomanPSMT-65" x="891.259766"/>
     <use xlink:href="#TimesNewRomanPSMT-3a" x="935.644531"/>
     <use xlink:href="#TimesNewRomanPSMT-20" x="963.427734"/>
     <use xlink:href="#TimesNewRomanPSMT-44" x="988.427734"/>
     <use xlink:href="#TimesNewRomanPSMT-61" x="1060.644531"/>
     <use xlink:href="#TimesNewRomanPSMT-79" x="1105.029297"/>
     <use xlink:href="#TimesNewRomanPSMT-20" x="1155.029297"/>
     <use xlink:href="#TimesNewRomanPSMT-4f" x="1180.029297"/>
     <use xlink:href="#TimesNewRomanPSMT-66" x="1252.246094"/>
     <use xlink:href="#TimesNewRomanPSMT-20" x="1285.546875"/>
     <use xlink:href="#TimesNewRomanPSMT-59" x="1306.796875"/>
     <use xlink:href="#TimesNewRomanPSMT-65" x="1369.013672"/>
     <use xlink:href="#TimesNewRomanPSMT-61" x="1413.398438"/>
     <use xlink:href="#TimesNewRomanPSMT-72" x="1457.783203"/>
     <use xlink:href="#TimesNewRomanPSMT-20" x="1491.083984"/>
     <use xlink:href="#TimesNewRomanPSMT-6f" x="1516.083984"/>
     <use xlink:href="#TimesNewRomanPSMT-6e" x="1566.083984"/>
     <use xlink:href="#TimesNewRomanPSMT-20" x="1616.083984"/>
     <use xlink:href="#TimesNewRomanPSMT-55" x="1641.083984"/>
     <use xlink:href="#TimesNewRomanPSMT-6e" x="1713.300781"/>
     <use xlink:href="#TimesNewRomanPSMT-64" x="1763.300781"/>
     <use xlink:href="#TimesNewRomanPSMT-65" x="1813.300781"/>
     <use xlink:href="#TimesNewRomanPSMT-72" x="1857.685547"/>
     <use xlink:href="#TimesNewRomanPSMT-20" x="1890.986328"/>
     <use xlink:href="#TimesNewRomanPSMT-43" x="1915.986328"/>
     <use xlink:href="#TimesNewRomanPSMT-6f" x="1982.685547"/>
     <use xlink:href="#TimesNewRomanPSMT-6e" x="2032.685547"/>
     <use xlink:href="#TimesNewRomanPSMT-73" x="2082.685547"/>
     <use xlink:href="#TimesNewRomanPSMT-74" x="2121.601562"/>
     <use xlink:href="#TimesNewRomanPSMT-72" x="2149.384766"/>
     <use xlink:href="#TimesNewRomanPSMT-75" x="2182.685547"/>
     <use xlink:href="#TimesNewRomanPSMT-63" x="2232.685547"/>
     <use xlink:href="#TimesNewRomanPSMT-74" x="2277.070312"/>
     <use xlink:href="#TimesNewRomanPSMT-69" x="2304.853516"/>
     <use xlink:href="#TimesNewRomanPSMT-6f" x="2332.636719"/>
     <use xlink:href="#TimesNewRomanPSMT-6e" x="2382.636719"/>
     <use xlink:href="#TimesNewRomanPSMT-20" x="2432.636719"/>
     <use xlink:href="#TimesNewRomanPSMT-54" x="2455.886719"/>
     <use xlink:href="#TimesNewRomanPSMT-69" x="2513.470703"/>
     <use xlink:href="#TimesNewRomanPSMT-6d" x="2541.253906"/>
     <use xlink:href="#TimesNewRomanPSMT-65" x="2619.037109"/>
    </g>
   </g>
  </g>
 </g>
 <defs>
  <clipPath id="pb93192a331">
   <rect x="47.269928" y="29.88774" width="762.645145" height="359.322645"/>
  </clipPath>
 </defs>
</svg>
