<?xml version="1.0" encoding="utf-8" standalone="no"?>
<!DOCTYPE svg PUBLIC "-//W3C//DTD SVG 1.1//EN"
  "http://www.w3.org/Graphics/SVG/1.1/DTD/svg11.dtd">
<svg xmlns:xlink="http://www.w3.org/1999/xlink" width="1080pt" height="720pt" viewBox="0 0 1080 720" xmlns="http://www.w3.org/2000/svg" version="1.1">
 <metadata>
  <rdf:RDF xmlns:dc="http://purl.org/dc/elements/1.1/" xmlns:cc="http://creativecommons.org/ns#" xmlns:rdf="http://www.w3.org/1999/02/22-rdf-syntax-ns#">
   <cc:Work>
    <dc:type rdf:resource="http://purl.org/dc/dcmitype/StillImage"/>
    <dc:date>2023-11-03T19:48:31.937081</dc:date>
    <dc:format>image/svg+xml</dc:format>
    <dc:creator>
     <cc:Agent>
      <dc:title>Matplotlib v3.7.2, https://matplotlib.org/</dc:title>
     </cc:Agent>
    </dc:creator>
   </cc:Work>
  </rdf:RDF>
 </metadata>
 <defs>
  <style type="text/css">*{stroke-linejoin: round; stroke-linecap: butt}</style>
 </defs>
 <g id="figure_1">
  <g id="patch_1">
   <path d="M 0 720 
L 1080 720 
L 1080 0 
L 0 0 
z
" style="fill: #ffffff"/>
  </g>
  <g id="axes_1">
   <g id="patch_2">
    <path d="M 244.515865 675.900072 
L 1069.331526 675.900072 
L 1069.331526 35.359615 
L 244.515865 35.359615 
z
" style="fill: #ffffff"/>
   </g>
   <g id="patch_3">
    <path d="M 244.515865 40.697452 
L 1030.05459 40.697452 
L 1030.05459 83.400149 
L 244.515865 83.400149 
z
" clip-path="url(#p38fef12908)" style="fill: #3274a1"/>
   </g>
   <g id="patch_4">
    <path d="M 244.515865 94.075824 
L 1018.218937 94.075824 
L 1018.218937 136.778521 
L 244.515865 136.778521 
z
" clip-path="url(#p38fef12908)" style="fill: #e1812c"/>
   </g>
   <g id="patch_5">
    <path d="M 244.515865 147.454195 
L 879.651168 147.454195 
L 879.651168 190.156892 
L 244.515865 190.156892 
z
" clip-path="url(#p38fef12908)" style="fill: #3a923a"/>
   </g>
   <g id="patch_6">
    <path d="M 244.515865 200.832567 
L 766.507712 200.832567 
L 766.507712 243.535264 
L 244.515865 243.535264 
z
" clip-path="url(#p38fef12908)" style="fill: #c03d3e"/>
   </g>
   <g id="patch_7">
    <path d="M 244.515865 254.210938 
L 727.453299 254.210938 
L 727.453299 296.913635 
L 244.515865 296.913635 
z
" clip-path="url(#p38fef12908)" style="fill: #9372b2"/>
   </g>
   <g id="patch_8">
    <path d="M 244.515865 307.589309 
L 722.57135 307.589309 
L 722.57135 350.292007 
L 244.515865 350.292007 
z
" clip-path="url(#p38fef12908)" style="fill: #845b53"/>
   </g>
   <g id="patch_9">
    <path d="M 244.515865 360.967681 
L 706.912702 360.967681 
L 706.912702 403.670378 
L 244.515865 403.670378 
z
" clip-path="url(#p38fef12908)" style="fill: #d684bd"/>
   </g>
   <g id="patch_10">
    <path d="M 244.515865 414.346052 
L 663.601658 414.346052 
L 663.601658 457.04875 
L 244.515865 457.04875 
z
" clip-path="url(#p38fef12908)" style="fill: #7f7f7f"/>
   </g>
   <g id="patch_11">
    <path d="M 244.515865 467.724424 
L 653.8356 467.724424 
L 653.8356 510.427121 
L 244.515865 510.427121 
z
" clip-path="url(#p38fef12908)" style="fill: #a9aa35"/>
   </g>
   <g id="patch_12">
    <path d="M 244.515865 521.102795 
L 644.278111 521.102795 
L 644.278111 563.805492 
L 244.515865 563.805492 
z
" clip-path="url(#p38fef12908)" style="fill: #2eabb8"/>
   </g>
   <g id="patch_13">
    <path d="M 244.515865 574.481167 
L 594.256498 574.481167 
L 594.256498 617.183864 
L 244.515865 617.183864 
z
" clip-path="url(#p38fef12908)" style="fill: #3274a1"/>
   </g>
   <g id="patch_14">
    <path d="M 244.515865 627.859538 
L 583.646341 627.859538 
L 583.646341 670.562235 
L 244.515865 670.562235 
z
" clip-path="url(#p38fef12908)" style="fill: #e1812c"/>
   </g>
   <g id="matplotlib.axis_1">
    <g id="xtick_1">
     <g id="line2d_1">
      <defs>
       <path id="mdfa5cf5777" d="M 0 0 
L 0 3.5 
" style="stroke: #58544f; stroke-width: 0.8"/>
      </defs>
      <g>
       <use xlink:href="#mdfa5cf5777" x="244.515865" y="675.900072" style="fill: #58544f; stroke: #58544f; stroke-width: 0.8"/>
      </g>
     </g>
     <g id="text_1">
      <!-- 0.0 -->
      <g style="fill: #58544f" transform="translate(235.765865 692.170697) scale(0.14 -0.14)">
       <defs>
        <path id="TimesNewRomanPS-BoldMT-30" d="M 2966 2119 
Q 2966 1484 2788 934 
Q 2681 597 2501 381 
Q 2322 166 2094 39 
Q 1866 -88 1597 -88 
Q 1291 -88 1044 68 
Q 797 225 606 516 
Q 469 728 366 1081 
Q 231 1559 231 2069 
Q 231 2759 425 3338 
Q 584 3816 909 4070 
Q 1234 4325 1597 4325 
Q 1966 4325 2286 4073 
Q 2606 3822 2756 3397 
Q 2966 2813 2966 2119 
z
M 2003 2125 
Q 2003 3238 1991 3422 
Q 1959 3856 1841 4009 
Q 1763 4109 1588 4109 
Q 1453 4109 1375 4034 
Q 1259 3925 1218 3648 
Q 1178 3372 1178 1719 
Q 1178 819 1241 513 
Q 1288 291 1375 216 
Q 1463 141 1606 141 
Q 1763 141 1841 241 
Q 1972 416 1991 781 
L 2003 2125 
z
" transform="scale(0.015625)"/>
        <path id="TimesNewRomanPS-BoldMT-2e" d="M 800 963 
Q 1019 963 1170 809 
Q 1322 656 1322 441 
Q 1322 225 1169 73 
Q 1016 -78 800 -78 
Q 584 -78 432 73 
Q 281 225 281 441 
Q 281 656 432 809 
Q 584 963 800 963 
z
" transform="scale(0.015625)"/>
       </defs>
       <use xlink:href="#TimesNewRomanPS-BoldMT-30"/>
       <use xlink:href="#TimesNewRomanPS-BoldMT-2e" x="50"/>
       <use xlink:href="#TimesNewRomanPS-BoldMT-30" x="75"/>
      </g>
     </g>
    </g>
    <g id="xtick_2">
     <g id="line2d_2">
      <g>
       <use xlink:href="#mdfa5cf5777" x="409.262648" y="675.900072" style="fill: #58544f; stroke: #58544f; stroke-width: 0.8"/>
      </g>
     </g>
     <g id="text_2">
      <!-- 0.2 -->
      <g style="fill: #58544f" transform="translate(400.512648 692.170697) scale(0.14 -0.14)">
       <defs>
        <path id="TimesNewRomanPS-BoldMT-32" d="M 2650 0 
L 156 0 
L 156 69 
Q 1303 1434 1548 1906 
Q 1794 2378 1794 2828 
Q 1794 3156 1591 3373 
Q 1388 3591 1094 3591 
Q 613 3591 347 3109 
L 231 3150 
Q 400 3750 744 4037 
Q 1088 4325 1538 4325 
Q 1859 4325 2125 4175 
Q 2391 4025 2541 3764 
Q 2691 3503 2691 3275 
Q 2691 2859 2459 2431 
Q 2144 1853 1081 819 
L 1997 819 
Q 2334 819 2436 847 
Q 2538 875 2603 942 
Q 2669 1009 2775 1225 
L 2888 1225 
L 2650 0 
z
" transform="scale(0.015625)"/>
       </defs>
       <use xlink:href="#TimesNewRomanPS-BoldMT-30"/>
       <use xlink:href="#TimesNewRomanPS-BoldMT-2e" x="50"/>
       <use xlink:href="#TimesNewRomanPS-BoldMT-32" x="75"/>
      </g>
     </g>
    </g>
    <g id="xtick_3">
     <g id="line2d_3">
      <g>
       <use xlink:href="#mdfa5cf5777" x="574.009431" y="675.900072" style="fill: #58544f; stroke: #58544f; stroke-width: 0.8"/>
      </g>
     </g>
     <g id="text_3">
      <!-- 0.4 -->
      <g style="fill: #58544f" transform="translate(565.259431 692.170697) scale(0.14 -0.14)">
       <defs>
        <path id="TimesNewRomanPS-BoldMT-34" d="M 159 1597 
L 2172 4325 
L 2553 4325 
L 2553 1597 
L 2941 1597 
L 2941 950 
L 2553 950 
L 2553 0 
L 1694 0 
L 1694 950 
L 159 950 
L 159 1597 
z
M 463 1597 
L 1694 1597 
L 1694 3269 
L 463 1597 
z
" transform="scale(0.015625)"/>
       </defs>
       <use xlink:href="#TimesNewRomanPS-BoldMT-30"/>
       <use xlink:href="#TimesNewRomanPS-BoldMT-2e" x="50"/>
       <use xlink:href="#TimesNewRomanPS-BoldMT-34" x="75"/>
      </g>
     </g>
    </g>
    <g id="xtick_4">
     <g id="line2d_4">
      <g>
       <use xlink:href="#mdfa5cf5777" x="738.756215" y="675.900072" style="fill: #58544f; stroke: #58544f; stroke-width: 0.8"/>
      </g>
     </g>
     <g id="text_4">
      <!-- 0.6 -->
      <g style="fill: #58544f" transform="translate(730.006215 692.170697) scale(0.14 -0.14)">
       <defs>
        <path id="TimesNewRomanPS-BoldMT-36" d="M 3006 4325 
L 3006 4238 
Q 2441 4094 2098 3867 
Q 1756 3641 1557 3317 
Q 1359 2994 1250 2516 
Q 1388 2609 1478 2638 
Q 1681 2700 1888 2700 
Q 2363 2700 2680 2354 
Q 2997 2009 2997 1413 
Q 2997 994 2825 644 
Q 2653 294 2337 103 
Q 2022 -88 1663 -88 
Q 1272 -88 940 126 
Q 609 341 423 753 
Q 238 1166 238 1650 
Q 238 2363 580 2977 
Q 922 3591 1551 3955 
Q 2181 4319 3006 4325 
z
M 1209 2263 
Q 1184 1831 1184 1631 
Q 1184 1200 1267 797 
Q 1350 394 1494 231 
Q 1597 116 1738 116 
Q 1881 116 1993 283 
Q 2106 450 2106 963 
Q 2106 1825 1897 2153 
Q 1763 2366 1534 2366 
Q 1409 2366 1209 2263 
z
" transform="scale(0.015625)"/>
       </defs>
       <use xlink:href="#TimesNewRomanPS-BoldMT-30"/>
       <use xlink:href="#TimesNewRomanPS-BoldMT-2e" x="50"/>
       <use xlink:href="#TimesNewRomanPS-BoldMT-36" x="75"/>
      </g>
     </g>
    </g>
    <g id="xtick_5">
     <g id="line2d_5">
      <g>
       <use xlink:href="#mdfa5cf5777" x="903.502998" y="675.900072" style="fill: #58544f; stroke: #58544f; stroke-width: 0.8"/>
      </g>
     </g>
     <g id="text_5">
      <!-- 0.8 -->
      <g style="fill: #58544f" transform="translate(894.752998 692.170697) scale(0.14 -0.14)">
       <defs>
        <path id="TimesNewRomanPS-BoldMT-38" d="M 2181 2394 
Q 2628 2066 2801 1783 
Q 2975 1500 2975 1134 
Q 2975 622 2589 267 
Q 2203 -88 1541 -88 
Q 913 -88 569 221 
Q 225 531 225 978 
Q 225 1319 423 1575 
Q 622 1831 1084 2044 
Q 581 2428 439 2672 
Q 297 2916 297 3238 
Q 297 3663 658 3986 
Q 1019 4309 1647 4309 
Q 2253 4309 2579 4023 
Q 2906 3738 2906 3338 
Q 2906 3038 2729 2808 
Q 2553 2578 2181 2394 
z
M 1944 2553 
Q 2059 2709 2115 2903 
Q 2172 3097 2172 3328 
Q 2172 3734 1997 3950 
Q 1866 4116 1634 4116 
Q 1425 4116 1278 3964 
Q 1131 3813 1131 3588 
Q 1131 3359 1295 3114 
Q 1459 2869 1944 2553 
z
M 1319 1894 
Q 1222 1806 1181 1734 
Q 1119 1625 1069 1415 
Q 1019 1206 1019 978 
Q 1019 684 1094 486 
Q 1169 288 1308 200 
Q 1447 113 1594 113 
Q 1822 113 1978 280 
Q 2134 447 2134 738 
Q 2134 1344 1319 1894 
z
" transform="scale(0.015625)"/>
       </defs>
       <use xlink:href="#TimesNewRomanPS-BoldMT-30"/>
       <use xlink:href="#TimesNewRomanPS-BoldMT-2e" x="50"/>
       <use xlink:href="#TimesNewRomanPS-BoldMT-38" x="75"/>
      </g>
     </g>
    </g>
    <g id="xtick_6">
     <g id="line2d_6">
      <g>
       <use xlink:href="#mdfa5cf5777" x="1068.249781" y="675.900072" style="fill: #58544f; stroke: #58544f; stroke-width: 0.8"/>
      </g>
     </g>
     <g id="text_6">
      <!-- 1.0 -->
      <g style="fill: #58544f" transform="translate(1059.499781 692.170697) scale(0.14 -0.14)">
       <defs>
        <path id="TimesNewRomanPS-BoldMT-31" d="M 2084 4325 
L 2084 859 
Q 2084 469 2118 361 
Q 2153 253 2262 184 
Q 2372 116 2613 116 
L 2709 116 
L 2709 0 
L 478 0 
L 478 116 
L 591 116 
Q 863 116 978 178 
Q 1094 241 1134 350 
Q 1175 459 1175 859 
L 1175 3056 
Q 1175 3350 1147 3423 
Q 1119 3497 1042 3548 
Q 966 3600 866 3600 
Q 706 3600 478 3500 
L 422 3613 
L 1981 4325 
L 2084 4325 
z
" transform="scale(0.015625)"/>
       </defs>
       <use xlink:href="#TimesNewRomanPS-BoldMT-31"/>
       <use xlink:href="#TimesNewRomanPS-BoldMT-2e" x="50"/>
       <use xlink:href="#TimesNewRomanPS-BoldMT-30" x="75"/>
      </g>
     </g>
    </g>
    <g id="text_7">
     <!-- Impact on UnderConstructionTime -->
     <g style="fill: #58544f" transform="translate(505.434633 712.721635) scale(0.2 -0.2)">
      <defs>
       <path id="TimesNewRomanPS-BoldMT-49" d="M 2344 116 
L 2344 0 
L 128 0 
L 128 116 
L 269 116 
Q 453 116 566 181 
Q 647 225 691 331 
Q 725 406 725 725 
L 725 3513 
Q 725 3838 690 3919 
Q 656 4000 551 4061 
Q 447 4122 269 4122 
L 128 4122 
L 128 4238 
L 2344 4238 
L 2344 4122 
L 2203 4122 
Q 2019 4122 1906 4056 
Q 1825 4013 1778 3906 
Q 1744 3831 1744 3513 
L 1744 725 
Q 1744 400 1780 319 
Q 1816 238 1920 177 
Q 2025 116 2203 116 
L 2344 116 
z
" transform="scale(0.015625)"/>
       <path id="TimesNewRomanPS-BoldMT-6d" d="M 1428 2922 
L 1428 2538 
Q 1669 2800 1873 2904 
Q 2078 3009 2322 3009 
Q 2603 3009 2793 2878 
Q 2984 2747 3088 2478 
Q 3338 2759 3567 2884 
Q 3797 3009 4047 3009 
Q 4350 3009 4529 2870 
Q 4709 2731 4779 2517 
Q 4850 2303 4850 1834 
L 4850 638 
Q 4850 300 4911 219 
Q 4972 138 5166 113 
L 5166 0 
L 3656 0 
L 3656 113 
Q 3834 128 3919 250 
Q 3975 334 3975 638 
L 3975 1894 
Q 3975 2284 3944 2390 
Q 3913 2497 3845 2548 
Q 3778 2600 3688 2600 
Q 3553 2600 3415 2501 
Q 3278 2403 3138 2206 
L 3138 638 
Q 3138 322 3191 241 
Q 3263 125 3466 113 
L 3466 0 
L 1953 0 
L 1953 113 
Q 2075 119 2145 173 
Q 2216 228 2239 304 
Q 2263 381 2263 638 
L 2263 1894 
Q 2263 2291 2231 2391 
Q 2200 2491 2126 2547 
Q 2053 2603 1969 2603 
Q 1844 2603 1741 2538 
Q 1594 2441 1428 2206 
L 1428 638 
Q 1428 328 1489 229 
Q 1550 131 1744 113 
L 1744 0 
L 238 0 
L 238 113 
Q 422 131 500 231 
Q 553 300 553 638 
L 553 2288 
Q 553 2619 492 2700 
Q 431 2781 238 2806 
L 238 2922 
L 1428 2922 
z
" transform="scale(0.015625)"/>
       <path id="TimesNewRomanPS-BoldMT-70" d="M 1347 297 
L 1347 -791 
Q 1347 -1016 1383 -1097 
Q 1419 -1178 1494 -1215 
Q 1569 -1253 1788 -1253 
L 1788 -1369 
L 122 -1369 
L 122 -1253 
Q 316 -1247 409 -1144 
Q 472 -1072 472 -772 
L 472 2313 
Q 472 2622 400 2708 
Q 328 2794 122 2806 
L 122 2922 
L 1347 2922 
L 1347 2538 
Q 1500 2763 1659 2863 
Q 1888 3009 2156 3009 
Q 2478 3009 2742 2806 
Q 3006 2603 3143 2245 
Q 3281 1888 3281 1475 
Q 3281 1031 3139 664 
Q 2997 297 2726 104 
Q 2456 -88 2125 -88 
Q 1884 -88 1675 19 
Q 1519 100 1347 297 
z
M 1347 613 
Q 1616 231 1922 231 
Q 2091 231 2200 409 
Q 2363 672 2363 1409 
Q 2363 2166 2184 2444 
Q 2066 2628 1866 2628 
Q 1550 2628 1347 2172 
L 1347 613 
z
" transform="scale(0.015625)"/>
       <path id="TimesNewRomanPS-BoldMT-61" d="M 1828 431 
Q 1294 -41 869 -41 
Q 619 -41 453 123 
Q 288 288 288 534 
Q 288 869 575 1136 
Q 863 1403 1828 1847 
L 1828 2141 
Q 1828 2472 1792 2558 
Q 1756 2644 1656 2708 
Q 1556 2772 1431 2772 
Q 1228 2772 1097 2681 
Q 1016 2625 1016 2550 
Q 1016 2484 1103 2388 
Q 1222 2253 1222 2128 
Q 1222 1975 1108 1867 
Q 994 1759 809 1759 
Q 613 1759 480 1878 
Q 347 1997 347 2156 
Q 347 2381 525 2586 
Q 703 2791 1022 2900 
Q 1341 3009 1684 3009 
Q 2100 3009 2342 2832 
Q 2584 2656 2656 2450 
Q 2700 2319 2700 1847 
L 2700 713 
Q 2700 513 2715 461 
Q 2731 409 2762 384 
Q 2794 359 2834 359 
Q 2916 359 3000 475 
L 3094 400 
Q 2938 169 2770 64 
Q 2603 -41 2391 -41 
Q 2141 -41 2000 76 
Q 1859 194 1828 431 
z
M 1828 659 
L 1828 1638 
Q 1450 1416 1266 1163 
Q 1144 994 1144 822 
Q 1144 678 1247 569 
Q 1325 484 1466 484 
Q 1622 484 1828 659 
z
" transform="scale(0.015625)"/>
       <path id="TimesNewRomanPS-BoldMT-63" d="M 2600 753 
L 2697 678 
Q 2491 291 2183 101 
Q 1875 -88 1528 -88 
Q 944 -88 594 353 
Q 244 794 244 1413 
Q 244 2009 563 2463 
Q 947 3009 1622 3009 
Q 2075 3009 2342 2781 
Q 2609 2553 2609 2272 
Q 2609 2094 2501 1987 
Q 2394 1881 2219 1881 
Q 2034 1881 1914 2003 
Q 1794 2125 1766 2438 
Q 1747 2634 1675 2713 
Q 1603 2791 1506 2791 
Q 1356 2791 1250 2631 
Q 1088 2391 1088 1894 
Q 1088 1481 1219 1104 
Q 1350 728 1578 544 
Q 1750 409 1984 409 
Q 2138 409 2275 481 
Q 2413 553 2600 753 
z
" transform="scale(0.015625)"/>
       <path id="TimesNewRomanPS-BoldMT-74" d="M 1375 3991 
L 1375 2922 
L 2069 2922 
L 2069 2613 
L 1375 2613 
L 1375 809 
Q 1375 556 1398 482 
Q 1422 409 1481 364 
Q 1541 319 1591 319 
Q 1794 319 1975 628 
L 2069 559 
Q 1816 -41 1247 -41 
Q 969 -41 776 114 
Q 584 269 531 459 
Q 500 566 500 1034 
L 500 2613 
L 119 2613 
L 119 2722 
Q 513 3000 789 3306 
Q 1066 3613 1272 3991 
L 1375 3991 
z
" transform="scale(0.015625)"/>
       <path id="TimesNewRomanPS-BoldMT-20" transform="scale(0.015625)"/>
       <path id="TimesNewRomanPS-BoldMT-6f" d="M 1594 3009 
Q 1975 3009 2303 2812 
Q 2631 2616 2801 2253 
Q 2972 1891 2972 1459 
Q 2972 838 2656 419 
Q 2275 -88 1603 -88 
Q 944 -88 587 375 
Q 231 838 231 1447 
Q 231 2075 595 2542 
Q 959 3009 1594 3009 
z
M 1606 2788 
Q 1447 2788 1333 2667 
Q 1219 2547 1183 2192 
Q 1147 1838 1147 1206 
Q 1147 872 1191 581 
Q 1225 359 1337 243 
Q 1450 128 1594 128 
Q 1734 128 1828 206 
Q 1950 313 1991 503 
Q 2053 800 2053 1703 
Q 2053 2234 1993 2432 
Q 1934 2631 1819 2722 
Q 1738 2788 1606 2788 
z
" transform="scale(0.015625)"/>
       <path id="TimesNewRomanPS-BoldMT-6e" d="M 1409 2922 
L 1409 2544 
Q 1634 2788 1840 2898 
Q 2047 3009 2284 3009 
Q 2569 3009 2756 2851 
Q 2944 2694 3006 2459 
Q 3056 2281 3056 1775 
L 3056 638 
Q 3056 300 3117 217 
Q 3178 134 3372 113 
L 3372 0 
L 1894 0 
L 1894 113 
Q 2059 134 2131 250 
Q 2181 328 2181 638 
L 2181 1938 
Q 2181 2297 2153 2390 
Q 2125 2484 2058 2536 
Q 1991 2588 1909 2588 
Q 1641 2588 1409 2203 
L 1409 638 
Q 1409 309 1470 221 
Q 1531 134 1697 113 
L 1697 0 
L 219 0 
L 219 113 
Q 403 131 481 231 
Q 534 300 534 638 
L 534 2288 
Q 534 2619 473 2700 
Q 413 2781 219 2806 
L 219 2922 
L 1409 2922 
z
" transform="scale(0.015625)"/>
       <path id="TimesNewRomanPS-BoldMT-55" d="M 150 4238 
L 2338 4238 
L 2338 4122 
L 2228 4122 
Q 1981 4122 1889 4070 
Q 1797 4019 1758 3928 
Q 1719 3838 1719 3475 
L 1719 1400 
Q 1719 831 1805 647 
Q 1891 463 2087 341 
Q 2284 219 2584 219 
Q 2928 219 3170 373 
Q 3413 528 3533 800 
Q 3653 1072 3653 1747 
L 3653 3475 
Q 3653 3759 3593 3881 
Q 3534 4003 3444 4050 
Q 3303 4122 3047 4122 
L 3047 4238 
L 4513 4238 
L 4513 4122 
L 4425 4122 
Q 4247 4122 4128 4050 
Q 4009 3978 3956 3834 
Q 3916 3734 3916 3475 
L 3916 1866 
Q 3916 1119 3817 787 
Q 3719 456 3337 178 
Q 2956 -100 2297 -100 
Q 1747 -100 1447 47 
Q 1038 247 869 559 
Q 700 872 700 1400 
L 700 3475 
Q 700 3841 659 3930 
Q 619 4019 519 4072 
Q 419 4125 150 4122 
L 150 4238 
z
" transform="scale(0.015625)"/>
       <path id="TimesNewRomanPS-BoldMT-64" d="M 3056 4238 
L 3056 875 
Q 3056 534 3075 472 
Q 3100 369 3170 319 
Q 3241 269 3416 256 
L 3416 153 
L 2181 -88 
L 2181 375 
Q 1959 106 1786 9 
Q 1613 -88 1394 -88 
Q 834 -88 509 413 
Q 247 819 247 1409 
Q 247 1881 409 2254 
Q 572 2628 855 2818 
Q 1138 3009 1463 3009 
Q 1672 3009 1834 2928 
Q 1997 2847 2181 2644 
L 2181 3525 
Q 2181 3859 2153 3928 
Q 2116 4019 2041 4062 
Q 1966 4106 1759 4106 
L 1759 4238 
L 3056 4238 
z
M 2181 2256 
Q 1950 2700 1616 2700 
Q 1500 2700 1425 2638 
Q 1309 2541 1236 2297 
Q 1163 2053 1163 1550 
Q 1163 997 1244 731 
Q 1325 466 1466 347 
Q 1538 288 1663 288 
Q 1938 288 2181 719 
L 2181 2256 
z
" transform="scale(0.015625)"/>
       <path id="TimesNewRomanPS-BoldMT-65" d="M 2691 1566 
L 1088 1566 
Q 1116 984 1397 647 
Q 1613 388 1916 388 
Q 2103 388 2256 492 
Q 2409 597 2584 869 
L 2691 800 
Q 2453 316 2165 114 
Q 1878 -88 1500 -88 
Q 850 -88 516 413 
Q 247 816 247 1413 
Q 247 2144 642 2576 
Q 1038 3009 1569 3009 
Q 2013 3009 2339 2645 
Q 2666 2281 2691 1566 
z
M 1922 1775 
Q 1922 2278 1867 2465 
Q 1813 2653 1697 2750 
Q 1631 2806 1522 2806 
Q 1359 2806 1256 2647 
Q 1072 2369 1072 1884 
L 1072 1775 
L 1922 1775 
z
" transform="scale(0.015625)"/>
       <path id="TimesNewRomanPS-BoldMT-72" d="M 1428 2922 
L 1428 2259 
Q 1719 2713 1937 2861 
Q 2156 3009 2359 3009 
Q 2534 3009 2639 2901 
Q 2744 2794 2744 2597 
Q 2744 2388 2642 2272 
Q 2541 2156 2397 2156 
Q 2231 2156 2109 2262 
Q 1988 2369 1966 2381 
Q 1934 2400 1894 2400 
Q 1803 2400 1722 2331 
Q 1594 2225 1528 2028 
Q 1428 1725 1428 1359 
L 1428 688 
L 1431 513 
Q 1431 334 1453 284 
Q 1491 200 1564 161 
Q 1638 122 1813 113 
L 1813 0 
L 234 0 
L 234 113 
Q 425 128 492 217 
Q 559 306 559 688 
L 559 2303 
Q 559 2553 534 2622 
Q 503 2709 443 2750 
Q 384 2791 234 2806 
L 234 2922 
L 1428 2922 
z
" transform="scale(0.015625)"/>
       <path id="TimesNewRomanPS-BoldMT-43" d="M 4272 4334 
L 4272 2866 
L 4150 2866 
Q 4013 3441 3638 3747 
Q 3263 4053 2788 4053 
Q 2391 4053 2059 3825 
Q 1728 3597 1575 3228 
Q 1378 2756 1378 2178 
Q 1378 1609 1522 1142 
Q 1666 675 1972 436 
Q 2278 197 2766 197 
Q 3166 197 3498 372 
Q 3831 547 4200 975 
L 4200 609 
Q 3844 238 3458 70 
Q 3072 -97 2556 -97 
Q 1878 -97 1351 175 
Q 825 447 539 956 
Q 253 1466 253 2041 
Q 253 2647 570 3190 
Q 888 3734 1427 4034 
Q 1966 4334 2572 4334 
Q 3019 4334 3516 4141 
Q 3803 4028 3881 4028 
Q 3981 4028 4054 4101 
Q 4128 4175 4150 4334 
L 4272 4334 
z
" transform="scale(0.015625)"/>
       <path id="TimesNewRomanPS-BoldMT-73" d="M 2063 3003 
L 2109 2006 
L 2003 2006 
Q 1813 2450 1608 2612 
Q 1403 2775 1200 2775 
Q 1072 2775 981 2689 
Q 891 2603 891 2491 
Q 891 2406 953 2328 
Q 1053 2200 1512 1889 
Q 1972 1578 2117 1361 
Q 2263 1144 2263 875 
Q 2263 631 2141 397 
Q 2019 163 1797 37 
Q 1575 -88 1306 -88 
Q 1097 -88 747 44 
Q 653 78 619 78 
Q 516 78 447 -78 
L 344 -78 
L 294 972 
L 400 972 
Q 541 559 786 353 
Q 1031 147 1250 147 
Q 1400 147 1495 239 
Q 1591 331 1591 463 
Q 1591 613 1497 722 
Q 1403 831 1078 1053 
Q 600 1384 459 1559 
Q 253 1816 253 2125 
Q 253 2463 486 2736 
Q 719 3009 1159 3009 
Q 1397 3009 1619 2894 
Q 1703 2847 1756 2847 
Q 1813 2847 1847 2870 
Q 1881 2894 1956 3003 
L 2063 3003 
z
" transform="scale(0.015625)"/>
       <path id="TimesNewRomanPS-BoldMT-75" d="M 3038 2922 
L 3038 634 
Q 3038 300 3100 217 
Q 3163 134 3353 113 
L 3353 0 
L 2163 0 
L 2163 391 
Q 1953 141 1743 26 
Q 1534 -88 1275 -88 
Q 1028 -88 836 64 
Q 644 216 578 419 
Q 513 622 513 1128 
L 513 2288 
Q 513 2619 452 2700 
Q 391 2781 197 2806 
L 197 2922 
L 1388 2922 
L 1388 925 
Q 1388 613 1417 522 
Q 1447 431 1511 384 
Q 1575 338 1659 338 
Q 1772 338 1863 397 
Q 1988 478 2163 725 
L 2163 2288 
Q 2163 2619 2102 2700 
Q 2041 2781 1847 2806 
L 1847 2922 
L 3038 2922 
z
" transform="scale(0.015625)"/>
       <path id="TimesNewRomanPS-BoldMT-69" d="M 919 4338 
Q 1122 4338 1262 4195 
Q 1403 4053 1403 3853 
Q 1403 3653 1261 3512 
Q 1119 3372 919 3372 
Q 719 3372 578 3512 
Q 438 3653 438 3853 
Q 438 4053 578 4195 
Q 719 4338 919 4338 
z
M 1356 2922 
L 1356 606 
Q 1356 297 1428 211 
Q 1500 125 1709 113 
L 1709 0 
L 131 0 
L 131 113 
Q 325 119 419 225 
Q 481 297 481 606 
L 481 2313 
Q 481 2622 409 2708 
Q 338 2794 131 2806 
L 131 2922 
L 1356 2922 
z
" transform="scale(0.015625)"/>
       <path id="TimesNewRomanPS-BoldMT-54" d="M 4038 4238 
L 4038 3091 
L 3925 3091 
Q 3825 3488 3703 3661 
Q 3581 3834 3369 3938 
Q 3250 3994 2953 3994 
L 2638 3994 
L 2638 725 
Q 2638 400 2673 319 
Q 2709 238 2814 177 
Q 2919 116 3100 116 
L 3241 116 
L 3241 0 
L 1022 0 
L 1022 116 
L 1163 116 
Q 1347 116 1459 181 
Q 1541 225 1588 331 
Q 1622 406 1622 725 
L 1622 3994 
L 1316 3994 
Q 888 3994 694 3813 
Q 422 3559 350 3091 
L 231 3091 
L 231 4238 
L 4038 4238 
z
" transform="scale(0.015625)"/>
      </defs>
      <use xlink:href="#TimesNewRomanPS-BoldMT-49"/>
      <use xlink:href="#TimesNewRomanPS-BoldMT-6d" x="38.916016"/>
      <use xlink:href="#TimesNewRomanPS-BoldMT-70" x="122.216797"/>
      <use xlink:href="#TimesNewRomanPS-BoldMT-61" x="177.832031"/>
      <use xlink:href="#TimesNewRomanPS-BoldMT-63" x="227.832031"/>
      <use xlink:href="#TimesNewRomanPS-BoldMT-74" x="272.216797"/>
      <use xlink:href="#TimesNewRomanPS-BoldMT-20" x="305.517578"/>
      <use xlink:href="#TimesNewRomanPS-BoldMT-6f" x="330.517578"/>
      <use xlink:href="#TimesNewRomanPS-BoldMT-6e" x="380.517578"/>
      <use xlink:href="#TimesNewRomanPS-BoldMT-20" x="436.132812"/>
      <use xlink:href="#TimesNewRomanPS-BoldMT-55" x="461.132812"/>
      <use xlink:href="#TimesNewRomanPS-BoldMT-6e" x="533.349609"/>
      <use xlink:href="#TimesNewRomanPS-BoldMT-64" x="588.964844"/>
      <use xlink:href="#TimesNewRomanPS-BoldMT-65" x="644.580078"/>
      <use xlink:href="#TimesNewRomanPS-BoldMT-72" x="688.964844"/>
      <use xlink:href="#TimesNewRomanPS-BoldMT-43" x="733.349609"/>
      <use xlink:href="#TimesNewRomanPS-BoldMT-6f" x="805.566406"/>
      <use xlink:href="#TimesNewRomanPS-BoldMT-6e" x="855.566406"/>
      <use xlink:href="#TimesNewRomanPS-BoldMT-73" x="911.181641"/>
      <use xlink:href="#TimesNewRomanPS-BoldMT-74" x="950.097656"/>
      <use xlink:href="#TimesNewRomanPS-BoldMT-72" x="983.398438"/>
      <use xlink:href="#TimesNewRomanPS-BoldMT-75" x="1027.783203"/>
      <use xlink:href="#TimesNewRomanPS-BoldMT-63" x="1083.398438"/>
      <use xlink:href="#TimesNewRomanPS-BoldMT-74" x="1127.783203"/>
      <use xlink:href="#TimesNewRomanPS-BoldMT-69" x="1161.083984"/>
      <use xlink:href="#TimesNewRomanPS-BoldMT-6f" x="1188.867188"/>
      <use xlink:href="#TimesNewRomanPS-BoldMT-6e" x="1238.867188"/>
      <use xlink:href="#TimesNewRomanPS-BoldMT-54" x="1294.482422"/>
      <use xlink:href="#TimesNewRomanPS-BoldMT-69" x="1359.431641"/>
      <use xlink:href="#TimesNewRomanPS-BoldMT-6d" x="1387.214844"/>
      <use xlink:href="#TimesNewRomanPS-BoldMT-65" x="1470.515625"/>
     </g>
    </g>
   </g>
   <g id="matplotlib.axis_2">
    <g id="ytick_1">
     <g id="line2d_7">
      <defs>
       <path id="mb9a62197d1" d="M 0 0 
L -3.5 0 
" style="stroke: #58544f; stroke-width: 0.8"/>
      </defs>
      <g>
       <use xlink:href="#mb9a62197d1" x="244.515865" y="62.048801" style="fill: #58544f; stroke: #58544f; stroke-width: 0.8"/>
      </g>
     </g>
     <g id="text_8">
      <!-- WZ_2ndTransLenStart -->
      <g style="fill: #58544f" transform="translate(35.622115 68.820676) scale(0.2 -0.2)">
       <defs>
        <path id="TimesNewRomanPS-BoldMT-57" d="M 6344 4238 
L 6344 4122 
Q 6225 4113 6144 4056 
Q 6063 4000 6000 3884 
Q 5981 3847 5803 3400 
L 4475 -97 
L 4353 -97 
L 3303 2634 
L 2147 -97 
L 2031 -97 
L 638 3363 
Q 425 3884 340 3993 
Q 256 4103 56 4122 
L 56 4238 
L 1894 4238 
L 1894 4122 
Q 1672 4116 1598 4055 
Q 1525 3994 1525 3903 
Q 1525 3784 1678 3400 
L 2509 1344 
L 3175 2950 
L 3000 3400 
Q 2856 3769 2778 3892 
Q 2700 4016 2598 4069 
Q 2497 4122 2300 4122 
L 2300 4238 
L 4353 4238 
L 4353 4122 
Q 4138 4119 4044 4088 
Q 3978 4066 3940 4014 
Q 3903 3963 3903 3897 
Q 3903 3825 4044 3456 
L 4816 1450 
L 5506 3266 
Q 5616 3547 5641 3650 
Q 5666 3753 5666 3841 
Q 5666 3969 5578 4042 
Q 5491 4116 5244 4122 
L 5244 4238 
L 6344 4238 
z
" transform="scale(0.015625)"/>
        <path id="TimesNewRomanPS-BoldMT-5a" d="M 3906 4238 
L 1416 238 
L 2222 238 
Q 2794 238 3022 309 
Q 3394 422 3662 723 
Q 3931 1025 4034 1531 
L 4156 1531 
L 3984 0 
L 103 0 
L 2597 4006 
L 1969 4006 
Q 1603 4006 1488 3984 
Q 1269 3944 1076 3823 
Q 884 3703 757 3503 
Q 631 3303 559 2997 
L 444 2997 
L 559 4238 
L 3906 4238 
z
" transform="scale(0.015625)"/>
        <path id="TimesNewRomanPS-BoldMT-5f" d="M -59 -972 
L 3259 -972 
L 3259 -1381 
L -59 -1381 
L -59 -972 
z
" transform="scale(0.015625)"/>
        <path id="TimesNewRomanPS-BoldMT-4c" d="M 4041 1488 
L 3881 0 
L 119 0 
L 119 116 
L 259 116 
Q 444 116 556 181 
Q 638 225 681 331 
Q 716 406 716 725 
L 716 3513 
Q 716 3838 681 3919 
Q 647 4000 542 4061 
Q 438 4122 259 4122 
L 119 4122 
L 119 4238 
L 2378 4238 
L 2378 4122 
L 2194 4122 
Q 2009 4122 1897 4056 
Q 1816 4013 1769 3906 
Q 1734 3831 1734 3513 
L 1734 813 
Q 1734 488 1771 398 
Q 1809 309 1919 266 
Q 1997 238 2297 238 
L 2650 238 
Q 2988 238 3213 356 
Q 3438 475 3602 731 
Q 3766 988 3913 1488 
L 4041 1488 
z
" transform="scale(0.015625)"/>
        <path id="TimesNewRomanPS-BoldMT-53" d="M 3006 4334 
L 3041 2922 
L 2913 2922 
Q 2822 3453 2467 3776 
Q 2113 4100 1700 4100 
Q 1381 4100 1195 3929 
Q 1009 3759 1009 3538 
Q 1009 3397 1075 3288 
Q 1166 3141 1366 2997 
Q 1513 2894 2044 2631 
Q 2788 2266 3047 1941 
Q 3303 1616 3303 1197 
Q 3303 666 2889 283 
Q 2475 -100 1838 -100 
Q 1638 -100 1459 -59 
Q 1281 -19 1013 94 
Q 863 156 766 156 
Q 684 156 593 93 
Q 503 31 447 -97 
L 331 -97 
L 331 1503 
L 447 1503 
Q 584 828 976 473 
Q 1369 119 1822 119 
Q 2172 119 2380 309 
Q 2588 500 2588 753 
Q 2588 903 2508 1043 
Q 2428 1184 2265 1311 
Q 2103 1438 1691 1641 
Q 1113 1925 859 2125 
Q 606 2325 470 2572 
Q 334 2819 334 3116 
Q 334 3622 706 3978 
Q 1078 4334 1644 4334 
Q 1850 4334 2044 4284 
Q 2191 4247 2402 4145 
Q 2613 4044 2697 4044 
Q 2778 4044 2825 4094 
Q 2872 4144 2913 4334 
L 3006 4334 
z
" transform="scale(0.015625)"/>
       </defs>
       <use xlink:href="#TimesNewRomanPS-BoldMT-57"/>
       <use xlink:href="#TimesNewRomanPS-BoldMT-5a" x="100"/>
       <use xlink:href="#TimesNewRomanPS-BoldMT-5f" x="166.699219"/>
       <use xlink:href="#TimesNewRomanPS-BoldMT-32" x="216.699219"/>
       <use xlink:href="#TimesNewRomanPS-BoldMT-6e" x="266.699219"/>
       <use xlink:href="#TimesNewRomanPS-BoldMT-64" x="322.314453"/>
       <use xlink:href="#TimesNewRomanPS-BoldMT-54" x="377.929688"/>
       <use xlink:href="#TimesNewRomanPS-BoldMT-72" x="437.253906"/>
       <use xlink:href="#TimesNewRomanPS-BoldMT-61" x="481.638672"/>
       <use xlink:href="#TimesNewRomanPS-BoldMT-6e" x="531.638672"/>
       <use xlink:href="#TimesNewRomanPS-BoldMT-73" x="587.253906"/>
       <use xlink:href="#TimesNewRomanPS-BoldMT-4c" x="626.169922"/>
       <use xlink:href="#TimesNewRomanPS-BoldMT-65" x="692.869141"/>
       <use xlink:href="#TimesNewRomanPS-BoldMT-6e" x="737.253906"/>
       <use xlink:href="#TimesNewRomanPS-BoldMT-53" x="792.869141"/>
       <use xlink:href="#TimesNewRomanPS-BoldMT-74" x="848.484375"/>
       <use xlink:href="#TimesNewRomanPS-BoldMT-61" x="881.785156"/>
       <use xlink:href="#TimesNewRomanPS-BoldMT-72" x="931.785156"/>
       <use xlink:href="#TimesNewRomanPS-BoldMT-74" x="976.169922"/>
      </g>
     </g>
    </g>
    <g id="ytick_2">
     <g id="line2d_8">
      <g>
       <use xlink:href="#mb9a62197d1" x="244.515865" y="115.427172" style="fill: #58544f; stroke: #58544f; stroke-width: 0.8"/>
      </g>
     </g>
     <g id="text_9">
      <!-- WZ_Length -->
      <g style="fill: #58544f" transform="translate(133.053365 122.049047) scale(0.2 -0.2)">
       <defs>
        <path id="TimesNewRomanPS-BoldMT-67" d="M 2091 2888 
L 3075 2888 
L 3075 2544 
L 2516 2544 
Q 2669 2391 2728 2266 
Q 2803 2097 2803 1913 
Q 2803 1600 2629 1370 
Q 2456 1141 2157 1011 
Q 1859 881 1628 881 
Q 1609 881 1253 897 
Q 1113 897 1017 805 
Q 922 713 922 584 
Q 922 472 1008 400 
Q 1094 328 1288 328 
L 1828 334 
Q 2484 334 2731 191 
Q 3084 -9 3084 -425 
Q 3084 -691 2921 -908 
Q 2759 -1125 2494 -1228 
Q 2091 -1381 1566 -1381 
Q 1172 -1381 847 -1304 
Q 522 -1228 381 -1092 
Q 241 -956 241 -806 
Q 241 -663 348 -548 
Q 456 -434 750 -356 
Q 344 -156 344 200 
Q 344 416 509 619 
Q 675 822 1034 972 
Q 616 1125 428 1375 
Q 241 1625 241 1953 
Q 241 2381 591 2695 
Q 941 3009 1491 3009 
Q 1781 3009 2091 2888 
z
M 1550 2816 
Q 1369 2816 1244 2633 
Q 1119 2450 1119 1875 
Q 1119 1409 1242 1236 
Q 1366 1063 1534 1063 
Q 1722 1063 1847 1234 
Q 1972 1406 1972 1903 
Q 1972 2463 1831 2666 
Q 1731 2816 1550 2816 
z
M 1366 -431 
Q 1047 -431 944 -484 
Q 766 -581 766 -747 
Q 766 -906 950 -1036 
Q 1134 -1166 1644 -1166 
Q 2078 -1166 2326 -1050 
Q 2575 -934 2575 -725 
Q 2575 -647 2528 -594 
Q 2444 -500 2273 -465 
Q 2103 -431 1366 -431 
z
" transform="scale(0.015625)"/>
        <path id="TimesNewRomanPS-BoldMT-68" d="M 1409 4238 
L 1409 2547 
Q 1650 2800 1850 2904 
Q 2050 3009 2266 3009 
Q 2541 3009 2736 2853 
Q 2931 2697 2995 2486 
Q 3059 2275 3059 1775 
L 3059 634 
Q 3059 300 3121 217 
Q 3184 134 3375 113 
L 3375 0 
L 1894 0 
L 1894 113 
Q 2050 134 2128 238 
Q 2184 319 2184 634 
L 2184 1938 
Q 2184 2300 2156 2392 
Q 2128 2484 2061 2536 
Q 1994 2588 1909 2588 
Q 1784 2588 1665 2502 
Q 1547 2416 1409 2200 
L 1409 634 
Q 1409 322 1456 244 
Q 1516 138 1700 113 
L 1700 0 
L 219 0 
L 219 113 
Q 403 131 481 231 
Q 534 300 534 634 
L 534 3603 
Q 534 3934 473 4015 
Q 413 4097 219 4122 
L 219 4238 
L 1409 4238 
z
" transform="scale(0.015625)"/>
       </defs>
       <use xlink:href="#TimesNewRomanPS-BoldMT-57"/>
       <use xlink:href="#TimesNewRomanPS-BoldMT-5a" x="100"/>
       <use xlink:href="#TimesNewRomanPS-BoldMT-5f" x="166.699219"/>
       <use xlink:href="#TimesNewRomanPS-BoldMT-4c" x="216.699219"/>
       <use xlink:href="#TimesNewRomanPS-BoldMT-65" x="283.398438"/>
       <use xlink:href="#TimesNewRomanPS-BoldMT-6e" x="327.783203"/>
       <use xlink:href="#TimesNewRomanPS-BoldMT-67" x="383.398438"/>
       <use xlink:href="#TimesNewRomanPS-BoldMT-74" x="433.398438"/>
       <use xlink:href="#TimesNewRomanPS-BoldMT-68" x="466.699219"/>
      </g>
     </g>
    </g>
    <g id="ytick_3">
     <g id="line2d_9">
      <g>
       <use xlink:href="#mb9a62197d1" x="244.515865" y="168.805544" style="fill: #58544f; stroke: #58544f; stroke-width: 0.8"/>
      </g>
     </g>
     <g id="text_10">
      <!-- SegmentLength -->
      <g style="fill: #58544f" transform="translate(103.07524 175.577419) scale(0.2 -0.2)">
       <use xlink:href="#TimesNewRomanPS-BoldMT-53"/>
       <use xlink:href="#TimesNewRomanPS-BoldMT-65" x="55.615234"/>
       <use xlink:href="#TimesNewRomanPS-BoldMT-67" x="100"/>
       <use xlink:href="#TimesNewRomanPS-BoldMT-6d" x="150"/>
       <use xlink:href="#TimesNewRomanPS-BoldMT-65" x="233.300781"/>
       <use xlink:href="#TimesNewRomanPS-BoldMT-6e" x="277.685547"/>
       <use xlink:href="#TimesNewRomanPS-BoldMT-74" x="333.300781"/>
       <use xlink:href="#TimesNewRomanPS-BoldMT-4c" x="366.601562"/>
       <use xlink:href="#TimesNewRomanPS-BoldMT-65" x="433.300781"/>
       <use xlink:href="#TimesNewRomanPS-BoldMT-6e" x="477.685547"/>
       <use xlink:href="#TimesNewRomanPS-BoldMT-67" x="533.300781"/>
       <use xlink:href="#TimesNewRomanPS-BoldMT-74" x="583.300781"/>
       <use xlink:href="#TimesNewRomanPS-BoldMT-68" x="616.601562"/>
      </g>
     </g>
    </g>
    <g id="ytick_4">
     <g id="line2d_10">
      <g>
       <use xlink:href="#mb9a62197d1" x="244.515865" y="222.183915" style="fill: #58544f; stroke: #58544f; stroke-width: 0.8"/>
      </g>
     </g>
     <g id="text_11">
      <!-- CreatedDate:DayOfYear -->
      <g style="fill: #58544f" transform="translate(25.73149 228.95579) scale(0.2 -0.2)">
       <defs>
        <path id="TimesNewRomanPS-BoldMT-44" d="M 84 0 
L 84 116 
L 225 116 
Q 409 116 507 173 
Q 606 231 653 331 
Q 681 397 681 725 
L 681 3513 
Q 681 3838 647 3919 
Q 613 4000 508 4061 
Q 403 4122 225 4122 
L 84 4122 
L 84 4238 
L 1981 4238 
Q 2741 4238 3203 4031 
Q 3769 3778 4061 3265 
Q 4353 2753 4353 2106 
Q 4353 1659 4209 1282 
Q 4066 906 3837 661 
Q 3609 416 3311 267 
Q 3013 119 2581 38 
Q 2391 0 1981 0 
L 84 0 
z
M 1700 3997 
L 1700 691 
Q 1700 428 1725 368 
Q 1750 309 1809 278 
Q 1894 231 2053 231 
Q 2575 231 2850 588 
Q 3225 1069 3225 2081 
Q 3225 2897 2969 3384 
Q 2766 3766 2447 3903 
Q 2222 4000 1700 3997 
z
" transform="scale(0.015625)"/>
        <path id="TimesNewRomanPS-BoldMT-3a" d="M 1069 3006 
Q 1284 3006 1436 2854 
Q 1588 2703 1588 2488 
Q 1588 2272 1436 2120 
Q 1284 1969 1069 1969 
Q 853 1969 701 2120 
Q 550 2272 550 2488 
Q 550 2703 701 2854 
Q 853 3006 1069 3006 
z
M 1066 963 
Q 1284 963 1436 809 
Q 1588 656 1588 441 
Q 1588 225 1434 73 
Q 1281 -78 1066 -78 
Q 850 -78 698 73 
Q 547 225 547 441 
Q 547 656 698 809 
Q 850 963 1066 963 
z
" transform="scale(0.015625)"/>
        <path id="TimesNewRomanPS-BoldMT-79" d="M 1556 -119 
L 613 2047 
Q 400 2538 298 2650 
Q 197 2763 53 2806 
L 53 2922 
L 1606 2922 
L 1606 2806 
Q 1453 2800 1390 2747 
Q 1328 2694 1328 2619 
Q 1328 2500 1484 2150 
L 1984 1006 
L 2325 1891 
Q 2509 2363 2509 2547 
Q 2509 2663 2432 2731 
Q 2356 2800 2163 2806 
L 2163 2922 
L 3141 2922 
L 3141 2806 
Q 2997 2791 2906 2695 
Q 2816 2600 2603 2047 
L 1769 -119 
Q 1453 -931 1300 -1119 
Q 1084 -1381 759 -1381 
Q 500 -1381 339 -1232 
Q 178 -1084 178 -875 
Q 178 -694 289 -575 
Q 400 -456 563 -456 
Q 719 -456 814 -556 
Q 909 -656 913 -866 
Q 916 -984 941 -1019 
Q 966 -1053 1013 -1053 
Q 1088 -1053 1172 -963 
Q 1297 -831 1466 -363 
L 1556 -119 
z
" transform="scale(0.015625)"/>
        <path id="TimesNewRomanPS-BoldMT-4f" d="M 2472 4297 
Q 3484 4334 4117 3706 
Q 4750 3078 4750 2134 
Q 4750 1328 4278 716 
Q 3653 -97 2513 -97 
Q 1369 -97 744 678 
Q 250 1291 250 2131 
Q 250 3075 892 3704 
Q 1534 4334 2472 4297 
z
M 2509 4097 
Q 1928 4097 1625 3503 
Q 1378 3016 1378 2103 
Q 1378 1019 1759 500 
Q 2025 138 2503 138 
Q 2825 138 3041 294 
Q 3316 494 3469 933 
Q 3622 1372 3622 2078 
Q 3622 2919 3465 3336 
Q 3309 3753 3067 3925 
Q 2825 4097 2509 4097 
z
" transform="scale(0.015625)"/>
        <path id="TimesNewRomanPS-BoldMT-66" d="M 1497 2616 
L 1497 588 
Q 1497 294 1559 219 
Q 1659 103 1928 113 
L 1928 0 
L 206 0 
L 206 113 
Q 403 116 486 158 
Q 569 200 600 275 
Q 631 350 631 588 
L 631 2616 
L 206 2616 
L 206 2922 
L 631 2922 
L 631 3138 
L 628 3284 
Q 628 3734 958 4034 
Q 1288 4334 1850 4334 
Q 2234 4334 2420 4190 
Q 2606 4047 2606 3872 
Q 2606 3731 2490 3628 
Q 2375 3525 2184 3525 
Q 2022 3525 1926 3609 
Q 1831 3694 1831 3797 
Q 1831 3825 1850 3913 
Q 1863 3966 1863 4013 
Q 1863 4078 1825 4109 
Q 1775 4156 1703 4156 
Q 1613 4156 1552 4081 
Q 1491 4006 1491 3841 
L 1497 3294 
L 1497 2922 
L 1928 2922 
L 1928 2616 
L 1497 2616 
z
" transform="scale(0.015625)"/>
        <path id="TimesNewRomanPS-BoldMT-59" d="M 4550 4238 
L 4550 4122 
Q 4341 4094 4228 4000 
Q 4072 3869 3734 3284 
L 2816 1750 
L 2816 725 
Q 2816 397 2850 317 
Q 2884 238 2986 177 
Q 3088 116 3256 116 
L 3494 116 
L 3494 0 
L 1116 0 
L 1116 116 
L 1338 116 
Q 1525 116 1634 181 
Q 1716 225 1763 331 
Q 1797 406 1797 725 
L 1797 1575 
L 800 3391 
Q 503 3928 381 4023 
Q 259 4119 56 4122 
L 56 4238 
L 2088 4238 
L 2088 4122 
L 1997 4122 
Q 1813 4122 1739 4069 
Q 1666 4016 1666 3956 
Q 1666 3844 1916 3391 
L 2681 1988 
L 3444 3266 
Q 3728 3734 3728 3888 
Q 3728 3972 3647 4028 
Q 3541 4106 3256 4122 
L 3256 4238 
L 4550 4238 
z
" transform="scale(0.015625)"/>
       </defs>
       <use xlink:href="#TimesNewRomanPS-BoldMT-43"/>
       <use xlink:href="#TimesNewRomanPS-BoldMT-72" x="72.216797"/>
       <use xlink:href="#TimesNewRomanPS-BoldMT-65" x="114.851562"/>
       <use xlink:href="#TimesNewRomanPS-BoldMT-61" x="159.236328"/>
       <use xlink:href="#TimesNewRomanPS-BoldMT-74" x="209.236328"/>
       <use xlink:href="#TimesNewRomanPS-BoldMT-65" x="242.537109"/>
       <use xlink:href="#TimesNewRomanPS-BoldMT-64" x="286.921875"/>
       <use xlink:href="#TimesNewRomanPS-BoldMT-44" x="342.537109"/>
       <use xlink:href="#TimesNewRomanPS-BoldMT-61" x="414.753906"/>
       <use xlink:href="#TimesNewRomanPS-BoldMT-74" x="464.753906"/>
       <use xlink:href="#TimesNewRomanPS-BoldMT-65" x="498.054688"/>
       <use xlink:href="#TimesNewRomanPS-BoldMT-3a" x="542.439453"/>
       <use xlink:href="#TimesNewRomanPS-BoldMT-44" x="575.740234"/>
       <use xlink:href="#TimesNewRomanPS-BoldMT-61" x="647.957031"/>
       <use xlink:href="#TimesNewRomanPS-BoldMT-79" x="697.957031"/>
       <use xlink:href="#TimesNewRomanPS-BoldMT-4f" x="747.957031"/>
       <use xlink:href="#TimesNewRomanPS-BoldMT-66" x="825.740234"/>
       <use xlink:href="#TimesNewRomanPS-BoldMT-59" x="859.041016"/>
       <use xlink:href="#TimesNewRomanPS-BoldMT-65" x="920.132812"/>
       <use xlink:href="#TimesNewRomanPS-BoldMT-61" x="964.517578"/>
       <use xlink:href="#TimesNewRomanPS-BoldMT-72" x="1014.517578"/>
      </g>
     </g>
    </g>
    <g id="ytick_5">
     <g id="line2d_11">
      <g>
       <use xlink:href="#mb9a62197d1" x="244.515865" y="275.562287" style="fill: #58544f; stroke: #58544f; stroke-width: 0.8"/>
      </g>
     </g>
     <g id="text_12">
      <!-- CreatedDate:MinuteInDay -->
      <g style="fill: #58544f" transform="translate(6.80024 282.340412) scale(0.2 -0.2)">
       <defs>
        <path id="TimesNewRomanPS-BoldMT-4d" d="M 3050 1444 
L 4200 4238 
L 5925 4238 
L 5925 4122 
L 5788 4122 
Q 5600 4122 5488 4056 
Q 5409 4013 5363 3909 
Q 5328 3834 5328 3519 
L 5328 725 
Q 5328 400 5362 319 
Q 5397 238 5503 177 
Q 5609 116 5788 116 
L 5925 116 
L 5925 0 
L 3713 0 
L 3713 116 
L 3850 116 
Q 4038 116 4150 181 
Q 4228 225 4275 331 
Q 4309 406 4309 725 
L 4309 3866 
L 2684 0 
L 2609 0 
L 959 3838 
L 959 853 
Q 959 541 975 469 
Q 1016 313 1152 214 
Q 1288 116 1578 116 
L 1578 0 
L 128 0 
L 128 116 
L 172 116 
Q 313 113 434 161 
Q 556 209 618 290 
Q 681 372 716 519 
Q 722 553 722 838 
L 722 3519 
Q 722 3841 687 3920 
Q 653 4000 547 4061 
Q 441 4122 263 4122 
L 128 4122 
L 128 4238 
L 1859 4238 
L 3050 1444 
z
" transform="scale(0.015625)"/>
       </defs>
       <use xlink:href="#TimesNewRomanPS-BoldMT-43"/>
       <use xlink:href="#TimesNewRomanPS-BoldMT-72" x="72.216797"/>
       <use xlink:href="#TimesNewRomanPS-BoldMT-65" x="114.851562"/>
       <use xlink:href="#TimesNewRomanPS-BoldMT-61" x="159.236328"/>
       <use xlink:href="#TimesNewRomanPS-BoldMT-74" x="209.236328"/>
       <use xlink:href="#TimesNewRomanPS-BoldMT-65" x="242.537109"/>
       <use xlink:href="#TimesNewRomanPS-BoldMT-64" x="286.921875"/>
       <use xlink:href="#TimesNewRomanPS-BoldMT-44" x="342.537109"/>
       <use xlink:href="#TimesNewRomanPS-BoldMT-61" x="414.753906"/>
       <use xlink:href="#TimesNewRomanPS-BoldMT-74" x="464.753906"/>
       <use xlink:href="#TimesNewRomanPS-BoldMT-65" x="498.054688"/>
       <use xlink:href="#TimesNewRomanPS-BoldMT-3a" x="542.439453"/>
       <use xlink:href="#TimesNewRomanPS-BoldMT-4d" x="575.740234"/>
       <use xlink:href="#TimesNewRomanPS-BoldMT-69" x="670.125"/>
       <use xlink:href="#TimesNewRomanPS-BoldMT-6e" x="697.908203"/>
       <use xlink:href="#TimesNewRomanPS-BoldMT-75" x="753.523438"/>
       <use xlink:href="#TimesNewRomanPS-BoldMT-74" x="809.138672"/>
       <use xlink:href="#TimesNewRomanPS-BoldMT-65" x="842.439453"/>
       <use xlink:href="#TimesNewRomanPS-BoldMT-49" x="886.824219"/>
       <use xlink:href="#TimesNewRomanPS-BoldMT-6e" x="925.740234"/>
       <use xlink:href="#TimesNewRomanPS-BoldMT-44" x="981.355469"/>
       <use xlink:href="#TimesNewRomanPS-BoldMT-61" x="1053.572266"/>
       <use xlink:href="#TimesNewRomanPS-BoldMT-79" x="1103.572266"/>
      </g>
     </g>
    </g>
    <g id="ytick_6">
     <g id="line2d_12">
      <g>
       <use xlink:href="#mb9a62197d1" x="244.515865" y="328.940658" style="fill: #58544f; stroke: #58544f; stroke-width: 0.8"/>
      </g>
     </g>
     <g id="text_13">
      <!-- WZ_ConstSignSpdLimDist -->
      <g style="fill: #58544f" transform="translate(3.00024 335.718783) scale(0.2 -0.2)">
       <use xlink:href="#TimesNewRomanPS-BoldMT-57"/>
       <use xlink:href="#TimesNewRomanPS-BoldMT-5a" x="100"/>
       <use xlink:href="#TimesNewRomanPS-BoldMT-5f" x="166.699219"/>
       <use xlink:href="#TimesNewRomanPS-BoldMT-43" x="216.699219"/>
       <use xlink:href="#TimesNewRomanPS-BoldMT-6f" x="288.916016"/>
       <use xlink:href="#TimesNewRomanPS-BoldMT-6e" x="338.916016"/>
       <use xlink:href="#TimesNewRomanPS-BoldMT-73" x="394.53125"/>
       <use xlink:href="#TimesNewRomanPS-BoldMT-74" x="433.447266"/>
       <use xlink:href="#TimesNewRomanPS-BoldMT-53" x="466.748047"/>
       <use xlink:href="#TimesNewRomanPS-BoldMT-69" x="522.363281"/>
       <use xlink:href="#TimesNewRomanPS-BoldMT-67" x="550.146484"/>
       <use xlink:href="#TimesNewRomanPS-BoldMT-6e" x="600.146484"/>
       <use xlink:href="#TimesNewRomanPS-BoldMT-53" x="655.761719"/>
       <use xlink:href="#TimesNewRomanPS-BoldMT-70" x="711.376953"/>
       <use xlink:href="#TimesNewRomanPS-BoldMT-64" x="766.992188"/>
       <use xlink:href="#TimesNewRomanPS-BoldMT-4c" x="822.607422"/>
       <use xlink:href="#TimesNewRomanPS-BoldMT-69" x="889.306641"/>
       <use xlink:href="#TimesNewRomanPS-BoldMT-6d" x="917.089844"/>
       <use xlink:href="#TimesNewRomanPS-BoldMT-44" x="1000.390625"/>
       <use xlink:href="#TimesNewRomanPS-BoldMT-69" x="1072.607422"/>
       <use xlink:href="#TimesNewRomanPS-BoldMT-73" x="1100.390625"/>
       <use xlink:href="#TimesNewRomanPS-BoldMT-74" x="1139.306641"/>
      </g>
     </g>
    </g>
    <g id="ytick_7">
     <g id="line2d_13">
      <g>
       <use xlink:href="#mb9a62197d1" x="244.515865" y="382.319029" style="fill: #58544f; stroke: #58544f; stroke-width: 0.8"/>
      </g>
     </g>
     <g id="text_14">
      <!-- CreatedDate:Day -->
      <g style="fill: #58544f" transform="translate(87.922115 389.090904) scale(0.2 -0.2)">
       <use xlink:href="#TimesNewRomanPS-BoldMT-43"/>
       <use xlink:href="#TimesNewRomanPS-BoldMT-72" x="72.216797"/>
       <use xlink:href="#TimesNewRomanPS-BoldMT-65" x="114.851562"/>
       <use xlink:href="#TimesNewRomanPS-BoldMT-61" x="159.236328"/>
       <use xlink:href="#TimesNewRomanPS-BoldMT-74" x="209.236328"/>
       <use xlink:href="#TimesNewRomanPS-BoldMT-65" x="242.537109"/>
       <use xlink:href="#TimesNewRomanPS-BoldMT-64" x="286.921875"/>
       <use xlink:href="#TimesNewRomanPS-BoldMT-44" x="342.537109"/>
       <use xlink:href="#TimesNewRomanPS-BoldMT-61" x="414.753906"/>
       <use xlink:href="#TimesNewRomanPS-BoldMT-74" x="464.753906"/>
       <use xlink:href="#TimesNewRomanPS-BoldMT-65" x="498.054688"/>
       <use xlink:href="#TimesNewRomanPS-BoldMT-3a" x="542.439453"/>
       <use xlink:href="#TimesNewRomanPS-BoldMT-44" x="575.740234"/>
       <use xlink:href="#TimesNewRomanPS-BoldMT-61" x="647.957031"/>
       <use xlink:href="#TimesNewRomanPS-BoldMT-79" x="697.957031"/>
      </g>
     </g>
    </g>
    <g id="ytick_8">
     <g id="line2d_14">
      <g>
       <use xlink:href="#mb9a62197d1" x="244.515865" y="435.697401" style="fill: #58544f; stroke: #58544f; stroke-width: 0.8"/>
      </g>
     </g>
     <g id="text_15">
      <!-- WZ_TransLenEnd -->
      <g style="fill: #58544f" transform="translate(75.60024 442.319276) scale(0.2 -0.2)">
       <defs>
        <path id="TimesNewRomanPS-BoldMT-45" d="M 1744 3994 
L 1744 2269 
L 1828 2269 
Q 2231 2269 2412 2522 
Q 2594 2775 2644 3269 
L 2763 3269 
L 2763 1050 
L 2644 1050 
Q 2606 1413 2486 1644 
Q 2366 1875 2206 1954 
Q 2047 2034 1744 2034 
L 1744 841 
Q 1744 491 1773 412 
Q 1803 334 1884 284 
Q 1966 234 2147 234 
L 2400 234 
Q 2994 234 3351 509 
Q 3709 784 3866 1347 
L 3981 1347 
L 3791 0 
L 128 0 
L 128 116 
L 269 116 
Q 453 116 566 181 
Q 647 225 691 331 
Q 725 406 725 725 
L 725 3513 
Q 725 3800 709 3866 
Q 678 3975 594 4034 
Q 475 4122 269 4122 
L 128 4122 
L 128 4238 
L 3675 4238 
L 3675 2984 
L 3556 2984 
Q 3466 3444 3302 3644 
Q 3138 3844 2838 3938 
Q 2663 3994 2181 3994 
L 1744 3994 
z
" transform="scale(0.015625)"/>
       </defs>
       <use xlink:href="#TimesNewRomanPS-BoldMT-57"/>
       <use xlink:href="#TimesNewRomanPS-BoldMT-5a" x="100"/>
       <use xlink:href="#TimesNewRomanPS-BoldMT-5f" x="166.699219"/>
       <use xlink:href="#TimesNewRomanPS-BoldMT-54" x="216.699219"/>
       <use xlink:href="#TimesNewRomanPS-BoldMT-72" x="276.023438"/>
       <use xlink:href="#TimesNewRomanPS-BoldMT-61" x="320.408203"/>
       <use xlink:href="#TimesNewRomanPS-BoldMT-6e" x="370.408203"/>
       <use xlink:href="#TimesNewRomanPS-BoldMT-73" x="426.023438"/>
       <use xlink:href="#TimesNewRomanPS-BoldMT-4c" x="464.939453"/>
       <use xlink:href="#TimesNewRomanPS-BoldMT-65" x="531.638672"/>
       <use xlink:href="#TimesNewRomanPS-BoldMT-6e" x="576.023438"/>
       <use xlink:href="#TimesNewRomanPS-BoldMT-45" x="631.638672"/>
       <use xlink:href="#TimesNewRomanPS-BoldMT-6e" x="698.337891"/>
       <use xlink:href="#TimesNewRomanPS-BoldMT-64" x="753.953125"/>
      </g>
     </g>
    </g>
    <g id="ytick_9">
     <g id="line2d_15">
      <g>
       <use xlink:href="#mb9a62197d1" x="244.515865" y="489.075772" style="fill: #58544f; stroke: #58544f; stroke-width: 0.8"/>
      </g>
     </g>
     <g id="text_16">
      <!-- Weather:Temp -->
      <g style="fill: #58544f" transform="translate(109.365865 495.697647) scale(0.2 -0.2)">
       <use xlink:href="#TimesNewRomanPS-BoldMT-57"/>
       <use xlink:href="#TimesNewRomanPS-BoldMT-65" x="94.5"/>
       <use xlink:href="#TimesNewRomanPS-BoldMT-61" x="138.884766"/>
       <use xlink:href="#TimesNewRomanPS-BoldMT-74" x="188.884766"/>
       <use xlink:href="#TimesNewRomanPS-BoldMT-68" x="222.185547"/>
       <use xlink:href="#TimesNewRomanPS-BoldMT-65" x="277.800781"/>
       <use xlink:href="#TimesNewRomanPS-BoldMT-72" x="322.185547"/>
       <use xlink:href="#TimesNewRomanPS-BoldMT-3a" x="366.570312"/>
       <use xlink:href="#TimesNewRomanPS-BoldMT-54" x="399.871094"/>
       <use xlink:href="#TimesNewRomanPS-BoldMT-65" x="457.445312"/>
       <use xlink:href="#TimesNewRomanPS-BoldMT-6d" x="501.830078"/>
       <use xlink:href="#TimesNewRomanPS-BoldMT-70" x="585.130859"/>
      </g>
     </g>
    </g>
    <g id="ytick_10">
     <g id="line2d_16">
      <g>
       <use xlink:href="#mb9a62197d1" x="244.515865" y="542.454144" style="fill: #58544f; stroke: #58544f; stroke-width: 0.8"/>
      </g>
     </g>
     <g id="text_17">
      <!-- WZ_CalculatedAADT -->
      <g style="fill: #58544f" transform="translate(45.28774 549.226019) scale(0.2 -0.2)">
       <defs>
        <path id="TimesNewRomanPS-BoldMT-6c" d="M 1359 4238 
L 1359 606 
Q 1359 297 1431 211 
Q 1503 125 1713 113 
L 1713 0 
L 134 0 
L 134 113 
Q 328 119 422 225 
Q 484 297 484 606 
L 484 3631 
Q 484 3938 412 4023 
Q 341 4109 134 4122 
L 134 4238 
L 1359 4238 
z
" transform="scale(0.015625)"/>
        <path id="TimesNewRomanPS-BoldMT-41" d="M 2663 1206 
L 1166 1206 
L 988 794 
Q 900 588 900 453 
Q 900 275 1044 191 
Q 1128 141 1459 116 
L 1459 0 
L 50 0 
L 50 116 
Q 278 150 425 304 
Q 572 459 788 944 
L 2303 4325 
L 2363 4325 
L 3891 850 
Q 4109 356 4250 228 
Q 4356 131 4550 116 
L 4550 0 
L 2500 0 
L 2500 116 
L 2584 116 
Q 2831 116 2931 184 
Q 3000 234 3000 328 
Q 3000 384 2981 444 
Q 2975 472 2888 678 
L 2663 1206 
z
M 2556 1438 
L 1925 2897 
L 1275 1438 
L 2556 1438 
z
" transform="scale(0.015625)"/>
       </defs>
       <use xlink:href="#TimesNewRomanPS-BoldMT-57"/>
       <use xlink:href="#TimesNewRomanPS-BoldMT-5a" x="100"/>
       <use xlink:href="#TimesNewRomanPS-BoldMT-5f" x="166.699219"/>
       <use xlink:href="#TimesNewRomanPS-BoldMT-43" x="216.699219"/>
       <use xlink:href="#TimesNewRomanPS-BoldMT-61" x="288.916016"/>
       <use xlink:href="#TimesNewRomanPS-BoldMT-6c" x="338.916016"/>
       <use xlink:href="#TimesNewRomanPS-BoldMT-63" x="366.699219"/>
       <use xlink:href="#TimesNewRomanPS-BoldMT-75" x="411.083984"/>
       <use xlink:href="#TimesNewRomanPS-BoldMT-6c" x="466.699219"/>
       <use xlink:href="#TimesNewRomanPS-BoldMT-61" x="494.482422"/>
       <use xlink:href="#TimesNewRomanPS-BoldMT-74" x="544.482422"/>
       <use xlink:href="#TimesNewRomanPS-BoldMT-65" x="577.783203"/>
       <use xlink:href="#TimesNewRomanPS-BoldMT-64" x="622.167969"/>
       <use xlink:href="#TimesNewRomanPS-BoldMT-41" x="677.783203"/>
       <use xlink:href="#TimesNewRomanPS-BoldMT-41" x="750"/>
       <use xlink:href="#TimesNewRomanPS-BoldMT-44" x="822.216797"/>
       <use xlink:href="#TimesNewRomanPS-BoldMT-54" x="894.433594"/>
      </g>
     </g>
    </g>
    <g id="ytick_11">
     <g id="line2d_17">
      <g>
       <use xlink:href="#mb9a62197d1" x="244.515865" y="595.832515" style="fill: #58544f; stroke: #58544f; stroke-width: 0.8"/>
      </g>
     </g>
     <g id="text_18">
      <!-- WZ_TransLenStart -->
      <g style="fill: #58544f" transform="translate(67.865865 602.60439) scale(0.2 -0.2)">
       <use xlink:href="#TimesNewRomanPS-BoldMT-57"/>
       <use xlink:href="#TimesNewRomanPS-BoldMT-5a" x="100"/>
       <use xlink:href="#TimesNewRomanPS-BoldMT-5f" x="166.699219"/>
       <use xlink:href="#TimesNewRomanPS-BoldMT-54" x="216.699219"/>
       <use xlink:href="#TimesNewRomanPS-BoldMT-72" x="276.023438"/>
       <use xlink:href="#TimesNewRomanPS-BoldMT-61" x="320.408203"/>
       <use xlink:href="#TimesNewRomanPS-BoldMT-6e" x="370.408203"/>
       <use xlink:href="#TimesNewRomanPS-BoldMT-73" x="426.023438"/>
       <use xlink:href="#TimesNewRomanPS-BoldMT-4c" x="464.939453"/>
       <use xlink:href="#TimesNewRomanPS-BoldMT-65" x="531.638672"/>
       <use xlink:href="#TimesNewRomanPS-BoldMT-6e" x="576.023438"/>
       <use xlink:href="#TimesNewRomanPS-BoldMT-53" x="631.638672"/>
       <use xlink:href="#TimesNewRomanPS-BoldMT-74" x="687.253906"/>
       <use xlink:href="#TimesNewRomanPS-BoldMT-61" x="720.554688"/>
       <use xlink:href="#TimesNewRomanPS-BoldMT-72" x="770.554688"/>
       <use xlink:href="#TimesNewRomanPS-BoldMT-74" x="814.939453"/>
      </g>
     </g>
    </g>
    <g id="ytick_12">
     <g id="line2d_18">
      <g>
       <use xlink:href="#mb9a62197d1" x="244.515865" y="649.210887" style="fill: #58544f; stroke: #58544f; stroke-width: 0.8"/>
      </g>
     </g>
     <g id="text_19">
      <!-- RoadType -->
      <g style="fill: #58544f" transform="translate(150.084615 655.832762) scale(0.2 -0.2)">
       <defs>
        <path id="TimesNewRomanPS-BoldMT-52" d="M 1700 1931 
L 1700 744 
Q 1700 400 1742 311 
Q 1784 222 1890 169 
Q 1997 116 2288 116 
L 2288 0 
L 119 0 
L 119 116 
Q 413 116 517 170 
Q 622 225 664 312 
Q 706 400 706 744 
L 706 3494 
Q 706 3838 664 3927 
Q 622 4016 515 4069 
Q 409 4122 119 4122 
L 119 4238 
L 2088 4238 
Q 2856 4238 3212 4131 
Q 3569 4025 3794 3739 
Q 4019 3453 4019 3069 
Q 4019 2600 3681 2294 
Q 3466 2100 3078 2003 
L 4097 569 
Q 4297 291 4381 222 
Q 4509 125 4678 116 
L 4678 0 
L 3344 0 
L 1978 1931 
L 1700 1931 
z
M 1700 4009 
L 1700 2153 
L 1878 2153 
Q 2313 2153 2528 2233 
Q 2744 2313 2867 2520 
Q 2991 2728 2991 3063 
Q 2991 3547 2764 3778 
Q 2538 4009 2034 4009 
L 1700 4009 
z
" transform="scale(0.015625)"/>
       </defs>
       <use xlink:href="#TimesNewRomanPS-BoldMT-52"/>
       <use xlink:href="#TimesNewRomanPS-BoldMT-6f" x="72.216797"/>
       <use xlink:href="#TimesNewRomanPS-BoldMT-61" x="122.216797"/>
       <use xlink:href="#TimesNewRomanPS-BoldMT-64" x="172.216797"/>
       <use xlink:href="#TimesNewRomanPS-BoldMT-54" x="227.832031"/>
       <use xlink:href="#TimesNewRomanPS-BoldMT-79" x="287.15625"/>
       <use xlink:href="#TimesNewRomanPS-BoldMT-70" x="337.15625"/>
       <use xlink:href="#TimesNewRomanPS-BoldMT-65" x="392.771484"/>
      </g>
     </g>
    </g>
   </g>
   <g id="line2d_19">
    <path clip-path="url(#p38fef12908)" style="fill: none; stroke: #424242; stroke-width: 2.7; stroke-linecap: square"/>
   </g>
   <g id="line2d_20">
    <path clip-path="url(#p38fef12908)" style="fill: none; stroke: #424242; stroke-width: 2.7; stroke-linecap: square"/>
   </g>
   <g id="line2d_21">
    <path clip-path="url(#p38fef12908)" style="fill: none; stroke: #424242; stroke-width: 2.7; stroke-linecap: square"/>
   </g>
   <g id="line2d_22">
    <path clip-path="url(#p38fef12908)" style="fill: none; stroke: #424242; stroke-width: 2.7; stroke-linecap: square"/>
   </g>
   <g id="line2d_23">
    <path clip-path="url(#p38fef12908)" style="fill: none; stroke: #424242; stroke-width: 2.7; stroke-linecap: square"/>
   </g>
   <g id="line2d_24">
    <path clip-path="url(#p38fef12908)" style="fill: none; stroke: #424242; stroke-width: 2.7; stroke-linecap: square"/>
   </g>
   <g id="line2d_25">
    <path clip-path="url(#p38fef12908)" style="fill: none; stroke: #424242; stroke-width: 2.7; stroke-linecap: square"/>
   </g>
   <g id="line2d_26">
    <path clip-path="url(#p38fef12908)" style="fill: none; stroke: #424242; stroke-width: 2.7; stroke-linecap: square"/>
   </g>
   <g id="line2d_27">
    <path clip-path="url(#p38fef12908)" style="fill: none; stroke: #424242; stroke-width: 2.7; stroke-linecap: square"/>
   </g>
   <g id="line2d_28">
    <path clip-path="url(#p38fef12908)" style="fill: none; stroke: #424242; stroke-width: 2.7; stroke-linecap: square"/>
   </g>
   <g id="line2d_29">
    <path clip-path="url(#p38fef12908)" style="fill: none; stroke: #424242; stroke-width: 2.7; stroke-linecap: square"/>
   </g>
   <g id="line2d_30">
    <path clip-path="url(#p38fef12908)" style="fill: none; stroke: #424242; stroke-width: 2.7; stroke-linecap: square"/>
   </g>
   <g id="patch_15">
    <path d="M 244.515865 675.900072 
L 244.515865 35.359615 
" style="fill: none; stroke: #58544f; stroke-width: 0.8; stroke-linejoin: miter; stroke-linecap: square"/>
   </g>
   <g id="patch_16">
    <path d="M 1069.331526 675.900072 
L 1069.331526 35.359615 
" style="fill: none; stroke: #58544f; stroke-width: 0.8; stroke-linejoin: miter; stroke-linecap: square"/>
   </g>
   <g id="patch_17">
    <path d="M 244.515865 675.900072 
L 1069.331526 675.900072 
" style="fill: none; stroke: #58544f; stroke-width: 0.8; stroke-linejoin: miter; stroke-linecap: square"/>
   </g>
   <g id="patch_18">
    <path d="M 244.515865 35.359615 
L 1069.331526 35.359615 
" style="fill: none; stroke: #58544f; stroke-width: 0.8; stroke-linejoin: miter; stroke-linecap: square"/>
   </g>
   <g id="text_20">
    <!-- Feature Importance on UnderConstructionTime (Impact &gt;= 0.4) -->
    <g style="fill: #262626" transform="translate(336.761586 20.359615) scale(0.25 -0.25)">
     <defs>
      <path id="TimesNewRomanPSMT-46" d="M 1309 4006 
L 1309 2341 
L 2081 2341 
Q 2347 2341 2470 2458 
Q 2594 2575 2634 2922 
L 2750 2922 
L 2750 1488 
L 2634 1488 
Q 2631 1734 2570 1850 
Q 2509 1966 2401 2023 
Q 2294 2081 2081 2081 
L 1309 2081 
L 1309 750 
Q 1309 428 1350 325 
Q 1381 247 1481 191 
Q 1619 116 1769 116 
L 1922 116 
L 1922 0 
L 103 0 
L 103 116 
L 253 116 
Q 516 116 634 269 
Q 709 369 709 750 
L 709 3488 
Q 709 3809 669 3913 
Q 638 3991 541 4047 
Q 406 4122 253 4122 
L 103 4122 
L 103 4238 
L 3256 4238 
L 3297 3306 
L 3188 3306 
Q 3106 3603 2998 3742 
Q 2891 3881 2733 3943 
Q 2575 4006 2244 4006 
L 1309 4006 
z
" transform="scale(0.015625)"/>
      <path id="TimesNewRomanPSMT-65" d="M 681 1784 
Q 678 1147 991 784 
Q 1303 422 1725 422 
Q 2006 422 2214 576 
Q 2422 731 2563 1106 
L 2659 1044 
Q 2594 616 2278 264 
Q 1963 -88 1488 -88 
Q 972 -88 605 314 
Q 238 716 238 1394 
Q 238 2128 614 2539 
Q 991 2950 1559 2950 
Q 2041 2950 2350 2633 
Q 2659 2316 2659 1784 
L 681 1784 
z
M 681 1966 
L 2006 1966 
Q 1991 2241 1941 2353 
Q 1863 2528 1708 2628 
Q 1553 2728 1384 2728 
Q 1125 2728 920 2526 
Q 716 2325 681 1966 
z
" transform="scale(0.015625)"/>
      <path id="TimesNewRomanPSMT-61" d="M 1822 413 
Q 1381 72 1269 19 
Q 1100 -59 909 -59 
Q 613 -59 420 144 
Q 228 347 228 678 
Q 228 888 322 1041 
Q 450 1253 767 1440 
Q 1084 1628 1822 1897 
L 1822 2009 
Q 1822 2438 1686 2597 
Q 1550 2756 1291 2756 
Q 1094 2756 978 2650 
Q 859 2544 859 2406 
L 866 2225 
Q 866 2081 792 2003 
Q 719 1925 600 1925 
Q 484 1925 411 2006 
Q 338 2088 338 2228 
Q 338 2497 613 2722 
Q 888 2947 1384 2947 
Q 1766 2947 2009 2819 
Q 2194 2722 2281 2516 
Q 2338 2381 2338 1966 
L 2338 994 
Q 2338 584 2353 492 
Q 2369 400 2405 369 
Q 2441 338 2488 338 
Q 2538 338 2575 359 
Q 2641 400 2828 588 
L 2828 413 
Q 2478 -56 2159 -56 
Q 2006 -56 1915 50 
Q 1825 156 1822 413 
z
M 1822 616 
L 1822 1706 
Q 1350 1519 1213 1441 
Q 966 1303 859 1153 
Q 753 1003 753 825 
Q 753 600 887 451 
Q 1022 303 1197 303 
Q 1434 303 1822 616 
z
" transform="scale(0.015625)"/>
      <path id="TimesNewRomanPSMT-74" d="M 1031 3803 
L 1031 2863 
L 1700 2863 
L 1700 2644 
L 1031 2644 
L 1031 788 
Q 1031 509 1111 412 
Q 1191 316 1316 316 
Q 1419 316 1516 380 
Q 1613 444 1666 569 
L 1788 569 
Q 1678 263 1478 108 
Q 1278 -47 1066 -47 
Q 922 -47 784 33 
Q 647 113 581 261 
Q 516 409 516 719 
L 516 2644 
L 63 2644 
L 63 2747 
Q 234 2816 414 2980 
Q 594 3144 734 3369 
Q 806 3488 934 3803 
L 1031 3803 
z
" transform="scale(0.015625)"/>
      <path id="TimesNewRomanPSMT-75" d="M 2709 2863 
L 2709 1128 
Q 2709 631 2732 520 
Q 2756 409 2807 365 
Q 2859 322 2928 322 
Q 3025 322 3147 375 
L 3191 266 
L 2334 -88 
L 2194 -88 
L 2194 519 
Q 1825 119 1631 15 
Q 1438 -88 1222 -88 
Q 981 -88 804 51 
Q 628 191 559 409 
Q 491 628 491 1028 
L 491 2306 
Q 491 2509 447 2587 
Q 403 2666 317 2708 
Q 231 2750 6 2747 
L 6 2863 
L 1009 2863 
L 1009 947 
Q 1009 547 1148 422 
Q 1288 297 1484 297 
Q 1619 297 1789 381 
Q 1959 466 2194 703 
L 2194 2325 
Q 2194 2569 2105 2655 
Q 2016 2741 1734 2747 
L 1734 2863 
L 2709 2863 
z
" transform="scale(0.015625)"/>
      <path id="TimesNewRomanPSMT-72" d="M 1038 2947 
L 1038 2303 
Q 1397 2947 1775 2947 
Q 1947 2947 2059 2842 
Q 2172 2738 2172 2600 
Q 2172 2478 2090 2393 
Q 2009 2309 1897 2309 
Q 1788 2309 1652 2417 
Q 1516 2525 1450 2525 
Q 1394 2525 1328 2463 
Q 1188 2334 1038 2041 
L 1038 669 
Q 1038 431 1097 309 
Q 1138 225 1241 169 
Q 1344 113 1538 113 
L 1538 0 
L 72 0 
L 72 113 
Q 291 113 397 181 
Q 475 231 506 341 
Q 522 394 522 644 
L 522 1753 
Q 522 2253 501 2348 
Q 481 2444 426 2487 
Q 372 2531 291 2531 
Q 194 2531 72 2484 
L 41 2597 
L 906 2947 
L 1038 2947 
z
" transform="scale(0.015625)"/>
      <path id="TimesNewRomanPSMT-20" transform="scale(0.015625)"/>
      <path id="TimesNewRomanPSMT-49" d="M 1975 116 
L 1975 0 
L 159 0 
L 159 116 
L 309 116 
Q 572 116 691 269 
Q 766 369 766 750 
L 766 3488 
Q 766 3809 725 3913 
Q 694 3991 597 4047 
Q 459 4122 309 4122 
L 159 4122 
L 159 4238 
L 1975 4238 
L 1975 4122 
L 1822 4122 
Q 1563 4122 1444 3969 
Q 1366 3869 1366 3488 
L 1366 750 
Q 1366 428 1406 325 
Q 1438 247 1538 191 
Q 1672 116 1822 116 
L 1975 116 
z
" transform="scale(0.015625)"/>
      <path id="TimesNewRomanPSMT-6d" d="M 1050 2338 
Q 1363 2650 1419 2697 
Q 1559 2816 1721 2881 
Q 1884 2947 2044 2947 
Q 2313 2947 2506 2790 
Q 2700 2634 2766 2338 
Q 3088 2713 3309 2830 
Q 3531 2947 3766 2947 
Q 3994 2947 4170 2830 
Q 4347 2713 4450 2447 
Q 4519 2266 4519 1878 
L 4519 647 
Q 4519 378 4559 278 
Q 4591 209 4675 161 
Q 4759 113 4950 113 
L 4950 0 
L 3538 0 
L 3538 113 
L 3597 113 
Q 3781 113 3884 184 
Q 3956 234 3988 344 
Q 4000 397 4000 647 
L 4000 1878 
Q 4000 2228 3916 2372 
Q 3794 2572 3525 2572 
Q 3359 2572 3192 2489 
Q 3025 2406 2788 2181 
L 2781 2147 
L 2788 2013 
L 2788 647 
Q 2788 353 2820 281 
Q 2853 209 2943 161 
Q 3034 113 3253 113 
L 3253 0 
L 1806 0 
L 1806 113 
Q 2044 113 2133 169 
Q 2222 225 2256 338 
Q 2272 391 2272 647 
L 2272 1878 
Q 2272 2228 2169 2381 
Q 2031 2581 1784 2581 
Q 1616 2581 1450 2491 
Q 1191 2353 1050 2181 
L 1050 647 
Q 1050 366 1089 281 
Q 1128 197 1204 155 
Q 1281 113 1516 113 
L 1516 0 
L 100 0 
L 100 113 
Q 297 113 375 155 
Q 453 197 493 289 
Q 534 381 534 647 
L 534 1741 
Q 534 2213 506 2350 
Q 484 2453 437 2492 
Q 391 2531 309 2531 
Q 222 2531 100 2484 
L 53 2597 
L 916 2947 
L 1050 2947 
L 1050 2338 
z
" transform="scale(0.015625)"/>
      <path id="TimesNewRomanPSMT-70" d="M -6 2578 
L 875 2934 
L 994 2934 
L 994 2266 
Q 1216 2644 1439 2795 
Q 1663 2947 1909 2947 
Q 2341 2947 2628 2609 
Q 2981 2197 2981 1534 
Q 2981 794 2556 309 
Q 2206 -88 1675 -88 
Q 1444 -88 1275 -22 
Q 1150 25 994 166 
L 994 -706 
Q 994 -1000 1030 -1079 
Q 1066 -1159 1155 -1206 
Q 1244 -1253 1478 -1253 
L 1478 -1369 
L -22 -1369 
L -22 -1253 
L 56 -1253 
Q 228 -1256 350 -1188 
Q 409 -1153 442 -1076 
Q 475 -1000 475 -688 
L 475 2019 
Q 475 2297 450 2372 
Q 425 2447 370 2484 
Q 316 2522 222 2522 
Q 147 2522 31 2478 
L -6 2578 
z
M 994 2081 
L 994 1013 
Q 994 666 1022 556 
Q 1066 375 1236 237 
Q 1406 100 1666 100 
Q 1978 100 2172 344 
Q 2425 663 2425 1241 
Q 2425 1897 2138 2250 
Q 1938 2494 1663 2494 
Q 1513 2494 1366 2419 
Q 1253 2363 994 2081 
z
" transform="scale(0.015625)"/>
      <path id="TimesNewRomanPSMT-6f" d="M 1600 2947 
Q 2250 2947 2644 2453 
Q 2978 2031 2978 1484 
Q 2978 1100 2793 706 
Q 2609 313 2286 112 
Q 1963 -88 1566 -88 
Q 919 -88 538 428 
Q 216 863 216 1403 
Q 216 1797 411 2186 
Q 606 2575 925 2761 
Q 1244 2947 1600 2947 
z
M 1503 2744 
Q 1338 2744 1170 2645 
Q 1003 2547 900 2300 
Q 797 2053 797 1666 
Q 797 1041 1045 587 
Q 1294 134 1700 134 
Q 2003 134 2200 384 
Q 2397 634 2397 1244 
Q 2397 2006 2069 2444 
Q 1847 2744 1503 2744 
z
" transform="scale(0.015625)"/>
      <path id="TimesNewRomanPSMT-6e" d="M 1034 2341 
Q 1538 2947 1994 2947 
Q 2228 2947 2397 2830 
Q 2566 2713 2666 2444 
Q 2734 2256 2734 1869 
L 2734 647 
Q 2734 375 2778 278 
Q 2813 200 2889 156 
Q 2966 113 3172 113 
L 3172 0 
L 1756 0 
L 1756 113 
L 1816 113 
Q 2016 113 2095 173 
Q 2175 234 2206 353 
Q 2219 400 2219 647 
L 2219 1819 
Q 2219 2209 2117 2386 
Q 2016 2563 1775 2563 
Q 1403 2563 1034 2156 
L 1034 647 
Q 1034 356 1069 288 
Q 1113 197 1189 155 
Q 1266 113 1500 113 
L 1500 0 
L 84 0 
L 84 113 
L 147 113 
Q 366 113 442 223 
Q 519 334 519 647 
L 519 1709 
Q 519 2225 495 2337 
Q 472 2450 423 2490 
Q 375 2531 294 2531 
Q 206 2531 84 2484 
L 38 2597 
L 900 2947 
L 1034 2947 
L 1034 2341 
z
" transform="scale(0.015625)"/>
      <path id="TimesNewRomanPSMT-63" d="M 2631 1088 
Q 2516 522 2178 217 
Q 1841 -88 1431 -88 
Q 944 -88 581 321 
Q 219 731 219 1428 
Q 219 2103 620 2525 
Q 1022 2947 1584 2947 
Q 2006 2947 2278 2723 
Q 2550 2500 2550 2259 
Q 2550 2141 2473 2067 
Q 2397 1994 2259 1994 
Q 2075 1994 1981 2113 
Q 1928 2178 1911 2362 
Q 1894 2547 1784 2644 
Q 1675 2738 1481 2738 
Q 1169 2738 978 2506 
Q 725 2200 725 1697 
Q 725 1184 976 792 
Q 1228 400 1656 400 
Q 1963 400 2206 609 
Q 2378 753 2541 1131 
L 2631 1088 
z
" transform="scale(0.015625)"/>
      <path id="TimesNewRomanPSMT-55" d="M 3053 4122 
L 3053 4238 
L 4553 4238 
L 4553 4122 
L 4394 4122 
Q 4144 4122 4009 3913 
Q 3944 3816 3944 3463 
L 3944 1744 
Q 3944 1106 3817 754 
Q 3691 403 3320 151 
Q 2950 -100 2313 -100 
Q 1619 -100 1259 140 
Q 900 381 750 788 
Q 650 1066 650 1831 
L 650 3488 
Q 650 3878 542 4000 
Q 434 4122 194 4122 
L 34 4122 
L 34 4238 
L 1866 4238 
L 1866 4122 
L 1703 4122 
Q 1441 4122 1328 3956 
Q 1250 3844 1250 3488 
L 1250 1641 
Q 1250 1394 1295 1075 
Q 1341 756 1459 578 
Q 1578 400 1801 284 
Q 2025 169 2350 169 
Q 2766 169 3094 350 
Q 3422 531 3542 814 
Q 3663 1097 3663 1772 
L 3663 3488 
Q 3663 3884 3575 3984 
Q 3453 4122 3213 4122 
L 3053 4122 
z
" transform="scale(0.015625)"/>
      <path id="TimesNewRomanPSMT-64" d="M 2222 322 
Q 2013 103 1813 7 
Q 1613 -88 1381 -88 
Q 913 -88 563 304 
Q 213 697 213 1313 
Q 213 1928 600 2439 
Q 988 2950 1597 2950 
Q 1975 2950 2222 2709 
L 2222 3238 
Q 2222 3728 2198 3840 
Q 2175 3953 2125 3993 
Q 2075 4034 2000 4034 
Q 1919 4034 1784 3984 
L 1744 4094 
L 2597 4444 
L 2738 4444 
L 2738 1134 
Q 2738 631 2761 520 
Q 2784 409 2836 365 
Q 2888 322 2956 322 
Q 3041 322 3181 375 
L 3216 266 
L 2366 -88 
L 2222 -88 
L 2222 322 
z
M 2222 541 
L 2222 2016 
Q 2203 2228 2109 2403 
Q 2016 2578 1861 2667 
Q 1706 2756 1559 2756 
Q 1284 2756 1069 2509 
Q 784 2184 784 1559 
Q 784 928 1059 592 
Q 1334 256 1672 256 
Q 1956 256 2222 541 
z
" transform="scale(0.015625)"/>
      <path id="TimesNewRomanPSMT-43" d="M 3853 4334 
L 3950 2894 
L 3853 2894 
Q 3659 3541 3300 3825 
Q 2941 4109 2438 4109 
Q 2016 4109 1675 3895 
Q 1334 3681 1139 3212 
Q 944 2744 944 2047 
Q 944 1472 1128 1050 
Q 1313 628 1683 403 
Q 2053 178 2528 178 
Q 2941 178 3256 354 
Q 3572 531 3950 1056 
L 4047 994 
Q 3728 428 3303 165 
Q 2878 -97 2294 -97 
Q 1241 -97 663 684 
Q 231 1266 231 2053 
Q 231 2688 515 3219 
Q 800 3750 1298 4042 
Q 1797 4334 2388 4334 
Q 2847 4334 3294 4109 
Q 3425 4041 3481 4041 
Q 3566 4041 3628 4100 
Q 3709 4184 3744 4334 
L 3853 4334 
z
" transform="scale(0.015625)"/>
      <path id="TimesNewRomanPSMT-73" d="M 2050 2947 
L 2050 1972 
L 1947 1972 
Q 1828 2431 1642 2597 
Q 1456 2763 1169 2763 
Q 950 2763 815 2647 
Q 681 2531 681 2391 
Q 681 2216 781 2091 
Q 878 1963 1175 1819 
L 1631 1597 
Q 2266 1288 2266 781 
Q 2266 391 1970 151 
Q 1675 -88 1309 -88 
Q 1047 -88 709 6 
Q 606 38 541 38 
Q 469 38 428 -44 
L 325 -44 
L 325 978 
L 428 978 
Q 516 541 762 319 
Q 1009 97 1316 97 
Q 1531 97 1667 223 
Q 1803 350 1803 528 
Q 1803 744 1651 891 
Q 1500 1038 1047 1263 
Q 594 1488 453 1669 
Q 313 1847 313 2119 
Q 313 2472 555 2709 
Q 797 2947 1181 2947 
Q 1350 2947 1591 2875 
Q 1750 2828 1803 2828 
Q 1853 2828 1881 2850 
Q 1909 2872 1947 2947 
L 2050 2947 
z
" transform="scale(0.015625)"/>
      <path id="TimesNewRomanPSMT-69" d="M 928 4444 
Q 1059 4444 1151 4351 
Q 1244 4259 1244 4128 
Q 1244 3997 1151 3903 
Q 1059 3809 928 3809 
Q 797 3809 703 3903 
Q 609 3997 609 4128 
Q 609 4259 701 4351 
Q 794 4444 928 4444 
z
M 1188 2947 
L 1188 647 
Q 1188 378 1227 289 
Q 1266 200 1342 156 
Q 1419 113 1622 113 
L 1622 0 
L 231 0 
L 231 113 
Q 441 113 512 153 
Q 584 194 626 287 
Q 669 381 669 647 
L 669 1750 
Q 669 2216 641 2353 
Q 619 2453 572 2492 
Q 525 2531 444 2531 
Q 356 2531 231 2484 
L 188 2597 
L 1050 2947 
L 1188 2947 
z
" transform="scale(0.015625)"/>
      <path id="TimesNewRomanPSMT-54" d="M 3703 4238 
L 3750 3244 
L 3631 3244 
Q 3597 3506 3538 3619 
Q 3441 3800 3280 3886 
Q 3119 3972 2856 3972 
L 2259 3972 
L 2259 734 
Q 2259 344 2344 247 
Q 2463 116 2709 116 
L 2856 116 
L 2856 0 
L 1059 0 
L 1059 116 
L 1209 116 
Q 1478 116 1591 278 
Q 1659 378 1659 734 
L 1659 3972 
L 1150 3972 
Q 853 3972 728 3928 
Q 566 3869 450 3700 
Q 334 3531 313 3244 
L 194 3244 
L 244 4238 
L 3703 4238 
z
" transform="scale(0.015625)"/>
      <path id="TimesNewRomanPSMT-28" d="M 1988 -1253 
L 1988 -1369 
Q 1516 -1131 1200 -813 
Q 750 -359 506 256 
Q 263 872 263 1534 
Q 263 2503 741 3301 
Q 1219 4100 1988 4444 
L 1988 4313 
Q 1603 4100 1356 3731 
Q 1109 3363 987 2797 
Q 866 2231 866 1616 
Q 866 947 969 400 
Q 1050 -31 1165 -292 
Q 1281 -553 1476 -793 
Q 1672 -1034 1988 -1253 
z
" transform="scale(0.015625)"/>
      <path id="TimesNewRomanPSMT-3e" d="M 3478 2041 
L 116 584 
L 116 853 
L 3013 2109 
L 116 3378 
L 116 3663 
L 3478 2194 
L 3478 2041 
z
" transform="scale(0.015625)"/>
      <path id="TimesNewRomanPSMT-3d" d="M 116 2759 
L 3488 2759 
L 3488 2503 
L 116 2503 
L 116 2759 
z
M 116 1741 
L 3488 1741 
L 3488 1484 
L 116 1484 
L 116 1741 
z
" transform="scale(0.015625)"/>
      <path id="TimesNewRomanPSMT-30" d="M 231 2094 
Q 231 2819 450 3342 
Q 669 3866 1031 4122 
Q 1313 4325 1613 4325 
Q 2100 4325 2488 3828 
Q 2972 3213 2972 2159 
Q 2972 1422 2759 906 
Q 2547 391 2217 158 
Q 1888 -75 1581 -75 
Q 975 -75 572 641 
Q 231 1244 231 2094 
z
M 844 2016 
Q 844 1141 1059 588 
Q 1238 122 1591 122 
Q 1759 122 1940 273 
Q 2122 425 2216 781 
Q 2359 1319 2359 2297 
Q 2359 3022 2209 3506 
Q 2097 3866 1919 4016 
Q 1791 4119 1609 4119 
Q 1397 4119 1231 3928 
Q 1006 3669 925 3112 
Q 844 2556 844 2016 
z
" transform="scale(0.015625)"/>
      <path id="TimesNewRomanPSMT-2e" d="M 800 606 
Q 947 606 1047 504 
Q 1147 403 1147 259 
Q 1147 116 1045 14 
Q 944 -88 800 -88 
Q 656 -88 554 14 
Q 453 116 453 259 
Q 453 406 554 506 
Q 656 606 800 606 
z
" transform="scale(0.015625)"/>
      <path id="TimesNewRomanPSMT-34" d="M 2978 1563 
L 2978 1119 
L 2409 1119 
L 2409 0 
L 1894 0 
L 1894 1119 
L 100 1119 
L 100 1519 
L 2066 4325 
L 2409 4325 
L 2409 1563 
L 2978 1563 
z
M 1894 1563 
L 1894 3666 
L 406 1563 
L 1894 1563 
z
" transform="scale(0.015625)"/>
      <path id="TimesNewRomanPSMT-29" d="M 144 4313 
L 144 4444 
Q 619 4209 934 3891 
Q 1381 3434 1625 2820 
Q 1869 2206 1869 1541 
Q 1869 572 1392 -226 
Q 916 -1025 144 -1369 
L 144 -1253 
Q 528 -1038 776 -670 
Q 1025 -303 1145 264 
Q 1266 831 1266 1447 
Q 1266 2113 1163 2663 
Q 1084 3094 967 3353 
Q 850 3613 656 3853 
Q 463 4094 144 4313 
z
" transform="scale(0.015625)"/>
     </defs>
     <use xlink:href="#TimesNewRomanPSMT-46"/>
     <use xlink:href="#TimesNewRomanPSMT-65" x="55.615234"/>
     <use xlink:href="#TimesNewRomanPSMT-61" x="100"/>
     <use xlink:href="#TimesNewRomanPSMT-74" x="144.384766"/>
     <use xlink:href="#TimesNewRomanPSMT-75" x="172.167969"/>
     <use xlink:href="#TimesNewRomanPSMT-72" x="222.167969"/>
     <use xlink:href="#TimesNewRomanPSMT-65" x="255.46875"/>
     <use xlink:href="#TimesNewRomanPSMT-20" x="299.853516"/>
     <use xlink:href="#TimesNewRomanPSMT-49" x="324.853516"/>
     <use xlink:href="#TimesNewRomanPSMT-6d" x="358.154297"/>
     <use xlink:href="#TimesNewRomanPSMT-70" x="435.9375"/>
     <use xlink:href="#TimesNewRomanPSMT-6f" x="485.9375"/>
     <use xlink:href="#TimesNewRomanPSMT-72" x="535.9375"/>
     <use xlink:href="#TimesNewRomanPSMT-74" x="569.238281"/>
     <use xlink:href="#TimesNewRomanPSMT-61" x="597.021484"/>
     <use xlink:href="#TimesNewRomanPSMT-6e" x="641.40625"/>
     <use xlink:href="#TimesNewRomanPSMT-63" x="691.40625"/>
     <use xlink:href="#TimesNewRomanPSMT-65" x="735.791016"/>
     <use xlink:href="#TimesNewRomanPSMT-20" x="780.175781"/>
     <use xlink:href="#TimesNewRomanPSMT-6f" x="805.175781"/>
     <use xlink:href="#TimesNewRomanPSMT-6e" x="855.175781"/>
     <use xlink:href="#TimesNewRomanPSMT-20" x="905.175781"/>
     <use xlink:href="#TimesNewRomanPSMT-55" x="930.175781"/>
     <use xlink:href="#TimesNewRomanPSMT-6e" x="1002.392578"/>
     <use xlink:href="#TimesNewRomanPSMT-64" x="1052.392578"/>
     <use xlink:href="#TimesNewRomanPSMT-65" x="1102.392578"/>
     <use xlink:href="#TimesNewRomanPSMT-72" x="1146.777344"/>
     <use xlink:href="#TimesNewRomanPSMT-43" x="1180.078125"/>
     <use xlink:href="#TimesNewRomanPSMT-6f" x="1246.777344"/>
     <use xlink:href="#TimesNewRomanPSMT-6e" x="1296.777344"/>
     <use xlink:href="#TimesNewRomanPSMT-73" x="1346.777344"/>
     <use xlink:href="#TimesNewRomanPSMT-74" x="1385.693359"/>
     <use xlink:href="#TimesNewRomanPSMT-72" x="1413.476562"/>
     <use xlink:href="#TimesNewRomanPSMT-75" x="1446.777344"/>
     <use xlink:href="#TimesNewRomanPSMT-63" x="1496.777344"/>
     <use xlink:href="#TimesNewRomanPSMT-74" x="1541.162109"/>
     <use xlink:href="#TimesNewRomanPSMT-69" x="1568.945312"/>
     <use xlink:href="#TimesNewRomanPSMT-6f" x="1596.728516"/>
     <use xlink:href="#TimesNewRomanPSMT-6e" x="1646.728516"/>
     <use xlink:href="#TimesNewRomanPSMT-54" x="1696.728516"/>
     <use xlink:href="#TimesNewRomanPSMT-69" x="1754.3125"/>
     <use xlink:href="#TimesNewRomanPSMT-6d" x="1782.095703"/>
     <use xlink:href="#TimesNewRomanPSMT-65" x="1859.878906"/>
     <use xlink:href="#TimesNewRomanPSMT-20" x="1904.263672"/>
     <use xlink:href="#TimesNewRomanPSMT-28" x="1929.263672"/>
     <use xlink:href="#TimesNewRomanPSMT-49" x="1962.564453"/>
     <use xlink:href="#TimesNewRomanPSMT-6d" x="1995.865234"/>
     <use xlink:href="#TimesNewRomanPSMT-70" x="2073.648438"/>
     <use xlink:href="#TimesNewRomanPSMT-61" x="2123.648438"/>
     <use xlink:href="#TimesNewRomanPSMT-63" x="2168.033203"/>
     <use xlink:href="#TimesNewRomanPSMT-74" x="2212.417969"/>
     <use xlink:href="#TimesNewRomanPSMT-20" x="2240.201172"/>
     <use xlink:href="#TimesNewRomanPSMT-3e" x="2265.201172"/>
     <use xlink:href="#TimesNewRomanPSMT-3d" x="2321.597656"/>
     <use xlink:href="#TimesNewRomanPSMT-20" x="2377.994141"/>
     <use xlink:href="#TimesNewRomanPSMT-30" x="2402.994141"/>
     <use xlink:href="#TimesNewRomanPSMT-2e" x="2452.994141"/>
     <use xlink:href="#TimesNewRomanPSMT-34" x="2477.994141"/>
     <use xlink:href="#TimesNewRomanPSMT-29" x="2527.994141"/>
    </g>
   </g>
  </g>
 </g>
 <defs>
  <clipPath id="p38fef12908">
   <rect x="244.515865" y="35.359615" width="824.815661" height="640.540457"/>
  </clipPath>
 </defs>
</svg>
