<?xml version="1.0" encoding="utf-8" standalone="no"?>
<!DOCTYPE svg PUBLIC "-//W3C//DTD SVG 1.1//EN"
  "http://www.w3.org/Graphics/SVG/1.1/DTD/svg11.dtd">
<svg xmlns:xlink="http://www.w3.org/1999/xlink" width="864pt" height="432pt" viewBox="0 0 864 432" xmlns="http://www.w3.org/2000/svg" version="1.1">
 <metadata>
  <rdf:RDF xmlns:dc="http://purl.org/dc/elements/1.1/" xmlns:cc="http://creativecommons.org/ns#" xmlns:rdf="http://www.w3.org/1999/02/22-rdf-syntax-ns#">
   <cc:Work>
    <dc:type rdf:resource="http://purl.org/dc/dcmitype/StillImage"/>
    <dc:date>2023-10-24T16:33:05.786640</dc:date>
    <dc:format>image/svg+xml</dc:format>
    <dc:creator>
     <cc:Agent>
      <dc:title>Matplotlib v3.7.2, https://matplotlib.org/</dc:title>
     </cc:Agent>
    </dc:creator>
   </cc:Work>
  </rdf:RDF>
 </metadata>
 <defs>
  <style type="text/css">*{stroke-linejoin: round; stroke-linecap: butt}</style>
 </defs>
 <g id="figure_1">
  <g id="patch_1">
   <path d="M 0 432 
L 864 432 
L 864 0 
L 0 0 
z
" style="fill: #ffffff"/>
  </g>
  <g id="axes_1">
   <g id="patch_2">
    <path d="M 108 384.48 
L 777.6 384.48 
L 777.6 51.84 
L 108 51.84 
z
" style="fill: #ffffff"/>
   </g>
   <g id="matplotlib.axis_1">
    <g id="xtick_1">
     <g id="line2d_1">
      <defs>
       <path id="mab36891af8" d="M 0 0 
L 0 3.5 
" style="stroke: #58544f; stroke-width: 0.8"/>
      </defs>
      <g>
       <use xlink:href="#mab36891af8" x="137.588554" y="384.48" style="fill: #58544f; stroke: #58544f; stroke-width: 0.8"/>
      </g>
     </g>
     <g id="text_1">
      <!-- 0 -->
      <g style="fill: #58544f" transform="translate(133.609492 401.98) scale(0.14 -0.14)">
       <defs>
        <path id="Roboto-Medium-30" d="M 3306 1916 
Q 3306 934 2939 435 
Q 2572 -63 1822 -63 
Q 1084 -63 711 423 
Q 338 909 328 1863 
L 328 2650 
Q 328 3631 695 4122 
Q 1063 4613 1816 4613 
Q 2563 4613 2930 4134 
Q 3297 3656 3306 2703 
L 3306 1916 
z
M 2547 2766 
Q 2547 3406 2372 3704 
Q 2197 4003 1816 4003 
Q 1444 4003 1269 3720 
Q 1094 3438 1084 2838 
L 1084 1806 
Q 1084 1169 1262 856 
Q 1441 544 1822 544 
Q 2188 544 2363 833 
Q 2538 1122 2547 1738 
L 2547 2766 
z
" transform="scale(0.015625)"/>
       </defs>
       <use xlink:href="#Roboto-Medium-30"/>
      </g>
     </g>
    </g>
    <g id="xtick_2">
     <g id="line2d_2">
      <g>
       <use xlink:href="#mab36891af8" x="222.369511" y="384.48" style="fill: #58544f; stroke: #58544f; stroke-width: 0.8"/>
      </g>
     </g>
     <g id="text_2">
      <!-- 200 -->
      <g style="fill: #58544f" transform="translate(210.432324 401.98) scale(0.14 -0.14)">
       <defs>
        <path id="Roboto-Medium-32" d="M 3400 0 
L 341 0 
L 341 522 
L 1856 2175 
Q 2184 2541 2323 2786 
Q 2463 3031 2463 3278 
Q 2463 3603 2280 3803 
Q 2097 4003 1788 4003 
Q 1419 4003 1216 3778 
Q 1013 3553 1013 3163 
L 253 3163 
Q 253 3578 442 3911 
Q 631 4244 982 4428 
Q 1334 4613 1794 4613 
Q 2456 4613 2839 4280 
Q 3222 3947 3222 3359 
Q 3222 3019 3030 2645 
Q 2838 2272 2400 1797 
L 1288 606 
L 3400 606 
L 3400 0 
z
" transform="scale(0.015625)"/>
       </defs>
       <use xlink:href="#Roboto-Medium-32"/>
       <use xlink:href="#Roboto-Medium-30" x="56.835938"/>
       <use xlink:href="#Roboto-Medium-30" x="113.671875"/>
      </g>
     </g>
    </g>
    <g id="xtick_3">
     <g id="line2d_3">
      <g>
       <use xlink:href="#mab36891af8" x="307.150468" y="384.48" style="fill: #58544f; stroke: #58544f; stroke-width: 0.8"/>
      </g>
     </g>
     <g id="text_3">
      <!-- 400 -->
      <g style="fill: #58544f" transform="translate(295.213281 401.98) scale(0.14 -0.14)">
       <defs>
        <path id="Roboto-Medium-34" d="M 2909 1622 
L 3475 1622 
L 3475 1013 
L 2909 1013 
L 2909 0 
L 2150 0 
L 2150 1013 
L 184 1013 
L 163 1475 
L 2125 4550 
L 2909 4550 
L 2909 1622 
z
M 959 1622 
L 2150 1622 
L 2150 3522 
L 2094 3422 
L 959 1622 
z
" transform="scale(0.015625)"/>
       </defs>
       <use xlink:href="#Roboto-Medium-34"/>
       <use xlink:href="#Roboto-Medium-30" x="56.835938"/>
       <use xlink:href="#Roboto-Medium-30" x="113.671875"/>
      </g>
     </g>
    </g>
    <g id="xtick_4">
     <g id="line2d_4">
      <g>
       <use xlink:href="#mab36891af8" x="391.931426" y="384.48" style="fill: #58544f; stroke: #58544f; stroke-width: 0.8"/>
      </g>
     </g>
     <g id="text_4">
      <!-- 600 -->
      <g style="fill: #58544f" transform="translate(379.994238 401.98) scale(0.14 -0.14)">
       <defs>
        <path id="Roboto-Medium-36" d="M 2703 4572 
L 2703 3944 
L 2609 3944 
Q 1972 3934 1590 3593 
Q 1209 3253 1138 2628 
Q 1503 3013 2072 3013 
Q 2675 3013 3023 2588 
Q 3372 2163 3372 1491 
Q 3372 797 2964 367 
Q 2556 -63 1894 -63 
Q 1213 -63 789 440 
Q 366 944 366 1759 
L 366 2019 
Q 366 3216 948 3894 
Q 1531 4572 2625 4572 
L 2703 4572 
z
M 1888 2400 
Q 1638 2400 1430 2259 
Q 1222 2119 1125 1884 
L 1125 1653 
Q 1125 1147 1337 848 
Q 1550 550 1887 550 
Q 2225 550 2422 803 
Q 2619 1056 2619 1468 
Q 2619 1881 2419 2140 
Q 2219 2400 1888 2400 
z
" transform="scale(0.015625)"/>
       </defs>
       <use xlink:href="#Roboto-Medium-36"/>
       <use xlink:href="#Roboto-Medium-30" x="56.835938"/>
       <use xlink:href="#Roboto-Medium-30" x="113.671875"/>
      </g>
     </g>
    </g>
    <g id="xtick_5">
     <g id="line2d_5">
      <g>
       <use xlink:href="#mab36891af8" x="476.712383" y="384.48" style="fill: #58544f; stroke: #58544f; stroke-width: 0.8"/>
      </g>
     </g>
     <g id="text_5">
      <!-- 800 -->
      <g style="fill: #58544f" transform="translate(464.775195 401.98) scale(0.14 -0.14)">
       <defs>
        <path id="Roboto-Medium-38" d="M 3206 3350 
Q 3206 3016 3034 2755 
Q 2863 2494 2566 2344 
Q 2922 2178 3114 1890 
Q 3306 1603 3306 1241 
Q 3306 641 2900 289 
Q 2494 -63 1819 -63 
Q 1141 -63 733 290 
Q 325 644 325 1241 
Q 325 1606 519 1897 
Q 713 2188 1063 2344 
Q 769 2494 598 2755 
Q 428 3016 428 3350 
Q 428 3931 803 4272 
Q 1178 4613 1816 4613 
Q 2456 4613 2831 4272 
Q 3206 3931 3206 3350 
z
M 2547 1278 
Q 2547 1616 2345 1823 
Q 2144 2031 1812 2031 
Q 1481 2031 1282 1825 
Q 1084 1619 1084 1278 
Q 1084 944 1279 744 
Q 1475 544 1819 544 
Q 2163 544 2355 737 
Q 2547 931 2547 1278 
z
M 2450 3322 
Q 2450 3619 2278 3811 
Q 2106 4003 1815 4003 
Q 1525 4003 1356 3820 
Q 1188 3638 1188 3322 
Q 1188 3009 1358 2825 
Q 1528 2641 1818 2641 
Q 2109 2641 2279 2825 
Q 2450 3009 2450 3322 
z
" transform="scale(0.015625)"/>
       </defs>
       <use xlink:href="#Roboto-Medium-38"/>
       <use xlink:href="#Roboto-Medium-30" x="56.835938"/>
       <use xlink:href="#Roboto-Medium-30" x="113.671875"/>
      </g>
     </g>
    </g>
    <g id="xtick_6">
     <g id="line2d_6">
      <g>
       <use xlink:href="#mab36891af8" x="561.49334" y="384.48" style="fill: #58544f; stroke: #58544f; stroke-width: 0.8"/>
      </g>
     </g>
     <g id="text_6">
      <!-- 1000 -->
      <g style="fill: #58544f" transform="translate(545.57709 401.98) scale(0.14 -0.14)">
       <defs>
        <path id="Roboto-Medium-31" d="M 2397 0 
L 1641 0 
L 1641 3653 
L 525 3272 
L 525 3913 
L 2300 4566 
L 2397 4566 
L 2397 0 
z
" transform="scale(0.015625)"/>
       </defs>
       <use xlink:href="#Roboto-Medium-31"/>
       <use xlink:href="#Roboto-Medium-30" x="56.835938"/>
       <use xlink:href="#Roboto-Medium-30" x="113.671875"/>
       <use xlink:href="#Roboto-Medium-30" x="170.507812"/>
      </g>
     </g>
    </g>
    <g id="xtick_7">
     <g id="line2d_7">
      <g>
       <use xlink:href="#mab36891af8" x="646.274297" y="384.48" style="fill: #58544f; stroke: #58544f; stroke-width: 0.8"/>
      </g>
     </g>
     <g id="text_7">
      <!-- 1200 -->
      <g style="fill: #58544f" transform="translate(630.358047 401.98) scale(0.14 -0.14)">
       <use xlink:href="#Roboto-Medium-31"/>
       <use xlink:href="#Roboto-Medium-32" x="56.835938"/>
       <use xlink:href="#Roboto-Medium-30" x="113.671875"/>
       <use xlink:href="#Roboto-Medium-30" x="170.507812"/>
      </g>
     </g>
    </g>
    <g id="xtick_8">
     <g id="line2d_8">
      <g>
       <use xlink:href="#mab36891af8" x="731.055254" y="384.48" style="fill: #58544f; stroke: #58544f; stroke-width: 0.8"/>
      </g>
     </g>
     <g id="text_8">
      <!-- 1400 -->
      <g style="fill: #58544f" transform="translate(715.139004 401.98) scale(0.14 -0.14)">
       <use xlink:href="#Roboto-Medium-31"/>
       <use xlink:href="#Roboto-Medium-34" x="56.835938"/>
       <use xlink:href="#Roboto-Medium-30" x="113.671875"/>
       <use xlink:href="#Roboto-Medium-30" x="170.507812"/>
      </g>
     </g>
    </g>
    <g id="text_9">
     <!-- CreatedDate:MinuteInDay -->
     <g style="fill: #58544f" transform="translate(350.9975 420.82375) scale(0.16 -0.16)">
      <defs>
       <path id="Roboto-Medium-43" d="M 3934 1481 
Q 3866 753 3397 345 
Q 2928 -63 2150 -63 
Q 1606 -63 1192 195 
Q 778 453 553 928 
Q 328 1403 319 2031 
L 319 2456 
Q 319 3100 547 3590 
Q 775 4081 1201 4347 
Q 1628 4613 2188 4613 
Q 2941 4613 3400 4203 
Q 3859 3794 3934 3047 
L 3147 3047 
Q 3091 3538 2861 3755 
Q 2631 3972 2188 3972 
Q 1672 3972 1395 3595 
Q 1119 3219 1113 2491 
L 1113 2088 
Q 1113 1350 1377 962 
Q 1641 575 2150 575 
Q 2616 575 2850 784 
Q 3084 994 3147 1481 
L 3934 1481 
z
" transform="scale(0.015625)"/>
       <path id="Roboto-Medium-72" d="M 2159 2688 
Q 2009 2713 1850 2713 
Q 1328 2713 1147 2313 
L 1147 0 
L 388 0 
L 388 3381 
L 1113 3381 
L 1131 3003 
Q 1406 3444 1894 3444 
Q 2056 3444 2163 3400 
L 2159 2688 
z
" transform="scale(0.015625)"/>
       <path id="Roboto-Medium-65" d="M 1878 -63 
Q 1156 -63 707 392 
Q 259 847 259 1603 
L 259 1697 
Q 259 2203 454 2601 
Q 650 3000 1003 3222 
Q 1356 3444 1791 3444 
Q 2481 3444 2857 3003 
Q 3234 2563 3234 1756 
L 3234 1450 
L 1025 1450 
Q 1059 1031 1304 787 
Q 1550 544 1922 544 
Q 2444 544 2772 966 
L 3181 575 
Q 2978 272 2639 104 
Q 2300 -63 1878 -63 
z
M 1788 2834 
Q 1475 2834 1283 2615 
Q 1091 2397 1038 2006 
L 2484 2006 
L 2484 2063 
Q 2459 2444 2281 2639 
Q 2103 2834 1788 2834 
z
" transform="scale(0.015625)"/>
       <path id="Roboto-Medium-61" d="M 2409 0 
Q 2359 97 2322 316 
Q 1959 -63 1434 -63 
Q 925 -63 603 228 
Q 281 519 281 947 
Q 281 1488 682 1777 
Q 1084 2066 1831 2066 
L 2297 2066 
L 2297 2288 
Q 2297 2550 2150 2708 
Q 2003 2866 1703 2866 
Q 1444 2866 1278 2736 
Q 1113 2606 1113 2406 
L 353 2406 
Q 353 2684 537 2926 
Q 722 3169 1039 3306 
Q 1356 3444 1747 3444 
Q 2341 3444 2694 3145 
Q 3047 2847 3056 2306 
L 3056 781 
Q 3056 325 3184 53 
L 3184 0 
L 2409 0 
z
M 1575 547 
Q 1800 547 1998 656 
Q 2197 766 2297 950 
L 2297 1588 
L 1888 1588 
Q 1466 1588 1253 1441 
Q 1041 1294 1041 1025 
Q 1041 806 1186 676 
Q 1331 547 1575 547 
z
" transform="scale(0.015625)"/>
       <path id="Roboto-Medium-74" d="M 1341 4203 
L 1341 3381 
L 1938 3381 
L 1938 2819 
L 1341 2819 
L 1341 931 
Q 1341 738 1417 652 
Q 1494 566 1691 566 
Q 1822 566 1956 597 
L 1956 9 
Q 1697 -63 1456 -63 
Q 581 -63 581 903 
L 581 2819 
L 25 2819 
L 25 3381 
L 581 3381 
L 581 4203 
L 1341 4203 
z
" transform="scale(0.015625)"/>
       <path id="Roboto-Medium-64" d="M 247 1716 
Q 247 2497 609 2970 
Q 972 3444 1581 3444 
Q 2119 3444 2450 3069 
L 2450 4800 
L 3209 4800 
L 3209 0 
L 2522 0 
L 2484 350 
Q 2144 -63 1575 -63 
Q 981 -63 614 415 
Q 247 894 247 1716 
z
M 1006 1650 
Q 1006 1134 1204 845 
Q 1403 556 1769 556 
Q 2234 556 2450 972 
L 2450 2416 
Q 2241 2822 1775 2822 
Q 1406 2822 1206 2530 
Q 1006 2238 1006 1650 
z
" transform="scale(0.015625)"/>
       <path id="Roboto-Medium-44" d="M 463 0 
L 463 4550 
L 1806 4550 
Q 2409 4550 2876 4281 
Q 3344 4013 3600 3519 
Q 3856 3025 3856 2388 
L 3856 2159 
Q 3856 1513 3598 1022 
Q 3341 531 2864 265 
Q 2388 0 1772 0 
L 463 0 
z
M 1253 3913 
L 1253 631 
L 1769 631 
Q 2391 631 2723 1020 
Q 3056 1409 3063 2138 
L 3063 2391 
Q 3063 3131 2741 3522 
Q 2419 3913 1806 3913 
L 1253 3913 
z
" transform="scale(0.015625)"/>
       <path id="Roboto-Medium-3a" d="M 847 800 
Q 1059 800 1174 679 
Q 1290 559 1290 378 
Q 1290 200 1174 83 
Q 1059 -34 847 -34 
Q 643 -34 524 81 
Q 406 197 406 378 
Q 406 559 521 679 
Q 637 800 847 800 
z
M 847 3424 
Q 1059 3424 1174 3303 
Q 1290 3183 1290 3002 
Q 1290 2824 1174 2707 
Q 1059 2590 847 2590 
Q 643 2590 524 2705 
Q 406 2821 406 3002 
Q 406 3183 521 3303 
Q 637 3424 847 3424 
z
" transform="scale(0.015625)"/>
       <path id="Roboto-Medium-4d" d="M 1488 4550 
L 2800 1063 
L 4109 4550 
L 5131 4550 
L 5131 0 
L 4344 0 
L 4344 1500 
L 4422 3506 
L 3078 0 
L 2513 0 
L 1172 3503 
L 1250 1500 
L 1250 0 
L 463 0 
L 463 4550 
L 1488 4550 
z
" transform="scale(0.015625)"/>
       <path id="Roboto-Medium-69" d="M 1197 0 
L 438 0 
L 438 3381 
L 1197 3381 
L 1197 0 
z
M 391 4259 
Q 391 4434 502 4550 
Q 613 4666 819 4666 
Q 1025 4666 1137 4550 
Q 1250 4434 1250 4259 
Q 1250 4088 1137 3973 
Q 1025 3859 819 3859 
Q 613 3859 502 3973 
Q 391 4088 391 4259 
z
" transform="scale(0.015625)"/>
       <path id="Roboto-Medium-6e" d="M 1094 3381 
L 1116 2991 
Q 1491 3444 2100 3444 
Q 3156 3444 3175 2234 
L 3175 0 
L 2416 0 
L 2416 2191 
Q 2416 2513 2277 2667 
Q 2138 2822 1822 2822 
Q 1363 2822 1138 2406 
L 1138 0 
L 378 0 
L 378 3381 
L 1094 3381 
z
" transform="scale(0.015625)"/>
       <path id="Roboto-Medium-75" d="M 2438 331 
Q 2103 -63 1488 -63 
Q 938 -63 655 259 
Q 372 581 372 1191 
L 372 3381 
L 1131 3381 
L 1131 1200 
Q 1131 556 1666 556 
Q 2219 556 2413 953 
L 2413 3381 
L 3172 3381 
L 3172 0 
L 2456 0 
L 2438 331 
z
" transform="scale(0.015625)"/>
       <path id="Roboto-Medium-49" d="M 1297 0 
L 509 0 
L 509 4550 
L 1297 4550 
L 1297 0 
z
" transform="scale(0.015625)"/>
       <path id="Roboto-Medium-79" d="M 1572 1088 
L 2259 3381 
L 3069 3381 
L 1725 -513 
Q 1416 -1366 675 -1366 
Q 509 -1366 309 -1309 
L 309 -722 
L 453 -731 
Q 741 -731 886 -626 
Q 1031 -522 1116 -275 
L 1225 16 
L 38 3381 
L 856 3381 
L 1572 1088 
z
" transform="scale(0.015625)"/>
      </defs>
      <use xlink:href="#Roboto-Medium-43"/>
      <use xlink:href="#Roboto-Medium-72" x="65.283203"/>
      <use xlink:href="#Roboto-Medium-65" x="100.439453"/>
      <use xlink:href="#Roboto-Medium-61" x="154.101562"/>
      <use xlink:href="#Roboto-Medium-74" x="208.203125"/>
      <use xlink:href="#Roboto-Medium-65" x="241.455078"/>
      <use xlink:href="#Roboto-Medium-64" x="295.117188"/>
      <use xlink:href="#Roboto-Medium-44" x="351.5625"/>
      <use xlink:href="#Roboto-Medium-61" x="416.894531"/>
      <use xlink:href="#Roboto-Medium-74" x="470.996094"/>
      <use xlink:href="#Roboto-Medium-65" x="504.248047"/>
      <use xlink:href="#Roboto-Medium-3a" x="557.910156"/>
      <use xlink:href="#Roboto-Medium-4d" x="584.423828"/>
      <use xlink:href="#Roboto-Medium-69" x="671.972656"/>
      <use xlink:href="#Roboto-Medium-6e" x="697.509766"/>
      <use xlink:href="#Roboto-Medium-75" x="753.125"/>
      <use xlink:href="#Roboto-Medium-74" x="808.691406"/>
      <use xlink:href="#Roboto-Medium-65" x="841.943359"/>
      <use xlink:href="#Roboto-Medium-49" x="895.605469"/>
      <use xlink:href="#Roboto-Medium-6e" x="923.828125"/>
      <use xlink:href="#Roboto-Medium-44" x="979.443359"/>
      <use xlink:href="#Roboto-Medium-61" x="1044.775391"/>
      <use xlink:href="#Roboto-Medium-79" x="1098.876953"/>
     </g>
    </g>
   </g>
   <g id="matplotlib.axis_2">
    <g id="ytick_1">
     <g id="line2d_9">
      <defs>
       <path id="md274be83e1" d="M 0 0 
L -3.5 0 
" style="stroke: #ff0000; stroke-width: 0.8"/>
      </defs>
      <g>
       <use xlink:href="#md274be83e1" x="108" y="365.466408" style="fill: #ff0000; stroke: #ff0000; stroke-width: 0.8"/>
      </g>
     </g>
     <g id="text_10">
      <!-- 1.8 -->
      <g style="fill: #ff0000" transform="translate(81.1725 370.716408) scale(0.14 -0.14)">
       <defs>
        <path id="Roboto-Medium-2e" d="M 863 800 
Q 1075 800 1190 679 
Q 1306 559 1306 378 
Q 1306 200 1190 83 
Q 1075 -34 863 -34 
Q 659 -34 540 81 
Q 422 197 422 378 
Q 422 559 537 679 
Q 653 800 863 800 
z
" transform="scale(0.015625)"/>
       </defs>
       <use xlink:href="#Roboto-Medium-31"/>
       <use xlink:href="#Roboto-Medium-2e" x="56.835938"/>
       <use xlink:href="#Roboto-Medium-38" x="84.765625"/>
      </g>
     </g>
    </g>
    <g id="ytick_2">
     <g id="line2d_10">
      <g>
       <use xlink:href="#md274be83e1" x="108" y="299.840801" style="fill: #ff0000; stroke: #ff0000; stroke-width: 0.8"/>
      </g>
     </g>
     <g id="text_11">
      <!-- 1.9 -->
      <g style="fill: #ff0000" transform="translate(81.1725 305.090801) scale(0.14 -0.14)">
       <defs>
        <path id="Roboto-Medium-39" d="M 2494 1903 
Q 2113 1500 1603 1500 
Q 1003 1500 647 1920 
Q 291 2341 291 3025 
Q 291 3475 472 3840 
Q 653 4206 987 4409 
Q 1322 4613 1763 4613 
Q 2450 4613 2853 4100 
Q 3256 3588 3256 2728 
L 3256 2516 
Q 3256 1284 2700 637 
Q 2144 -9 1041 -19 
L 950 -19 
L 950 609 
L 1059 609 
Q 1731 619 2090 933 
Q 2450 1247 2494 1903 
z
M 1763 2094 
Q 1991 2094 2191 2225 
Q 2391 2356 2500 2588 
L 2500 2884 
Q 2500 3388 2294 3694 
Q 2088 4000 1759 4000 
Q 1431 4000 1236 3729 
Q 1041 3459 1041 3047 
Q 1041 2619 1237 2356 
Q 1434 2094 1763 2094 
z
" transform="scale(0.015625)"/>
       </defs>
       <use xlink:href="#Roboto-Medium-31"/>
       <use xlink:href="#Roboto-Medium-2e" x="56.835938"/>
       <use xlink:href="#Roboto-Medium-39" x="84.765625"/>
      </g>
     </g>
    </g>
    <g id="ytick_3">
     <g id="line2d_11">
      <g>
       <use xlink:href="#md274be83e1" x="108" y="234.215195" style="fill: #ff0000; stroke: #ff0000; stroke-width: 0.8"/>
      </g>
     </g>
     <g id="text_12">
      <!-- 2.0 -->
      <g style="fill: #ff0000" transform="translate(81.1725 239.465195) scale(0.14 -0.14)">
       <use xlink:href="#Roboto-Medium-32"/>
       <use xlink:href="#Roboto-Medium-2e" x="56.835938"/>
       <use xlink:href="#Roboto-Medium-30" x="84.765625"/>
      </g>
     </g>
    </g>
    <g id="ytick_4">
     <g id="line2d_12">
      <g>
       <use xlink:href="#md274be83e1" x="108" y="168.589588" style="fill: #ff0000; stroke: #ff0000; stroke-width: 0.8"/>
      </g>
     </g>
     <g id="text_13">
      <!-- 2.1 -->
      <g style="fill: #ff0000" transform="translate(81.1725 173.839588) scale(0.14 -0.14)">
       <use xlink:href="#Roboto-Medium-32"/>
       <use xlink:href="#Roboto-Medium-2e" x="56.835938"/>
       <use xlink:href="#Roboto-Medium-31" x="84.765625"/>
      </g>
     </g>
    </g>
    <g id="ytick_5">
     <g id="line2d_13">
      <g>
       <use xlink:href="#md274be83e1" x="108" y="102.963981" style="fill: #ff0000; stroke: #ff0000; stroke-width: 0.8"/>
      </g>
     </g>
     <g id="text_14">
      <!-- 2.2 -->
      <g style="fill: #ff0000" transform="translate(81.1725 108.213981) scale(0.14 -0.14)">
       <use xlink:href="#Roboto-Medium-32"/>
       <use xlink:href="#Roboto-Medium-2e" x="56.835938"/>
       <use xlink:href="#Roboto-Medium-32" x="84.765625"/>
      </g>
     </g>
    </g>
    <g id="text_15">
     <!-- UnderConstructionTime -->
     <g style="fill: #ff0000" transform="translate(73.9225 303.7625) rotate(-90) scale(0.16 -0.16)">
      <defs>
       <path id="Roboto-Medium-55" d="M 3791 4550 
L 3791 1509 
Q 3791 784 3327 360 
Q 2863 -63 2091 -63 
Q 1309 -63 850 354 
Q 391 772 391 1513 
L 391 4550 
L 1178 4550 
L 1178 1506 
Q 1178 1050 1409 809 
Q 1641 569 2091 569 
Q 3003 569 3003 1531 
L 3003 4550 
L 3791 4550 
z
" transform="scale(0.015625)"/>
       <path id="Roboto-Medium-6f" d="M 247 1722 
Q 247 2219 444 2617 
Q 641 3016 997 3230 
Q 1353 3444 1816 3444 
Q 2500 3444 2926 3003 
Q 3353 2563 3388 1834 
L 3391 1656 
Q 3391 1156 3198 762 
Q 3006 369 2648 153 
Q 2291 -63 1822 -63 
Q 1106 -63 676 414 
Q 247 891 247 1684 
L 247 1722 
z
M 1006 1656 
Q 1006 1134 1222 839 
Q 1438 544 1822 544 
Q 2206 544 2420 844 
Q 2634 1144 2634 1722 
Q 2634 2234 2414 2534 
Q 2194 2834 1816 2834 
Q 1444 2834 1225 2539 
Q 1006 2244 1006 1656 
z
" transform="scale(0.015625)"/>
       <path id="Roboto-Medium-73" d="M 2284 919 
Q 2284 1122 2117 1228 
Q 1950 1334 1562 1415 
Q 1175 1497 916 1622 
Q 347 1897 347 2419 
Q 347 2856 715 3150 
Q 1084 3444 1653 3444 
Q 2259 3444 2632 3144 
Q 3006 2844 3006 2366 
L 2247 2366 
Q 2247 2584 2084 2729 
Q 1922 2875 1653 2875 
Q 1403 2875 1245 2759 
Q 1088 2644 1088 2450 
Q 1088 2275 1234 2178 
Q 1381 2081 1828 1982 
Q 2275 1884 2529 1748 
Q 2784 1613 2907 1422 
Q 3031 1231 3031 959 
Q 3031 503 2653 220 
Q 2275 -63 1663 -63 
Q 1247 -63 922 87 
Q 597 238 415 500 
Q 234 763 234 1066 
L 972 1066 
Q 988 797 1175 651 
Q 1363 506 1672 506 
Q 1972 506 2128 620 
Q 2284 734 2284 919 
z
" transform="scale(0.015625)"/>
       <path id="Roboto-Medium-63" d="M 1778 544 
Q 2063 544 2250 709 
Q 2438 875 2450 1119 
L 3166 1119 
Q 3153 803 2968 529 
Q 2784 256 2468 96 
Q 2153 -63 1788 -63 
Q 1078 -63 662 396 
Q 247 856 247 1666 
L 247 1744 
Q 247 2516 659 2980 
Q 1072 3444 1784 3444 
Q 2388 3444 2767 3092 
Q 3147 2741 3166 2169 
L 2450 2169 
Q 2438 2459 2252 2646 
Q 2066 2834 1778 2834 
Q 1409 2834 1209 2567 
Q 1009 2300 1006 1756 
L 1006 1634 
Q 1006 1084 1204 814 
Q 1403 544 1778 544 
z
" transform="scale(0.015625)"/>
       <path id="Roboto-Medium-54" d="M 3750 3913 
L 2331 3913 
L 2331 0 
L 1547 0 
L 1547 3913 
L 141 3913 
L 141 4550 
L 3750 4550 
L 3750 3913 
z
" transform="scale(0.015625)"/>
       <path id="Roboto-Medium-6d" d="M 1103 3381 
L 1125 3028 
Q 1481 3444 2100 3444 
Q 2778 3444 3028 2925 
Q 3397 3444 4066 3444 
Q 4625 3444 4898 3134 
Q 5172 2825 5178 2222 
L 5178 0 
L 4419 0 
L 4419 2200 
Q 4419 2522 4278 2672 
Q 4138 2822 3813 2822 
Q 3553 2822 3389 2683 
Q 3225 2544 3159 2319 
L 3163 0 
L 2403 0 
L 2403 2225 
Q 2388 2822 1794 2822 
Q 1338 2822 1147 2450 
L 1147 0 
L 388 0 
L 388 3381 
L 1103 3381 
z
" transform="scale(0.015625)"/>
      </defs>
      <use xlink:href="#Roboto-Medium-55"/>
      <use xlink:href="#Roboto-Medium-6e" x="65.185547"/>
      <use xlink:href="#Roboto-Medium-64" x="120.800781"/>
      <use xlink:href="#Roboto-Medium-65" x="177.246094"/>
      <use xlink:href="#Roboto-Medium-72" x="230.908203"/>
      <use xlink:href="#Roboto-Medium-43" x="266.064453"/>
      <use xlink:href="#Roboto-Medium-6f" x="331.347656"/>
      <use xlink:href="#Roboto-Medium-6e" x="388.28125"/>
      <use xlink:href="#Roboto-Medium-73" x="443.896484"/>
      <use xlink:href="#Roboto-Medium-74" x="495.507812"/>
      <use xlink:href="#Roboto-Medium-72" x="528.759766"/>
      <use xlink:href="#Roboto-Medium-75" x="563.916016"/>
      <use xlink:href="#Roboto-Medium-63" x="619.482422"/>
      <use xlink:href="#Roboto-Medium-74" x="671.826172"/>
      <use xlink:href="#Roboto-Medium-69" x="705.078125"/>
      <use xlink:href="#Roboto-Medium-6f" x="730.615234"/>
      <use xlink:href="#Roboto-Medium-6e" x="787.548828"/>
      <use xlink:href="#Roboto-Medium-54" x="843.164062"/>
      <use xlink:href="#Roboto-Medium-69" x="903.857422"/>
      <use xlink:href="#Roboto-Medium-6d" x="929.394531"/>
      <use xlink:href="#Roboto-Medium-65" x="1016.40625"/>
     </g>
    </g>
   </g>
   <g id="line2d_14">
    <path d="M 138.436364 106.607315 
L 144.523636 178.302352 
L 150.610909 235.872861 
L 156.698182 280.749794 
L 162.785455 314.297302 
L 168.872728 337.811635 
L 174.96 352.520252 
L 181.047273 359.581139 
L 187.134546 360.082335 
L 193.221819 355.041699 
L 199.309092 345.406892 
L 205.396364 332.055601 
L 211.483637 315.796003 
L 217.57091 297.367465 
L 223.658183 277.441488 
L 229.745455 256.622892 
L 235.832728 235.451232 
L 241.920001 214.402462 
L 248.007274 193.890812 
L 254.094547 174.270902 
L 260.181819 155.840053 
L 266.269092 138.840821 
L 272.356365 123.463708 
L 278.443638 109.85006 
L 284.530911 98.095128 
L 290.618183 88.251284 
L 296.705456 80.331361 
L 302.792729 74.312114 
L 308.880002 70.137777 
L 314.967275 67.723694 
L 321.054547 66.96 
L 327.14182 67.715336 
L 333.229093 69.840574 
L 339.316366 73.172523 
L 345.403638 77.537594 
L 351.490911 82.755402 
L 357.578184 88.642277 
L 363.665457 95.014654 
L 369.75273 101.692329 
L 375.840002 108.501544 
L 381.927275 115.27788 
L 388.014548 121.868935 
L 394.101821 128.136764 
L 400.189094 133.960051 
L 406.276366 139.236005 
L 412.363639 143.881946 
L 418.450912 147.836568 
L 424.538185 151.060866 
L 430.625458 153.538706 
L 436.71273 155.277029 
L 442.800003 156.305673 
L 448.887276 156.676819 
L 454.974549 156.464044 
L 461.061822 155.760985 
L 467.149094 154.679616 
L 473.236367 153.348155 
L 479.32364 151.908588 
L 485.410913 150.51386 
L 491.498185 149.324721 
L 497.585458 148.506278 
L 503.672731 148.224268 
L 509.760004 148.6411 
L 515.847277 149.911713 
L 521.934549 152.179281 
L 528.021822 155.570855 
L 534.109095 160.192976 
L 540.196368 166.127355 
L 546.283641 173.426692 
L 552.370913 182.110726 
L 558.458186 192.162613 
L 564.545459 203.525753 
L 570.632732 216.10117 
L 576.720005 229.745583 
L 582.807277 244.270313 
L 588.89455 259.441167 
L 594.981823 274.979472 
L 601.069096 290.564434 
L 607.156368 305.837013 
L 613.243641 320.405506 
L 619.330914 333.853071 
L 625.418187 345.747409 
L 631.50546 355.652865 
L 637.592732 363.145187 
L 643.680005 367.829248 
L 649.767278 369.36 
L 655.854551 367.466988 
L 661.941824 361.982745 
L 668.029096 352.875418 
L 674.116369 340.285991 
L 680.203642 324.570484 
L 686.290915 306.347548 
L 692.378188 286.551863 
L 698.46546 266.493807 
L 704.552733 247.92585 
L 710.640006 233.116164 
L 716.727279 224.929986 
L 722.814551 226.91924 
L 728.901824 243.421013 
L 734.989097 279.665451 
L 741.07637 341.893703 
" clip-path="url(#pe31ca1597f)" style="fill: none; stroke: #ff0000; stroke-width: 1.5; stroke-linecap: square"/>
   </g>
   <g id="patch_3">
    <path d="M 108 384.48 
L 108 51.84 
" style="fill: none; stroke: #58544f; stroke-width: 0.8; stroke-linejoin: miter; stroke-linecap: square"/>
   </g>
   <g id="patch_4">
    <path d="M 777.6 384.48 
L 777.6 51.84 
" style="fill: none; stroke: #58544f; stroke-width: 0.8; stroke-linejoin: miter; stroke-linecap: square"/>
   </g>
   <g id="patch_5">
    <path d="M 108 384.48 
L 777.6 384.48 
" style="fill: none; stroke: #58544f; stroke-width: 0.8; stroke-linejoin: miter; stroke-linecap: square"/>
   </g>
   <g id="patch_6">
    <path d="M 108 51.84 
L 777.6 51.84 
" style="fill: none; stroke: #58544f; stroke-width: 0.8; stroke-linejoin: miter; stroke-linecap: square"/>
   </g>
  </g>
  <g id="axes_2">
   <g id="patch_7">
    <path d="M 138.436364 384.48 
L 150.610909 384.48 
L 150.610909 384.021617 
L 138.436364 384.021617 
z
" clip-path="url(#pe31ca1597f)" style="fill: #0088ed; opacity: 0.4"/>
   </g>
   <g id="patch_8">
    <path d="M 150.610909 384.48 
L 162.785455 384.48 
L 162.785455 384.050266 
L 150.610909 384.050266 
z
" clip-path="url(#pe31ca1597f)" style="fill: #0088ed; opacity: 0.4"/>
   </g>
   <g id="patch_9">
    <path d="M 162.785455 384.48 
L 174.96 384.48 
L 174.96 384.050266 
L 162.785455 384.050266 
z
" clip-path="url(#pe31ca1597f)" style="fill: #0088ed; opacity: 0.4"/>
   </g>
   <g id="patch_10">
    <path d="M 174.96 384.48 
L 187.134545 384.48 
L 187.134545 384.078915 
L 174.96 384.078915 
z
" clip-path="url(#pe31ca1597f)" style="fill: #0088ed; opacity: 0.4"/>
   </g>
   <g id="patch_11">
    <path d="M 187.134545 384.48 
L 199.309091 384.48 
L 199.309091 384.078915 
L 187.134545 384.078915 
z
" clip-path="url(#pe31ca1597f)" style="fill: #0088ed; opacity: 0.4"/>
   </g>
   <g id="patch_12">
    <path d="M 199.309091 384.48 
L 211.483636 384.48 
L 211.483636 384.050266 
L 199.309091 384.050266 
z
" clip-path="url(#pe31ca1597f)" style="fill: #0088ed; opacity: 0.4"/>
   </g>
   <g id="patch_13">
    <path d="M 211.483636 384.48 
L 223.658182 384.48 
L 223.658182 384.050266 
L 211.483636 384.050266 
z
" clip-path="url(#pe31ca1597f)" style="fill: #0088ed; opacity: 0.4"/>
   </g>
   <g id="patch_14">
    <path d="M 223.658182 384.48 
L 235.832727 384.48 
L 235.832727 384.050266 
L 223.658182 384.050266 
z
" clip-path="url(#pe31ca1597f)" style="fill: #0088ed; opacity: 0.4"/>
   </g>
   <g id="patch_15">
    <path d="M 235.832727 384.48 
L 248.007273 384.48 
L 248.007273 384.050266 
L 235.832727 384.050266 
z
" clip-path="url(#pe31ca1597f)" style="fill: #0088ed; opacity: 0.4"/>
   </g>
   <g id="patch_16">
    <path d="M 248.007273 384.48 
L 260.181818 384.48 
L 260.181818 384.050266 
L 248.007273 384.050266 
z
" clip-path="url(#pe31ca1597f)" style="fill: #0088ed; opacity: 0.4"/>
   </g>
   <g id="patch_17">
    <path d="M 260.181818 384.48 
L 272.356364 384.48 
L 272.356364 384.050266 
L 260.181818 384.050266 
z
" clip-path="url(#pe31ca1597f)" style="fill: #0088ed; opacity: 0.4"/>
   </g>
   <g id="patch_18">
    <path d="M 272.356364 384.48 
L 284.530909 384.48 
L 284.530909 384.050266 
L 272.356364 384.050266 
z
" clip-path="url(#pe31ca1597f)" style="fill: #0088ed; opacity: 0.4"/>
   </g>
   <g id="patch_19">
    <path d="M 284.530909 384.48 
L 296.705455 384.48 
L 296.705455 383.649181 
L 284.530909 383.649181 
z
" clip-path="url(#pe31ca1597f)" style="fill: #0088ed; opacity: 0.4"/>
   </g>
   <g id="patch_20">
    <path d="M 296.705455 384.48 
L 308.88 384.48 
L 308.88 331.336213 
L 296.705455 331.336213 
z
" clip-path="url(#pe31ca1597f)" style="fill: #0088ed; opacity: 0.4"/>
   </g>
   <g id="patch_21">
    <path d="M 308.88 384.48 
L 321.054545 384.48 
L 321.054545 192.288573 
L 308.88 192.288573 
z
" clip-path="url(#pe31ca1597f)" style="fill: #0088ed; opacity: 0.4"/>
   </g>
   <g id="patch_22">
    <path d="M 321.054545 384.48 
L 333.229091 384.48 
L 333.229091 130.822268 
L 321.054545 130.822268 
z
" clip-path="url(#pe31ca1597f)" style="fill: #0088ed; opacity: 0.4"/>
   </g>
   <g id="patch_23">
    <path d="M 333.229091 384.48 
L 345.403636 384.48 
L 345.403636 101.872512 
L 333.229091 101.872512 
z
" clip-path="url(#pe31ca1597f)" style="fill: #0088ed; opacity: 0.4"/>
   </g>
   <g id="patch_24">
    <path d="M 345.403636 384.48 
L 357.578182 384.48 
L 357.578182 92.489984 
L 345.403636 92.489984 
z
" clip-path="url(#pe31ca1597f)" style="fill: #0088ed; opacity: 0.4"/>
   </g>
   <g id="patch_25">
    <path d="M 357.578182 384.48 
L 369.752727 384.48 
L 369.752727 82.477179 
L 357.578182 82.477179 
z
" clip-path="url(#pe31ca1597f)" style="fill: #0088ed; opacity: 0.4"/>
   </g>
   <g id="patch_26">
    <path d="M 369.752727 384.48 
L 381.927273 384.48 
L 381.927273 67.68 
L 369.752727 67.68 
z
" clip-path="url(#pe31ca1597f)" style="fill: #0088ed; opacity: 0.4"/>
   </g>
   <g id="patch_27">
    <path d="M 381.927273 384.48 
L 394.101818 384.48 
L 394.101818 75.873597 
L 381.927273 75.873597 
z
" clip-path="url(#pe31ca1597f)" style="fill: #0088ed; opacity: 0.4"/>
   </g>
   <g id="patch_28">
    <path d="M 394.101818 384.48 
L 406.276364 384.48 
L 406.276364 79.340119 
L 394.101818 79.340119 
z
" clip-path="url(#pe31ca1597f)" style="fill: #0088ed; opacity: 0.4"/>
   </g>
   <g id="patch_29">
    <path d="M 406.276364 384.48 
L 418.450909 384.48 
L 418.450909 68.439197 
L 406.276364 68.439197 
z
" clip-path="url(#pe31ca1597f)" style="fill: #0088ed; opacity: 0.4"/>
   </g>
   <g id="patch_30">
    <path d="M 418.450909 384.48 
L 430.625455 384.48 
L 430.625455 70.000564 
L 418.450909 70.000564 
z
" clip-path="url(#pe31ca1597f)" style="fill: #0088ed; opacity: 0.4"/>
   </g>
   <g id="patch_31">
    <path d="M 430.625455 384.48 
L 442.8 384.48 
L 442.8 84.869365 
L 430.625455 84.869365 
z
" clip-path="url(#pe31ca1597f)" style="fill: #0088ed; opacity: 0.4"/>
   </g>
   <g id="patch_32">
    <path d="M 442.8 384.48 
L 454.974545 384.48 
L 454.974545 86.172892 
L 442.8 86.172892 
z
" clip-path="url(#pe31ca1597f)" style="fill: #0088ed; opacity: 0.4"/>
   </g>
   <g id="patch_33">
    <path d="M 454.974545 384.48 
L 467.149091 384.48 
L 467.149091 93.592968 
L 454.974545 93.592968 
z
" clip-path="url(#pe31ca1597f)" style="fill: #0088ed; opacity: 0.4"/>
   </g>
   <g id="patch_34">
    <path d="M 467.149091 384.48 
L 479.323636 384.48 
L 479.323636 92.174845 
L 467.149091 92.174845 
z
" clip-path="url(#pe31ca1597f)" style="fill: #0088ed; opacity: 0.4"/>
   </g>
   <g id="patch_35">
    <path d="M 479.323636 384.48 
L 491.498182 384.48 
L 491.498182 100.884124 
L 479.323636 100.884124 
z
" clip-path="url(#pe31ca1597f)" style="fill: #0088ed; opacity: 0.4"/>
   </g>
   <g id="patch_36">
    <path d="M 491.498182 384.48 
L 503.672727 384.48 
L 503.672727 79.741205 
L 491.498182 79.741205 
z
" clip-path="url(#pe31ca1597f)" style="fill: #0088ed; opacity: 0.4"/>
   </g>
   <g id="patch_37">
    <path d="M 503.672727 384.48 
L 515.847273 384.48 
L 515.847273 72.034639 
L 503.672727 72.034639 
z
" clip-path="url(#pe31ca1597f)" style="fill: #0088ed; opacity: 0.4"/>
   </g>
   <g id="patch_38">
    <path d="M 515.847273 384.48 
L 528.021818 384.48 
L 528.021818 79.769853 
L 515.847273 79.769853 
z
" clip-path="url(#pe31ca1597f)" style="fill: #0088ed; opacity: 0.4"/>
   </g>
   <g id="patch_39">
    <path d="M 528.021818 384.48 
L 540.196364 384.48 
L 540.196364 87.046685 
L 528.021818 87.046685 
z
" clip-path="url(#pe31ca1597f)" style="fill: #0088ed; opacity: 0.4"/>
   </g>
   <g id="patch_40">
    <path d="M 540.196364 384.48 
L 552.370909 384.48 
L 552.370909 74.670342 
L 540.196364 74.670342 
z
" clip-path="url(#pe31ca1597f)" style="fill: #0088ed; opacity: 0.4"/>
   </g>
   <g id="patch_41">
    <path d="M 552.370909 384.48 
L 564.545455 384.48 
L 564.545455 88.880217 
L 552.370909 88.880217 
z
" clip-path="url(#pe31ca1597f)" style="fill: #0088ed; opacity: 0.4"/>
   </g>
   <g id="patch_42">
    <path d="M 564.545455 384.48 
L 576.72 384.48 
L 576.72 108.318524 
L 564.545455 108.318524 
z
" clip-path="url(#pe31ca1597f)" style="fill: #0088ed; opacity: 0.4"/>
   </g>
   <g id="patch_43">
    <path d="M 576.72 384.48 
L 588.894545 384.48 
L 588.894545 105.682821 
L 576.72 105.682821 
z
" clip-path="url(#pe31ca1597f)" style="fill: #0088ed; opacity: 0.4"/>
   </g>
   <g id="patch_44">
    <path d="M 588.894545 384.48 
L 601.069091 384.48 
L 601.069091 218.23019 
L 588.894545 218.23019 
z
" clip-path="url(#pe31ca1597f)" style="fill: #0088ed; opacity: 0.4"/>
   </g>
   <g id="patch_45">
    <path d="M 601.069091 384.48 
L 613.243636 384.48 
L 613.243636 384.007292 
L 601.069091 384.007292 
z
" clip-path="url(#pe31ca1597f)" style="fill: #0088ed; opacity: 0.4"/>
   </g>
   <g id="patch_46">
    <path d="M 613.243636 384.48 
L 625.418182 384.48 
L 625.418182 384.078915 
L 613.243636 384.078915 
z
" clip-path="url(#pe31ca1597f)" style="fill: #0088ed; opacity: 0.4"/>
   </g>
   <g id="patch_47">
    <path d="M 625.418182 384.48 
L 637.592727 384.48 
L 637.592727 384.050266 
L 625.418182 384.050266 
z
" clip-path="url(#pe31ca1597f)" style="fill: #0088ed; opacity: 0.4"/>
   </g>
   <g id="patch_48">
    <path d="M 637.592727 384.48 
L 649.767273 384.48 
L 649.767273 383.992968 
L 637.592727 383.992968 
z
" clip-path="url(#pe31ca1597f)" style="fill: #0088ed; opacity: 0.4"/>
   </g>
   <g id="patch_49">
    <path d="M 649.767273 384.48 
L 661.941818 384.48 
L 661.941818 384.050266 
L 649.767273 384.050266 
z
" clip-path="url(#pe31ca1597f)" style="fill: #0088ed; opacity: 0.4"/>
   </g>
   <g id="patch_50">
    <path d="M 661.941818 384.48 
L 674.116364 384.48 
L 674.116364 384.021617 
L 661.941818 384.021617 
z
" clip-path="url(#pe31ca1597f)" style="fill: #0088ed; opacity: 0.4"/>
   </g>
   <g id="patch_51">
    <path d="M 674.116364 384.48 
L 686.290909 384.48 
L 686.290909 384.021617 
L 674.116364 384.021617 
z
" clip-path="url(#pe31ca1597f)" style="fill: #0088ed; opacity: 0.4"/>
   </g>
   <g id="patch_52">
    <path d="M 686.290909 384.48 
L 698.465455 384.48 
L 698.465455 384.021617 
L 686.290909 384.021617 
z
" clip-path="url(#pe31ca1597f)" style="fill: #0088ed; opacity: 0.4"/>
   </g>
   <g id="patch_53">
    <path d="M 698.465455 384.48 
L 710.64 384.48 
L 710.64 384.078915 
L 698.465455 384.078915 
z
" clip-path="url(#pe31ca1597f)" style="fill: #0088ed; opacity: 0.4"/>
   </g>
   <g id="patch_54">
    <path d="M 710.64 384.48 
L 722.814545 384.48 
L 722.814545 384.021617 
L 710.64 384.021617 
z
" clip-path="url(#pe31ca1597f)" style="fill: #0088ed; opacity: 0.4"/>
   </g>
   <g id="patch_55">
    <path d="M 722.814545 384.48 
L 734.989091 384.48 
L 734.989091 384.050266 
L 722.814545 384.050266 
z
" clip-path="url(#pe31ca1597f)" style="fill: #0088ed; opacity: 0.4"/>
   </g>
   <g id="patch_56">
    <path d="M 734.989091 384.48 
L 747.163636 384.48 
L 747.163636 384.050266 
L 734.989091 384.050266 
z
" clip-path="url(#pe31ca1597f)" style="fill: #0088ed; opacity: 0.4"/>
   </g>
   <g id="matplotlib.axis_3">
    <g id="ytick_6">
     <g id="line2d_15">
      <defs>
       <path id="m3010c48856" d="M 0 0 
L 3.5 0 
" style="stroke: #0088ed; stroke-width: 0.8"/>
      </defs>
      <g>
       <use xlink:href="#m3010c48856" x="777.6" y="384.48" style="fill: #0088ed; stroke: #0088ed; stroke-width: 0.8"/>
      </g>
     </g>
     <g id="text_16">
      <!-- 0 -->
      <g style="fill: #0088ed" transform="translate(784.6 389.73) scale(0.14 -0.14)">
       <use xlink:href="#Roboto-Medium-30"/>
      </g>
     </g>
    </g>
    <g id="ytick_7">
     <g id="line2d_16">
      <g>
       <use xlink:href="#m3010c48856" x="777.6" y="312.857645" style="fill: #0088ed; stroke: #0088ed; stroke-width: 0.8"/>
      </g>
     </g>
     <g id="text_17">
      <!-- 5000 -->
      <g style="fill: #0088ed" transform="translate(784.6 318.107645) scale(0.14 -0.14)">
       <defs>
        <path id="Roboto-Medium-35" d="M 544 2256 
L 791 4550 
L 3234 4550 
L 3234 3894 
L 1422 3894 
L 1297 2806 
Q 1613 2988 2009 2988 
Q 2659 2988 3020 2572 
Q 3381 2156 3381 1453 
Q 3381 759 2981 348 
Q 2581 -63 1884 -63 
Q 1259 -63 848 292 
Q 438 647 403 1228 
L 1138 1228 
Q 1181 897 1375 720 
Q 1569 544 1881 544 
Q 2231 544 2426 794 
Q 2622 1044 2622 1475 
Q 2622 1891 2406 2133 
Q 2191 2375 1813 2375 
Q 1606 2375 1462 2320 
Q 1319 2266 1150 2106 
L 544 2256 
z
" transform="scale(0.015625)"/>
       </defs>
       <use xlink:href="#Roboto-Medium-35"/>
       <use xlink:href="#Roboto-Medium-30" x="56.835938"/>
       <use xlink:href="#Roboto-Medium-30" x="113.671875"/>
       <use xlink:href="#Roboto-Medium-30" x="170.507812"/>
      </g>
     </g>
    </g>
    <g id="ytick_8">
     <g id="line2d_17">
      <g>
       <use xlink:href="#m3010c48856" x="777.6" y="241.23529" style="fill: #0088ed; stroke: #0088ed; stroke-width: 0.8"/>
      </g>
     </g>
     <g id="text_18">
      <!-- 10000 -->
      <g style="fill: #0088ed" transform="translate(784.6 246.48529) scale(0.14 -0.14)">
       <use xlink:href="#Roboto-Medium-31"/>
       <use xlink:href="#Roboto-Medium-30" x="56.835938"/>
       <use xlink:href="#Roboto-Medium-30" x="113.671875"/>
       <use xlink:href="#Roboto-Medium-30" x="170.507812"/>
       <use xlink:href="#Roboto-Medium-30" x="227.34375"/>
      </g>
     </g>
    </g>
    <g id="ytick_9">
     <g id="line2d_18">
      <g>
       <use xlink:href="#m3010c48856" x="777.6" y="169.612935" style="fill: #0088ed; stroke: #0088ed; stroke-width: 0.8"/>
      </g>
     </g>
     <g id="text_19">
      <!-- 15000 -->
      <g style="fill: #0088ed" transform="translate(784.6 174.862935) scale(0.14 -0.14)">
       <use xlink:href="#Roboto-Medium-31"/>
       <use xlink:href="#Roboto-Medium-35" x="56.835938"/>
       <use xlink:href="#Roboto-Medium-30" x="113.671875"/>
       <use xlink:href="#Roboto-Medium-30" x="170.507812"/>
       <use xlink:href="#Roboto-Medium-30" x="227.34375"/>
      </g>
     </g>
    </g>
    <g id="ytick_10">
     <g id="line2d_19">
      <g>
       <use xlink:href="#m3010c48856" x="777.6" y="97.990581" style="fill: #0088ed; stroke: #0088ed; stroke-width: 0.8"/>
      </g>
     </g>
     <g id="text_20">
      <!-- 20000 -->
      <g style="fill: #0088ed" transform="translate(784.6 103.240581) scale(0.14 -0.14)">
       <use xlink:href="#Roboto-Medium-32"/>
       <use xlink:href="#Roboto-Medium-30" x="56.835938"/>
       <use xlink:href="#Roboto-Medium-30" x="113.671875"/>
       <use xlink:href="#Roboto-Medium-30" x="170.507812"/>
       <use xlink:href="#Roboto-Medium-30" x="227.34375"/>
      </g>
     </g>
    </g>
    <g id="text_21">
     <!-- Distribution of CreatedDate:MinuteInDay -->
     <g style="fill: #0088ed" transform="translate(843.555625 362.90625) rotate(-90) scale(0.16 -0.16)">
      <defs>
       <path id="Roboto-Medium-62" d="M 3356 1656 
Q 3356 869 3004 403 
Q 2653 -63 2038 -63 
Q 1444 -63 1113 366 
L 1075 0 
L 388 0 
L 388 4800 
L 1147 4800 
L 1147 3056 
Q 1475 3444 2031 3444 
Q 2650 3444 3003 2984 
Q 3356 2525 3356 1700 
L 3356 1656 
z
M 2597 1722 
Q 2597 2272 2403 2547 
Q 2209 2822 1841 2822 
Q 1347 2822 1147 2391 
L 1147 997 
Q 1350 556 1847 556 
Q 2203 556 2397 822 
Q 2591 1088 2597 1625 
L 2597 1722 
z
" transform="scale(0.015625)"/>
       <path id="Roboto-Medium-20" transform="scale(0.015625)"/>
       <path id="Roboto-Medium-66" d="M 656 0 
L 656 2819 
L 141 2819 
L 141 3381 
L 656 3381 
L 656 3691 
Q 656 4253 968 4559 
Q 1281 4866 1844 4866 
Q 2044 4866 2269 4809 
L 2250 4216 
Q 2125 4241 1959 4241 
Q 1416 4241 1416 3681 
L 1416 3381 
L 2103 3381 
L 2103 2819 
L 1416 2819 
L 1416 0 
L 656 0 
z
" transform="scale(0.015625)"/>
      </defs>
      <use xlink:href="#Roboto-Medium-44"/>
      <use xlink:href="#Roboto-Medium-69" x="65.332031"/>
      <use xlink:href="#Roboto-Medium-73" x="90.869141"/>
      <use xlink:href="#Roboto-Medium-74" x="142.480469"/>
      <use xlink:href="#Roboto-Medium-72" x="175.732422"/>
      <use xlink:href="#Roboto-Medium-69" x="210.888672"/>
      <use xlink:href="#Roboto-Medium-62" x="236.425781"/>
      <use xlink:href="#Roboto-Medium-75" x="292.724609"/>
      <use xlink:href="#Roboto-Medium-74" x="348.291016"/>
      <use xlink:href="#Roboto-Medium-69" x="381.542969"/>
      <use xlink:href="#Roboto-Medium-6f" x="407.080078"/>
      <use xlink:href="#Roboto-Medium-6e" x="464.013672"/>
      <use xlink:href="#Roboto-Medium-20" x="519.628906"/>
      <use xlink:href="#Roboto-Medium-6f" x="544.53125"/>
      <use xlink:href="#Roboto-Medium-66" x="601.464844"/>
      <use xlink:href="#Roboto-Medium-20" x="636.914062"/>
      <use xlink:href="#Roboto-Medium-43" x="661.816406"/>
      <use xlink:href="#Roboto-Medium-72" x="727.099609"/>
      <use xlink:href="#Roboto-Medium-65" x="762.255859"/>
      <use xlink:href="#Roboto-Medium-61" x="815.917969"/>
      <use xlink:href="#Roboto-Medium-74" x="870.019531"/>
      <use xlink:href="#Roboto-Medium-65" x="903.271484"/>
      <use xlink:href="#Roboto-Medium-64" x="956.933594"/>
      <use xlink:href="#Roboto-Medium-44" x="1013.378906"/>
      <use xlink:href="#Roboto-Medium-61" x="1078.710938"/>
      <use xlink:href="#Roboto-Medium-74" x="1132.8125"/>
      <use xlink:href="#Roboto-Medium-65" x="1166.064453"/>
      <use xlink:href="#Roboto-Medium-3a" x="1219.726562"/>
      <use xlink:href="#Roboto-Medium-4d" x="1246.240234"/>
      <use xlink:href="#Roboto-Medium-69" x="1333.789062"/>
      <use xlink:href="#Roboto-Medium-6e" x="1359.326172"/>
      <use xlink:href="#Roboto-Medium-75" x="1414.941406"/>
      <use xlink:href="#Roboto-Medium-74" x="1470.507812"/>
      <use xlink:href="#Roboto-Medium-65" x="1503.759766"/>
      <use xlink:href="#Roboto-Medium-49" x="1557.421875"/>
      <use xlink:href="#Roboto-Medium-6e" x="1585.644531"/>
      <use xlink:href="#Roboto-Medium-44" x="1641.259766"/>
      <use xlink:href="#Roboto-Medium-61" x="1706.591797"/>
      <use xlink:href="#Roboto-Medium-79" x="1760.693359"/>
     </g>
    </g>
   </g>
   <g id="patch_57">
    <path d="M 108 384.48 
L 108 51.84 
" style="fill: none; stroke: #58544f; stroke-width: 0.8; stroke-linejoin: miter; stroke-linecap: square"/>
   </g>
   <g id="patch_58">
    <path d="M 777.6 384.48 
L 777.6 51.84 
" style="fill: none; stroke: #58544f; stroke-width: 0.8; stroke-linejoin: miter; stroke-linecap: square"/>
   </g>
   <g id="patch_59">
    <path d="M 108 384.48 
L 777.6 384.48 
" style="fill: none; stroke: #58544f; stroke-width: 0.8; stroke-linejoin: miter; stroke-linecap: square"/>
   </g>
   <g id="patch_60">
    <path d="M 108 51.84 
L 777.6 51.84 
" style="fill: none; stroke: #58544f; stroke-width: 0.8; stroke-linejoin: miter; stroke-linecap: square"/>
   </g>
   <g id="text_22">
    <!-- Impact of CreatedDate:MinuteInDay on UnderConstructionTime -->
    <g style="fill: #262626" transform="translate(159.464063 38.84) scale(0.2 -0.2)">
     <defs>
      <path id="Roboto-Medium-70" d="M 3350 1656 
Q 3350 872 2994 404 
Q 2638 -63 2038 -63 
Q 1481 -63 1147 303 
L 1147 -1300 
L 388 -1300 
L 388 3381 
L 1088 3381 
L 1119 3038 
Q 1453 3444 2028 3444 
Q 2647 3444 2998 2983 
Q 3350 2522 3350 1703 
L 3350 1656 
z
M 2594 1722 
Q 2594 2228 2392 2525 
Q 2191 2822 1816 2822 
Q 1350 2822 1147 2438 
L 1147 938 
Q 1353 544 1822 544 
Q 2184 544 2389 836 
Q 2594 1128 2594 1722 
z
" transform="scale(0.015625)"/>
     </defs>
     <use xlink:href="#Roboto-Medium-49"/>
     <use xlink:href="#Roboto-Medium-6d" x="28.222656"/>
     <use xlink:href="#Roboto-Medium-70" x="115.234375"/>
     <use xlink:href="#Roboto-Medium-61" x="171.533203"/>
     <use xlink:href="#Roboto-Medium-63" x="225.634766"/>
     <use xlink:href="#Roboto-Medium-74" x="277.978516"/>
     <use xlink:href="#Roboto-Medium-20" x="311.230469"/>
     <use xlink:href="#Roboto-Medium-6f" x="336.132812"/>
     <use xlink:href="#Roboto-Medium-66" x="393.066406"/>
     <use xlink:href="#Roboto-Medium-20" x="428.515625"/>
     <use xlink:href="#Roboto-Medium-43" x="453.417969"/>
     <use xlink:href="#Roboto-Medium-72" x="518.701172"/>
     <use xlink:href="#Roboto-Medium-65" x="553.857422"/>
     <use xlink:href="#Roboto-Medium-61" x="607.519531"/>
     <use xlink:href="#Roboto-Medium-74" x="661.621094"/>
     <use xlink:href="#Roboto-Medium-65" x="694.873047"/>
     <use xlink:href="#Roboto-Medium-64" x="748.535156"/>
     <use xlink:href="#Roboto-Medium-44" x="804.980469"/>
     <use xlink:href="#Roboto-Medium-61" x="870.3125"/>
     <use xlink:href="#Roboto-Medium-74" x="924.414062"/>
     <use xlink:href="#Roboto-Medium-65" x="957.666016"/>
     <use xlink:href="#Roboto-Medium-3a" x="1011.328125"/>
     <use xlink:href="#Roboto-Medium-4d" x="1037.841797"/>
     <use xlink:href="#Roboto-Medium-69" x="1125.390625"/>
     <use xlink:href="#Roboto-Medium-6e" x="1150.927734"/>
     <use xlink:href="#Roboto-Medium-75" x="1206.542969"/>
     <use xlink:href="#Roboto-Medium-74" x="1262.109375"/>
     <use xlink:href="#Roboto-Medium-65" x="1295.361328"/>
     <use xlink:href="#Roboto-Medium-49" x="1349.023438"/>
     <use xlink:href="#Roboto-Medium-6e" x="1377.246094"/>
     <use xlink:href="#Roboto-Medium-44" x="1432.861328"/>
     <use xlink:href="#Roboto-Medium-61" x="1498.193359"/>
     <use xlink:href="#Roboto-Medium-79" x="1552.294922"/>
     <use xlink:href="#Roboto-Medium-20" x="1600.976562"/>
     <use xlink:href="#Roboto-Medium-6f" x="1625.878906"/>
     <use xlink:href="#Roboto-Medium-6e" x="1682.8125"/>
     <use xlink:href="#Roboto-Medium-20" x="1738.427734"/>
     <use xlink:href="#Roboto-Medium-55" x="1763.330078"/>
     <use xlink:href="#Roboto-Medium-6e" x="1828.515625"/>
     <use xlink:href="#Roboto-Medium-64" x="1884.130859"/>
     <use xlink:href="#Roboto-Medium-65" x="1940.576172"/>
     <use xlink:href="#Roboto-Medium-72" x="1994.238281"/>
     <use xlink:href="#Roboto-Medium-43" x="2029.394531"/>
     <use xlink:href="#Roboto-Medium-6f" x="2094.677734"/>
     <use xlink:href="#Roboto-Medium-6e" x="2151.611328"/>
     <use xlink:href="#Roboto-Medium-73" x="2207.226562"/>
     <use xlink:href="#Roboto-Medium-74" x="2258.837891"/>
     <use xlink:href="#Roboto-Medium-72" x="2292.089844"/>
     <use xlink:href="#Roboto-Medium-75" x="2327.246094"/>
     <use xlink:href="#Roboto-Medium-63" x="2382.8125"/>
     <use xlink:href="#Roboto-Medium-74" x="2435.15625"/>
     <use xlink:href="#Roboto-Medium-69" x="2468.408203"/>
     <use xlink:href="#Roboto-Medium-6f" x="2493.945312"/>
     <use xlink:href="#Roboto-Medium-6e" x="2550.878906"/>
     <use xlink:href="#Roboto-Medium-54" x="2606.494141"/>
     <use xlink:href="#Roboto-Medium-69" x="2667.1875"/>
     <use xlink:href="#Roboto-Medium-6d" x="2692.724609"/>
     <use xlink:href="#Roboto-Medium-65" x="2779.736328"/>
    </g>
   </g>
  </g>
 </g>
 <defs>
  <clipPath id="pe31ca1597f">
   <rect x="108" y="51.84" width="669.6" height="332.64"/>
  </clipPath>
 </defs>
</svg>
