<?xml version="1.0" encoding="utf-8" standalone="no"?>
<!DOCTYPE svg PUBLIC "-//W3C//DTD SVG 1.1//EN"
  "http://www.w3.org/Graphics/SVG/1.1/DTD/svg11.dtd">
<svg xmlns:xlink="http://www.w3.org/1999/xlink" width="864pt" height="432pt" viewBox="0 0 864 432" xmlns="http://www.w3.org/2000/svg" version="1.1">
 <metadata>
  <rdf:RDF xmlns:dc="http://purl.org/dc/elements/1.1/" xmlns:cc="http://creativecommons.org/ns#" xmlns:rdf="http://www.w3.org/1999/02/22-rdf-syntax-ns#">
   <cc:Work>
    <dc:type rdf:resource="http://purl.org/dc/dcmitype/StillImage"/>
    <dc:date>2023-10-24T16:33:06.926639</dc:date>
    <dc:format>image/svg+xml</dc:format>
    <dc:creator>
     <cc:Agent>
      <dc:title>Matplotlib v3.7.2, https://matplotlib.org/</dc:title>
     </cc:Agent>
    </dc:creator>
   </cc:Work>
  </rdf:RDF>
 </metadata>
 <defs>
  <style type="text/css">*{stroke-linejoin: round; stroke-linecap: butt}</style>
 </defs>
 <g id="figure_1">
  <g id="patch_1">
   <path d="M 0 432 
L 864 432 
L 864 0 
L 0 0 
z
" style="fill: #ffffff"/>
  </g>
  <g id="axes_1">
   <g id="patch_2">
    <path d="M 108 384.48 
L 777.6 384.48 
L 777.6 51.84 
L 108 51.84 
z
" style="fill: #ffffff"/>
   </g>
   <g id="matplotlib.axis_1">
    <g id="xtick_1">
     <g id="line2d_1">
      <defs>
       <path id="mda2cb85525" d="M 0 0 
L 0 3.5 
" style="stroke: #58544f; stroke-width: 0.8"/>
      </defs>
      <g>
       <use xlink:href="#mda2cb85525" x="138.436364" y="384.48" style="fill: #58544f; stroke: #58544f; stroke-width: 0.8"/>
      </g>
     </g>
     <g id="text_1">
      <!-- 150 -->
      <g style="fill: #58544f" transform="translate(126.499176 401.98) scale(0.14 -0.14)">
       <defs>
        <path id="Roboto-Medium-31" d="M 2397 0 
L 1641 0 
L 1641 3653 
L 525 3272 
L 525 3913 
L 2300 4566 
L 2397 4566 
L 2397 0 
z
" transform="scale(0.015625)"/>
        <path id="Roboto-Medium-35" d="M 544 2256 
L 791 4550 
L 3234 4550 
L 3234 3894 
L 1422 3894 
L 1297 2806 
Q 1613 2988 2009 2988 
Q 2659 2988 3020 2572 
Q 3381 2156 3381 1453 
Q 3381 759 2981 348 
Q 2581 -63 1884 -63 
Q 1259 -63 848 292 
Q 438 647 403 1228 
L 1138 1228 
Q 1181 897 1375 720 
Q 1569 544 1881 544 
Q 2231 544 2426 794 
Q 2622 1044 2622 1475 
Q 2622 1891 2406 2133 
Q 2191 2375 1813 2375 
Q 1606 2375 1462 2320 
Q 1319 2266 1150 2106 
L 544 2256 
z
" transform="scale(0.015625)"/>
        <path id="Roboto-Medium-30" d="M 3306 1916 
Q 3306 934 2939 435 
Q 2572 -63 1822 -63 
Q 1084 -63 711 423 
Q 338 909 328 1863 
L 328 2650 
Q 328 3631 695 4122 
Q 1063 4613 1816 4613 
Q 2563 4613 2930 4134 
Q 3297 3656 3306 2703 
L 3306 1916 
z
M 2547 2766 
Q 2547 3406 2372 3704 
Q 2197 4003 1816 4003 
Q 1444 4003 1269 3720 
Q 1094 3438 1084 2838 
L 1084 1806 
Q 1084 1169 1262 856 
Q 1441 544 1822 544 
Q 2188 544 2363 833 
Q 2538 1122 2547 1738 
L 2547 2766 
z
" transform="scale(0.015625)"/>
       </defs>
       <use xlink:href="#Roboto-Medium-31"/>
       <use xlink:href="#Roboto-Medium-35" x="56.835938"/>
       <use xlink:href="#Roboto-Medium-30" x="113.671875"/>
      </g>
     </g>
    </g>
    <g id="xtick_2">
     <g id="line2d_2">
      <g>
       <use xlink:href="#mda2cb85525" x="239.890909" y="384.48" style="fill: #58544f; stroke: #58544f; stroke-width: 0.8"/>
      </g>
     </g>
     <g id="text_2">
      <!-- 200 -->
      <g style="fill: #58544f" transform="translate(227.953722 401.98) scale(0.14 -0.14)">
       <defs>
        <path id="Roboto-Medium-32" d="M 3400 0 
L 341 0 
L 341 522 
L 1856 2175 
Q 2184 2541 2323 2786 
Q 2463 3031 2463 3278 
Q 2463 3603 2280 3803 
Q 2097 4003 1788 4003 
Q 1419 4003 1216 3778 
Q 1013 3553 1013 3163 
L 253 3163 
Q 253 3578 442 3911 
Q 631 4244 982 4428 
Q 1334 4613 1794 4613 
Q 2456 4613 2839 4280 
Q 3222 3947 3222 3359 
Q 3222 3019 3030 2645 
Q 2838 2272 2400 1797 
L 1288 606 
L 3400 606 
L 3400 0 
z
" transform="scale(0.015625)"/>
       </defs>
       <use xlink:href="#Roboto-Medium-32"/>
       <use xlink:href="#Roboto-Medium-30" x="56.835938"/>
       <use xlink:href="#Roboto-Medium-30" x="113.671875"/>
      </g>
     </g>
    </g>
    <g id="xtick_3">
     <g id="line2d_3">
      <g>
       <use xlink:href="#mda2cb85525" x="341.345455" y="384.48" style="fill: #58544f; stroke: #58544f; stroke-width: 0.8"/>
      </g>
     </g>
     <g id="text_3">
      <!-- 250 -->
      <g style="fill: #58544f" transform="translate(329.408267 401.98) scale(0.14 -0.14)">
       <use xlink:href="#Roboto-Medium-32"/>
       <use xlink:href="#Roboto-Medium-35" x="56.835938"/>
       <use xlink:href="#Roboto-Medium-30" x="113.671875"/>
      </g>
     </g>
    </g>
    <g id="xtick_4">
     <g id="line2d_4">
      <g>
       <use xlink:href="#mda2cb85525" x="442.8" y="384.48" style="fill: #58544f; stroke: #58544f; stroke-width: 0.8"/>
      </g>
     </g>
     <g id="text_4">
      <!-- 300 -->
      <g style="fill: #58544f" transform="translate(430.862813 401.98) scale(0.14 -0.14)">
       <defs>
        <path id="Roboto-Medium-33" d="M 1219 2622 
L 1681 2622 
Q 2031 2625 2236 2803 
Q 2441 2981 2441 3319 
Q 2441 3644 2270 3823 
Q 2100 4003 1750 4003 
Q 1444 4003 1247 3826 
Q 1050 3650 1050 3366 
L 291 3366 
Q 291 3716 477 4003 
Q 663 4291 995 4452 
Q 1328 4613 1741 4613 
Q 2422 4613 2811 4270 
Q 3200 3928 3200 3319 
Q 3200 3013 3004 2742 
Q 2809 2472 2500 2334 
Q 2875 2206 3070 1931 
Q 3266 1656 3266 1275 
Q 3266 663 2845 300 
Q 2425 -63 1741 -63 
Q 1084 -63 665 287 
Q 247 638 247 1219 
L 1006 1219 
Q 1006 919 1207 731 
Q 1409 544 1750 544 
Q 2103 544 2306 731 
Q 2509 919 2509 1275 
Q 2509 1634 2296 1828 
Q 2084 2022 1666 2022 
L 1219 2022 
L 1219 2622 
z
" transform="scale(0.015625)"/>
       </defs>
       <use xlink:href="#Roboto-Medium-33"/>
       <use xlink:href="#Roboto-Medium-30" x="56.835938"/>
       <use xlink:href="#Roboto-Medium-30" x="113.671875"/>
      </g>
     </g>
    </g>
    <g id="xtick_5">
     <g id="line2d_5">
      <g>
       <use xlink:href="#mda2cb85525" x="544.254545" y="384.48" style="fill: #58544f; stroke: #58544f; stroke-width: 0.8"/>
      </g>
     </g>
     <g id="text_5">
      <!-- 350 -->
      <g style="fill: #58544f" transform="translate(532.317358 401.98) scale(0.14 -0.14)">
       <use xlink:href="#Roboto-Medium-33"/>
       <use xlink:href="#Roboto-Medium-35" x="56.835938"/>
       <use xlink:href="#Roboto-Medium-30" x="113.671875"/>
      </g>
     </g>
    </g>
    <g id="xtick_6">
     <g id="line2d_6">
      <g>
       <use xlink:href="#mda2cb85525" x="645.709091" y="384.48" style="fill: #58544f; stroke: #58544f; stroke-width: 0.8"/>
      </g>
     </g>
     <g id="text_6">
      <!-- 400 -->
      <g style="fill: #58544f" transform="translate(633.771903 401.98) scale(0.14 -0.14)">
       <defs>
        <path id="Roboto-Medium-34" d="M 2909 1622 
L 3475 1622 
L 3475 1013 
L 2909 1013 
L 2909 0 
L 2150 0 
L 2150 1013 
L 184 1013 
L 163 1475 
L 2125 4550 
L 2909 4550 
L 2909 1622 
z
M 959 1622 
L 2150 1622 
L 2150 3522 
L 2094 3422 
L 959 1622 
z
" transform="scale(0.015625)"/>
       </defs>
       <use xlink:href="#Roboto-Medium-34"/>
       <use xlink:href="#Roboto-Medium-30" x="56.835938"/>
       <use xlink:href="#Roboto-Medium-30" x="113.671875"/>
      </g>
     </g>
    </g>
    <g id="xtick_7">
     <g id="line2d_7">
      <g>
       <use xlink:href="#mda2cb85525" x="747.163636" y="384.48" style="fill: #58544f; stroke: #58544f; stroke-width: 0.8"/>
      </g>
     </g>
     <g id="text_7">
      <!-- 450 -->
      <g style="fill: #58544f" transform="translate(735.226449 401.98) scale(0.14 -0.14)">
       <use xlink:href="#Roboto-Medium-34"/>
       <use xlink:href="#Roboto-Medium-35" x="56.835938"/>
       <use xlink:href="#Roboto-Medium-30" x="113.671875"/>
      </g>
     </g>
    </g>
    <g id="text_8">
     <!-- WZ_TransLenStart -->
     <g style="fill: #58544f" transform="translate(376.40125 420.82375) scale(0.16 -0.16)">
      <defs>
       <path id="Roboto-Medium-57" d="M 4031 1125 
L 4731 4550 
L 5516 4550 
L 4466 0 
L 3709 0 
L 2844 3322 
L 1959 0 
L 1200 0 
L 150 4550 
L 934 4550 
L 1641 1131 
L 2509 4550 
L 3172 4550 
L 4031 1125 
z
" transform="scale(0.015625)"/>
       <path id="Roboto-Medium-5a" d="M 1206 631 
L 3638 631 
L 3638 0 
L 250 0 
L 250 513 
L 2603 3913 
L 266 3913 
L 266 4550 
L 3563 4550 
L 3563 4050 
L 1206 631 
z
" transform="scale(0.015625)"/>
       <path id="Roboto-Medium-5f" d="M 2875 -597 
L 9 -597 
L 9 0 
L 2875 0 
L 2875 -597 
z
" transform="scale(0.015625)"/>
       <path id="Roboto-Medium-54" d="M 3750 3913 
L 2331 3913 
L 2331 0 
L 1547 0 
L 1547 3913 
L 141 3913 
L 141 4550 
L 3750 4550 
L 3750 3913 
z
" transform="scale(0.015625)"/>
       <path id="Roboto-Medium-72" d="M 2159 2688 
Q 2009 2713 1850 2713 
Q 1328 2713 1147 2313 
L 1147 0 
L 388 0 
L 388 3381 
L 1113 3381 
L 1131 3003 
Q 1406 3444 1894 3444 
Q 2056 3444 2163 3400 
L 2159 2688 
z
" transform="scale(0.015625)"/>
       <path id="Roboto-Medium-61" d="M 2409 0 
Q 2359 97 2322 316 
Q 1959 -63 1434 -63 
Q 925 -63 603 228 
Q 281 519 281 947 
Q 281 1488 682 1777 
Q 1084 2066 1831 2066 
L 2297 2066 
L 2297 2288 
Q 2297 2550 2150 2708 
Q 2003 2866 1703 2866 
Q 1444 2866 1278 2736 
Q 1113 2606 1113 2406 
L 353 2406 
Q 353 2684 537 2926 
Q 722 3169 1039 3306 
Q 1356 3444 1747 3444 
Q 2341 3444 2694 3145 
Q 3047 2847 3056 2306 
L 3056 781 
Q 3056 325 3184 53 
L 3184 0 
L 2409 0 
z
M 1575 547 
Q 1800 547 1998 656 
Q 2197 766 2297 950 
L 2297 1588 
L 1888 1588 
Q 1466 1588 1253 1441 
Q 1041 1294 1041 1025 
Q 1041 806 1186 676 
Q 1331 547 1575 547 
z
" transform="scale(0.015625)"/>
       <path id="Roboto-Medium-6e" d="M 1094 3381 
L 1116 2991 
Q 1491 3444 2100 3444 
Q 3156 3444 3175 2234 
L 3175 0 
L 2416 0 
L 2416 2191 
Q 2416 2513 2277 2667 
Q 2138 2822 1822 2822 
Q 1363 2822 1138 2406 
L 1138 0 
L 378 0 
L 378 3381 
L 1094 3381 
z
" transform="scale(0.015625)"/>
       <path id="Roboto-Medium-73" d="M 2284 919 
Q 2284 1122 2117 1228 
Q 1950 1334 1562 1415 
Q 1175 1497 916 1622 
Q 347 1897 347 2419 
Q 347 2856 715 3150 
Q 1084 3444 1653 3444 
Q 2259 3444 2632 3144 
Q 3006 2844 3006 2366 
L 2247 2366 
Q 2247 2584 2084 2729 
Q 1922 2875 1653 2875 
Q 1403 2875 1245 2759 
Q 1088 2644 1088 2450 
Q 1088 2275 1234 2178 
Q 1381 2081 1828 1982 
Q 2275 1884 2529 1748 
Q 2784 1613 2907 1422 
Q 3031 1231 3031 959 
Q 3031 503 2653 220 
Q 2275 -63 1663 -63 
Q 1247 -63 922 87 
Q 597 238 415 500 
Q 234 763 234 1066 
L 972 1066 
Q 988 797 1175 651 
Q 1363 506 1672 506 
Q 1972 506 2128 620 
Q 2284 734 2284 919 
z
" transform="scale(0.015625)"/>
       <path id="Roboto-Medium-4c" d="M 1253 631 
L 3319 631 
L 3319 0 
L 463 0 
L 463 4550 
L 1253 4550 
L 1253 631 
z
" transform="scale(0.015625)"/>
       <path id="Roboto-Medium-65" d="M 1878 -63 
Q 1156 -63 707 392 
Q 259 847 259 1603 
L 259 1697 
Q 259 2203 454 2601 
Q 650 3000 1003 3222 
Q 1356 3444 1791 3444 
Q 2481 3444 2857 3003 
Q 3234 2563 3234 1756 
L 3234 1450 
L 1025 1450 
Q 1059 1031 1304 787 
Q 1550 544 1922 544 
Q 2444 544 2772 966 
L 3181 575 
Q 2978 272 2639 104 
Q 2300 -63 1878 -63 
z
M 1788 2834 
Q 1475 2834 1283 2615 
Q 1091 2397 1038 2006 
L 2484 2006 
L 2484 2063 
Q 2459 2444 2281 2639 
Q 2103 2834 1788 2834 
z
" transform="scale(0.015625)"/>
       <path id="Roboto-Medium-53" d="M 2841 1172 
Q 2841 1472 2630 1634 
Q 2419 1797 1869 1962 
Q 1319 2128 994 2331 
Q 372 2722 372 3350 
Q 372 3900 820 4256 
Q 1269 4613 1984 4613 
Q 2459 4613 2831 4438 
Q 3203 4263 3415 3939 
Q 3628 3616 3628 3222 
L 2841 3222 
Q 2841 3578 2617 3779 
Q 2394 3981 1978 3981 
Q 1591 3981 1377 3815 
Q 1163 3650 1163 3353 
Q 1163 3103 1394 2936 
Q 1625 2769 2156 2611 
Q 2688 2453 3009 2251 
Q 3331 2050 3481 1789 
Q 3631 1528 3631 1178 
Q 3631 609 3195 273 
Q 2759 -63 2013 -63 
Q 1519 -63 1105 120 
Q 691 303 461 625 
Q 231 947 231 1375 
L 1022 1375 
Q 1022 988 1278 775 
Q 1534 563 2013 563 
Q 2425 563 2633 730 
Q 2841 897 2841 1172 
z
" transform="scale(0.015625)"/>
       <path id="Roboto-Medium-74" d="M 1341 4203 
L 1341 3381 
L 1938 3381 
L 1938 2819 
L 1341 2819 
L 1341 931 
Q 1341 738 1417 652 
Q 1494 566 1691 566 
Q 1822 566 1956 597 
L 1956 9 
Q 1697 -63 1456 -63 
Q 581 -63 581 903 
L 581 2819 
L 25 2819 
L 25 3381 
L 581 3381 
L 581 4203 
L 1341 4203 
z
" transform="scale(0.015625)"/>
      </defs>
      <use xlink:href="#Roboto-Medium-57"/>
      <use xlink:href="#Roboto-Medium-5a" x="87.988281"/>
      <use xlink:href="#Roboto-Medium-5f" x="148.193359"/>
      <use xlink:href="#Roboto-Medium-54" x="193.310547"/>
      <use xlink:href="#Roboto-Medium-72" x="254.003906"/>
      <use xlink:href="#Roboto-Medium-61" x="289.160156"/>
      <use xlink:href="#Roboto-Medium-6e" x="343.261719"/>
      <use xlink:href="#Roboto-Medium-73" x="398.876953"/>
      <use xlink:href="#Roboto-Medium-4c" x="450.488281"/>
      <use xlink:href="#Roboto-Medium-65" x="504.589844"/>
      <use xlink:href="#Roboto-Medium-6e" x="558.251953"/>
      <use xlink:href="#Roboto-Medium-53" x="613.867188"/>
      <use xlink:href="#Roboto-Medium-74" x="674.21875"/>
      <use xlink:href="#Roboto-Medium-61" x="707.470703"/>
      <use xlink:href="#Roboto-Medium-72" x="761.572266"/>
      <use xlink:href="#Roboto-Medium-74" x="796.728516"/>
     </g>
    </g>
   </g>
   <g id="matplotlib.axis_2">
    <g id="ytick_1">
     <g id="line2d_8">
      <defs>
       <path id="m495bf41821" d="M 0 0 
L -3.5 0 
" style="stroke: #ff0000; stroke-width: 0.8"/>
      </defs>
      <g>
       <use xlink:href="#m495bf41821" x="108" y="366.681428" style="fill: #ff0000; stroke: #ff0000; stroke-width: 0.8"/>
      </g>
     </g>
     <g id="text_9">
      <!-- 1.75 -->
      <g style="fill: #ff0000" transform="translate(73.214375 371.931428) scale(0.14 -0.14)">
       <defs>
        <path id="Roboto-Medium-2e" d="M 863 800 
Q 1075 800 1190 679 
Q 1306 559 1306 378 
Q 1306 200 1190 83 
Q 1075 -34 863 -34 
Q 659 -34 540 81 
Q 422 197 422 378 
Q 422 559 537 679 
Q 653 800 863 800 
z
" transform="scale(0.015625)"/>
        <path id="Roboto-Medium-37" d="M 3369 4128 
L 1550 0 
L 753 0 
L 2569 3941 
L 216 3941 
L 216 4550 
L 3369 4550 
L 3369 4128 
z
" transform="scale(0.015625)"/>
       </defs>
       <use xlink:href="#Roboto-Medium-31"/>
       <use xlink:href="#Roboto-Medium-2e" x="56.835938"/>
       <use xlink:href="#Roboto-Medium-37" x="84.765625"/>
       <use xlink:href="#Roboto-Medium-35" x="141.601562"/>
      </g>
     </g>
    </g>
    <g id="ytick_2">
     <g id="line2d_9">
      <g>
       <use xlink:href="#m495bf41821" x="108" y="324.244039" style="fill: #ff0000; stroke: #ff0000; stroke-width: 0.8"/>
      </g>
     </g>
     <g id="text_10">
      <!-- 2.00 -->
      <g style="fill: #ff0000" transform="translate(73.214375 329.494039) scale(0.14 -0.14)">
       <use xlink:href="#Roboto-Medium-32"/>
       <use xlink:href="#Roboto-Medium-2e" x="56.835938"/>
       <use xlink:href="#Roboto-Medium-30" x="84.765625"/>
       <use xlink:href="#Roboto-Medium-30" x="141.601562"/>
      </g>
     </g>
    </g>
    <g id="ytick_3">
     <g id="line2d_10">
      <g>
       <use xlink:href="#m495bf41821" x="108" y="281.806649" style="fill: #ff0000; stroke: #ff0000; stroke-width: 0.8"/>
      </g>
     </g>
     <g id="text_11">
      <!-- 2.25 -->
      <g style="fill: #ff0000" transform="translate(73.214375 287.056649) scale(0.14 -0.14)">
       <use xlink:href="#Roboto-Medium-32"/>
       <use xlink:href="#Roboto-Medium-2e" x="56.835938"/>
       <use xlink:href="#Roboto-Medium-32" x="84.765625"/>
       <use xlink:href="#Roboto-Medium-35" x="141.601562"/>
      </g>
     </g>
    </g>
    <g id="ytick_4">
     <g id="line2d_11">
      <g>
       <use xlink:href="#m495bf41821" x="108" y="239.36926" style="fill: #ff0000; stroke: #ff0000; stroke-width: 0.8"/>
      </g>
     </g>
     <g id="text_12">
      <!-- 2.50 -->
      <g style="fill: #ff0000" transform="translate(73.214375 244.61926) scale(0.14 -0.14)">
       <use xlink:href="#Roboto-Medium-32"/>
       <use xlink:href="#Roboto-Medium-2e" x="56.835938"/>
       <use xlink:href="#Roboto-Medium-35" x="84.765625"/>
       <use xlink:href="#Roboto-Medium-30" x="141.601562"/>
      </g>
     </g>
    </g>
    <g id="ytick_5">
     <g id="line2d_12">
      <g>
       <use xlink:href="#m495bf41821" x="108" y="196.93187" style="fill: #ff0000; stroke: #ff0000; stroke-width: 0.8"/>
      </g>
     </g>
     <g id="text_13">
      <!-- 2.75 -->
      <g style="fill: #ff0000" transform="translate(73.214375 202.18187) scale(0.14 -0.14)">
       <use xlink:href="#Roboto-Medium-32"/>
       <use xlink:href="#Roboto-Medium-2e" x="56.835938"/>
       <use xlink:href="#Roboto-Medium-37" x="84.765625"/>
       <use xlink:href="#Roboto-Medium-35" x="141.601562"/>
      </g>
     </g>
    </g>
    <g id="ytick_6">
     <g id="line2d_13">
      <g>
       <use xlink:href="#m495bf41821" x="108" y="154.494481" style="fill: #ff0000; stroke: #ff0000; stroke-width: 0.8"/>
      </g>
     </g>
     <g id="text_14">
      <!-- 3.00 -->
      <g style="fill: #ff0000" transform="translate(73.214375 159.744481) scale(0.14 -0.14)">
       <use xlink:href="#Roboto-Medium-33"/>
       <use xlink:href="#Roboto-Medium-2e" x="56.835938"/>
       <use xlink:href="#Roboto-Medium-30" x="84.765625"/>
       <use xlink:href="#Roboto-Medium-30" x="141.601562"/>
      </g>
     </g>
    </g>
    <g id="ytick_7">
     <g id="line2d_14">
      <g>
       <use xlink:href="#m495bf41821" x="108" y="112.057091" style="fill: #ff0000; stroke: #ff0000; stroke-width: 0.8"/>
      </g>
     </g>
     <g id="text_15">
      <!-- 3.25 -->
      <g style="fill: #ff0000" transform="translate(73.214375 117.307091) scale(0.14 -0.14)">
       <use xlink:href="#Roboto-Medium-33"/>
       <use xlink:href="#Roboto-Medium-2e" x="56.835938"/>
       <use xlink:href="#Roboto-Medium-32" x="84.765625"/>
       <use xlink:href="#Roboto-Medium-35" x="141.601562"/>
      </g>
     </g>
    </g>
    <g id="ytick_8">
     <g id="line2d_15">
      <g>
       <use xlink:href="#m495bf41821" x="108" y="69.619702" style="fill: #ff0000; stroke: #ff0000; stroke-width: 0.8"/>
      </g>
     </g>
     <g id="text_16">
      <!-- 3.50 -->
      <g style="fill: #ff0000" transform="translate(73.214375 74.869702) scale(0.14 -0.14)">
       <use xlink:href="#Roboto-Medium-33"/>
       <use xlink:href="#Roboto-Medium-2e" x="56.835938"/>
       <use xlink:href="#Roboto-Medium-35" x="84.765625"/>
       <use xlink:href="#Roboto-Medium-30" x="141.601562"/>
      </g>
     </g>
    </g>
    <g id="text_17">
     <!-- UnderConstructionTime -->
     <g style="fill: #ff0000" transform="translate(65.964375 303.7625) rotate(-90) scale(0.16 -0.16)">
      <defs>
       <path id="Roboto-Medium-55" d="M 3791 4550 
L 3791 1509 
Q 3791 784 3327 360 
Q 2863 -63 2091 -63 
Q 1309 -63 850 354 
Q 391 772 391 1513 
L 391 4550 
L 1178 4550 
L 1178 1506 
Q 1178 1050 1409 809 
Q 1641 569 2091 569 
Q 3003 569 3003 1531 
L 3003 4550 
L 3791 4550 
z
" transform="scale(0.015625)"/>
       <path id="Roboto-Medium-64" d="M 247 1716 
Q 247 2497 609 2970 
Q 972 3444 1581 3444 
Q 2119 3444 2450 3069 
L 2450 4800 
L 3209 4800 
L 3209 0 
L 2522 0 
L 2484 350 
Q 2144 -63 1575 -63 
Q 981 -63 614 415 
Q 247 894 247 1716 
z
M 1006 1650 
Q 1006 1134 1204 845 
Q 1403 556 1769 556 
Q 2234 556 2450 972 
L 2450 2416 
Q 2241 2822 1775 2822 
Q 1406 2822 1206 2530 
Q 1006 2238 1006 1650 
z
" transform="scale(0.015625)"/>
       <path id="Roboto-Medium-43" d="M 3934 1481 
Q 3866 753 3397 345 
Q 2928 -63 2150 -63 
Q 1606 -63 1192 195 
Q 778 453 553 928 
Q 328 1403 319 2031 
L 319 2456 
Q 319 3100 547 3590 
Q 775 4081 1201 4347 
Q 1628 4613 2188 4613 
Q 2941 4613 3400 4203 
Q 3859 3794 3934 3047 
L 3147 3047 
Q 3091 3538 2861 3755 
Q 2631 3972 2188 3972 
Q 1672 3972 1395 3595 
Q 1119 3219 1113 2491 
L 1113 2088 
Q 1113 1350 1377 962 
Q 1641 575 2150 575 
Q 2616 575 2850 784 
Q 3084 994 3147 1481 
L 3934 1481 
z
" transform="scale(0.015625)"/>
       <path id="Roboto-Medium-6f" d="M 247 1722 
Q 247 2219 444 2617 
Q 641 3016 997 3230 
Q 1353 3444 1816 3444 
Q 2500 3444 2926 3003 
Q 3353 2563 3388 1834 
L 3391 1656 
Q 3391 1156 3198 762 
Q 3006 369 2648 153 
Q 2291 -63 1822 -63 
Q 1106 -63 676 414 
Q 247 891 247 1684 
L 247 1722 
z
M 1006 1656 
Q 1006 1134 1222 839 
Q 1438 544 1822 544 
Q 2206 544 2420 844 
Q 2634 1144 2634 1722 
Q 2634 2234 2414 2534 
Q 2194 2834 1816 2834 
Q 1444 2834 1225 2539 
Q 1006 2244 1006 1656 
z
" transform="scale(0.015625)"/>
       <path id="Roboto-Medium-75" d="M 2438 331 
Q 2103 -63 1488 -63 
Q 938 -63 655 259 
Q 372 581 372 1191 
L 372 3381 
L 1131 3381 
L 1131 1200 
Q 1131 556 1666 556 
Q 2219 556 2413 953 
L 2413 3381 
L 3172 3381 
L 3172 0 
L 2456 0 
L 2438 331 
z
" transform="scale(0.015625)"/>
       <path id="Roboto-Medium-63" d="M 1778 544 
Q 2063 544 2250 709 
Q 2438 875 2450 1119 
L 3166 1119 
Q 3153 803 2968 529 
Q 2784 256 2468 96 
Q 2153 -63 1788 -63 
Q 1078 -63 662 396 
Q 247 856 247 1666 
L 247 1744 
Q 247 2516 659 2980 
Q 1072 3444 1784 3444 
Q 2388 3444 2767 3092 
Q 3147 2741 3166 2169 
L 2450 2169 
Q 2438 2459 2252 2646 
Q 2066 2834 1778 2834 
Q 1409 2834 1209 2567 
Q 1009 2300 1006 1756 
L 1006 1634 
Q 1006 1084 1204 814 
Q 1403 544 1778 544 
z
" transform="scale(0.015625)"/>
       <path id="Roboto-Medium-69" d="M 1197 0 
L 438 0 
L 438 3381 
L 1197 3381 
L 1197 0 
z
M 391 4259 
Q 391 4434 502 4550 
Q 613 4666 819 4666 
Q 1025 4666 1137 4550 
Q 1250 4434 1250 4259 
Q 1250 4088 1137 3973 
Q 1025 3859 819 3859 
Q 613 3859 502 3973 
Q 391 4088 391 4259 
z
" transform="scale(0.015625)"/>
       <path id="Roboto-Medium-6d" d="M 1103 3381 
L 1125 3028 
Q 1481 3444 2100 3444 
Q 2778 3444 3028 2925 
Q 3397 3444 4066 3444 
Q 4625 3444 4898 3134 
Q 5172 2825 5178 2222 
L 5178 0 
L 4419 0 
L 4419 2200 
Q 4419 2522 4278 2672 
Q 4138 2822 3813 2822 
Q 3553 2822 3389 2683 
Q 3225 2544 3159 2319 
L 3163 0 
L 2403 0 
L 2403 2225 
Q 2388 2822 1794 2822 
Q 1338 2822 1147 2450 
L 1147 0 
L 388 0 
L 388 3381 
L 1103 3381 
z
" transform="scale(0.015625)"/>
      </defs>
      <use xlink:href="#Roboto-Medium-55"/>
      <use xlink:href="#Roboto-Medium-6e" x="65.185547"/>
      <use xlink:href="#Roboto-Medium-64" x="120.800781"/>
      <use xlink:href="#Roboto-Medium-65" x="177.246094"/>
      <use xlink:href="#Roboto-Medium-72" x="230.908203"/>
      <use xlink:href="#Roboto-Medium-43" x="266.064453"/>
      <use xlink:href="#Roboto-Medium-6f" x="331.347656"/>
      <use xlink:href="#Roboto-Medium-6e" x="388.28125"/>
      <use xlink:href="#Roboto-Medium-73" x="443.896484"/>
      <use xlink:href="#Roboto-Medium-74" x="495.507812"/>
      <use xlink:href="#Roboto-Medium-72" x="528.759766"/>
      <use xlink:href="#Roboto-Medium-75" x="563.916016"/>
      <use xlink:href="#Roboto-Medium-63" x="619.482422"/>
      <use xlink:href="#Roboto-Medium-74" x="671.826172"/>
      <use xlink:href="#Roboto-Medium-69" x="705.078125"/>
      <use xlink:href="#Roboto-Medium-6f" x="730.615234"/>
      <use xlink:href="#Roboto-Medium-6e" x="787.548828"/>
      <use xlink:href="#Roboto-Medium-54" x="843.164062"/>
      <use xlink:href="#Roboto-Medium-69" x="903.857422"/>
      <use xlink:href="#Roboto-Medium-6d" x="929.394531"/>
      <use xlink:href="#Roboto-Medium-65" x="1016.40625"/>
     </g>
    </g>
   </g>
   <g id="line2d_16">
    <path d="M 138.436364 270.273177 
L 144.523636 280.828531 
L 150.610909 290.730086 
L 156.698182 299.985068 
L 162.785455 308.601571 
L 168.872727 316.588549 
L 174.96 323.955804 
L 181.047273 330.713973 
L 187.134545 336.874507 
L 193.221818 342.449657 
L 199.309091 347.452445 
L 205.396364 351.896644 
L 211.483636 355.796748 
L 217.570909 359.167941 
L 223.658182 362.02606 
L 229.745455 364.387565 
L 235.832727 366.269492 
L 241.92 367.689416 
L 248.007273 368.665404 
L 254.094545 369.215965 
L 260.181818 369.36 
L 266.269091 369.116752 
L 272.356364 368.505746 
L 278.443636 367.546733 
L 284.530909 366.259625 
L 290.618182 364.664439 
L 296.705455 362.781227 
L 302.792727 360.630009 
L 308.88 358.230706 
L 314.967273 355.60307 
L 321.054545 352.76661 
L 327.141818 349.740523 
L 333.229091 346.543616 
L 339.316364 343.194236 
L 345.403636 339.710193 
L 351.490909 336.108686 
L 357.578182 332.406232 
L 363.665455 328.618587 
L 369.752727 324.760681 
L 375.84 320.846544 
L 381.927273 316.889234 
L 388.014545 312.900781 
L 394.101818 308.892115 
L 400.189091 304.87301 
L 406.276364 300.852032 
L 412.363636 296.836482 
L 418.450909 292.832358 
L 424.538182 288.844311 
L 430.625455 284.875616 
L 436.712727 280.928145 
L 442.8 277.00235 
L 448.887273 273.097258 
L 454.974545 269.210472 
L 461.061818 265.338181 
L 467.149091 261.475191 
L 473.236364 257.614955 
L 479.323636 253.749629 
L 485.410909 249.870136 
L 491.498182 245.966247 
L 497.585455 242.02668 
L 503.672727 238.039214 
L 509.76 233.990829 
L 515.847273 229.867856 
L 521.934545 225.656163 
L 528.021818 221.341348 
L 534.109091 216.908974 
L 540.196364 212.344813 
L 546.283636 207.635131 
L 552.370909 202.766998 
L 558.458182 197.728626 
L 564.545455 192.509745 
L 570.632727 187.102008 
L 576.72 181.499438 
L 582.807273 175.698906 
L 588.894545 169.700662 
L 594.981818 163.508888 
L 601.069091 157.132319 
L 607.156364 150.584889 
L 613.243636 143.886439 
L 619.330909 137.063475 
L 625.418182 130.149971 
L 631.505455 123.188234 
L 637.592727 116.229831 
L 643.68 109.336564 
L 649.767273 102.581526 
L 655.854545 96.050204 
L 661.941818 89.841669 
L 668.029091 84.069825 
L 674.116364 78.864737 
L 680.203636 74.37404 
L 686.290909 70.764425 
L 692.378182 68.22321 
L 698.465455 66.96 
L 704.552727 67.208437 
L 710.64 69.228046 
L 716.727273 73.306173 
L 722.814545 79.760038 
L 728.901818 88.938874 
L 734.989091 101.226197 
L 741.076364 117.042171 
" clip-path="url(#pc7e6f5f3c1)" style="fill: none; stroke: #ff0000; stroke-width: 1.5; stroke-linecap: square"/>
   </g>
   <g id="patch_3">
    <path d="M 108 384.48 
L 108 51.84 
" style="fill: none; stroke: #58544f; stroke-width: 0.8; stroke-linejoin: miter; stroke-linecap: square"/>
   </g>
   <g id="patch_4">
    <path d="M 777.6 384.48 
L 777.6 51.84 
" style="fill: none; stroke: #58544f; stroke-width: 0.8; stroke-linejoin: miter; stroke-linecap: square"/>
   </g>
   <g id="patch_5">
    <path d="M 108 384.48 
L 777.6 384.48 
" style="fill: none; stroke: #58544f; stroke-width: 0.8; stroke-linejoin: miter; stroke-linecap: square"/>
   </g>
   <g id="patch_6">
    <path d="M 108 51.84 
L 777.6 51.84 
" style="fill: none; stroke: #58544f; stroke-width: 0.8; stroke-linejoin: miter; stroke-linecap: square"/>
   </g>
  </g>
  <g id="axes_2">
   <g id="patch_7">
    <path d="M 138.436364 384.48 
L 153.654545 384.48 
L 153.654545 67.68 
L 138.436364 67.68 
z
" clip-path="url(#pc7e6f5f3c1)" style="fill: #0088ed; opacity: 0.4"/>
   </g>
   <g id="patch_8">
    <path d="M 153.654545 384.48 
L 168.872727 384.48 
L 168.872727 384.48 
L 153.654545 384.48 
z
" clip-path="url(#pc7e6f5f3c1)" style="fill: #0088ed; opacity: 0.4"/>
   </g>
   <g id="patch_9">
    <path d="M 168.872727 384.48 
L 184.090909 384.48 
L 184.090909 384.48 
L 168.872727 384.48 
z
" clip-path="url(#pc7e6f5f3c1)" style="fill: #0088ed; opacity: 0.4"/>
   </g>
   <g id="patch_10">
    <path d="M 184.090909 384.48 
L 199.309091 384.48 
L 199.309091 384.48 
L 184.090909 384.48 
z
" clip-path="url(#pc7e6f5f3c1)" style="fill: #0088ed; opacity: 0.4"/>
   </g>
   <g id="patch_11">
    <path d="M 199.309091 384.48 
L 214.527273 384.48 
L 214.527273 384.48 
L 199.309091 384.48 
z
" clip-path="url(#pc7e6f5f3c1)" style="fill: #0088ed; opacity: 0.4"/>
   </g>
   <g id="patch_12">
    <path d="M 214.527273 384.48 
L 229.745455 384.48 
L 229.745455 384.48 
L 214.527273 384.48 
z
" clip-path="url(#pc7e6f5f3c1)" style="fill: #0088ed; opacity: 0.4"/>
   </g>
   <g id="patch_13">
    <path d="M 229.745455 384.48 
L 244.963636 384.48 
L 244.963636 384.48 
L 229.745455 384.48 
z
" clip-path="url(#pc7e6f5f3c1)" style="fill: #0088ed; opacity: 0.4"/>
   </g>
   <g id="patch_14">
    <path d="M 244.963636 384.48 
L 260.181818 384.48 
L 260.181818 384.48 
L 244.963636 384.48 
z
" clip-path="url(#pc7e6f5f3c1)" style="fill: #0088ed; opacity: 0.4"/>
   </g>
   <g id="patch_15">
    <path d="M 260.181818 384.48 
L 275.4 384.48 
L 275.4 384.48 
L 260.181818 384.48 
z
" clip-path="url(#pc7e6f5f3c1)" style="fill: #0088ed; opacity: 0.4"/>
   </g>
   <g id="patch_16">
    <path d="M 275.4 384.48 
L 290.618182 384.48 
L 290.618182 384.48 
L 275.4 384.48 
z
" clip-path="url(#pc7e6f5f3c1)" style="fill: #0088ed; opacity: 0.4"/>
   </g>
   <g id="patch_17">
    <path d="M 290.618182 384.48 
L 305.836364 384.48 
L 305.836364 384.48 
L 290.618182 384.48 
z
" clip-path="url(#pc7e6f5f3c1)" style="fill: #0088ed; opacity: 0.4"/>
   </g>
   <g id="patch_18">
    <path d="M 305.836364 384.48 
L 321.054545 384.48 
L 321.054545 384.48 
L 305.836364 384.48 
z
" clip-path="url(#pc7e6f5f3c1)" style="fill: #0088ed; opacity: 0.4"/>
   </g>
   <g id="patch_19">
    <path d="M 321.054545 384.48 
L 336.272727 384.48 
L 336.272727 384.48 
L 321.054545 384.48 
z
" clip-path="url(#pc7e6f5f3c1)" style="fill: #0088ed; opacity: 0.4"/>
   </g>
   <g id="patch_20">
    <path d="M 336.272727 384.48 
L 351.490909 384.48 
L 351.490909 384.48 
L 336.272727 384.48 
z
" clip-path="url(#pc7e6f5f3c1)" style="fill: #0088ed; opacity: 0.4"/>
   </g>
   <g id="patch_21">
    <path d="M 351.490909 384.48 
L 366.709091 384.48 
L 366.709091 384.48 
L 351.490909 384.48 
z
" clip-path="url(#pc7e6f5f3c1)" style="fill: #0088ed; opacity: 0.4"/>
   </g>
   <g id="patch_22">
    <path d="M 366.709091 384.48 
L 381.927273 384.48 
L 381.927273 384.48 
L 366.709091 384.48 
z
" clip-path="url(#pc7e6f5f3c1)" style="fill: #0088ed; opacity: 0.4"/>
   </g>
   <g id="patch_23">
    <path d="M 381.927273 384.48 
L 397.145455 384.48 
L 397.145455 384.48 
L 381.927273 384.48 
z
" clip-path="url(#pc7e6f5f3c1)" style="fill: #0088ed; opacity: 0.4"/>
   </g>
   <g id="patch_24">
    <path d="M 397.145455 384.48 
L 412.363636 384.48 
L 412.363636 384.48 
L 397.145455 384.48 
z
" clip-path="url(#pc7e6f5f3c1)" style="fill: #0088ed; opacity: 0.4"/>
   </g>
   <g id="patch_25">
    <path d="M 412.363636 384.48 
L 427.581818 384.48 
L 427.581818 384.48 
L 412.363636 384.48 
z
" clip-path="url(#pc7e6f5f3c1)" style="fill: #0088ed; opacity: 0.4"/>
   </g>
   <g id="patch_26">
    <path d="M 427.581818 384.48 
L 442.8 384.48 
L 442.8 384.48 
L 427.581818 384.48 
z
" clip-path="url(#pc7e6f5f3c1)" style="fill: #0088ed; opacity: 0.4"/>
   </g>
   <g id="patch_27">
    <path d="M 442.8 384.48 
L 458.018182 384.48 
L 458.018182 384.48 
L 442.8 384.48 
z
" clip-path="url(#pc7e6f5f3c1)" style="fill: #0088ed; opacity: 0.4"/>
   </g>
   <g id="patch_28">
    <path d="M 458.018182 384.48 
L 473.236364 384.48 
L 473.236364 384.48 
L 458.018182 384.48 
z
" clip-path="url(#pc7e6f5f3c1)" style="fill: #0088ed; opacity: 0.4"/>
   </g>
   <g id="patch_29">
    <path d="M 473.236364 384.48 
L 488.454545 384.48 
L 488.454545 384.48 
L 473.236364 384.48 
z
" clip-path="url(#pc7e6f5f3c1)" style="fill: #0088ed; opacity: 0.4"/>
   </g>
   <g id="patch_30">
    <path d="M 488.454545 384.48 
L 503.672727 384.48 
L 503.672727 384.48 
L 488.454545 384.48 
z
" clip-path="url(#pc7e6f5f3c1)" style="fill: #0088ed; opacity: 0.4"/>
   </g>
   <g id="patch_31">
    <path d="M 503.672727 384.48 
L 518.890909 384.48 
L 518.890909 384.48 
L 503.672727 384.48 
z
" clip-path="url(#pc7e6f5f3c1)" style="fill: #0088ed; opacity: 0.4"/>
   </g>
   <g id="patch_32">
    <path d="M 518.890909 384.48 
L 534.109091 384.48 
L 534.109091 384.48 
L 518.890909 384.48 
z
" clip-path="url(#pc7e6f5f3c1)" style="fill: #0088ed; opacity: 0.4"/>
   </g>
   <g id="patch_33">
    <path d="M 534.109091 384.48 
L 549.327273 384.48 
L 549.327273 384.48 
L 534.109091 384.48 
z
" clip-path="url(#pc7e6f5f3c1)" style="fill: #0088ed; opacity: 0.4"/>
   </g>
   <g id="patch_34">
    <path d="M 549.327273 384.48 
L 564.545455 384.48 
L 564.545455 384.48 
L 549.327273 384.48 
z
" clip-path="url(#pc7e6f5f3c1)" style="fill: #0088ed; opacity: 0.4"/>
   </g>
   <g id="patch_35">
    <path d="M 564.545455 384.48 
L 579.763636 384.48 
L 579.763636 384.48 
L 564.545455 384.48 
z
" clip-path="url(#pc7e6f5f3c1)" style="fill: #0088ed; opacity: 0.4"/>
   </g>
   <g id="patch_36">
    <path d="M 579.763636 384.48 
L 594.981818 384.48 
L 594.981818 384.48 
L 579.763636 384.48 
z
" clip-path="url(#pc7e6f5f3c1)" style="fill: #0088ed; opacity: 0.4"/>
   </g>
   <g id="patch_37">
    <path d="M 594.981818 384.48 
L 610.2 384.48 
L 610.2 384.48 
L 594.981818 384.48 
z
" clip-path="url(#pc7e6f5f3c1)" style="fill: #0088ed; opacity: 0.4"/>
   </g>
   <g id="patch_38">
    <path d="M 610.2 384.48 
L 625.418182 384.48 
L 625.418182 384.48 
L 610.2 384.48 
z
" clip-path="url(#pc7e6f5f3c1)" style="fill: #0088ed; opacity: 0.4"/>
   </g>
   <g id="patch_39">
    <path d="M 625.418182 384.48 
L 640.636364 384.48 
L 640.636364 384.48 
L 625.418182 384.48 
z
" clip-path="url(#pc7e6f5f3c1)" style="fill: #0088ed; opacity: 0.4"/>
   </g>
   <g id="patch_40">
    <path d="M 640.636364 384.48 
L 655.854545 384.48 
L 655.854545 384.48 
L 640.636364 384.48 
z
" clip-path="url(#pc7e6f5f3c1)" style="fill: #0088ed; opacity: 0.4"/>
   </g>
   <g id="patch_41">
    <path d="M 655.854545 384.48 
L 671.072727 384.48 
L 671.072727 384.48 
L 655.854545 384.48 
z
" clip-path="url(#pc7e6f5f3c1)" style="fill: #0088ed; opacity: 0.4"/>
   </g>
   <g id="patch_42">
    <path d="M 671.072727 384.48 
L 686.290909 384.48 
L 686.290909 384.48 
L 671.072727 384.48 
z
" clip-path="url(#pc7e6f5f3c1)" style="fill: #0088ed; opacity: 0.4"/>
   </g>
   <g id="patch_43">
    <path d="M 686.290909 384.48 
L 701.509091 384.48 
L 701.509091 384.48 
L 686.290909 384.48 
z
" clip-path="url(#pc7e6f5f3c1)" style="fill: #0088ed; opacity: 0.4"/>
   </g>
   <g id="patch_44">
    <path d="M 701.509091 384.48 
L 716.727273 384.48 
L 716.727273 384.48 
L 701.509091 384.48 
z
" clip-path="url(#pc7e6f5f3c1)" style="fill: #0088ed; opacity: 0.4"/>
   </g>
   <g id="patch_45">
    <path d="M 716.727273 384.48 
L 731.945455 384.48 
L 731.945455 384.48 
L 716.727273 384.48 
z
" clip-path="url(#pc7e6f5f3c1)" style="fill: #0088ed; opacity: 0.4"/>
   </g>
   <g id="patch_46">
    <path d="M 731.945455 384.48 
L 747.163636 384.48 
L 747.163636 117.232036 
L 731.945455 117.232036 
z
" clip-path="url(#pc7e6f5f3c1)" style="fill: #0088ed; opacity: 0.4"/>
   </g>
   <g id="matplotlib.axis_3">
    <g id="ytick_9">
     <g id="line2d_17">
      <defs>
       <path id="m3da81babc9" d="M 0 0 
L 3.5 0 
" style="stroke: #0088ed; stroke-width: 0.8"/>
      </defs>
      <g>
       <use xlink:href="#m3da81babc9" x="777.6" y="384.48" style="fill: #0088ed; stroke: #0088ed; stroke-width: 0.8"/>
      </g>
     </g>
     <g id="text_18">
      <!-- 0 -->
      <g style="fill: #0088ed" transform="translate(784.6 389.73) scale(0.14 -0.14)">
       <use xlink:href="#Roboto-Medium-30"/>
      </g>
     </g>
    </g>
    <g id="ytick_10">
     <g id="line2d_18">
      <g>
       <use xlink:href="#m3da81babc9" x="777.6" y="324.36592" style="fill: #0088ed; stroke: #0088ed; stroke-width: 0.8"/>
      </g>
     </g>
     <g id="text_19">
      <!-- 50000 -->
      <g style="fill: #0088ed" transform="translate(784.6 329.61592) scale(0.14 -0.14)">
       <use xlink:href="#Roboto-Medium-35"/>
       <use xlink:href="#Roboto-Medium-30" x="56.835938"/>
       <use xlink:href="#Roboto-Medium-30" x="113.671875"/>
       <use xlink:href="#Roboto-Medium-30" x="170.507812"/>
       <use xlink:href="#Roboto-Medium-30" x="227.34375"/>
      </g>
     </g>
    </g>
    <g id="ytick_11">
     <g id="line2d_19">
      <g>
       <use xlink:href="#m3da81babc9" x="777.6" y="264.25184" style="fill: #0088ed; stroke: #0088ed; stroke-width: 0.8"/>
      </g>
     </g>
     <g id="text_20">
      <!-- 100000 -->
      <g style="fill: #0088ed" transform="translate(784.6 269.50184) scale(0.14 -0.14)">
       <use xlink:href="#Roboto-Medium-31"/>
       <use xlink:href="#Roboto-Medium-30" x="56.835938"/>
       <use xlink:href="#Roboto-Medium-30" x="113.671875"/>
       <use xlink:href="#Roboto-Medium-30" x="170.507812"/>
       <use xlink:href="#Roboto-Medium-30" x="227.34375"/>
       <use xlink:href="#Roboto-Medium-30" x="284.179688"/>
      </g>
     </g>
    </g>
    <g id="ytick_12">
     <g id="line2d_20">
      <g>
       <use xlink:href="#m3da81babc9" x="777.6" y="204.13776" style="fill: #0088ed; stroke: #0088ed; stroke-width: 0.8"/>
      </g>
     </g>
     <g id="text_21">
      <!-- 150000 -->
      <g style="fill: #0088ed" transform="translate(784.6 209.38776) scale(0.14 -0.14)">
       <use xlink:href="#Roboto-Medium-31"/>
       <use xlink:href="#Roboto-Medium-35" x="56.835938"/>
       <use xlink:href="#Roboto-Medium-30" x="113.671875"/>
       <use xlink:href="#Roboto-Medium-30" x="170.507812"/>
       <use xlink:href="#Roboto-Medium-30" x="227.34375"/>
       <use xlink:href="#Roboto-Medium-30" x="284.179688"/>
      </g>
     </g>
    </g>
    <g id="ytick_13">
     <g id="line2d_21">
      <g>
       <use xlink:href="#m3da81babc9" x="777.6" y="144.023679" style="fill: #0088ed; stroke: #0088ed; stroke-width: 0.8"/>
      </g>
     </g>
     <g id="text_22">
      <!-- 200000 -->
      <g style="fill: #0088ed" transform="translate(784.6 149.273679) scale(0.14 -0.14)">
       <use xlink:href="#Roboto-Medium-32"/>
       <use xlink:href="#Roboto-Medium-30" x="56.835938"/>
       <use xlink:href="#Roboto-Medium-30" x="113.671875"/>
       <use xlink:href="#Roboto-Medium-30" x="170.507812"/>
       <use xlink:href="#Roboto-Medium-30" x="227.34375"/>
       <use xlink:href="#Roboto-Medium-30" x="284.179688"/>
      </g>
     </g>
    </g>
    <g id="ytick_14">
     <g id="line2d_22">
      <g>
       <use xlink:href="#m3da81babc9" x="777.6" y="83.909599" style="fill: #0088ed; stroke: #0088ed; stroke-width: 0.8"/>
      </g>
     </g>
     <g id="text_23">
      <!-- 250000 -->
      <g style="fill: #0088ed" transform="translate(784.6 89.159599) scale(0.14 -0.14)">
       <use xlink:href="#Roboto-Medium-32"/>
       <use xlink:href="#Roboto-Medium-35" x="56.835938"/>
       <use xlink:href="#Roboto-Medium-30" x="113.671875"/>
       <use xlink:href="#Roboto-Medium-30" x="170.507812"/>
       <use xlink:href="#Roboto-Medium-30" x="227.34375"/>
       <use xlink:href="#Roboto-Medium-30" x="284.179688"/>
      </g>
     </g>
    </g>
    <g id="text_24">
     <!-- Distribution of WZ_TransLenStart -->
     <g style="fill: #0088ed" transform="translate(851.34875 337.5025) rotate(-90) scale(0.16 -0.16)">
      <defs>
       <path id="Roboto-Medium-44" d="M 463 0 
L 463 4550 
L 1806 4550 
Q 2409 4550 2876 4281 
Q 3344 4013 3600 3519 
Q 3856 3025 3856 2388 
L 3856 2159 
Q 3856 1513 3598 1022 
Q 3341 531 2864 265 
Q 2388 0 1772 0 
L 463 0 
z
M 1253 3913 
L 1253 631 
L 1769 631 
Q 2391 631 2723 1020 
Q 3056 1409 3063 2138 
L 3063 2391 
Q 3063 3131 2741 3522 
Q 2419 3913 1806 3913 
L 1253 3913 
z
" transform="scale(0.015625)"/>
       <path id="Roboto-Medium-62" d="M 3356 1656 
Q 3356 869 3004 403 
Q 2653 -63 2038 -63 
Q 1444 -63 1113 366 
L 1075 0 
L 388 0 
L 388 4800 
L 1147 4800 
L 1147 3056 
Q 1475 3444 2031 3444 
Q 2650 3444 3003 2984 
Q 3356 2525 3356 1700 
L 3356 1656 
z
M 2597 1722 
Q 2597 2272 2403 2547 
Q 2209 2822 1841 2822 
Q 1347 2822 1147 2391 
L 1147 997 
Q 1350 556 1847 556 
Q 2203 556 2397 822 
Q 2591 1088 2597 1625 
L 2597 1722 
z
" transform="scale(0.015625)"/>
       <path id="Roboto-Medium-20" transform="scale(0.015625)"/>
       <path id="Roboto-Medium-66" d="M 656 0 
L 656 2819 
L 141 2819 
L 141 3381 
L 656 3381 
L 656 3691 
Q 656 4253 968 4559 
Q 1281 4866 1844 4866 
Q 2044 4866 2269 4809 
L 2250 4216 
Q 2125 4241 1959 4241 
Q 1416 4241 1416 3681 
L 1416 3381 
L 2103 3381 
L 2103 2819 
L 1416 2819 
L 1416 0 
L 656 0 
z
" transform="scale(0.015625)"/>
      </defs>
      <use xlink:href="#Roboto-Medium-44"/>
      <use xlink:href="#Roboto-Medium-69" x="65.332031"/>
      <use xlink:href="#Roboto-Medium-73" x="90.869141"/>
      <use xlink:href="#Roboto-Medium-74" x="142.480469"/>
      <use xlink:href="#Roboto-Medium-72" x="175.732422"/>
      <use xlink:href="#Roboto-Medium-69" x="210.888672"/>
      <use xlink:href="#Roboto-Medium-62" x="236.425781"/>
      <use xlink:href="#Roboto-Medium-75" x="292.724609"/>
      <use xlink:href="#Roboto-Medium-74" x="348.291016"/>
      <use xlink:href="#Roboto-Medium-69" x="381.542969"/>
      <use xlink:href="#Roboto-Medium-6f" x="407.080078"/>
      <use xlink:href="#Roboto-Medium-6e" x="464.013672"/>
      <use xlink:href="#Roboto-Medium-20" x="519.628906"/>
      <use xlink:href="#Roboto-Medium-6f" x="544.53125"/>
      <use xlink:href="#Roboto-Medium-66" x="601.464844"/>
      <use xlink:href="#Roboto-Medium-20" x="636.914062"/>
      <use xlink:href="#Roboto-Medium-57" x="661.816406"/>
      <use xlink:href="#Roboto-Medium-5a" x="749.804688"/>
      <use xlink:href="#Roboto-Medium-5f" x="810.009766"/>
      <use xlink:href="#Roboto-Medium-54" x="855.126953"/>
      <use xlink:href="#Roboto-Medium-72" x="915.820312"/>
      <use xlink:href="#Roboto-Medium-61" x="950.976562"/>
      <use xlink:href="#Roboto-Medium-6e" x="1005.078125"/>
      <use xlink:href="#Roboto-Medium-73" x="1060.693359"/>
      <use xlink:href="#Roboto-Medium-4c" x="1112.304688"/>
      <use xlink:href="#Roboto-Medium-65" x="1166.40625"/>
      <use xlink:href="#Roboto-Medium-6e" x="1220.068359"/>
      <use xlink:href="#Roboto-Medium-53" x="1275.683594"/>
      <use xlink:href="#Roboto-Medium-74" x="1336.035156"/>
      <use xlink:href="#Roboto-Medium-61" x="1369.287109"/>
      <use xlink:href="#Roboto-Medium-72" x="1423.388672"/>
      <use xlink:href="#Roboto-Medium-74" x="1458.544922"/>
     </g>
    </g>
   </g>
   <g id="patch_47">
    <path d="M 108 384.48 
L 108 51.84 
" style="fill: none; stroke: #58544f; stroke-width: 0.8; stroke-linejoin: miter; stroke-linecap: square"/>
   </g>
   <g id="patch_48">
    <path d="M 777.6 384.48 
L 777.6 51.84 
" style="fill: none; stroke: #58544f; stroke-width: 0.8; stroke-linejoin: miter; stroke-linecap: square"/>
   </g>
   <g id="patch_49">
    <path d="M 108 384.48 
L 777.6 384.48 
" style="fill: none; stroke: #58544f; stroke-width: 0.8; stroke-linejoin: miter; stroke-linecap: square"/>
   </g>
   <g id="patch_50">
    <path d="M 108 51.84 
L 777.6 51.84 
" style="fill: none; stroke: #58544f; stroke-width: 0.8; stroke-linejoin: miter; stroke-linecap: square"/>
   </g>
   <g id="text_25">
    <!-- Impact of WZ_TransLenStart on UnderConstructionTime -->
    <g style="fill: #262626" transform="translate(191.21875 38.84) scale(0.2 -0.2)">
     <defs>
      <path id="Roboto-Medium-49" d="M 1297 0 
L 509 0 
L 509 4550 
L 1297 4550 
L 1297 0 
z
" transform="scale(0.015625)"/>
      <path id="Roboto-Medium-70" d="M 3350 1656 
Q 3350 872 2994 404 
Q 2638 -63 2038 -63 
Q 1481 -63 1147 303 
L 1147 -1300 
L 388 -1300 
L 388 3381 
L 1088 3381 
L 1119 3038 
Q 1453 3444 2028 3444 
Q 2647 3444 2998 2983 
Q 3350 2522 3350 1703 
L 3350 1656 
z
M 2594 1722 
Q 2594 2228 2392 2525 
Q 2191 2822 1816 2822 
Q 1350 2822 1147 2438 
L 1147 938 
Q 1353 544 1822 544 
Q 2184 544 2389 836 
Q 2594 1128 2594 1722 
z
" transform="scale(0.015625)"/>
     </defs>
     <use xlink:href="#Roboto-Medium-49"/>
     <use xlink:href="#Roboto-Medium-6d" x="28.222656"/>
     <use xlink:href="#Roboto-Medium-70" x="115.234375"/>
     <use xlink:href="#Roboto-Medium-61" x="171.533203"/>
     <use xlink:href="#Roboto-Medium-63" x="225.634766"/>
     <use xlink:href="#Roboto-Medium-74" x="277.978516"/>
     <use xlink:href="#Roboto-Medium-20" x="311.230469"/>
     <use xlink:href="#Roboto-Medium-6f" x="336.132812"/>
     <use xlink:href="#Roboto-Medium-66" x="393.066406"/>
     <use xlink:href="#Roboto-Medium-20" x="428.515625"/>
     <use xlink:href="#Roboto-Medium-57" x="453.417969"/>
     <use xlink:href="#Roboto-Medium-5a" x="541.40625"/>
     <use xlink:href="#Roboto-Medium-5f" x="601.611328"/>
     <use xlink:href="#Roboto-Medium-54" x="646.728516"/>
     <use xlink:href="#Roboto-Medium-72" x="707.421875"/>
     <use xlink:href="#Roboto-Medium-61" x="742.578125"/>
     <use xlink:href="#Roboto-Medium-6e" x="796.679688"/>
     <use xlink:href="#Roboto-Medium-73" x="852.294922"/>
     <use xlink:href="#Roboto-Medium-4c" x="903.90625"/>
     <use xlink:href="#Roboto-Medium-65" x="958.007812"/>
     <use xlink:href="#Roboto-Medium-6e" x="1011.669922"/>
     <use xlink:href="#Roboto-Medium-53" x="1067.285156"/>
     <use xlink:href="#Roboto-Medium-74" x="1127.636719"/>
     <use xlink:href="#Roboto-Medium-61" x="1160.888672"/>
     <use xlink:href="#Roboto-Medium-72" x="1214.990234"/>
     <use xlink:href="#Roboto-Medium-74" x="1250.146484"/>
     <use xlink:href="#Roboto-Medium-20" x="1283.398438"/>
     <use xlink:href="#Roboto-Medium-6f" x="1308.300781"/>
     <use xlink:href="#Roboto-Medium-6e" x="1365.234375"/>
     <use xlink:href="#Roboto-Medium-20" x="1420.849609"/>
     <use xlink:href="#Roboto-Medium-55" x="1445.751953"/>
     <use xlink:href="#Roboto-Medium-6e" x="1510.9375"/>
     <use xlink:href="#Roboto-Medium-64" x="1566.552734"/>
     <use xlink:href="#Roboto-Medium-65" x="1622.998047"/>
     <use xlink:href="#Roboto-Medium-72" x="1676.660156"/>
     <use xlink:href="#Roboto-Medium-43" x="1711.816406"/>
     <use xlink:href="#Roboto-Medium-6f" x="1777.099609"/>
     <use xlink:href="#Roboto-Medium-6e" x="1834.033203"/>
     <use xlink:href="#Roboto-Medium-73" x="1889.648438"/>
     <use xlink:href="#Roboto-Medium-74" x="1941.259766"/>
     <use xlink:href="#Roboto-Medium-72" x="1974.511719"/>
     <use xlink:href="#Roboto-Medium-75" x="2009.667969"/>
     <use xlink:href="#Roboto-Medium-63" x="2065.234375"/>
     <use xlink:href="#Roboto-Medium-74" x="2117.578125"/>
     <use xlink:href="#Roboto-Medium-69" x="2150.830078"/>
     <use xlink:href="#Roboto-Medium-6f" x="2176.367188"/>
     <use xlink:href="#Roboto-Medium-6e" x="2233.300781"/>
     <use xlink:href="#Roboto-Medium-54" x="2288.916016"/>
     <use xlink:href="#Roboto-Medium-69" x="2349.609375"/>
     <use xlink:href="#Roboto-Medium-6d" x="2375.146484"/>
     <use xlink:href="#Roboto-Medium-65" x="2462.158203"/>
    </g>
   </g>
  </g>
 </g>
 <defs>
  <clipPath id="pc7e6f5f3c1">
   <rect x="108" y="51.84" width="669.6" height="332.64"/>
  </clipPath>
 </defs>
</svg>
