<?xml version="1.0" encoding="utf-8" standalone="no"?>
<!DOCTYPE svg PUBLIC "-//W3C//DTD SVG 1.1//EN"
  "http://www.w3.org/Graphics/SVG/1.1/DTD/svg11.dtd">
<svg xmlns:xlink="http://www.w3.org/1999/xlink" width="1080pt" height="360pt" viewBox="0 0 1080 360" xmlns="http://www.w3.org/2000/svg" version="1.1">
 <metadata>
  <rdf:RDF xmlns:dc="http://purl.org/dc/elements/1.1/" xmlns:cc="http://creativecommons.org/ns#" xmlns:rdf="http://www.w3.org/1999/02/22-rdf-syntax-ns#">
   <cc:Work>
    <dc:type rdf:resource="http://purl.org/dc/dcmitype/StillImage"/>
    <dc:date>2023-11-02T11:27:59.971258</dc:date>
    <dc:format>image/svg+xml</dc:format>
    <dc:creator>
     <cc:Agent>
      <dc:title>Matplotlib v3.7.2, https://matplotlib.org/</dc:title>
     </cc:Agent>
    </dc:creator>
   </cc:Work>
  </rdf:RDF>
 </metadata>
 <defs>
  <style type="text/css">*{stroke-linejoin: round; stroke-linecap: butt}</style>
 </defs>
 <g id="figure_1">
  <g id="patch_1">
   <path d="M 0 360 
L 1080 360 
L 1080 0 
L 0 0 
z
" style="fill: #ffffff"/>
  </g>
  <g id="axes_1">
   <g id="patch_2">
    <path d="M 135 320.4 
L 972 320.4 
L 972 43.2 
L 135 43.2 
z
" style="fill: #ffffff"/>
   </g>
   <g id="patch_3">
    <path d="M 135 48.744 
L 932.142857 48.744 
L 932.142857 93.096 
L 135 93.096 
z
" clip-path="url(#p919892ec82)" style="fill: #3274a1"/>
   </g>
   <g id="patch_4">
    <path d="M 135 104.184 
L 813.089285 104.184 
L 813.089285 148.536 
L 135 148.536 
z
" clip-path="url(#p919892ec82)" style="fill: #e1812c"/>
   </g>
   <g id="patch_5">
    <path d="M 135 159.624 
L 676.188475 159.624 
L 676.188475 203.976 
L 135 203.976 
z
" clip-path="url(#p919892ec82)" style="fill: #3a923a"/>
   </g>
   <g id="patch_6">
    <path d="M 135 215.064 
L 621.213435 215.064 
L 621.213435 259.416 
L 135 259.416 
z
" clip-path="url(#p919892ec82)" style="fill: #c03d3e"/>
   </g>
   <g id="patch_7">
    <path d="M 135 270.504 
L 604.616775 270.504 
L 604.616775 314.856 
L 135 314.856 
z
" clip-path="url(#p919892ec82)" style="fill: #9372b2"/>
   </g>
   <g id="matplotlib.axis_1">
    <g id="xtick_1">
     <g id="line2d_1">
      <defs>
       <path id="m4b1746e700" d="M 0 0 
L 0 3.5 
" style="stroke: #58544f; stroke-width: 0.8"/>
      </defs>
      <g>
       <use xlink:href="#m4b1746e700" x="135" y="320.4" style="fill: #58544f; stroke: #58544f; stroke-width: 0.8"/>
      </g>
     </g>
     <g id="text_1">
      <!-- 0.0 -->
      <g style="fill: #58544f" transform="translate(125.08625 337.9) scale(0.14 -0.14)">
       <defs>
        <path id="Roboto-Medium-30" d="M 3306 1916 
Q 3306 934 2939 435 
Q 2572 -63 1822 -63 
Q 1084 -63 711 423 
Q 338 909 328 1863 
L 328 2650 
Q 328 3631 695 4122 
Q 1063 4613 1816 4613 
Q 2563 4613 2930 4134 
Q 3297 3656 3306 2703 
L 3306 1916 
z
M 2547 2766 
Q 2547 3406 2372 3704 
Q 2197 4003 1816 4003 
Q 1444 4003 1269 3720 
Q 1094 3438 1084 2838 
L 1084 1806 
Q 1084 1169 1262 856 
Q 1441 544 1822 544 
Q 2188 544 2363 833 
Q 2538 1122 2547 1738 
L 2547 2766 
z
" transform="scale(0.015625)"/>
        <path id="Roboto-Medium-2e" d="M 863 800 
Q 1075 800 1190 679 
Q 1306 559 1306 378 
Q 1306 200 1190 83 
Q 1075 -34 863 -34 
Q 659 -34 540 81 
Q 422 197 422 378 
Q 422 559 537 679 
Q 653 800 863 800 
z
" transform="scale(0.015625)"/>
       </defs>
       <use xlink:href="#Roboto-Medium-30"/>
       <use xlink:href="#Roboto-Medium-2e" x="56.835938"/>
       <use xlink:href="#Roboto-Medium-30" x="84.765625"/>
      </g>
     </g>
    </g>
    <g id="xtick_2">
     <g id="line2d_2">
      <g>
       <use xlink:href="#m4b1746e700" x="290.63541" y="320.4" style="fill: #58544f; stroke: #58544f; stroke-width: 0.8"/>
      </g>
     </g>
     <g id="text_2">
      <!-- 0.2 -->
      <g style="fill: #58544f" transform="translate(280.72166 337.9) scale(0.14 -0.14)">
       <defs>
        <path id="Roboto-Medium-32" d="M 3400 0 
L 341 0 
L 341 522 
L 1856 2175 
Q 2184 2541 2323 2786 
Q 2463 3031 2463 3278 
Q 2463 3603 2280 3803 
Q 2097 4003 1788 4003 
Q 1419 4003 1216 3778 
Q 1013 3553 1013 3163 
L 253 3163 
Q 253 3578 442 3911 
Q 631 4244 982 4428 
Q 1334 4613 1794 4613 
Q 2456 4613 2839 4280 
Q 3222 3947 3222 3359 
Q 3222 3019 3030 2645 
Q 2838 2272 2400 1797 
L 1288 606 
L 3400 606 
L 3400 0 
z
" transform="scale(0.015625)"/>
       </defs>
       <use xlink:href="#Roboto-Medium-30"/>
       <use xlink:href="#Roboto-Medium-2e" x="56.835938"/>
       <use xlink:href="#Roboto-Medium-32" x="84.765625"/>
      </g>
     </g>
    </g>
    <g id="xtick_3">
     <g id="line2d_3">
      <g>
       <use xlink:href="#m4b1746e700" x="446.270819" y="320.4" style="fill: #58544f; stroke: #58544f; stroke-width: 0.8"/>
      </g>
     </g>
     <g id="text_3">
      <!-- 0.4 -->
      <g style="fill: #58544f" transform="translate(436.357069 337.9) scale(0.14 -0.14)">
       <defs>
        <path id="Roboto-Medium-34" d="M 2909 1622 
L 3475 1622 
L 3475 1013 
L 2909 1013 
L 2909 0 
L 2150 0 
L 2150 1013 
L 184 1013 
L 163 1475 
L 2125 4550 
L 2909 4550 
L 2909 1622 
z
M 959 1622 
L 2150 1622 
L 2150 3522 
L 2094 3422 
L 959 1622 
z
" transform="scale(0.015625)"/>
       </defs>
       <use xlink:href="#Roboto-Medium-30"/>
       <use xlink:href="#Roboto-Medium-2e" x="56.835938"/>
       <use xlink:href="#Roboto-Medium-34" x="84.765625"/>
      </g>
     </g>
    </g>
    <g id="xtick_4">
     <g id="line2d_4">
      <g>
       <use xlink:href="#m4b1746e700" x="601.906229" y="320.4" style="fill: #58544f; stroke: #58544f; stroke-width: 0.8"/>
      </g>
     </g>
     <g id="text_4">
      <!-- 0.6 -->
      <g style="fill: #58544f" transform="translate(591.992479 337.9) scale(0.14 -0.14)">
       <defs>
        <path id="Roboto-Medium-36" d="M 2703 4572 
L 2703 3944 
L 2609 3944 
Q 1972 3934 1590 3593 
Q 1209 3253 1138 2628 
Q 1503 3013 2072 3013 
Q 2675 3013 3023 2588 
Q 3372 2163 3372 1491 
Q 3372 797 2964 367 
Q 2556 -63 1894 -63 
Q 1213 -63 789 440 
Q 366 944 366 1759 
L 366 2019 
Q 366 3216 948 3894 
Q 1531 4572 2625 4572 
L 2703 4572 
z
M 1888 2400 
Q 1638 2400 1430 2259 
Q 1222 2119 1125 1884 
L 1125 1653 
Q 1125 1147 1337 848 
Q 1550 550 1887 550 
Q 2225 550 2422 803 
Q 2619 1056 2619 1468 
Q 2619 1881 2419 2140 
Q 2219 2400 1888 2400 
z
" transform="scale(0.015625)"/>
       </defs>
       <use xlink:href="#Roboto-Medium-30"/>
       <use xlink:href="#Roboto-Medium-2e" x="56.835938"/>
       <use xlink:href="#Roboto-Medium-36" x="84.765625"/>
      </g>
     </g>
    </g>
    <g id="xtick_5">
     <g id="line2d_5">
      <g>
       <use xlink:href="#m4b1746e700" x="757.541638" y="320.4" style="fill: #58544f; stroke: #58544f; stroke-width: 0.8"/>
      </g>
     </g>
     <g id="text_5">
      <!-- 0.8 -->
      <g style="fill: #58544f" transform="translate(747.627888 337.9) scale(0.14 -0.14)">
       <defs>
        <path id="Roboto-Medium-38" d="M 3206 3350 
Q 3206 3016 3034 2755 
Q 2863 2494 2566 2344 
Q 2922 2178 3114 1890 
Q 3306 1603 3306 1241 
Q 3306 641 2900 289 
Q 2494 -63 1819 -63 
Q 1141 -63 733 290 
Q 325 644 325 1241 
Q 325 1606 519 1897 
Q 713 2188 1063 2344 
Q 769 2494 598 2755 
Q 428 3016 428 3350 
Q 428 3931 803 4272 
Q 1178 4613 1816 4613 
Q 2456 4613 2831 4272 
Q 3206 3931 3206 3350 
z
M 2547 1278 
Q 2547 1616 2345 1823 
Q 2144 2031 1812 2031 
Q 1481 2031 1282 1825 
Q 1084 1619 1084 1278 
Q 1084 944 1279 744 
Q 1475 544 1819 544 
Q 2163 544 2355 737 
Q 2547 931 2547 1278 
z
M 2450 3322 
Q 2450 3619 2278 3811 
Q 2106 4003 1815 4003 
Q 1525 4003 1356 3820 
Q 1188 3638 1188 3322 
Q 1188 3009 1358 2825 
Q 1528 2641 1818 2641 
Q 2109 2641 2279 2825 
Q 2450 3009 2450 3322 
z
" transform="scale(0.015625)"/>
       </defs>
       <use xlink:href="#Roboto-Medium-30"/>
       <use xlink:href="#Roboto-Medium-2e" x="56.835938"/>
       <use xlink:href="#Roboto-Medium-38" x="84.765625"/>
      </g>
     </g>
    </g>
    <g id="xtick_6">
     <g id="line2d_6">
      <g>
       <use xlink:href="#m4b1746e700" x="913.177048" y="320.4" style="fill: #58544f; stroke: #58544f; stroke-width: 0.8"/>
      </g>
     </g>
     <g id="text_6">
      <!-- 1.0 -->
      <g style="fill: #58544f" transform="translate(903.263298 337.9) scale(0.14 -0.14)">
       <defs>
        <path id="Roboto-Medium-31" d="M 2397 0 
L 1641 0 
L 1641 3653 
L 525 3272 
L 525 3913 
L 2300 4566 
L 2397 4566 
L 2397 0 
z
" transform="scale(0.015625)"/>
       </defs>
       <use xlink:href="#Roboto-Medium-31"/>
       <use xlink:href="#Roboto-Medium-2e" x="56.835938"/>
       <use xlink:href="#Roboto-Medium-30" x="84.765625"/>
      </g>
     </g>
    </g>
    <g id="text_7">
     <!-- Impact on UnderConstructionTime -->
     <g style="fill: #58544f" transform="translate(414.57375 358.24375) scale(0.18 -0.18)">
      <defs>
       <path id="Roboto-Medium-49" d="M 1297 0 
L 509 0 
L 509 4550 
L 1297 4550 
L 1297 0 
z
" transform="scale(0.015625)"/>
       <path id="Roboto-Medium-6d" d="M 1103 3381 
L 1125 3028 
Q 1481 3444 2100 3444 
Q 2778 3444 3028 2925 
Q 3397 3444 4066 3444 
Q 4625 3444 4898 3134 
Q 5172 2825 5178 2222 
L 5178 0 
L 4419 0 
L 4419 2200 
Q 4419 2522 4278 2672 
Q 4138 2822 3813 2822 
Q 3553 2822 3389 2683 
Q 3225 2544 3159 2319 
L 3163 0 
L 2403 0 
L 2403 2225 
Q 2388 2822 1794 2822 
Q 1338 2822 1147 2450 
L 1147 0 
L 388 0 
L 388 3381 
L 1103 3381 
z
" transform="scale(0.015625)"/>
       <path id="Roboto-Medium-70" d="M 3350 1656 
Q 3350 872 2994 404 
Q 2638 -63 2038 -63 
Q 1481 -63 1147 303 
L 1147 -1300 
L 388 -1300 
L 388 3381 
L 1088 3381 
L 1119 3038 
Q 1453 3444 2028 3444 
Q 2647 3444 2998 2983 
Q 3350 2522 3350 1703 
L 3350 1656 
z
M 2594 1722 
Q 2594 2228 2392 2525 
Q 2191 2822 1816 2822 
Q 1350 2822 1147 2438 
L 1147 938 
Q 1353 544 1822 544 
Q 2184 544 2389 836 
Q 2594 1128 2594 1722 
z
" transform="scale(0.015625)"/>
       <path id="Roboto-Medium-61" d="M 2409 0 
Q 2359 97 2322 316 
Q 1959 -63 1434 -63 
Q 925 -63 603 228 
Q 281 519 281 947 
Q 281 1488 682 1777 
Q 1084 2066 1831 2066 
L 2297 2066 
L 2297 2288 
Q 2297 2550 2150 2708 
Q 2003 2866 1703 2866 
Q 1444 2866 1278 2736 
Q 1113 2606 1113 2406 
L 353 2406 
Q 353 2684 537 2926 
Q 722 3169 1039 3306 
Q 1356 3444 1747 3444 
Q 2341 3444 2694 3145 
Q 3047 2847 3056 2306 
L 3056 781 
Q 3056 325 3184 53 
L 3184 0 
L 2409 0 
z
M 1575 547 
Q 1800 547 1998 656 
Q 2197 766 2297 950 
L 2297 1588 
L 1888 1588 
Q 1466 1588 1253 1441 
Q 1041 1294 1041 1025 
Q 1041 806 1186 676 
Q 1331 547 1575 547 
z
" transform="scale(0.015625)"/>
       <path id="Roboto-Medium-63" d="M 1778 544 
Q 2063 544 2250 709 
Q 2438 875 2450 1119 
L 3166 1119 
Q 3153 803 2968 529 
Q 2784 256 2468 96 
Q 2153 -63 1788 -63 
Q 1078 -63 662 396 
Q 247 856 247 1666 
L 247 1744 
Q 247 2516 659 2980 
Q 1072 3444 1784 3444 
Q 2388 3444 2767 3092 
Q 3147 2741 3166 2169 
L 2450 2169 
Q 2438 2459 2252 2646 
Q 2066 2834 1778 2834 
Q 1409 2834 1209 2567 
Q 1009 2300 1006 1756 
L 1006 1634 
Q 1006 1084 1204 814 
Q 1403 544 1778 544 
z
" transform="scale(0.015625)"/>
       <path id="Roboto-Medium-74" d="M 1341 4203 
L 1341 3381 
L 1938 3381 
L 1938 2819 
L 1341 2819 
L 1341 931 
Q 1341 738 1417 652 
Q 1494 566 1691 566 
Q 1822 566 1956 597 
L 1956 9 
Q 1697 -63 1456 -63 
Q 581 -63 581 903 
L 581 2819 
L 25 2819 
L 25 3381 
L 581 3381 
L 581 4203 
L 1341 4203 
z
" transform="scale(0.015625)"/>
       <path id="Roboto-Medium-20" transform="scale(0.015625)"/>
       <path id="Roboto-Medium-6f" d="M 247 1722 
Q 247 2219 444 2617 
Q 641 3016 997 3230 
Q 1353 3444 1816 3444 
Q 2500 3444 2926 3003 
Q 3353 2563 3388 1834 
L 3391 1656 
Q 3391 1156 3198 762 
Q 3006 369 2648 153 
Q 2291 -63 1822 -63 
Q 1106 -63 676 414 
Q 247 891 247 1684 
L 247 1722 
z
M 1006 1656 
Q 1006 1134 1222 839 
Q 1438 544 1822 544 
Q 2206 544 2420 844 
Q 2634 1144 2634 1722 
Q 2634 2234 2414 2534 
Q 2194 2834 1816 2834 
Q 1444 2834 1225 2539 
Q 1006 2244 1006 1656 
z
" transform="scale(0.015625)"/>
       <path id="Roboto-Medium-6e" d="M 1094 3381 
L 1116 2991 
Q 1491 3444 2100 3444 
Q 3156 3444 3175 2234 
L 3175 0 
L 2416 0 
L 2416 2191 
Q 2416 2513 2277 2667 
Q 2138 2822 1822 2822 
Q 1363 2822 1138 2406 
L 1138 0 
L 378 0 
L 378 3381 
L 1094 3381 
z
" transform="scale(0.015625)"/>
       <path id="Roboto-Medium-55" d="M 3791 4550 
L 3791 1509 
Q 3791 784 3327 360 
Q 2863 -63 2091 -63 
Q 1309 -63 850 354 
Q 391 772 391 1513 
L 391 4550 
L 1178 4550 
L 1178 1506 
Q 1178 1050 1409 809 
Q 1641 569 2091 569 
Q 3003 569 3003 1531 
L 3003 4550 
L 3791 4550 
z
" transform="scale(0.015625)"/>
       <path id="Roboto-Medium-64" d="M 247 1716 
Q 247 2497 609 2970 
Q 972 3444 1581 3444 
Q 2119 3444 2450 3069 
L 2450 4800 
L 3209 4800 
L 3209 0 
L 2522 0 
L 2484 350 
Q 2144 -63 1575 -63 
Q 981 -63 614 415 
Q 247 894 247 1716 
z
M 1006 1650 
Q 1006 1134 1204 845 
Q 1403 556 1769 556 
Q 2234 556 2450 972 
L 2450 2416 
Q 2241 2822 1775 2822 
Q 1406 2822 1206 2530 
Q 1006 2238 1006 1650 
z
" transform="scale(0.015625)"/>
       <path id="Roboto-Medium-65" d="M 1878 -63 
Q 1156 -63 707 392 
Q 259 847 259 1603 
L 259 1697 
Q 259 2203 454 2601 
Q 650 3000 1003 3222 
Q 1356 3444 1791 3444 
Q 2481 3444 2857 3003 
Q 3234 2563 3234 1756 
L 3234 1450 
L 1025 1450 
Q 1059 1031 1304 787 
Q 1550 544 1922 544 
Q 2444 544 2772 966 
L 3181 575 
Q 2978 272 2639 104 
Q 2300 -63 1878 -63 
z
M 1788 2834 
Q 1475 2834 1283 2615 
Q 1091 2397 1038 2006 
L 2484 2006 
L 2484 2063 
Q 2459 2444 2281 2639 
Q 2103 2834 1788 2834 
z
" transform="scale(0.015625)"/>
       <path id="Roboto-Medium-72" d="M 2159 2688 
Q 2009 2713 1850 2713 
Q 1328 2713 1147 2313 
L 1147 0 
L 388 0 
L 388 3381 
L 1113 3381 
L 1131 3003 
Q 1406 3444 1894 3444 
Q 2056 3444 2163 3400 
L 2159 2688 
z
" transform="scale(0.015625)"/>
       <path id="Roboto-Medium-43" d="M 3934 1481 
Q 3866 753 3397 345 
Q 2928 -63 2150 -63 
Q 1606 -63 1192 195 
Q 778 453 553 928 
Q 328 1403 319 2031 
L 319 2456 
Q 319 3100 547 3590 
Q 775 4081 1201 4347 
Q 1628 4613 2188 4613 
Q 2941 4613 3400 4203 
Q 3859 3794 3934 3047 
L 3147 3047 
Q 3091 3538 2861 3755 
Q 2631 3972 2188 3972 
Q 1672 3972 1395 3595 
Q 1119 3219 1113 2491 
L 1113 2088 
Q 1113 1350 1377 962 
Q 1641 575 2150 575 
Q 2616 575 2850 784 
Q 3084 994 3147 1481 
L 3934 1481 
z
" transform="scale(0.015625)"/>
       <path id="Roboto-Medium-73" d="M 2284 919 
Q 2284 1122 2117 1228 
Q 1950 1334 1562 1415 
Q 1175 1497 916 1622 
Q 347 1897 347 2419 
Q 347 2856 715 3150 
Q 1084 3444 1653 3444 
Q 2259 3444 2632 3144 
Q 3006 2844 3006 2366 
L 2247 2366 
Q 2247 2584 2084 2729 
Q 1922 2875 1653 2875 
Q 1403 2875 1245 2759 
Q 1088 2644 1088 2450 
Q 1088 2275 1234 2178 
Q 1381 2081 1828 1982 
Q 2275 1884 2529 1748 
Q 2784 1613 2907 1422 
Q 3031 1231 3031 959 
Q 3031 503 2653 220 
Q 2275 -63 1663 -63 
Q 1247 -63 922 87 
Q 597 238 415 500 
Q 234 763 234 1066 
L 972 1066 
Q 988 797 1175 651 
Q 1363 506 1672 506 
Q 1972 506 2128 620 
Q 2284 734 2284 919 
z
" transform="scale(0.015625)"/>
       <path id="Roboto-Medium-75" d="M 2438 331 
Q 2103 -63 1488 -63 
Q 938 -63 655 259 
Q 372 581 372 1191 
L 372 3381 
L 1131 3381 
L 1131 1200 
Q 1131 556 1666 556 
Q 2219 556 2413 953 
L 2413 3381 
L 3172 3381 
L 3172 0 
L 2456 0 
L 2438 331 
z
" transform="scale(0.015625)"/>
       <path id="Roboto-Medium-69" d="M 1197 0 
L 438 0 
L 438 3381 
L 1197 3381 
L 1197 0 
z
M 391 4259 
Q 391 4434 502 4550 
Q 613 4666 819 4666 
Q 1025 4666 1137 4550 
Q 1250 4434 1250 4259 
Q 1250 4088 1137 3973 
Q 1025 3859 819 3859 
Q 613 3859 502 3973 
Q 391 4088 391 4259 
z
" transform="scale(0.015625)"/>
       <path id="Roboto-Medium-54" d="M 3750 3913 
L 2331 3913 
L 2331 0 
L 1547 0 
L 1547 3913 
L 141 3913 
L 141 4550 
L 3750 4550 
L 3750 3913 
z
" transform="scale(0.015625)"/>
      </defs>
      <use xlink:href="#Roboto-Medium-49"/>
      <use xlink:href="#Roboto-Medium-6d" x="28.222656"/>
      <use xlink:href="#Roboto-Medium-70" x="115.234375"/>
      <use xlink:href="#Roboto-Medium-61" x="171.533203"/>
      <use xlink:href="#Roboto-Medium-63" x="225.634766"/>
      <use xlink:href="#Roboto-Medium-74" x="277.978516"/>
      <use xlink:href="#Roboto-Medium-20" x="311.230469"/>
      <use xlink:href="#Roboto-Medium-6f" x="336.132812"/>
      <use xlink:href="#Roboto-Medium-6e" x="393.066406"/>
      <use xlink:href="#Roboto-Medium-20" x="448.681641"/>
      <use xlink:href="#Roboto-Medium-55" x="473.583984"/>
      <use xlink:href="#Roboto-Medium-6e" x="538.769531"/>
      <use xlink:href="#Roboto-Medium-64" x="594.384766"/>
      <use xlink:href="#Roboto-Medium-65" x="650.830078"/>
      <use xlink:href="#Roboto-Medium-72" x="704.492188"/>
      <use xlink:href="#Roboto-Medium-43" x="739.648438"/>
      <use xlink:href="#Roboto-Medium-6f" x="804.931641"/>
      <use xlink:href="#Roboto-Medium-6e" x="861.865234"/>
      <use xlink:href="#Roboto-Medium-73" x="917.480469"/>
      <use xlink:href="#Roboto-Medium-74" x="969.091797"/>
      <use xlink:href="#Roboto-Medium-72" x="1002.34375"/>
      <use xlink:href="#Roboto-Medium-75" x="1037.5"/>
      <use xlink:href="#Roboto-Medium-63" x="1093.066406"/>
      <use xlink:href="#Roboto-Medium-74" x="1145.410156"/>
      <use xlink:href="#Roboto-Medium-69" x="1178.662109"/>
      <use xlink:href="#Roboto-Medium-6f" x="1204.199219"/>
      <use xlink:href="#Roboto-Medium-6e" x="1261.132812"/>
      <use xlink:href="#Roboto-Medium-54" x="1316.748047"/>
      <use xlink:href="#Roboto-Medium-69" x="1377.441406"/>
      <use xlink:href="#Roboto-Medium-6d" x="1402.978516"/>
      <use xlink:href="#Roboto-Medium-65" x="1489.990234"/>
     </g>
    </g>
   </g>
   <g id="matplotlib.axis_2">
    <g id="ytick_1">
     <g id="line2d_7">
      <defs>
       <path id="m1364a41cf4" d="M 0 0 
L -3.5 0 
" style="stroke: #58544f; stroke-width: 0.8"/>
      </defs>
      <g>
       <use xlink:href="#m1364a41cf4" x="135" y="70.92" style="fill: #58544f; stroke: #58544f; stroke-width: 0.8"/>
      </g>
     </g>
     <g id="text_8">
      <!-- SegmentLength -->
      <g style="fill: #58544f" transform="translate(28.73125 76.17) scale(0.14 -0.14)">
       <defs>
        <path id="Roboto-Medium-53" d="M 2841 1172 
Q 2841 1472 2630 1634 
Q 2419 1797 1869 1962 
Q 1319 2128 994 2331 
Q 372 2722 372 3350 
Q 372 3900 820 4256 
Q 1269 4613 1984 4613 
Q 2459 4613 2831 4438 
Q 3203 4263 3415 3939 
Q 3628 3616 3628 3222 
L 2841 3222 
Q 2841 3578 2617 3779 
Q 2394 3981 1978 3981 
Q 1591 3981 1377 3815 
Q 1163 3650 1163 3353 
Q 1163 3103 1394 2936 
Q 1625 2769 2156 2611 
Q 2688 2453 3009 2251 
Q 3331 2050 3481 1789 
Q 3631 1528 3631 1178 
Q 3631 609 3195 273 
Q 2759 -63 2013 -63 
Q 1519 -63 1105 120 
Q 691 303 461 625 
Q 231 947 231 1375 
L 1022 1375 
Q 1022 988 1278 775 
Q 1534 563 2013 563 
Q 2425 563 2633 730 
Q 2841 897 2841 1172 
z
" transform="scale(0.015625)"/>
        <path id="Roboto-Medium-67" d="M 256 1716 
Q 256 2503 626 2973 
Q 997 3444 1609 3444 
Q 2188 3444 2519 3041 
L 2553 3381 
L 3238 3381 
L 3238 103 
Q 3238 -563 2823 -947 
Q 2409 -1331 1706 -1331 
Q 1334 -1331 979 -1176 
Q 625 -1022 441 -772 
L 800 -316 
Q 1150 -731 1663 -731 
Q 2041 -731 2259 -526 
Q 2478 -322 2478 75 
L 2478 303 
Q 2150 -63 1603 -63 
Q 1009 -63 632 409 
Q 256 881 256 1716 
z
M 1013 1650 
Q 1013 1141 1220 848 
Q 1428 556 1797 556 
Q 2256 556 2478 950 
L 2478 2438 
Q 2263 2822 1803 2822 
Q 1428 2822 1220 2525 
Q 1013 2228 1013 1650 
z
" transform="scale(0.015625)"/>
        <path id="Roboto-Medium-4c" d="M 1253 631 
L 3319 631 
L 3319 0 
L 463 0 
L 463 4550 
L 1253 4550 
L 1253 631 
z
" transform="scale(0.015625)"/>
        <path id="Roboto-Medium-68" d="M 1138 3013 
Q 1509 3444 2078 3444 
Q 3159 3444 3175 2209 
L 3175 0 
L 2416 0 
L 2416 2181 
Q 2416 2531 2264 2676 
Q 2113 2822 1819 2822 
Q 1363 2822 1138 2416 
L 1138 0 
L 378 0 
L 378 4800 
L 1138 4800 
L 1138 3013 
z
" transform="scale(0.015625)"/>
       </defs>
       <use xlink:href="#Roboto-Medium-53"/>
       <use xlink:href="#Roboto-Medium-65" x="60.351562"/>
       <use xlink:href="#Roboto-Medium-67" x="114.013672"/>
       <use xlink:href="#Roboto-Medium-6d" x="170.703125"/>
       <use xlink:href="#Roboto-Medium-65" x="257.714844"/>
       <use xlink:href="#Roboto-Medium-6e" x="311.376953"/>
       <use xlink:href="#Roboto-Medium-74" x="366.992188"/>
       <use xlink:href="#Roboto-Medium-4c" x="400.244141"/>
       <use xlink:href="#Roboto-Medium-65" x="454.345703"/>
       <use xlink:href="#Roboto-Medium-6e" x="508.007812"/>
       <use xlink:href="#Roboto-Medium-67" x="563.623047"/>
       <use xlink:href="#Roboto-Medium-74" x="620.3125"/>
       <use xlink:href="#Roboto-Medium-68" x="653.564453"/>
      </g>
     </g>
    </g>
    <g id="ytick_2">
     <g id="line2d_8">
      <g>
       <use xlink:href="#m1364a41cf4" x="135" y="126.36" style="fill: #58544f; stroke: #58544f; stroke-width: 0.8"/>
      </g>
     </g>
     <g id="text_9">
      <!-- WZ_CalculatedAADT -->
      <g style="fill: #58544f" transform="translate(-1.955 131.61) scale(0.14 -0.14)">
       <defs>
        <path id="Roboto-Medium-57" d="M 4031 1125 
L 4731 4550 
L 5516 4550 
L 4466 0 
L 3709 0 
L 2844 3322 
L 1959 0 
L 1200 0 
L 150 4550 
L 934 4550 
L 1641 1131 
L 2509 4550 
L 3172 4550 
L 4031 1125 
z
" transform="scale(0.015625)"/>
        <path id="Roboto-Medium-5a" d="M 1206 631 
L 3638 631 
L 3638 0 
L 250 0 
L 250 513 
L 2603 3913 
L 266 3913 
L 266 4550 
L 3563 4550 
L 3563 4050 
L 1206 631 
z
" transform="scale(0.015625)"/>
        <path id="Roboto-Medium-5f" d="M 2875 -597 
L 9 -597 
L 9 0 
L 2875 0 
L 2875 -597 
z
" transform="scale(0.015625)"/>
        <path id="Roboto-Medium-6c" d="M 1197 0 
L 438 0 
L 438 4800 
L 1197 4800 
L 1197 0 
z
" transform="scale(0.015625)"/>
        <path id="Roboto-Medium-41" d="M 3009 1059 
L 1247 1059 
L 878 0 
L 56 0 
L 1775 4550 
L 2484 4550 
L 4206 0 
L 3381 0 
L 3009 1059 
z
M 1469 1697 
L 2788 1697 
L 2128 3584 
L 1469 1697 
z
" transform="scale(0.015625)"/>
        <path id="Roboto-Medium-44" d="M 463 0 
L 463 4550 
L 1806 4550 
Q 2409 4550 2876 4281 
Q 3344 4013 3600 3519 
Q 3856 3025 3856 2388 
L 3856 2159 
Q 3856 1513 3598 1022 
Q 3341 531 2864 265 
Q 2388 0 1772 0 
L 463 0 
z
M 1253 3913 
L 1253 631 
L 1769 631 
Q 2391 631 2723 1020 
Q 3056 1409 3063 2138 
L 3063 2391 
Q 3063 3131 2741 3522 
Q 2419 3913 1806 3913 
L 1253 3913 
z
" transform="scale(0.015625)"/>
       </defs>
       <use xlink:href="#Roboto-Medium-57"/>
       <use xlink:href="#Roboto-Medium-5a" x="87.988281"/>
       <use xlink:href="#Roboto-Medium-5f" x="148.193359"/>
       <use xlink:href="#Roboto-Medium-43" x="193.310547"/>
       <use xlink:href="#Roboto-Medium-61" x="258.59375"/>
       <use xlink:href="#Roboto-Medium-6c" x="312.695312"/>
       <use xlink:href="#Roboto-Medium-63" x="338.232422"/>
       <use xlink:href="#Roboto-Medium-75" x="390.576172"/>
       <use xlink:href="#Roboto-Medium-6c" x="446.142578"/>
       <use xlink:href="#Roboto-Medium-61" x="471.679688"/>
       <use xlink:href="#Roboto-Medium-74" x="525.78125"/>
       <use xlink:href="#Roboto-Medium-65" x="559.033203"/>
       <use xlink:href="#Roboto-Medium-64" x="612.695312"/>
       <use xlink:href="#Roboto-Medium-41" x="669.140625"/>
       <use xlink:href="#Roboto-Medium-41" x="735.693359"/>
       <use xlink:href="#Roboto-Medium-44" x="802.246094"/>
       <use xlink:href="#Roboto-Medium-54" x="867.578125"/>
      </g>
     </g>
    </g>
    <g id="ytick_3">
     <g id="line2d_9">
      <g>
       <use xlink:href="#m1364a41cf4" x="135" y="181.8" style="fill: #58544f; stroke: #58544f; stroke-width: 0.8"/>
      </g>
     </g>
     <g id="text_10">
      <!-- WZ_TransLenEnd -->
      <g style="fill: #58544f" transform="translate(18.454375 187.05) scale(0.14 -0.14)">
       <defs>
        <path id="Roboto-Medium-45" d="M 3122 2031 
L 1253 2031 
L 1253 631 
L 3438 631 
L 3438 0 
L 463 0 
L 463 4550 
L 3416 4550 
L 3416 3913 
L 1253 3913 
L 1253 2656 
L 3122 2656 
L 3122 2031 
z
" transform="scale(0.015625)"/>
       </defs>
       <use xlink:href="#Roboto-Medium-57"/>
       <use xlink:href="#Roboto-Medium-5a" x="87.988281"/>
       <use xlink:href="#Roboto-Medium-5f" x="148.193359"/>
       <use xlink:href="#Roboto-Medium-54" x="193.310547"/>
       <use xlink:href="#Roboto-Medium-72" x="254.003906"/>
       <use xlink:href="#Roboto-Medium-61" x="289.160156"/>
       <use xlink:href="#Roboto-Medium-6e" x="343.261719"/>
       <use xlink:href="#Roboto-Medium-73" x="398.876953"/>
       <use xlink:href="#Roboto-Medium-4c" x="450.488281"/>
       <use xlink:href="#Roboto-Medium-65" x="504.589844"/>
       <use xlink:href="#Roboto-Medium-6e" x="558.251953"/>
       <use xlink:href="#Roboto-Medium-45" x="613.867188"/>
       <use xlink:href="#Roboto-Medium-6e" x="670.410156"/>
       <use xlink:href="#Roboto-Medium-64" x="726.025391"/>
      </g>
     </g>
    </g>
    <g id="ytick_4">
     <g id="line2d_10">
      <g>
       <use xlink:href="#m1364a41cf4" x="135" y="237.24" style="fill: #58544f; stroke: #58544f; stroke-width: 0.8"/>
      </g>
     </g>
     <g id="text_11">
      <!-- CreatedDate:MinuteInDay -->
      <g style="fill: #58544f" transform="translate(-32.654375 242.49) scale(0.14 -0.14)">
       <defs>
        <path id="Roboto-Medium-3a" d="M 847 800 
Q 1059 800 1174 679 
Q 1290 559 1290 378 
Q 1290 200 1174 83 
Q 1059 -34 847 -34 
Q 643 -34 524 81 
Q 406 197 406 378 
Q 406 559 521 679 
Q 637 800 847 800 
z
M 847 3424 
Q 1059 3424 1174 3303 
Q 1290 3183 1290 3002 
Q 1290 2824 1174 2707 
Q 1059 2590 847 2590 
Q 643 2590 524 2705 
Q 406 2821 406 3002 
Q 406 3183 521 3303 
Q 637 3424 847 3424 
z
" transform="scale(0.015625)"/>
        <path id="Roboto-Medium-4d" d="M 1488 4550 
L 2800 1063 
L 4109 4550 
L 5131 4550 
L 5131 0 
L 4344 0 
L 4344 1500 
L 4422 3506 
L 3078 0 
L 2513 0 
L 1172 3503 
L 1250 1500 
L 1250 0 
L 463 0 
L 463 4550 
L 1488 4550 
z
" transform="scale(0.015625)"/>
        <path id="Roboto-Medium-79" d="M 1572 1088 
L 2259 3381 
L 3069 3381 
L 1725 -513 
Q 1416 -1366 675 -1366 
Q 509 -1366 309 -1309 
L 309 -722 
L 453 -731 
Q 741 -731 886 -626 
Q 1031 -522 1116 -275 
L 1225 16 
L 38 3381 
L 856 3381 
L 1572 1088 
z
" transform="scale(0.015625)"/>
       </defs>
       <use xlink:href="#Roboto-Medium-43"/>
       <use xlink:href="#Roboto-Medium-72" x="65.283203"/>
       <use xlink:href="#Roboto-Medium-65" x="100.439453"/>
       <use xlink:href="#Roboto-Medium-61" x="154.101562"/>
       <use xlink:href="#Roboto-Medium-74" x="208.203125"/>
       <use xlink:href="#Roboto-Medium-65" x="241.455078"/>
       <use xlink:href="#Roboto-Medium-64" x="295.117188"/>
       <use xlink:href="#Roboto-Medium-44" x="351.5625"/>
       <use xlink:href="#Roboto-Medium-61" x="416.894531"/>
       <use xlink:href="#Roboto-Medium-74" x="470.996094"/>
       <use xlink:href="#Roboto-Medium-65" x="504.248047"/>
       <use xlink:href="#Roboto-Medium-3a" x="557.910156"/>
       <use xlink:href="#Roboto-Medium-4d" x="584.423828"/>
       <use xlink:href="#Roboto-Medium-69" x="671.972656"/>
       <use xlink:href="#Roboto-Medium-6e" x="697.509766"/>
       <use xlink:href="#Roboto-Medium-75" x="753.125"/>
       <use xlink:href="#Roboto-Medium-74" x="808.691406"/>
       <use xlink:href="#Roboto-Medium-65" x="841.943359"/>
       <use xlink:href="#Roboto-Medium-49" x="895.605469"/>
       <use xlink:href="#Roboto-Medium-6e" x="923.828125"/>
       <use xlink:href="#Roboto-Medium-44" x="979.443359"/>
       <use xlink:href="#Roboto-Medium-61" x="1044.775391"/>
       <use xlink:href="#Roboto-Medium-79" x="1098.876953"/>
      </g>
     </g>
    </g>
    <g id="ytick_5">
     <g id="line2d_11">
      <g>
       <use xlink:href="#m1364a41cf4" x="135" y="292.68" style="fill: #58544f; stroke: #58544f; stroke-width: 0.8"/>
      </g>
     </g>
     <g id="text_12">
      <!-- WZ_Length -->
      <g style="fill: #58544f" transform="translate(57.700312 297.93) scale(0.14 -0.14)">
       <use xlink:href="#Roboto-Medium-57"/>
       <use xlink:href="#Roboto-Medium-5a" x="87.988281"/>
       <use xlink:href="#Roboto-Medium-5f" x="148.193359"/>
       <use xlink:href="#Roboto-Medium-4c" x="193.310547"/>
       <use xlink:href="#Roboto-Medium-65" x="247.412109"/>
       <use xlink:href="#Roboto-Medium-6e" x="301.074219"/>
       <use xlink:href="#Roboto-Medium-67" x="356.689453"/>
       <use xlink:href="#Roboto-Medium-74" x="413.378906"/>
       <use xlink:href="#Roboto-Medium-68" x="446.630859"/>
      </g>
     </g>
    </g>
   </g>
   <g id="line2d_12">
    <path clip-path="url(#p919892ec82)" style="fill: none; stroke: #424242; stroke-width: 2.7; stroke-linecap: square"/>
   </g>
   <g id="line2d_13">
    <path clip-path="url(#p919892ec82)" style="fill: none; stroke: #424242; stroke-width: 2.7; stroke-linecap: square"/>
   </g>
   <g id="line2d_14">
    <path clip-path="url(#p919892ec82)" style="fill: none; stroke: #424242; stroke-width: 2.7; stroke-linecap: square"/>
   </g>
   <g id="line2d_15">
    <path clip-path="url(#p919892ec82)" style="fill: none; stroke: #424242; stroke-width: 2.7; stroke-linecap: square"/>
   </g>
   <g id="line2d_16">
    <path clip-path="url(#p919892ec82)" style="fill: none; stroke: #424242; stroke-width: 2.7; stroke-linecap: square"/>
   </g>
   <g id="patch_8">
    <path d="M 135 320.4 
L 135 43.2 
" style="fill: none; stroke: #58544f; stroke-width: 0.8; stroke-linejoin: miter; stroke-linecap: square"/>
   </g>
   <g id="patch_9">
    <path d="M 972 320.4 
L 972 43.2 
" style="fill: none; stroke: #58544f; stroke-width: 0.8; stroke-linejoin: miter; stroke-linecap: square"/>
   </g>
   <g id="patch_10">
    <path d="M 135 320.4 
L 972 320.4 
" style="fill: none; stroke: #58544f; stroke-width: 0.8; stroke-linejoin: miter; stroke-linecap: square"/>
   </g>
   <g id="patch_11">
    <path d="M 135 43.2 
L 972 43.2 
" style="fill: none; stroke: #58544f; stroke-width: 0.8; stroke-linejoin: miter; stroke-linecap: square"/>
   </g>
   <g id="text_13">
    <!-- Feature Importance on UnderConstructionTime (Impact &gt;= 0.5) -->
    <g style="fill: #262626" transform="translate(271.909375 37.2) scale(0.2 -0.2)">
     <defs>
      <path id="Roboto-Medium-46" d="M 3084 1928 
L 1253 1928 
L 1253 0 
L 463 0 
L 463 4550 
L 3353 4550 
L 3353 3913 
L 1253 3913 
L 1253 2559 
L 3084 2559 
L 3084 1928 
z
" transform="scale(0.015625)"/>
      <path id="Roboto-Medium-28" d="M 400 1850 
Q 400 2572 594 3220 
Q 788 3869 1163 4380 
Q 1538 4891 1956 5097 
L 2106 4653 
Q 1666 4319 1392 3633 
Q 1119 2947 1094 2063 
L 1091 1794 
Q 1091 847 1358 104 
Q 1625 -638 2106 -1025 
L 1956 -1447 
Q 1538 -1241 1161 -727 
Q 784 -213 592 432 
Q 400 1078 400 1850 
z
" transform="scale(0.015625)"/>
      <path id="Roboto-Medium-3e" d="M 2331 1988 
L 400 2697 
L 400 3444 
L 3100 2281 
L 3100 1678 
L 400 516 
L 400 1263 
L 2331 1988 
z
" transform="scale(0.015625)"/>
      <path id="Roboto-Medium-3d" d="M 3147 2438 
L 453 2438 
L 453 3069 
L 3147 3069 
L 3147 2438 
z
M 3147 1113 
L 453 1113 
L 453 1741 
L 3147 1741 
L 3147 1113 
z
" transform="scale(0.015625)"/>
      <path id="Roboto-Medium-35" d="M 544 2256 
L 791 4550 
L 3234 4550 
L 3234 3894 
L 1422 3894 
L 1297 2806 
Q 1613 2988 2009 2988 
Q 2659 2988 3020 2572 
Q 3381 2156 3381 1453 
Q 3381 759 2981 348 
Q 2581 -63 1884 -63 
Q 1259 -63 848 292 
Q 438 647 403 1228 
L 1138 1228 
Q 1181 897 1375 720 
Q 1569 544 1881 544 
Q 2231 544 2426 794 
Q 2622 1044 2622 1475 
Q 2622 1891 2406 2133 
Q 2191 2375 1813 2375 
Q 1606 2375 1462 2320 
Q 1319 2266 1150 2106 
L 544 2256 
z
" transform="scale(0.015625)"/>
      <path id="Roboto-Medium-29" d="M 1853 1800 
Q 1853 1106 1662 461 
Q 1472 -184 1084 -714 
Q 697 -1244 275 -1447 
L 125 -1025 
Q 594 -663 867 82 
Q 1141 828 1141 1784 
L 1141 1856 
Q 1141 2725 903 3439 
Q 666 4153 222 4584 
L 125 4672 
L 275 5097 
Q 675 4903 1050 4409 
Q 1425 3916 1625 3305 
Q 1825 2694 1850 2044 
L 1853 1800 
z
" transform="scale(0.015625)"/>
     </defs>
     <use xlink:href="#Roboto-Medium-46"/>
     <use xlink:href="#Roboto-Medium-65" x="54.931641"/>
     <use xlink:href="#Roboto-Medium-61" x="108.59375"/>
     <use xlink:href="#Roboto-Medium-74" x="162.695312"/>
     <use xlink:href="#Roboto-Medium-75" x="195.947266"/>
     <use xlink:href="#Roboto-Medium-72" x="251.513672"/>
     <use xlink:href="#Roboto-Medium-65" x="286.669922"/>
     <use xlink:href="#Roboto-Medium-20" x="340.332031"/>
     <use xlink:href="#Roboto-Medium-49" x="365.234375"/>
     <use xlink:href="#Roboto-Medium-6d" x="393.457031"/>
     <use xlink:href="#Roboto-Medium-70" x="480.46875"/>
     <use xlink:href="#Roboto-Medium-6f" x="536.767578"/>
     <use xlink:href="#Roboto-Medium-72" x="593.701172"/>
     <use xlink:href="#Roboto-Medium-74" x="628.857422"/>
     <use xlink:href="#Roboto-Medium-61" x="662.109375"/>
     <use xlink:href="#Roboto-Medium-6e" x="716.210938"/>
     <use xlink:href="#Roboto-Medium-63" x="771.826172"/>
     <use xlink:href="#Roboto-Medium-65" x="824.169922"/>
     <use xlink:href="#Roboto-Medium-20" x="877.832031"/>
     <use xlink:href="#Roboto-Medium-6f" x="902.734375"/>
     <use xlink:href="#Roboto-Medium-6e" x="959.667969"/>
     <use xlink:href="#Roboto-Medium-20" x="1015.283203"/>
     <use xlink:href="#Roboto-Medium-55" x="1040.185547"/>
     <use xlink:href="#Roboto-Medium-6e" x="1105.371094"/>
     <use xlink:href="#Roboto-Medium-64" x="1160.986328"/>
     <use xlink:href="#Roboto-Medium-65" x="1217.431641"/>
     <use xlink:href="#Roboto-Medium-72" x="1271.09375"/>
     <use xlink:href="#Roboto-Medium-43" x="1306.25"/>
     <use xlink:href="#Roboto-Medium-6f" x="1371.533203"/>
     <use xlink:href="#Roboto-Medium-6e" x="1428.466797"/>
     <use xlink:href="#Roboto-Medium-73" x="1484.082031"/>
     <use xlink:href="#Roboto-Medium-74" x="1535.693359"/>
     <use xlink:href="#Roboto-Medium-72" x="1568.945312"/>
     <use xlink:href="#Roboto-Medium-75" x="1604.101562"/>
     <use xlink:href="#Roboto-Medium-63" x="1659.667969"/>
     <use xlink:href="#Roboto-Medium-74" x="1712.011719"/>
     <use xlink:href="#Roboto-Medium-69" x="1745.263672"/>
     <use xlink:href="#Roboto-Medium-6f" x="1770.800781"/>
     <use xlink:href="#Roboto-Medium-6e" x="1827.734375"/>
     <use xlink:href="#Roboto-Medium-54" x="1883.349609"/>
     <use xlink:href="#Roboto-Medium-69" x="1944.042969"/>
     <use xlink:href="#Roboto-Medium-6d" x="1969.580078"/>
     <use xlink:href="#Roboto-Medium-65" x="2056.591797"/>
     <use xlink:href="#Roboto-Medium-20" x="2110.253906"/>
     <use xlink:href="#Roboto-Medium-28" x="2135.15625"/>
     <use xlink:href="#Roboto-Medium-49" x="2170.019531"/>
     <use xlink:href="#Roboto-Medium-6d" x="2198.242188"/>
     <use xlink:href="#Roboto-Medium-70" x="2285.253906"/>
     <use xlink:href="#Roboto-Medium-61" x="2341.552734"/>
     <use xlink:href="#Roboto-Medium-63" x="2395.654297"/>
     <use xlink:href="#Roboto-Medium-74" x="2447.998047"/>
     <use xlink:href="#Roboto-Medium-20" x="2481.25"/>
     <use xlink:href="#Roboto-Medium-3e" x="2506.152344"/>
     <use xlink:href="#Roboto-Medium-3d" x="2558.203125"/>
     <use xlink:href="#Roboto-Medium-20" x="2614.160156"/>
     <use xlink:href="#Roboto-Medium-30" x="2639.0625"/>
     <use xlink:href="#Roboto-Medium-2e" x="2695.898438"/>
     <use xlink:href="#Roboto-Medium-35" x="2723.828125"/>
     <use xlink:href="#Roboto-Medium-29" x="2780.664062"/>
    </g>
   </g>
  </g>
 </g>
 <defs>
  <clipPath id="p919892ec82">
   <rect x="135" y="43.2" width="837" height="277.2"/>
  </clipPath>
 </defs>
</svg>
