<?xml version="1.0" encoding="utf-8" standalone="no"?>
<!DOCTYPE svg PUBLIC "-//W3C//DTD SVG 1.1//EN"
  "http://www.w3.org/Graphics/SVG/1.1/DTD/svg11.dtd">
<svg xmlns:xlink="http://www.w3.org/1999/xlink" width="864pt" height="432pt" viewBox="0 0 864 432" xmlns="http://www.w3.org/2000/svg" version="1.1">
 <metadata>
  <rdf:RDF xmlns:dc="http://purl.org/dc/elements/1.1/" xmlns:cc="http://creativecommons.org/ns#" xmlns:rdf="http://www.w3.org/1999/02/22-rdf-syntax-ns#">
   <cc:Work>
    <dc:type rdf:resource="http://purl.org/dc/dcmitype/StillImage"/>
    <dc:date>2023-10-23T19:50:03.378415</dc:date>
    <dc:format>image/svg+xml</dc:format>
    <dc:creator>
     <cc:Agent>
      <dc:title>Matplotlib v3.7.2, https://matplotlib.org/</dc:title>
     </cc:Agent>
    </dc:creator>
   </cc:Work>
  </rdf:RDF>
 </metadata>
 <defs>
  <style type="text/css">*{stroke-linejoin: round; stroke-linecap: butt}</style>
 </defs>
 <g id="figure_1">
  <g id="patch_1">
   <path d="M 0 432 
L 864 432 
L 864 0 
L 0 0 
z
" style="fill: #ffffff"/>
  </g>
  <g id="axes_1">
   <g id="patch_2">
    <path d="M 108 384.48 
L 777.6 384.48 
L 777.6 51.84 
L 108 51.84 
z
" style="fill: #ffffff"/>
   </g>
   <g id="PolyCollection_1"/>
   <g id="matplotlib.axis_1">
    <g id="xtick_1">
     <g id="line2d_1">
      <defs>
       <path id="ma043046135" d="M 0 0 
L 0 3.5 
" style="stroke: #58544f; stroke-width: 0.8"/>
      </defs>
      <g>
       <use xlink:href="#ma043046135" x="118.145455" y="384.48" style="fill: #58544f; stroke: #58544f; stroke-width: 0.8"/>
      </g>
     </g>
     <g id="text_1">
      <!-- 0 -->
      <g style="fill: #58544f" transform="translate(114.145455 402.59) scale(0.16 -0.16)">
       <defs>
        <path id="TimesNewRomanPSMT-30" d="M 231 2094 
Q 231 2819 450 3342 
Q 669 3866 1031 4122 
Q 1313 4325 1613 4325 
Q 2100 4325 2488 3828 
Q 2972 3213 2972 2159 
Q 2972 1422 2759 906 
Q 2547 391 2217 158 
Q 1888 -75 1581 -75 
Q 975 -75 572 641 
Q 231 1244 231 2094 
z
M 844 2016 
Q 844 1141 1059 588 
Q 1238 122 1591 122 
Q 1759 122 1940 273 
Q 2122 425 2216 781 
Q 2359 1319 2359 2297 
Q 2359 3022 2209 3506 
Q 2097 3866 1919 4016 
Q 1791 4119 1609 4119 
Q 1397 4119 1231 3928 
Q 1006 3669 925 3112 
Q 844 2556 844 2016 
z
" transform="scale(0.015625)"/>
       </defs>
       <use xlink:href="#TimesNewRomanPSMT-30"/>
      </g>
     </g>
    </g>
    <g id="xtick_2">
     <g id="line2d_2">
      <g>
       <use xlink:href="#ma043046135" x="219.6" y="384.48" style="fill: #58544f; stroke: #58544f; stroke-width: 0.8"/>
      </g>
     </g>
     <g id="text_2">
      <!-- 5 -->
      <g style="fill: #58544f" transform="translate(215.6 402.59) scale(0.16 -0.16)">
       <defs>
        <path id="TimesNewRomanPSMT-35" d="M 2778 4238 
L 2534 3706 
L 1259 3706 
L 981 3138 
Q 1809 3016 2294 2522 
Q 2709 2097 2709 1522 
Q 2709 1188 2573 903 
Q 2438 619 2231 419 
Q 2025 219 1772 97 
Q 1413 -75 1034 -75 
Q 653 -75 479 54 
Q 306 184 306 341 
Q 306 428 378 495 
Q 450 563 559 563 
Q 641 563 702 538 
Q 763 513 909 409 
Q 1144 247 1384 247 
Q 1750 247 2026 523 
Q 2303 800 2303 1197 
Q 2303 1581 2056 1914 
Q 1809 2247 1375 2428 
Q 1034 2569 447 2591 
L 1259 4238 
L 2778 4238 
z
" transform="scale(0.015625)"/>
       </defs>
       <use xlink:href="#TimesNewRomanPSMT-35"/>
      </g>
     </g>
    </g>
    <g id="xtick_3">
     <g id="line2d_3">
      <g>
       <use xlink:href="#ma043046135" x="321.054545" y="384.48" style="fill: #58544f; stroke: #58544f; stroke-width: 0.8"/>
      </g>
     </g>
     <g id="text_3">
      <!-- 10 -->
      <g style="fill: #58544f" transform="translate(313.054545 402.59) scale(0.16 -0.16)">
       <defs>
        <path id="TimesNewRomanPSMT-31" d="M 750 3822 
L 1781 4325 
L 1884 4325 
L 1884 747 
Q 1884 391 1914 303 
Q 1944 216 2037 169 
Q 2131 122 2419 116 
L 2419 0 
L 825 0 
L 825 116 
Q 1125 122 1212 167 
Q 1300 213 1334 289 
Q 1369 366 1369 747 
L 1369 3034 
Q 1369 3497 1338 3628 
Q 1316 3728 1258 3775 
Q 1200 3822 1119 3822 
Q 1003 3822 797 3725 
L 750 3822 
z
" transform="scale(0.015625)"/>
       </defs>
       <use xlink:href="#TimesNewRomanPSMT-31"/>
       <use xlink:href="#TimesNewRomanPSMT-30" x="50"/>
      </g>
     </g>
    </g>
    <g id="xtick_4">
     <g id="line2d_4">
      <g>
       <use xlink:href="#ma043046135" x="422.509091" y="384.48" style="fill: #58544f; stroke: #58544f; stroke-width: 0.8"/>
      </g>
     </g>
     <g id="text_4">
      <!-- 15 -->
      <g style="fill: #58544f" transform="translate(414.509091 402.59) scale(0.16 -0.16)">
       <use xlink:href="#TimesNewRomanPSMT-31"/>
       <use xlink:href="#TimesNewRomanPSMT-35" x="50"/>
      </g>
     </g>
    </g>
    <g id="xtick_5">
     <g id="line2d_5">
      <g>
       <use xlink:href="#ma043046135" x="523.963636" y="384.48" style="fill: #58544f; stroke: #58544f; stroke-width: 0.8"/>
      </g>
     </g>
     <g id="text_5">
      <!-- 20 -->
      <g style="fill: #58544f" transform="translate(515.963636 402.59) scale(0.16 -0.16)">
       <defs>
        <path id="TimesNewRomanPSMT-32" d="M 2934 816 
L 2638 0 
L 138 0 
L 138 116 
Q 1241 1122 1691 1759 
Q 2141 2397 2141 2925 
Q 2141 3328 1894 3587 
Q 1647 3847 1303 3847 
Q 991 3847 742 3664 
Q 494 3481 375 3128 
L 259 3128 
Q 338 3706 661 4015 
Q 984 4325 1469 4325 
Q 1984 4325 2329 3994 
Q 2675 3663 2675 3213 
Q 2675 2891 2525 2569 
Q 2294 2063 1775 1497 
Q 997 647 803 472 
L 1909 472 
Q 2247 472 2383 497 
Q 2519 522 2628 598 
Q 2738 675 2819 816 
L 2934 816 
z
" transform="scale(0.015625)"/>
       </defs>
       <use xlink:href="#TimesNewRomanPSMT-32"/>
       <use xlink:href="#TimesNewRomanPSMT-30" x="50"/>
      </g>
     </g>
    </g>
    <g id="xtick_6">
     <g id="line2d_6">
      <g>
       <use xlink:href="#ma043046135" x="625.418182" y="384.48" style="fill: #58544f; stroke: #58544f; stroke-width: 0.8"/>
      </g>
     </g>
     <g id="text_6">
      <!-- 25 -->
      <g style="fill: #58544f" transform="translate(617.418182 402.59) scale(0.16 -0.16)">
       <use xlink:href="#TimesNewRomanPSMT-32"/>
       <use xlink:href="#TimesNewRomanPSMT-35" x="50"/>
      </g>
     </g>
    </g>
    <g id="xtick_7">
     <g id="line2d_7">
      <g>
       <use xlink:href="#ma043046135" x="726.872727" y="384.48" style="fill: #58544f; stroke: #58544f; stroke-width: 0.8"/>
      </g>
     </g>
     <g id="text_7">
      <!-- 30 -->
      <g style="fill: #58544f" transform="translate(718.872727 402.59) scale(0.16 -0.16)">
       <defs>
        <path id="TimesNewRomanPSMT-33" d="M 325 3431 
Q 506 3859 782 4092 
Q 1059 4325 1472 4325 
Q 1981 4325 2253 3994 
Q 2459 3747 2459 3466 
Q 2459 3003 1878 2509 
Q 2269 2356 2469 2072 
Q 2669 1788 2669 1403 
Q 2669 853 2319 450 
Q 1863 -75 997 -75 
Q 569 -75 414 31 
Q 259 138 259 259 
Q 259 350 332 419 
Q 406 488 509 488 
Q 588 488 669 463 
Q 722 447 909 348 
Q 1097 250 1169 231 
Q 1284 197 1416 197 
Q 1734 197 1970 444 
Q 2206 691 2206 1028 
Q 2206 1275 2097 1509 
Q 2016 1684 1919 1775 
Q 1784 1900 1550 2001 
Q 1316 2103 1072 2103 
L 972 2103 
L 972 2197 
Q 1219 2228 1467 2375 
Q 1716 2522 1828 2728 
Q 1941 2934 1941 3181 
Q 1941 3503 1739 3701 
Q 1538 3900 1238 3900 
Q 753 3900 428 3381 
L 325 3431 
z
" transform="scale(0.015625)"/>
       </defs>
       <use xlink:href="#TimesNewRomanPSMT-33"/>
       <use xlink:href="#TimesNewRomanPSMT-30" x="50"/>
      </g>
     </g>
    </g>
    <g id="text_8">
     <!-- CreatedDate:Day -->
     <g style="fill: #58544f" transform="translate(373.3875 423.9) scale(0.2 -0.2)">
      <defs>
       <path id="TimesNewRomanPSMT-43" d="M 3853 4334 
L 3950 2894 
L 3853 2894 
Q 3659 3541 3300 3825 
Q 2941 4109 2438 4109 
Q 2016 4109 1675 3895 
Q 1334 3681 1139 3212 
Q 944 2744 944 2047 
Q 944 1472 1128 1050 
Q 1313 628 1683 403 
Q 2053 178 2528 178 
Q 2941 178 3256 354 
Q 3572 531 3950 1056 
L 4047 994 
Q 3728 428 3303 165 
Q 2878 -97 2294 -97 
Q 1241 -97 663 684 
Q 231 1266 231 2053 
Q 231 2688 515 3219 
Q 800 3750 1298 4042 
Q 1797 4334 2388 4334 
Q 2847 4334 3294 4109 
Q 3425 4041 3481 4041 
Q 3566 4041 3628 4100 
Q 3709 4184 3744 4334 
L 3853 4334 
z
" transform="scale(0.015625)"/>
       <path id="TimesNewRomanPSMT-72" d="M 1038 2947 
L 1038 2303 
Q 1397 2947 1775 2947 
Q 1947 2947 2059 2842 
Q 2172 2738 2172 2600 
Q 2172 2478 2090 2393 
Q 2009 2309 1897 2309 
Q 1788 2309 1652 2417 
Q 1516 2525 1450 2525 
Q 1394 2525 1328 2463 
Q 1188 2334 1038 2041 
L 1038 669 
Q 1038 431 1097 309 
Q 1138 225 1241 169 
Q 1344 113 1538 113 
L 1538 0 
L 72 0 
L 72 113 
Q 291 113 397 181 
Q 475 231 506 341 
Q 522 394 522 644 
L 522 1753 
Q 522 2253 501 2348 
Q 481 2444 426 2487 
Q 372 2531 291 2531 
Q 194 2531 72 2484 
L 41 2597 
L 906 2947 
L 1038 2947 
z
" transform="scale(0.015625)"/>
       <path id="TimesNewRomanPSMT-65" d="M 681 1784 
Q 678 1147 991 784 
Q 1303 422 1725 422 
Q 2006 422 2214 576 
Q 2422 731 2563 1106 
L 2659 1044 
Q 2594 616 2278 264 
Q 1963 -88 1488 -88 
Q 972 -88 605 314 
Q 238 716 238 1394 
Q 238 2128 614 2539 
Q 991 2950 1559 2950 
Q 2041 2950 2350 2633 
Q 2659 2316 2659 1784 
L 681 1784 
z
M 681 1966 
L 2006 1966 
Q 1991 2241 1941 2353 
Q 1863 2528 1708 2628 
Q 1553 2728 1384 2728 
Q 1125 2728 920 2526 
Q 716 2325 681 1966 
z
" transform="scale(0.015625)"/>
       <path id="TimesNewRomanPSMT-61" d="M 1822 413 
Q 1381 72 1269 19 
Q 1100 -59 909 -59 
Q 613 -59 420 144 
Q 228 347 228 678 
Q 228 888 322 1041 
Q 450 1253 767 1440 
Q 1084 1628 1822 1897 
L 1822 2009 
Q 1822 2438 1686 2597 
Q 1550 2756 1291 2756 
Q 1094 2756 978 2650 
Q 859 2544 859 2406 
L 866 2225 
Q 866 2081 792 2003 
Q 719 1925 600 1925 
Q 484 1925 411 2006 
Q 338 2088 338 2228 
Q 338 2497 613 2722 
Q 888 2947 1384 2947 
Q 1766 2947 2009 2819 
Q 2194 2722 2281 2516 
Q 2338 2381 2338 1966 
L 2338 994 
Q 2338 584 2353 492 
Q 2369 400 2405 369 
Q 2441 338 2488 338 
Q 2538 338 2575 359 
Q 2641 400 2828 588 
L 2828 413 
Q 2478 -56 2159 -56 
Q 2006 -56 1915 50 
Q 1825 156 1822 413 
z
M 1822 616 
L 1822 1706 
Q 1350 1519 1213 1441 
Q 966 1303 859 1153 
Q 753 1003 753 825 
Q 753 600 887 451 
Q 1022 303 1197 303 
Q 1434 303 1822 616 
z
" transform="scale(0.015625)"/>
       <path id="TimesNewRomanPSMT-74" d="M 1031 3803 
L 1031 2863 
L 1700 2863 
L 1700 2644 
L 1031 2644 
L 1031 788 
Q 1031 509 1111 412 
Q 1191 316 1316 316 
Q 1419 316 1516 380 
Q 1613 444 1666 569 
L 1788 569 
Q 1678 263 1478 108 
Q 1278 -47 1066 -47 
Q 922 -47 784 33 
Q 647 113 581 261 
Q 516 409 516 719 
L 516 2644 
L 63 2644 
L 63 2747 
Q 234 2816 414 2980 
Q 594 3144 734 3369 
Q 806 3488 934 3803 
L 1031 3803 
z
" transform="scale(0.015625)"/>
       <path id="TimesNewRomanPSMT-64" d="M 2222 322 
Q 2013 103 1813 7 
Q 1613 -88 1381 -88 
Q 913 -88 563 304 
Q 213 697 213 1313 
Q 213 1928 600 2439 
Q 988 2950 1597 2950 
Q 1975 2950 2222 2709 
L 2222 3238 
Q 2222 3728 2198 3840 
Q 2175 3953 2125 3993 
Q 2075 4034 2000 4034 
Q 1919 4034 1784 3984 
L 1744 4094 
L 2597 4444 
L 2738 4444 
L 2738 1134 
Q 2738 631 2761 520 
Q 2784 409 2836 365 
Q 2888 322 2956 322 
Q 3041 322 3181 375 
L 3216 266 
L 2366 -88 
L 2222 -88 
L 2222 322 
z
M 2222 541 
L 2222 2016 
Q 2203 2228 2109 2403 
Q 2016 2578 1861 2667 
Q 1706 2756 1559 2756 
Q 1284 2756 1069 2509 
Q 784 2184 784 1559 
Q 784 928 1059 592 
Q 1334 256 1672 256 
Q 1956 256 2222 541 
z
" transform="scale(0.015625)"/>
       <path id="TimesNewRomanPSMT-44" d="M 109 0 
L 109 116 
L 269 116 
Q 538 116 650 288 
Q 719 391 719 750 
L 719 3488 
Q 719 3884 631 3984 
Q 509 4122 269 4122 
L 109 4122 
L 109 4238 
L 1834 4238 
Q 2784 4238 3279 4022 
Q 3775 3806 4076 3303 
Q 4378 2800 4378 2141 
Q 4378 1256 3841 663 
Q 3238 0 2003 0 
L 109 0 
z
M 1319 306 
Q 1716 219 1984 219 
Q 2709 219 3187 728 
Q 3666 1238 3666 2109 
Q 3666 2988 3187 3494 
Q 2709 4000 1959 4000 
Q 1678 4000 1319 3909 
L 1319 306 
z
" transform="scale(0.015625)"/>
       <path id="TimesNewRomanPSMT-3a" d="M 903 2950 
Q 1047 2950 1148 2848 
Q 1250 2747 1250 2603 
Q 1250 2459 1148 2357 
Q 1047 2256 903 2256 
Q 759 2256 657 2357 
Q 556 2459 556 2603 
Q 556 2747 657 2848 
Q 759 2950 903 2950 
z
M 897 609 
Q 1044 609 1145 506 
Q 1247 403 1247 259 
Q 1247 116 1144 14 
Q 1041 -88 897 -88 
Q 753 -88 651 14 
Q 550 116 550 259 
Q 550 403 651 506 
Q 753 609 897 609 
z
" transform="scale(0.015625)"/>
       <path id="TimesNewRomanPSMT-79" d="M 38 2863 
L 1372 2863 
L 1372 2747 
L 1306 2747 
Q 1166 2747 1095 2686 
Q 1025 2625 1025 2534 
Q 1025 2413 1128 2197 
L 1825 753 
L 2466 2334 
Q 2519 2463 2519 2588 
Q 2519 2644 2497 2672 
Q 2472 2706 2419 2726 
Q 2366 2747 2231 2747 
L 2231 2863 
L 3163 2863 
L 3163 2747 
Q 3047 2734 2984 2696 
Q 2922 2659 2847 2556 
Q 2819 2513 2741 2316 
L 1575 -541 
Q 1406 -956 1132 -1168 
Q 859 -1381 606 -1381 
Q 422 -1381 303 -1275 
Q 184 -1169 184 -1031 
Q 184 -900 270 -820 
Q 356 -741 506 -741 
Q 609 -741 788 -809 
Q 913 -856 944 -856 
Q 1038 -856 1148 -759 
Q 1259 -663 1372 -384 
L 1575 113 
L 547 2272 
Q 500 2369 397 2513 
Q 319 2622 269 2659 
Q 197 2709 38 2747 
L 38 2863 
z
" transform="scale(0.015625)"/>
      </defs>
      <use xlink:href="#TimesNewRomanPSMT-43"/>
      <use xlink:href="#TimesNewRomanPSMT-72" x="66.699219"/>
      <use xlink:href="#TimesNewRomanPSMT-65" x="100"/>
      <use xlink:href="#TimesNewRomanPSMT-61" x="144.384766"/>
      <use xlink:href="#TimesNewRomanPSMT-74" x="188.769531"/>
      <use xlink:href="#TimesNewRomanPSMT-65" x="216.552734"/>
      <use xlink:href="#TimesNewRomanPSMT-64" x="260.9375"/>
      <use xlink:href="#TimesNewRomanPSMT-44" x="310.9375"/>
      <use xlink:href="#TimesNewRomanPSMT-61" x="383.154297"/>
      <use xlink:href="#TimesNewRomanPSMT-74" x="427.539062"/>
      <use xlink:href="#TimesNewRomanPSMT-65" x="455.322266"/>
      <use xlink:href="#TimesNewRomanPSMT-3a" x="499.707031"/>
      <use xlink:href="#TimesNewRomanPSMT-44" x="527.490234"/>
      <use xlink:href="#TimesNewRomanPSMT-61" x="599.707031"/>
      <use xlink:href="#TimesNewRomanPSMT-79" x="644.091797"/>
     </g>
    </g>
   </g>
   <g id="matplotlib.axis_2">
    <g id="ytick_1">
     <g id="line2d_8">
      <defs>
       <path id="m18935a6bc2" d="M 0 0 
L -3.5 0 
" style="stroke: #ff0000; stroke-width: 0.8"/>
      </defs>
      <g>
       <use xlink:href="#m18935a6bc2" x="108" y="381.56332" style="fill: #ff0000; stroke: #ff0000; stroke-width: 0.8"/>
      </g>
     </g>
     <g id="text_9">
      <!-- 2.30 -->
      <g style="fill: #ff0000" transform="translate(73 387.11832) scale(0.16 -0.16)">
       <defs>
        <path id="TimesNewRomanPSMT-2e" d="M 800 606 
Q 947 606 1047 504 
Q 1147 403 1147 259 
Q 1147 116 1045 14 
Q 944 -88 800 -88 
Q 656 -88 554 14 
Q 453 116 453 259 
Q 453 406 554 506 
Q 656 606 800 606 
z
" transform="scale(0.015625)"/>
       </defs>
       <use xlink:href="#TimesNewRomanPSMT-32"/>
       <use xlink:href="#TimesNewRomanPSMT-2e" x="50"/>
       <use xlink:href="#TimesNewRomanPSMT-33" x="75"/>
       <use xlink:href="#TimesNewRomanPSMT-30" x="125"/>
      </g>
     </g>
    </g>
    <g id="ytick_2">
     <g id="line2d_9">
      <g>
       <use xlink:href="#m18935a6bc2" x="108" y="344.201765" style="fill: #ff0000; stroke: #ff0000; stroke-width: 0.8"/>
      </g>
     </g>
     <g id="text_10">
      <!-- 2.35 -->
      <g style="fill: #ff0000" transform="translate(73 349.756765) scale(0.16 -0.16)">
       <use xlink:href="#TimesNewRomanPSMT-32"/>
       <use xlink:href="#TimesNewRomanPSMT-2e" x="50"/>
       <use xlink:href="#TimesNewRomanPSMT-33" x="75"/>
       <use xlink:href="#TimesNewRomanPSMT-35" x="125"/>
      </g>
     </g>
    </g>
    <g id="ytick_3">
     <g id="line2d_10">
      <g>
       <use xlink:href="#m18935a6bc2" x="108" y="306.840211" style="fill: #ff0000; stroke: #ff0000; stroke-width: 0.8"/>
      </g>
     </g>
     <g id="text_11">
      <!-- 2.40 -->
      <g style="fill: #ff0000" transform="translate(73 312.395211) scale(0.16 -0.16)">
       <defs>
        <path id="TimesNewRomanPSMT-34" d="M 2978 1563 
L 2978 1119 
L 2409 1119 
L 2409 0 
L 1894 0 
L 1894 1119 
L 100 1119 
L 100 1519 
L 2066 4325 
L 2409 4325 
L 2409 1563 
L 2978 1563 
z
M 1894 1563 
L 1894 3666 
L 406 1563 
L 1894 1563 
z
" transform="scale(0.015625)"/>
       </defs>
       <use xlink:href="#TimesNewRomanPSMT-32"/>
       <use xlink:href="#TimesNewRomanPSMT-2e" x="50"/>
       <use xlink:href="#TimesNewRomanPSMT-34" x="75"/>
       <use xlink:href="#TimesNewRomanPSMT-30" x="125"/>
      </g>
     </g>
    </g>
    <g id="ytick_4">
     <g id="line2d_11">
      <g>
       <use xlink:href="#m18935a6bc2" x="108" y="269.478656" style="fill: #ff0000; stroke: #ff0000; stroke-width: 0.8"/>
      </g>
     </g>
     <g id="text_12">
      <!-- 2.45 -->
      <g style="fill: #ff0000" transform="translate(73 275.033656) scale(0.16 -0.16)">
       <use xlink:href="#TimesNewRomanPSMT-32"/>
       <use xlink:href="#TimesNewRomanPSMT-2e" x="50"/>
       <use xlink:href="#TimesNewRomanPSMT-34" x="75"/>
       <use xlink:href="#TimesNewRomanPSMT-35" x="125"/>
      </g>
     </g>
    </g>
    <g id="ytick_5">
     <g id="line2d_12">
      <g>
       <use xlink:href="#m18935a6bc2" x="108" y="232.117101" style="fill: #ff0000; stroke: #ff0000; stroke-width: 0.8"/>
      </g>
     </g>
     <g id="text_13">
      <!-- 2.50 -->
      <g style="fill: #ff0000" transform="translate(73 237.672101) scale(0.16 -0.16)">
       <use xlink:href="#TimesNewRomanPSMT-32"/>
       <use xlink:href="#TimesNewRomanPSMT-2e" x="50"/>
       <use xlink:href="#TimesNewRomanPSMT-35" x="75"/>
       <use xlink:href="#TimesNewRomanPSMT-30" x="125"/>
      </g>
     </g>
    </g>
    <g id="ytick_6">
     <g id="line2d_13">
      <g>
       <use xlink:href="#m18935a6bc2" x="108" y="194.755547" style="fill: #ff0000; stroke: #ff0000; stroke-width: 0.8"/>
      </g>
     </g>
     <g id="text_14">
      <!-- 2.55 -->
      <g style="fill: #ff0000" transform="translate(73 200.310547) scale(0.16 -0.16)">
       <use xlink:href="#TimesNewRomanPSMT-32"/>
       <use xlink:href="#TimesNewRomanPSMT-2e" x="50"/>
       <use xlink:href="#TimesNewRomanPSMT-35" x="75"/>
       <use xlink:href="#TimesNewRomanPSMT-35" x="125"/>
      </g>
     </g>
    </g>
    <g id="ytick_7">
     <g id="line2d_14">
      <g>
       <use xlink:href="#m18935a6bc2" x="108" y="157.393992" style="fill: #ff0000; stroke: #ff0000; stroke-width: 0.8"/>
      </g>
     </g>
     <g id="text_15">
      <!-- 2.60 -->
      <g style="fill: #ff0000" transform="translate(73 162.948992) scale(0.16 -0.16)">
       <defs>
        <path id="TimesNewRomanPSMT-36" d="M 2869 4325 
L 2869 4209 
Q 2456 4169 2195 4045 
Q 1934 3922 1679 3669 
Q 1425 3416 1258 3105 
Q 1091 2794 978 2366 
Q 1428 2675 1881 2675 
Q 2316 2675 2634 2325 
Q 2953 1975 2953 1425 
Q 2953 894 2631 456 
Q 2244 -75 1606 -75 
Q 1172 -75 869 213 
Q 275 772 275 1663 
Q 275 2231 503 2743 
Q 731 3256 1154 3653 
Q 1578 4050 1965 4187 
Q 2353 4325 2688 4325 
L 2869 4325 
z
M 925 2138 
Q 869 1716 869 1456 
Q 869 1156 980 804 
Q 1091 453 1309 247 
Q 1469 100 1697 100 
Q 1969 100 2183 356 
Q 2397 613 2397 1088 
Q 2397 1622 2184 2012 
Q 1972 2403 1581 2403 
Q 1463 2403 1327 2353 
Q 1191 2303 925 2138 
z
" transform="scale(0.015625)"/>
       </defs>
       <use xlink:href="#TimesNewRomanPSMT-32"/>
       <use xlink:href="#TimesNewRomanPSMT-2e" x="50"/>
       <use xlink:href="#TimesNewRomanPSMT-36" x="75"/>
       <use xlink:href="#TimesNewRomanPSMT-30" x="125"/>
      </g>
     </g>
    </g>
    <g id="ytick_8">
     <g id="line2d_15">
      <g>
       <use xlink:href="#m18935a6bc2" x="108" y="120.032437" style="fill: #ff0000; stroke: #ff0000; stroke-width: 0.8"/>
      </g>
     </g>
     <g id="text_16">
      <!-- 2.65 -->
      <g style="fill: #ff0000" transform="translate(73 125.587437) scale(0.16 -0.16)">
       <use xlink:href="#TimesNewRomanPSMT-32"/>
       <use xlink:href="#TimesNewRomanPSMT-2e" x="50"/>
       <use xlink:href="#TimesNewRomanPSMT-36" x="75"/>
       <use xlink:href="#TimesNewRomanPSMT-35" x="125"/>
      </g>
     </g>
    </g>
    <g id="ytick_9">
     <g id="line2d_16">
      <g>
       <use xlink:href="#m18935a6bc2" x="108" y="82.670883" style="fill: #ff0000; stroke: #ff0000; stroke-width: 0.8"/>
      </g>
     </g>
     <g id="text_17">
      <!-- 2.70 -->
      <g style="fill: #ff0000" transform="translate(73 88.225883) scale(0.16 -0.16)">
       <defs>
        <path id="TimesNewRomanPSMT-37" d="M 644 4238 
L 2916 4238 
L 2916 4119 
L 1503 -88 
L 1153 -88 
L 2419 3728 
L 1253 3728 
Q 900 3728 750 3644 
Q 488 3500 328 3200 
L 238 3234 
L 644 4238 
z
" transform="scale(0.015625)"/>
       </defs>
       <use xlink:href="#TimesNewRomanPSMT-32"/>
       <use xlink:href="#TimesNewRomanPSMT-2e" x="50"/>
       <use xlink:href="#TimesNewRomanPSMT-37" x="75"/>
       <use xlink:href="#TimesNewRomanPSMT-30" x="125"/>
      </g>
     </g>
    </g>
    <g id="text_18">
     <!-- UnderConstructionTime -->
     <g style="fill: #ff0000" transform="translate(64.721875 315.569375) rotate(-90) scale(0.2 -0.2)">
      <defs>
       <path id="TimesNewRomanPSMT-55" d="M 3053 4122 
L 3053 4238 
L 4553 4238 
L 4553 4122 
L 4394 4122 
Q 4144 4122 4009 3913 
Q 3944 3816 3944 3463 
L 3944 1744 
Q 3944 1106 3817 754 
Q 3691 403 3320 151 
Q 2950 -100 2313 -100 
Q 1619 -100 1259 140 
Q 900 381 750 788 
Q 650 1066 650 1831 
L 650 3488 
Q 650 3878 542 4000 
Q 434 4122 194 4122 
L 34 4122 
L 34 4238 
L 1866 4238 
L 1866 4122 
L 1703 4122 
Q 1441 4122 1328 3956 
Q 1250 3844 1250 3488 
L 1250 1641 
Q 1250 1394 1295 1075 
Q 1341 756 1459 578 
Q 1578 400 1801 284 
Q 2025 169 2350 169 
Q 2766 169 3094 350 
Q 3422 531 3542 814 
Q 3663 1097 3663 1772 
L 3663 3488 
Q 3663 3884 3575 3984 
Q 3453 4122 3213 4122 
L 3053 4122 
z
" transform="scale(0.015625)"/>
       <path id="TimesNewRomanPSMT-6e" d="M 1034 2341 
Q 1538 2947 1994 2947 
Q 2228 2947 2397 2830 
Q 2566 2713 2666 2444 
Q 2734 2256 2734 1869 
L 2734 647 
Q 2734 375 2778 278 
Q 2813 200 2889 156 
Q 2966 113 3172 113 
L 3172 0 
L 1756 0 
L 1756 113 
L 1816 113 
Q 2016 113 2095 173 
Q 2175 234 2206 353 
Q 2219 400 2219 647 
L 2219 1819 
Q 2219 2209 2117 2386 
Q 2016 2563 1775 2563 
Q 1403 2563 1034 2156 
L 1034 647 
Q 1034 356 1069 288 
Q 1113 197 1189 155 
Q 1266 113 1500 113 
L 1500 0 
L 84 0 
L 84 113 
L 147 113 
Q 366 113 442 223 
Q 519 334 519 647 
L 519 1709 
Q 519 2225 495 2337 
Q 472 2450 423 2490 
Q 375 2531 294 2531 
Q 206 2531 84 2484 
L 38 2597 
L 900 2947 
L 1034 2947 
L 1034 2341 
z
" transform="scale(0.015625)"/>
       <path id="TimesNewRomanPSMT-6f" d="M 1600 2947 
Q 2250 2947 2644 2453 
Q 2978 2031 2978 1484 
Q 2978 1100 2793 706 
Q 2609 313 2286 112 
Q 1963 -88 1566 -88 
Q 919 -88 538 428 
Q 216 863 216 1403 
Q 216 1797 411 2186 
Q 606 2575 925 2761 
Q 1244 2947 1600 2947 
z
M 1503 2744 
Q 1338 2744 1170 2645 
Q 1003 2547 900 2300 
Q 797 2053 797 1666 
Q 797 1041 1045 587 
Q 1294 134 1700 134 
Q 2003 134 2200 384 
Q 2397 634 2397 1244 
Q 2397 2006 2069 2444 
Q 1847 2744 1503 2744 
z
" transform="scale(0.015625)"/>
       <path id="TimesNewRomanPSMT-73" d="M 2050 2947 
L 2050 1972 
L 1947 1972 
Q 1828 2431 1642 2597 
Q 1456 2763 1169 2763 
Q 950 2763 815 2647 
Q 681 2531 681 2391 
Q 681 2216 781 2091 
Q 878 1963 1175 1819 
L 1631 1597 
Q 2266 1288 2266 781 
Q 2266 391 1970 151 
Q 1675 -88 1309 -88 
Q 1047 -88 709 6 
Q 606 38 541 38 
Q 469 38 428 -44 
L 325 -44 
L 325 978 
L 428 978 
Q 516 541 762 319 
Q 1009 97 1316 97 
Q 1531 97 1667 223 
Q 1803 350 1803 528 
Q 1803 744 1651 891 
Q 1500 1038 1047 1263 
Q 594 1488 453 1669 
Q 313 1847 313 2119 
Q 313 2472 555 2709 
Q 797 2947 1181 2947 
Q 1350 2947 1591 2875 
Q 1750 2828 1803 2828 
Q 1853 2828 1881 2850 
Q 1909 2872 1947 2947 
L 2050 2947 
z
" transform="scale(0.015625)"/>
       <path id="TimesNewRomanPSMT-75" d="M 2709 2863 
L 2709 1128 
Q 2709 631 2732 520 
Q 2756 409 2807 365 
Q 2859 322 2928 322 
Q 3025 322 3147 375 
L 3191 266 
L 2334 -88 
L 2194 -88 
L 2194 519 
Q 1825 119 1631 15 
Q 1438 -88 1222 -88 
Q 981 -88 804 51 
Q 628 191 559 409 
Q 491 628 491 1028 
L 491 2306 
Q 491 2509 447 2587 
Q 403 2666 317 2708 
Q 231 2750 6 2747 
L 6 2863 
L 1009 2863 
L 1009 947 
Q 1009 547 1148 422 
Q 1288 297 1484 297 
Q 1619 297 1789 381 
Q 1959 466 2194 703 
L 2194 2325 
Q 2194 2569 2105 2655 
Q 2016 2741 1734 2747 
L 1734 2863 
L 2709 2863 
z
" transform="scale(0.015625)"/>
       <path id="TimesNewRomanPSMT-63" d="M 2631 1088 
Q 2516 522 2178 217 
Q 1841 -88 1431 -88 
Q 944 -88 581 321 
Q 219 731 219 1428 
Q 219 2103 620 2525 
Q 1022 2947 1584 2947 
Q 2006 2947 2278 2723 
Q 2550 2500 2550 2259 
Q 2550 2141 2473 2067 
Q 2397 1994 2259 1994 
Q 2075 1994 1981 2113 
Q 1928 2178 1911 2362 
Q 1894 2547 1784 2644 
Q 1675 2738 1481 2738 
Q 1169 2738 978 2506 
Q 725 2200 725 1697 
Q 725 1184 976 792 
Q 1228 400 1656 400 
Q 1963 400 2206 609 
Q 2378 753 2541 1131 
L 2631 1088 
z
" transform="scale(0.015625)"/>
       <path id="TimesNewRomanPSMT-69" d="M 928 4444 
Q 1059 4444 1151 4351 
Q 1244 4259 1244 4128 
Q 1244 3997 1151 3903 
Q 1059 3809 928 3809 
Q 797 3809 703 3903 
Q 609 3997 609 4128 
Q 609 4259 701 4351 
Q 794 4444 928 4444 
z
M 1188 2947 
L 1188 647 
Q 1188 378 1227 289 
Q 1266 200 1342 156 
Q 1419 113 1622 113 
L 1622 0 
L 231 0 
L 231 113 
Q 441 113 512 153 
Q 584 194 626 287 
Q 669 381 669 647 
L 669 1750 
Q 669 2216 641 2353 
Q 619 2453 572 2492 
Q 525 2531 444 2531 
Q 356 2531 231 2484 
L 188 2597 
L 1050 2947 
L 1188 2947 
z
" transform="scale(0.015625)"/>
       <path id="TimesNewRomanPSMT-54" d="M 3703 4238 
L 3750 3244 
L 3631 3244 
Q 3597 3506 3538 3619 
Q 3441 3800 3280 3886 
Q 3119 3972 2856 3972 
L 2259 3972 
L 2259 734 
Q 2259 344 2344 247 
Q 2463 116 2709 116 
L 2856 116 
L 2856 0 
L 1059 0 
L 1059 116 
L 1209 116 
Q 1478 116 1591 278 
Q 1659 378 1659 734 
L 1659 3972 
L 1150 3972 
Q 853 3972 728 3928 
Q 566 3869 450 3700 
Q 334 3531 313 3244 
L 194 3244 
L 244 4238 
L 3703 4238 
z
" transform="scale(0.015625)"/>
       <path id="TimesNewRomanPSMT-6d" d="M 1050 2338 
Q 1363 2650 1419 2697 
Q 1559 2816 1721 2881 
Q 1884 2947 2044 2947 
Q 2313 2947 2506 2790 
Q 2700 2634 2766 2338 
Q 3088 2713 3309 2830 
Q 3531 2947 3766 2947 
Q 3994 2947 4170 2830 
Q 4347 2713 4450 2447 
Q 4519 2266 4519 1878 
L 4519 647 
Q 4519 378 4559 278 
Q 4591 209 4675 161 
Q 4759 113 4950 113 
L 4950 0 
L 3538 0 
L 3538 113 
L 3597 113 
Q 3781 113 3884 184 
Q 3956 234 3988 344 
Q 4000 397 4000 647 
L 4000 1878 
Q 4000 2228 3916 2372 
Q 3794 2572 3525 2572 
Q 3359 2572 3192 2489 
Q 3025 2406 2788 2181 
L 2781 2147 
L 2788 2013 
L 2788 647 
Q 2788 353 2820 281 
Q 2853 209 2943 161 
Q 3034 113 3253 113 
L 3253 0 
L 1806 0 
L 1806 113 
Q 2044 113 2133 169 
Q 2222 225 2256 338 
Q 2272 391 2272 647 
L 2272 1878 
Q 2272 2228 2169 2381 
Q 2031 2581 1784 2581 
Q 1616 2581 1450 2491 
Q 1191 2353 1050 2181 
L 1050 647 
Q 1050 366 1089 281 
Q 1128 197 1204 155 
Q 1281 113 1516 113 
L 1516 0 
L 100 0 
L 100 113 
Q 297 113 375 155 
Q 453 197 493 289 
Q 534 381 534 647 
L 534 1741 
Q 534 2213 506 2350 
Q 484 2453 437 2492 
Q 391 2531 309 2531 
Q 222 2531 100 2484 
L 53 2597 
L 916 2947 
L 1050 2947 
L 1050 2338 
z
" transform="scale(0.015625)"/>
      </defs>
      <use xlink:href="#TimesNewRomanPSMT-55"/>
      <use xlink:href="#TimesNewRomanPSMT-6e" x="72.216797"/>
      <use xlink:href="#TimesNewRomanPSMT-64" x="122.216797"/>
      <use xlink:href="#TimesNewRomanPSMT-65" x="172.216797"/>
      <use xlink:href="#TimesNewRomanPSMT-72" x="216.601562"/>
      <use xlink:href="#TimesNewRomanPSMT-43" x="249.902344"/>
      <use xlink:href="#TimesNewRomanPSMT-6f" x="316.601562"/>
      <use xlink:href="#TimesNewRomanPSMT-6e" x="366.601562"/>
      <use xlink:href="#TimesNewRomanPSMT-73" x="416.601562"/>
      <use xlink:href="#TimesNewRomanPSMT-74" x="455.517578"/>
      <use xlink:href="#TimesNewRomanPSMT-72" x="483.300781"/>
      <use xlink:href="#TimesNewRomanPSMT-75" x="516.601562"/>
      <use xlink:href="#TimesNewRomanPSMT-63" x="566.601562"/>
      <use xlink:href="#TimesNewRomanPSMT-74" x="610.986328"/>
      <use xlink:href="#TimesNewRomanPSMT-69" x="638.769531"/>
      <use xlink:href="#TimesNewRomanPSMT-6f" x="666.552734"/>
      <use xlink:href="#TimesNewRomanPSMT-6e" x="716.552734"/>
      <use xlink:href="#TimesNewRomanPSMT-54" x="766.552734"/>
      <use xlink:href="#TimesNewRomanPSMT-69" x="824.136719"/>
      <use xlink:href="#TimesNewRomanPSMT-6d" x="851.919922"/>
      <use xlink:href="#TimesNewRomanPSMT-65" x="929.703125"/>
     </g>
    </g>
   </g>
   <g id="line2d_17">
    <path d="M 138.436364 201.723012 
L 144.523637 213.611229 
L 150.610909 223.718263 
L 156.698182 232.186584 
L 162.785455 239.153975 
L 168.872728 244.753381 
L 174.960001 249.112783 
L 181.047274 252.35507 
L 187.134547 254.597934 
L 193.22182 255.953775 
L 199.309092 256.529623 
L 205.396365 256.427071 
L 211.483638 255.742224 
L 217.570911 254.565667 
L 223.658184 252.982449 
L 229.745457 251.072072 
L 235.83273 248.908514 
L 241.920003 246.560253 
L 248.007276 244.090315 
L 254.094548 241.556335 
L 260.181821 239.010635 
L 266.269094 236.500315 
L 272.356367 234.067365 
L 278.44364 231.748785 
L 284.530913 229.576723 
L 290.618186 227.578626 
L 296.705459 225.777403 
L 302.792731 224.191603 
L 308.880004 222.8356 
L 314.967277 221.719796 
L 321.05455 220.850824 
L 327.141823 220.231769 
L 333.229096 219.862389 
L 339.316369 219.739352 
L 345.403642 219.85647 
L 351.490915 220.20494 
L 357.578187 220.773593 
L 363.66546 221.549137 
L 369.752733 222.51641 
L 375.840006 223.658623 
L 381.927279 224.957613 
L 388.014552 226.394077 
L 394.101825 227.947823 
L 400.189098 229.597994 
L 406.276371 231.323304 
L 412.363643 233.10225 
L 418.450916 234.913331 
L 424.538189 236.735242 
L 430.625462 238.547071 
L 436.712735 240.328471 
L 442.800008 242.05983 
L 448.887281 243.72242 
L 454.974554 245.298535 
L 461.061826 246.771615 
L 467.149099 248.12635 
L 473.236372 249.348776 
L 479.323645 250.426344 
L 485.410918 251.347985 
L 491.498191 252.104152 
L 497.585464 252.686845 
L 503.672737 253.08963 
L 509.76001 253.307634 
L 515.847282 253.337532 
L 521.934555 253.17752 
L 528.021828 252.827282 
L 534.109101 252.287941 
L 540.196374 251.562009 
L 546.283647 250.65333 
L 552.37092 249.567025 
L 558.458193 248.309433 
L 564.545465 246.888061 
L 570.632738 245.311541 
L 576.720011 243.589601 
L 582.807284 241.733052 
L 588.894557 239.7538 
L 594.98183 237.664879 
L 601.069103 235.480529 
L 607.156376 233.216302 
L 613.243649 230.889228 
L 619.330921 228.518021 
L 625.418194 226.123364 
L 631.505467 223.728248 
L 637.59274 221.35841 
L 643.680013 219.042842 
L 649.767286 216.81442 
L 655.854559 214.710627 
L 661.941832 212.774416 
L 668.029105 211.055195 
L 674.116377 209.609973 
L 680.20365 208.504661 
L 686.290923 207.815559 
L 692.378196 207.631029 
L 698.465469 208.053386 
L 704.552742 209.201009 
L 710.640015 211.210708 
L 716.727288 214.240344 
L 722.81456 218.471744 
L 728.901833 224.113919 
L 734.989106 231.406606 
L 741.076379 240.624167 
" clip-path="url(#pfc4a627da4)" style="fill: none; stroke: #ff0000; stroke-width: 1.5; stroke-linecap: square"/>
   </g>
   <g id="line2d_18">
    <path d="M 138.436364 303.754872 
L 144.523635 66.96 
L 150.61091 225.917884 
L 156.698181 178.051172 
L 162.785456 356.330189 
L 168.872727 116.251587 
L 174.959999 291.142298 
L 181.047271 334.016251 
L 187.134547 256.567994 
L 193.221819 227.017449 
L 199.309091 277.87483 
L 205.396368 223.476643 
L 211.483634 369.36 
L 217.570911 282.629041 
L 223.658178 201.355289 
L 229.745455 333.17679 
L 235.832731 216.447586 
L 241.919998 249.644582 
L 248.007275 239.924512 
L 254.094542 192.537033 
L 260.181818 235.858687 
L 266.269095 121.905119 
L 272.356362 188.118463 
L 278.443638 209.312349 
L 284.530905 153.491248 
L 290.618182 261.571265 
L 296.705458 253.630239 
L 302.792735 220.136972 
L 308.879992 226.508642 
L 314.967269 259.018678 
L 321.054545 291.741963 
L 327.141822 133.076251 
L 333.229099 313.270422 
L 339.316356 275.757294 
L 345.403632 247.615054 
L 351.490909 222.45315 
L 357.578186 272.587404 
L 363.665462 180.242641 
L 369.75272 193.533269 
L 375.839996 203.413499 
L 381.927273 220.514837 
L 388.014549 177.941429 
L 394.101826 269.086326 
L 400.189083 238.816574 
L 406.27636 344.210922 
L 412.363636 102.771403 
L 418.450913 313.980364 
L 424.53819 251.844781 
L 430.625447 267.044683 
L 436.712723 192.628604 
L 442.8 240.840935 
L 448.887257 187.488333 
L 454.974553 286.616123 
L 461.06181 126.39014 
L 467.149106 203.547293 
L 473.236364 246.155441 
L 479.323621 266.878644 
L 485.410917 239.86875 
L 491.498174 182.468673 
L 497.58547 289.102259 
L 503.672727 313.283249 
L 509.759985 290.353789 
L 515.84728 273.39925 
L 521.934538 276.310818 
L 528.021834 220.098491 
L 534.109091 200.821006 
L 540.196348 338.701339 
L 546.283644 314.830871 
L 552.370901 219.768194 
L 558.458197 278.580853 
L 564.545455 280.517563 
L 570.632712 214.081882 
L 576.720008 159.521932 
L 582.807265 199.570188 
L 588.894561 257.475866 
L 594.981818 219.174229 
L 601.069075 226.415646 
L 607.156371 299.922963 
L 613.243629 236.505029 
L 619.330925 249.209174 
L 625.418182 232.380591 
L 631.505439 166.25757 
L 637.592735 247.629307 
L 643.679992 235.955602 
L 649.767288 285.348915 
L 655.854545 180.697824 
L 661.941803 152.176652 
L 668.029099 114.271586 
L 674.116356 201.509214 
L 680.203652 282.96112 
L 686.290909 210.664002 
L 692.378166 241.271355 
L 698.465462 203.727228 
L 704.55272 199.232408 
L 710.640015 167.113599 
L 716.727273 330.755502 
L 722.81453 148.349196 
L 728.901826 213.961628 
L 734.989083 266.565093 
L 741.076379 218.000018 
" clip-path="url(#pfc4a627da4)" style="fill: none; stroke: #ffa500; stroke-width: 1.5; stroke-linecap: square"/>
   </g>
   <g id="patch_3">
    <path d="M 108 384.48 
L 108 51.84 
" style="fill: none; stroke: #58544f; stroke-width: 0.8; stroke-linejoin: miter; stroke-linecap: square"/>
   </g>
   <g id="patch_4">
    <path d="M 777.6 384.48 
L 777.6 51.84 
" style="fill: none; stroke: #58544f; stroke-width: 0.8; stroke-linejoin: miter; stroke-linecap: square"/>
   </g>
   <g id="patch_5">
    <path d="M 108 384.48 
L 777.6 384.48 
" style="fill: none; stroke: #58544f; stroke-width: 0.8; stroke-linejoin: miter; stroke-linecap: square"/>
   </g>
   <g id="patch_6">
    <path d="M 108 51.84 
L 777.6 51.84 
" style="fill: none; stroke: #58544f; stroke-width: 0.8; stroke-linejoin: miter; stroke-linecap: square"/>
   </g>
  </g>
  <g id="axes_2">
   <g id="patch_7">
    <path d="M 138.436364 384.48 
L 150.610909 384.48 
L 150.610909 158.185822 
L 138.436364 158.185822 
z
" clip-path="url(#pfc4a627da4)" style="fill: #0088ed; opacity: 0.4"/>
   </g>
   <g id="patch_8">
    <path d="M 150.610909 384.48 
L 162.785455 384.48 
L 162.785455 67.68 
L 150.610909 67.68 
z
" clip-path="url(#pfc4a627da4)" style="fill: #0088ed; opacity: 0.4"/>
   </g>
   <g id="patch_9">
    <path d="M 162.785455 384.48 
L 174.96 384.48 
L 174.96 384.48 
L 162.785455 384.48 
z
" clip-path="url(#pfc4a627da4)" style="fill: #0088ed; opacity: 0.4"/>
   </g>
   <g id="patch_10">
    <path d="M 174.96 384.48 
L 187.134545 384.48 
L 187.134545 171.219609 
L 174.96 171.219609 
z
" clip-path="url(#pfc4a627da4)" style="fill: #0088ed; opacity: 0.4"/>
   </g>
   <g id="patch_11">
    <path d="M 187.134545 384.48 
L 199.309091 384.48 
L 199.309091 384.48 
L 187.134545 384.48 
z
" clip-path="url(#pfc4a627da4)" style="fill: #0088ed; opacity: 0.4"/>
   </g>
   <g id="patch_12">
    <path d="M 199.309091 384.48 
L 211.483636 384.48 
L 211.483636 111.204947 
L 199.309091 111.204947 
z
" clip-path="url(#pfc4a627da4)" style="fill: #0088ed; opacity: 0.4"/>
   </g>
   <g id="patch_13">
    <path d="M 211.483636 384.48 
L 223.658182 384.48 
L 223.658182 173.016691 
L 211.483636 173.016691 
z
" clip-path="url(#pfc4a627da4)" style="fill: #0088ed; opacity: 0.4"/>
   </g>
   <g id="patch_14">
    <path d="M 223.658182 384.48 
L 235.832727 384.48 
L 235.832727 384.48 
L 223.658182 384.48 
z
" clip-path="url(#pfc4a627da4)" style="fill: #0088ed; opacity: 0.4"/>
   </g>
   <g id="patch_15">
    <path d="M 235.832727 384.48 
L 248.007273 384.48 
L 248.007273 90.735978 
L 235.832727 90.735978 
z
" clip-path="url(#pfc4a627da4)" style="fill: #0088ed; opacity: 0.4"/>
   </g>
   <g id="patch_16">
    <path d="M 248.007273 384.48 
L 260.181818 384.48 
L 260.181818 384.48 
L 248.007273 384.48 
z
" clip-path="url(#pfc4a627da4)" style="fill: #0088ed; opacity: 0.4"/>
   </g>
   <g id="patch_17">
    <path d="M 260.181818 384.48 
L 272.356364 384.48 
L 272.356364 195.253121 
L 260.181818 195.253121 
z
" clip-path="url(#pfc4a627da4)" style="fill: #0088ed; opacity: 0.4"/>
   </g>
   <g id="patch_18">
    <path d="M 272.356364 384.48 
L 284.530909 384.48 
L 284.530909 327.674415 
L 272.356364 327.674415 
z
" clip-path="url(#pfc4a627da4)" style="fill: #0088ed; opacity: 0.4"/>
   </g>
   <g id="patch_19">
    <path d="M 284.530909 384.48 
L 296.705455 384.48 
L 296.705455 384.48 
L 284.530909 384.48 
z
" clip-path="url(#pfc4a627da4)" style="fill: #0088ed; opacity: 0.4"/>
   </g>
   <g id="patch_20">
    <path d="M 296.705455 384.48 
L 308.88 384.48 
L 308.88 194.552061 
L 296.705455 194.552061 
z
" clip-path="url(#pfc4a627da4)" style="fill: #0088ed; opacity: 0.4"/>
   </g>
   <g id="patch_21">
    <path d="M 308.88 384.48 
L 321.054545 384.48 
L 321.054545 384.48 
L 308.88 384.48 
z
" clip-path="url(#pfc4a627da4)" style="fill: #0088ed; opacity: 0.4"/>
   </g>
   <g id="patch_22">
    <path d="M 321.054545 384.48 
L 333.229091 384.48 
L 333.229091 265.754056 
L 321.054545 265.754056 
z
" clip-path="url(#pfc4a627da4)" style="fill: #0088ed; opacity: 0.4"/>
   </g>
   <g id="patch_23">
    <path d="M 333.229091 384.48 
L 345.403636 384.48 
L 345.403636 250.172757 
L 333.229091 250.172757 
z
" clip-path="url(#pfc4a627da4)" style="fill: #0088ed; opacity: 0.4"/>
   </g>
   <g id="patch_24">
    <path d="M 345.403636 384.48 
L 357.578182 384.48 
L 357.578182 384.48 
L 345.403636 384.48 
z
" clip-path="url(#pfc4a627da4)" style="fill: #0088ed; opacity: 0.4"/>
   </g>
   <g id="patch_25">
    <path d="M 357.578182 384.48 
L 369.752727 384.48 
L 369.752727 254.606219 
L 357.578182 254.606219 
z
" clip-path="url(#pfc4a627da4)" style="fill: #0088ed; opacity: 0.4"/>
   </g>
   <g id="patch_26">
    <path d="M 369.752727 384.48 
L 381.927273 384.48 
L 381.927273 384.48 
L 369.752727 384.48 
z
" clip-path="url(#pfc4a627da4)" style="fill: #0088ed; opacity: 0.4"/>
   </g>
   <g id="patch_27">
    <path d="M 381.927273 384.48 
L 394.101818 384.48 
L 394.101818 287.812752 
L 381.927273 287.812752 
z
" clip-path="url(#pfc4a627da4)" style="fill: #0088ed; opacity: 0.4"/>
   </g>
   <g id="patch_28">
    <path d="M 394.101818 384.48 
L 406.276364 384.48 
L 406.276364 327.970637 
L 394.101818 327.970637 
z
" clip-path="url(#pfc4a627da4)" style="fill: #0088ed; opacity: 0.4"/>
   </g>
   <g id="patch_29">
    <path d="M 406.276364 384.48 
L 418.450909 384.48 
L 418.450909 384.48 
L 406.276364 384.48 
z
" clip-path="url(#pfc4a627da4)" style="fill: #0088ed; opacity: 0.4"/>
   </g>
   <g id="patch_30">
    <path d="M 418.450909 384.48 
L 430.625455 384.48 
L 430.625455 384.48 
L 418.450909 384.48 
z
" clip-path="url(#pfc4a627da4)" style="fill: #0088ed; opacity: 0.4"/>
   </g>
   <g id="patch_31">
    <path d="M 430.625455 384.48 
L 442.8 384.48 
L 442.8 384.48 
L 430.625455 384.48 
z
" clip-path="url(#pfc4a627da4)" style="fill: #0088ed; opacity: 0.4"/>
   </g>
   <g id="patch_32">
    <path d="M 442.8 384.48 
L 454.974545 384.48 
L 454.974545 291.406917 
L 442.8 291.406917 
z
" clip-path="url(#pfc4a627da4)" style="fill: #0088ed; opacity: 0.4"/>
   </g>
   <g id="patch_33">
    <path d="M 454.974545 384.48 
L 467.149091 384.48 
L 467.149091 254.22113 
L 454.974545 254.22113 
z
" clip-path="url(#pfc4a627da4)" style="fill: #0088ed; opacity: 0.4"/>
   </g>
   <g id="patch_34">
    <path d="M 467.149091 384.48 
L 479.323636 384.48 
L 479.323636 384.48 
L 467.149091 384.48 
z
" clip-path="url(#pfc4a627da4)" style="fill: #0088ed; opacity: 0.4"/>
   </g>
   <g id="patch_35">
    <path d="M 479.323636 384.48 
L 491.498182 384.48 
L 491.498182 285.067757 
L 479.323636 285.067757 
z
" clip-path="url(#pfc4a627da4)" style="fill: #0088ed; opacity: 0.4"/>
   </g>
   <g id="patch_36">
    <path d="M 491.498182 384.48 
L 503.672727 384.48 
L 503.672727 384.48 
L 491.498182 384.48 
z
" clip-path="url(#pfc4a627da4)" style="fill: #0088ed; opacity: 0.4"/>
   </g>
   <g id="patch_37">
    <path d="M 503.672727 384.48 
L 515.847273 384.48 
L 515.847273 330.429283 
L 503.672727 330.429283 
z
" clip-path="url(#pfc4a627da4)" style="fill: #0088ed; opacity: 0.4"/>
   </g>
   <g id="patch_38">
    <path d="M 515.847273 384.48 
L 528.021818 384.48 
L 528.021818 332.601581 
L 515.847273 332.601581 
z
" clip-path="url(#pfc4a627da4)" style="fill: #0088ed; opacity: 0.4"/>
   </g>
   <g id="patch_39">
    <path d="M 528.021818 384.48 
L 540.196364 384.48 
L 540.196364 384.48 
L 528.021818 384.48 
z
" clip-path="url(#pfc4a627da4)" style="fill: #0088ed; opacity: 0.4"/>
   </g>
   <g id="patch_40">
    <path d="M 540.196364 384.48 
L 552.370909 384.48 
L 552.370909 382.742162 
L 540.196364 382.742162 
z
" clip-path="url(#pfc4a627da4)" style="fill: #0088ed; opacity: 0.4"/>
   </g>
   <g id="patch_41">
    <path d="M 552.370909 384.48 
L 564.545455 384.48 
L 564.545455 384.48 
L 552.370909 384.48 
z
" clip-path="url(#pfc4a627da4)" style="fill: #0088ed; opacity: 0.4"/>
   </g>
   <g id="patch_42">
    <path d="M 564.545455 384.48 
L 576.72 384.48 
L 576.72 271.214422 
L 564.545455 271.214422 
z
" clip-path="url(#pfc4a627da4)" style="fill: #0088ed; opacity: 0.4"/>
   </g>
   <g id="patch_43">
    <path d="M 576.72 384.48 
L 588.894545 384.48 
L 588.894545 329.915831 
L 576.72 329.915831 
z
" clip-path="url(#pfc4a627da4)" style="fill: #0088ed; opacity: 0.4"/>
   </g>
   <g id="patch_44">
    <path d="M 588.894545 384.48 
L 601.069091 384.48 
L 601.069091 384.48 
L 588.894545 384.48 
z
" clip-path="url(#pfc4a627da4)" style="fill: #0088ed; opacity: 0.4"/>
   </g>
   <g id="patch_45">
    <path d="M 601.069091 384.48 
L 613.243636 384.48 
L 613.243636 379.009759 
L 601.069091 379.009759 
z
" clip-path="url(#pfc4a627da4)" style="fill: #0088ed; opacity: 0.4"/>
   </g>
   <g id="patch_46">
    <path d="M 613.243636 384.48 
L 625.418182 384.48 
L 625.418182 384.48 
L 613.243636 384.48 
z
" clip-path="url(#pfc4a627da4)" style="fill: #0088ed; opacity: 0.4"/>
   </g>
   <g id="patch_47">
    <path d="M 625.418182 384.48 
L 637.592727 384.48 
L 637.592727 84.762159 
L 625.418182 84.762159 
z
" clip-path="url(#pfc4a627da4)" style="fill: #0088ed; opacity: 0.4"/>
   </g>
   <g id="patch_48">
    <path d="M 637.592727 384.48 
L 649.767273 384.48 
L 649.767273 191.431851 
L 637.592727 191.431851 
z
" clip-path="url(#pfc4a627da4)" style="fill: #0088ed; opacity: 0.4"/>
   </g>
   <g id="patch_49">
    <path d="M 649.767273 384.48 
L 661.941818 384.48 
L 661.941818 384.48 
L 649.767273 384.48 
z
" clip-path="url(#pfc4a627da4)" style="fill: #0088ed; opacity: 0.4"/>
   </g>
   <g id="patch_50">
    <path d="M 661.941818 384.48 
L 674.116364 384.48 
L 674.116364 132.483591 
L 661.941818 132.483591 
z
" clip-path="url(#pfc4a627da4)" style="fill: #0088ed; opacity: 0.4"/>
   </g>
   <g id="patch_51">
    <path d="M 674.116364 384.48 
L 686.290909 384.48 
L 686.290909 384.48 
L 674.116364 384.48 
z
" clip-path="url(#pfc4a627da4)" style="fill: #0088ed; opacity: 0.4"/>
   </g>
   <g id="patch_52">
    <path d="M 686.290909 384.48 
L 698.465455 384.48 
L 698.465455 159.400334 
L 686.290909 159.400334 
z
" clip-path="url(#pfc4a627da4)" style="fill: #0088ed; opacity: 0.4"/>
   </g>
   <g id="patch_53">
    <path d="M 698.465455 384.48 
L 710.64 384.48 
L 710.64 140.244618 
L 698.465455 140.244618 
z
" clip-path="url(#pfc4a627da4)" style="fill: #0088ed; opacity: 0.4"/>
   </g>
   <g id="patch_54">
    <path d="M 710.64 384.48 
L 722.814545 384.48 
L 722.814545 384.48 
L 710.64 384.48 
z
" clip-path="url(#pfc4a627da4)" style="fill: #0088ed; opacity: 0.4"/>
   </g>
   <g id="patch_55">
    <path d="M 722.814545 384.48 
L 734.989091 384.48 
L 734.989091 100.610059 
L 722.814545 100.610059 
z
" clip-path="url(#pfc4a627da4)" style="fill: #0088ed; opacity: 0.4"/>
   </g>
   <g id="patch_56">
    <path d="M 734.989091 384.48 
L 747.163636 384.48 
L 747.163636 196.359018 
L 734.989091 196.359018 
z
" clip-path="url(#pfc4a627da4)" style="fill: #0088ed; opacity: 0.4"/>
   </g>
   <g id="matplotlib.axis_3">
    <g id="ytick_10">
     <g id="line2d_19">
      <defs>
       <path id="mcf41a98a90" d="M 0 0 
L 3.5 0 
" style="stroke: #0088ed; stroke-width: 0.8"/>
      </defs>
      <g>
       <use xlink:href="#mcf41a98a90" x="777.6" y="384.48" style="fill: #0088ed; stroke: #0088ed; stroke-width: 0.8"/>
      </g>
     </g>
     <g id="text_19">
      <!-- 0 -->
      <g style="fill: #0088ed" transform="translate(784.6 390.035) scale(0.16 -0.16)">
       <use xlink:href="#TimesNewRomanPSMT-30"/>
      </g>
     </g>
    </g>
    <g id="ytick_11">
     <g id="line2d_20">
      <g>
       <use xlink:href="#mcf41a98a90" x="777.6" y="335.109597" style="fill: #0088ed; stroke: #0088ed; stroke-width: 0.8"/>
      </g>
     </g>
     <g id="text_20">
      <!-- 5000 -->
      <g style="fill: #0088ed" transform="translate(784.6 340.664597) scale(0.16 -0.16)">
       <use xlink:href="#TimesNewRomanPSMT-35"/>
       <use xlink:href="#TimesNewRomanPSMT-30" x="50"/>
       <use xlink:href="#TimesNewRomanPSMT-30" x="100"/>
       <use xlink:href="#TimesNewRomanPSMT-30" x="150"/>
      </g>
     </g>
    </g>
    <g id="ytick_12">
     <g id="line2d_21">
      <g>
       <use xlink:href="#mcf41a98a90" x="777.6" y="285.739195" style="fill: #0088ed; stroke: #0088ed; stroke-width: 0.8"/>
      </g>
     </g>
     <g id="text_21">
      <!-- 10000 -->
      <g style="fill: #0088ed" transform="translate(784.6 291.294195) scale(0.16 -0.16)">
       <use xlink:href="#TimesNewRomanPSMT-31"/>
       <use xlink:href="#TimesNewRomanPSMT-30" x="50"/>
       <use xlink:href="#TimesNewRomanPSMT-30" x="100"/>
       <use xlink:href="#TimesNewRomanPSMT-30" x="150"/>
       <use xlink:href="#TimesNewRomanPSMT-30" x="200"/>
      </g>
     </g>
    </g>
    <g id="ytick_13">
     <g id="line2d_22">
      <g>
       <use xlink:href="#mcf41a98a90" x="777.6" y="236.368792" style="fill: #0088ed; stroke: #0088ed; stroke-width: 0.8"/>
      </g>
     </g>
     <g id="text_22">
      <!-- 15000 -->
      <g style="fill: #0088ed" transform="translate(784.6 241.923792) scale(0.16 -0.16)">
       <use xlink:href="#TimesNewRomanPSMT-31"/>
       <use xlink:href="#TimesNewRomanPSMT-35" x="50"/>
       <use xlink:href="#TimesNewRomanPSMT-30" x="100"/>
       <use xlink:href="#TimesNewRomanPSMT-30" x="150"/>
       <use xlink:href="#TimesNewRomanPSMT-30" x="200"/>
      </g>
     </g>
    </g>
    <g id="ytick_14">
     <g id="line2d_23">
      <g>
       <use xlink:href="#mcf41a98a90" x="777.6" y="186.998389" style="fill: #0088ed; stroke: #0088ed; stroke-width: 0.8"/>
      </g>
     </g>
     <g id="text_23">
      <!-- 20000 -->
      <g style="fill: #0088ed" transform="translate(784.6 192.553389) scale(0.16 -0.16)">
       <use xlink:href="#TimesNewRomanPSMT-32"/>
       <use xlink:href="#TimesNewRomanPSMT-30" x="50"/>
       <use xlink:href="#TimesNewRomanPSMT-30" x="100"/>
       <use xlink:href="#TimesNewRomanPSMT-30" x="150"/>
       <use xlink:href="#TimesNewRomanPSMT-30" x="200"/>
      </g>
     </g>
    </g>
    <g id="ytick_15">
     <g id="line2d_24">
      <g>
       <use xlink:href="#mcf41a98a90" x="777.6" y="137.627987" style="fill: #0088ed; stroke: #0088ed; stroke-width: 0.8"/>
      </g>
     </g>
     <g id="text_24">
      <!-- 25000 -->
      <g style="fill: #0088ed" transform="translate(784.6 143.182987) scale(0.16 -0.16)">
       <use xlink:href="#TimesNewRomanPSMT-32"/>
       <use xlink:href="#TimesNewRomanPSMT-35" x="50"/>
       <use xlink:href="#TimesNewRomanPSMT-30" x="100"/>
       <use xlink:href="#TimesNewRomanPSMT-30" x="150"/>
       <use xlink:href="#TimesNewRomanPSMT-30" x="200"/>
      </g>
     </g>
    </g>
    <g id="ytick_16">
     <g id="line2d_25">
      <g>
       <use xlink:href="#mcf41a98a90" x="777.6" y="88.257584" style="fill: #0088ed; stroke: #0088ed; stroke-width: 0.8"/>
      </g>
     </g>
     <g id="text_25">
      <!-- 30000 -->
      <g style="fill: #0088ed" transform="translate(784.6 93.812584) scale(0.16 -0.16)">
       <use xlink:href="#TimesNewRomanPSMT-33"/>
       <use xlink:href="#TimesNewRomanPSMT-30" x="50"/>
       <use xlink:href="#TimesNewRomanPSMT-30" x="100"/>
       <use xlink:href="#TimesNewRomanPSMT-30" x="150"/>
       <use xlink:href="#TimesNewRomanPSMT-30" x="200"/>
      </g>
     </g>
    </g>
    <g id="text_26">
     <!-- Distribution of CreatedDate:Day -->
     <g style="fill: #0088ed" transform="translate(845.4875 349.236562) rotate(-90) scale(0.2 -0.2)">
      <defs>
       <path id="TimesNewRomanPSMT-62" d="M 984 2369 
Q 1400 2947 1881 2947 
Q 2322 2947 2650 2570 
Q 2978 2194 2978 1541 
Q 2978 778 2472 313 
Q 2038 -88 1503 -88 
Q 1253 -88 995 3 
Q 738 94 469 275 
L 469 3241 
Q 469 3728 445 3840 
Q 422 3953 372 3993 
Q 322 4034 247 4034 
Q 159 4034 28 3984 
L -16 4094 
L 844 4444 
L 984 4444 
L 984 2369 
z
M 984 2169 
L 984 456 
Q 1144 300 1314 220 
Q 1484 141 1663 141 
Q 1947 141 2192 453 
Q 2438 766 2438 1363 
Q 2438 1913 2192 2208 
Q 1947 2503 1634 2503 
Q 1469 2503 1303 2419 
Q 1178 2356 984 2169 
z
" transform="scale(0.015625)"/>
       <path id="TimesNewRomanPSMT-20" transform="scale(0.015625)"/>
       <path id="TimesNewRomanPSMT-66" d="M 1319 2638 
L 1319 756 
Q 1319 356 1406 250 
Q 1522 113 1716 113 
L 1975 113 
L 1975 0 
L 266 0 
L 266 113 
L 394 113 
Q 519 113 622 175 
Q 725 238 764 344 
Q 803 450 803 756 
L 803 2638 
L 247 2638 
L 247 2863 
L 803 2863 
L 803 3050 
Q 803 3478 940 3775 
Q 1078 4072 1361 4255 
Q 1644 4438 1997 4438 
Q 2325 4438 2600 4225 
Q 2781 4084 2781 3909 
Q 2781 3816 2700 3733 
Q 2619 3650 2525 3650 
Q 2453 3650 2373 3701 
Q 2294 3753 2178 3923 
Q 2063 4094 1966 4153 
Q 1869 4213 1750 4213 
Q 1606 4213 1506 4136 
Q 1406 4059 1362 3898 
Q 1319 3738 1319 3069 
L 1319 2863 
L 2056 2863 
L 2056 2638 
L 1319 2638 
z
" transform="scale(0.015625)"/>
      </defs>
      <use xlink:href="#TimesNewRomanPSMT-44"/>
      <use xlink:href="#TimesNewRomanPSMT-69" x="72.216797"/>
      <use xlink:href="#TimesNewRomanPSMT-73" x="100"/>
      <use xlink:href="#TimesNewRomanPSMT-74" x="138.916016"/>
      <use xlink:href="#TimesNewRomanPSMT-72" x="166.699219"/>
      <use xlink:href="#TimesNewRomanPSMT-69" x="200"/>
      <use xlink:href="#TimesNewRomanPSMT-62" x="227.783203"/>
      <use xlink:href="#TimesNewRomanPSMT-75" x="277.783203"/>
      <use xlink:href="#TimesNewRomanPSMT-74" x="327.783203"/>
      <use xlink:href="#TimesNewRomanPSMT-69" x="355.566406"/>
      <use xlink:href="#TimesNewRomanPSMT-6f" x="383.349609"/>
      <use xlink:href="#TimesNewRomanPSMT-6e" x="433.349609"/>
      <use xlink:href="#TimesNewRomanPSMT-20" x="483.349609"/>
      <use xlink:href="#TimesNewRomanPSMT-6f" x="508.349609"/>
      <use xlink:href="#TimesNewRomanPSMT-66" x="558.349609"/>
      <use xlink:href="#TimesNewRomanPSMT-20" x="591.650391"/>
      <use xlink:href="#TimesNewRomanPSMT-43" x="616.650391"/>
      <use xlink:href="#TimesNewRomanPSMT-72" x="683.349609"/>
      <use xlink:href="#TimesNewRomanPSMT-65" x="716.650391"/>
      <use xlink:href="#TimesNewRomanPSMT-61" x="761.035156"/>
      <use xlink:href="#TimesNewRomanPSMT-74" x="805.419922"/>
      <use xlink:href="#TimesNewRomanPSMT-65" x="833.203125"/>
      <use xlink:href="#TimesNewRomanPSMT-64" x="877.587891"/>
      <use xlink:href="#TimesNewRomanPSMT-44" x="927.587891"/>
      <use xlink:href="#TimesNewRomanPSMT-61" x="999.804688"/>
      <use xlink:href="#TimesNewRomanPSMT-74" x="1044.189453"/>
      <use xlink:href="#TimesNewRomanPSMT-65" x="1071.972656"/>
      <use xlink:href="#TimesNewRomanPSMT-3a" x="1116.357422"/>
      <use xlink:href="#TimesNewRomanPSMT-44" x="1144.140625"/>
      <use xlink:href="#TimesNewRomanPSMT-61" x="1216.357422"/>
      <use xlink:href="#TimesNewRomanPSMT-79" x="1260.742188"/>
     </g>
    </g>
   </g>
   <g id="patch_57">
    <path d="M 108 384.48 
L 108 51.84 
" style="fill: none; stroke: #58544f; stroke-width: 0.8; stroke-linejoin: miter; stroke-linecap: square"/>
   </g>
   <g id="patch_58">
    <path d="M 777.6 384.48 
L 777.6 51.84 
" style="fill: none; stroke: #58544f; stroke-width: 0.8; stroke-linejoin: miter; stroke-linecap: square"/>
   </g>
   <g id="patch_59">
    <path d="M 108 384.48 
L 777.6 384.48 
" style="fill: none; stroke: #58544f; stroke-width: 0.8; stroke-linejoin: miter; stroke-linecap: square"/>
   </g>
   <g id="patch_60">
    <path d="M 108 51.84 
L 777.6 51.84 
" style="fill: none; stroke: #58544f; stroke-width: 0.8; stroke-linejoin: miter; stroke-linecap: square"/>
   </g>
   <g id="text_27">
    <!-- Impact of CreatedDate:Day on UnderConstructionTime -->
    <g style="fill: #262626" transform="translate(219.884375 38.84) scale(0.2 -0.2)">
     <defs>
      <path id="TimesNewRomanPSMT-49" d="M 1975 116 
L 1975 0 
L 159 0 
L 159 116 
L 309 116 
Q 572 116 691 269 
Q 766 369 766 750 
L 766 3488 
Q 766 3809 725 3913 
Q 694 3991 597 4047 
Q 459 4122 309 4122 
L 159 4122 
L 159 4238 
L 1975 4238 
L 1975 4122 
L 1822 4122 
Q 1563 4122 1444 3969 
Q 1366 3869 1366 3488 
L 1366 750 
Q 1366 428 1406 325 
Q 1438 247 1538 191 
Q 1672 116 1822 116 
L 1975 116 
z
" transform="scale(0.015625)"/>
      <path id="TimesNewRomanPSMT-70" d="M -6 2578 
L 875 2934 
L 994 2934 
L 994 2266 
Q 1216 2644 1439 2795 
Q 1663 2947 1909 2947 
Q 2341 2947 2628 2609 
Q 2981 2197 2981 1534 
Q 2981 794 2556 309 
Q 2206 -88 1675 -88 
Q 1444 -88 1275 -22 
Q 1150 25 994 166 
L 994 -706 
Q 994 -1000 1030 -1079 
Q 1066 -1159 1155 -1206 
Q 1244 -1253 1478 -1253 
L 1478 -1369 
L -22 -1369 
L -22 -1253 
L 56 -1253 
Q 228 -1256 350 -1188 
Q 409 -1153 442 -1076 
Q 475 -1000 475 -688 
L 475 2019 
Q 475 2297 450 2372 
Q 425 2447 370 2484 
Q 316 2522 222 2522 
Q 147 2522 31 2478 
L -6 2578 
z
M 994 2081 
L 994 1013 
Q 994 666 1022 556 
Q 1066 375 1236 237 
Q 1406 100 1666 100 
Q 1978 100 2172 344 
Q 2425 663 2425 1241 
Q 2425 1897 2138 2250 
Q 1938 2494 1663 2494 
Q 1513 2494 1366 2419 
Q 1253 2363 994 2081 
z
" transform="scale(0.015625)"/>
     </defs>
     <use xlink:href="#TimesNewRomanPSMT-49"/>
     <use xlink:href="#TimesNewRomanPSMT-6d" x="33.300781"/>
     <use xlink:href="#TimesNewRomanPSMT-70" x="111.083984"/>
     <use xlink:href="#TimesNewRomanPSMT-61" x="161.083984"/>
     <use xlink:href="#TimesNewRomanPSMT-63" x="205.46875"/>
     <use xlink:href="#TimesNewRomanPSMT-74" x="249.853516"/>
     <use xlink:href="#TimesNewRomanPSMT-20" x="277.636719"/>
     <use xlink:href="#TimesNewRomanPSMT-6f" x="302.636719"/>
     <use xlink:href="#TimesNewRomanPSMT-66" x="352.636719"/>
     <use xlink:href="#TimesNewRomanPSMT-20" x="385.9375"/>
     <use xlink:href="#TimesNewRomanPSMT-43" x="410.9375"/>
     <use xlink:href="#TimesNewRomanPSMT-72" x="477.636719"/>
     <use xlink:href="#TimesNewRomanPSMT-65" x="510.9375"/>
     <use xlink:href="#TimesNewRomanPSMT-61" x="555.322266"/>
     <use xlink:href="#TimesNewRomanPSMT-74" x="599.707031"/>
     <use xlink:href="#TimesNewRomanPSMT-65" x="627.490234"/>
     <use xlink:href="#TimesNewRomanPSMT-64" x="671.875"/>
     <use xlink:href="#TimesNewRomanPSMT-44" x="721.875"/>
     <use xlink:href="#TimesNewRomanPSMT-61" x="794.091797"/>
     <use xlink:href="#TimesNewRomanPSMT-74" x="838.476562"/>
     <use xlink:href="#TimesNewRomanPSMT-65" x="866.259766"/>
     <use xlink:href="#TimesNewRomanPSMT-3a" x="910.644531"/>
     <use xlink:href="#TimesNewRomanPSMT-44" x="938.427734"/>
     <use xlink:href="#TimesNewRomanPSMT-61" x="1010.644531"/>
     <use xlink:href="#TimesNewRomanPSMT-79" x="1055.029297"/>
     <use xlink:href="#TimesNewRomanPSMT-20" x="1105.029297"/>
     <use xlink:href="#TimesNewRomanPSMT-6f" x="1130.029297"/>
     <use xlink:href="#TimesNewRomanPSMT-6e" x="1180.029297"/>
     <use xlink:href="#TimesNewRomanPSMT-20" x="1230.029297"/>
     <use xlink:href="#TimesNewRomanPSMT-55" x="1255.029297"/>
     <use xlink:href="#TimesNewRomanPSMT-6e" x="1327.246094"/>
     <use xlink:href="#TimesNewRomanPSMT-64" x="1377.246094"/>
     <use xlink:href="#TimesNewRomanPSMT-65" x="1427.246094"/>
     <use xlink:href="#TimesNewRomanPSMT-72" x="1471.630859"/>
     <use xlink:href="#TimesNewRomanPSMT-43" x="1504.931641"/>
     <use xlink:href="#TimesNewRomanPSMT-6f" x="1571.630859"/>
     <use xlink:href="#TimesNewRomanPSMT-6e" x="1621.630859"/>
     <use xlink:href="#TimesNewRomanPSMT-73" x="1671.630859"/>
     <use xlink:href="#TimesNewRomanPSMT-74" x="1710.546875"/>
     <use xlink:href="#TimesNewRomanPSMT-72" x="1738.330078"/>
     <use xlink:href="#TimesNewRomanPSMT-75" x="1771.630859"/>
     <use xlink:href="#TimesNewRomanPSMT-63" x="1821.630859"/>
     <use xlink:href="#TimesNewRomanPSMT-74" x="1866.015625"/>
     <use xlink:href="#TimesNewRomanPSMT-69" x="1893.798828"/>
     <use xlink:href="#TimesNewRomanPSMT-6f" x="1921.582031"/>
     <use xlink:href="#TimesNewRomanPSMT-6e" x="1971.582031"/>
     <use xlink:href="#TimesNewRomanPSMT-54" x="2021.582031"/>
     <use xlink:href="#TimesNewRomanPSMT-69" x="2079.166016"/>
     <use xlink:href="#TimesNewRomanPSMT-6d" x="2106.949219"/>
     <use xlink:href="#TimesNewRomanPSMT-65" x="2184.732422"/>
    </g>
   </g>
  </g>
 </g>
 <defs>
  <clipPath id="pfc4a627da4">
   <rect x="108" y="51.84" width="669.6" height="332.64"/>
  </clipPath>
 </defs>
</svg>
