<?xml version="1.0" encoding="utf-8" standalone="no"?>
<!DOCTYPE svg PUBLIC "-//W3C//DTD SVG 1.1//EN"
  "http://www.w3.org/Graphics/SVG/1.1/DTD/svg11.dtd">
<svg xmlns:xlink="http://www.w3.org/1999/xlink" width="864pt" height="432pt" viewBox="0 0 864 432" xmlns="http://www.w3.org/2000/svg" version="1.1">
 <metadata>
  <rdf:RDF xmlns:dc="http://purl.org/dc/elements/1.1/" xmlns:cc="http://creativecommons.org/ns#" xmlns:rdf="http://www.w3.org/1999/02/22-rdf-syntax-ns#">
   <cc:Work>
    <dc:type rdf:resource="http://purl.org/dc/dcmitype/StillImage"/>
    <dc:date>2023-10-23T19:50:20.844823</dc:date>
    <dc:format>image/svg+xml</dc:format>
    <dc:creator>
     <cc:Agent>
      <dc:title>Matplotlib v3.7.2, https://matplotlib.org/</dc:title>
     </cc:Agent>
    </dc:creator>
   </cc:Work>
  </rdf:RDF>
 </metadata>
 <defs>
  <style type="text/css">*{stroke-linejoin: round; stroke-linecap: butt}</style>
 </defs>
 <g id="figure_1">
  <g id="patch_1">
   <path d="M 0 432 
L 864 432 
L 864 0 
L 0 0 
z
" style="fill: #ffffff"/>
  </g>
  <g id="axes_1">
   <g id="patch_2">
    <path d="M 108 384.48 
L 777.6 384.48 
L 777.6 51.84 
L 108 51.84 
z
" style="fill: #ffffff"/>
   </g>
   <g id="matplotlib.axis_1">
    <g id="xtick_1">
     <g id="line2d_1">
      <defs>
       <path id="m5f54e7fa4b" d="M 0 0 
L 0 3.5 
" style="stroke: #58544f; stroke-width: 0.8"/>
      </defs>
      <g>
       <use xlink:href="#m5f54e7fa4b" x="138.436364" y="384.48" style="fill: #58544f; stroke: #58544f; stroke-width: 0.8"/>
      </g>
     </g>
     <g id="text_1">
      <!-- 0.0 -->
      <g style="fill: #58544f" transform="translate(128.436364 402.59) scale(0.16 -0.16)">
       <defs>
        <path id="TimesNewRomanPSMT-30" d="M 231 2094 
Q 231 2819 450 3342 
Q 669 3866 1031 4122 
Q 1313 4325 1613 4325 
Q 2100 4325 2488 3828 
Q 2972 3213 2972 2159 
Q 2972 1422 2759 906 
Q 2547 391 2217 158 
Q 1888 -75 1581 -75 
Q 975 -75 572 641 
Q 231 1244 231 2094 
z
M 844 2016 
Q 844 1141 1059 588 
Q 1238 122 1591 122 
Q 1759 122 1940 273 
Q 2122 425 2216 781 
Q 2359 1319 2359 2297 
Q 2359 3022 2209 3506 
Q 2097 3866 1919 4016 
Q 1791 4119 1609 4119 
Q 1397 4119 1231 3928 
Q 1006 3669 925 3112 
Q 844 2556 844 2016 
z
" transform="scale(0.015625)"/>
        <path id="TimesNewRomanPSMT-2e" d="M 800 606 
Q 947 606 1047 504 
Q 1147 403 1147 259 
Q 1147 116 1045 14 
Q 944 -88 800 -88 
Q 656 -88 554 14 
Q 453 116 453 259 
Q 453 406 554 506 
Q 656 606 800 606 
z
" transform="scale(0.015625)"/>
       </defs>
       <use xlink:href="#TimesNewRomanPSMT-30"/>
       <use xlink:href="#TimesNewRomanPSMT-2e" x="50"/>
       <use xlink:href="#TimesNewRomanPSMT-30" x="75"/>
      </g>
     </g>
    </g>
    <g id="xtick_2">
     <g id="line2d_2">
      <g>
       <use xlink:href="#m5f54e7fa4b" x="260.181818" y="384.48" style="fill: #58544f; stroke: #58544f; stroke-width: 0.8"/>
      </g>
     </g>
     <g id="text_2">
      <!-- 0.2 -->
      <g style="fill: #58544f" transform="translate(250.181818 402.59) scale(0.16 -0.16)">
       <defs>
        <path id="TimesNewRomanPSMT-32" d="M 2934 816 
L 2638 0 
L 138 0 
L 138 116 
Q 1241 1122 1691 1759 
Q 2141 2397 2141 2925 
Q 2141 3328 1894 3587 
Q 1647 3847 1303 3847 
Q 991 3847 742 3664 
Q 494 3481 375 3128 
L 259 3128 
Q 338 3706 661 4015 
Q 984 4325 1469 4325 
Q 1984 4325 2329 3994 
Q 2675 3663 2675 3213 
Q 2675 2891 2525 2569 
Q 2294 2063 1775 1497 
Q 997 647 803 472 
L 1909 472 
Q 2247 472 2383 497 
Q 2519 522 2628 598 
Q 2738 675 2819 816 
L 2934 816 
z
" transform="scale(0.015625)"/>
       </defs>
       <use xlink:href="#TimesNewRomanPSMT-30"/>
       <use xlink:href="#TimesNewRomanPSMT-2e" x="50"/>
       <use xlink:href="#TimesNewRomanPSMT-32" x="75"/>
      </g>
     </g>
    </g>
    <g id="xtick_3">
     <g id="line2d_3">
      <g>
       <use xlink:href="#m5f54e7fa4b" x="381.927273" y="384.48" style="fill: #58544f; stroke: #58544f; stroke-width: 0.8"/>
      </g>
     </g>
     <g id="text_3">
      <!-- 0.4 -->
      <g style="fill: #58544f" transform="translate(371.927273 402.59) scale(0.16 -0.16)">
       <defs>
        <path id="TimesNewRomanPSMT-34" d="M 2978 1563 
L 2978 1119 
L 2409 1119 
L 2409 0 
L 1894 0 
L 1894 1119 
L 100 1119 
L 100 1519 
L 2066 4325 
L 2409 4325 
L 2409 1563 
L 2978 1563 
z
M 1894 1563 
L 1894 3666 
L 406 1563 
L 1894 1563 
z
" transform="scale(0.015625)"/>
       </defs>
       <use xlink:href="#TimesNewRomanPSMT-30"/>
       <use xlink:href="#TimesNewRomanPSMT-2e" x="50"/>
       <use xlink:href="#TimesNewRomanPSMT-34" x="75"/>
      </g>
     </g>
    </g>
    <g id="xtick_4">
     <g id="line2d_4">
      <g>
       <use xlink:href="#m5f54e7fa4b" x="503.672727" y="384.48" style="fill: #58544f; stroke: #58544f; stroke-width: 0.8"/>
      </g>
     </g>
     <g id="text_4">
      <!-- 0.6 -->
      <g style="fill: #58544f" transform="translate(493.672727 402.59) scale(0.16 -0.16)">
       <defs>
        <path id="TimesNewRomanPSMT-36" d="M 2869 4325 
L 2869 4209 
Q 2456 4169 2195 4045 
Q 1934 3922 1679 3669 
Q 1425 3416 1258 3105 
Q 1091 2794 978 2366 
Q 1428 2675 1881 2675 
Q 2316 2675 2634 2325 
Q 2953 1975 2953 1425 
Q 2953 894 2631 456 
Q 2244 -75 1606 -75 
Q 1172 -75 869 213 
Q 275 772 275 1663 
Q 275 2231 503 2743 
Q 731 3256 1154 3653 
Q 1578 4050 1965 4187 
Q 2353 4325 2688 4325 
L 2869 4325 
z
M 925 2138 
Q 869 1716 869 1456 
Q 869 1156 980 804 
Q 1091 453 1309 247 
Q 1469 100 1697 100 
Q 1969 100 2183 356 
Q 2397 613 2397 1088 
Q 2397 1622 2184 2012 
Q 1972 2403 1581 2403 
Q 1463 2403 1327 2353 
Q 1191 2303 925 2138 
z
" transform="scale(0.015625)"/>
       </defs>
       <use xlink:href="#TimesNewRomanPSMT-30"/>
       <use xlink:href="#TimesNewRomanPSMT-2e" x="50"/>
       <use xlink:href="#TimesNewRomanPSMT-36" x="75"/>
      </g>
     </g>
    </g>
    <g id="xtick_5">
     <g id="line2d_5">
      <g>
       <use xlink:href="#m5f54e7fa4b" x="625.418182" y="384.48" style="fill: #58544f; stroke: #58544f; stroke-width: 0.8"/>
      </g>
     </g>
     <g id="text_5">
      <!-- 0.8 -->
      <g style="fill: #58544f" transform="translate(615.418182 402.59) scale(0.16 -0.16)">
       <defs>
        <path id="TimesNewRomanPSMT-38" d="M 1228 2134 
Q 725 2547 579 2797 
Q 434 3047 434 3316 
Q 434 3728 753 4026 
Q 1072 4325 1600 4325 
Q 2113 4325 2425 4047 
Q 2738 3769 2738 3413 
Q 2738 3175 2569 2928 
Q 2400 2681 1866 2347 
Q 2416 1922 2594 1678 
Q 2831 1359 2831 1006 
Q 2831 559 2490 242 
Q 2150 -75 1597 -75 
Q 994 -75 656 303 
Q 388 606 388 966 
Q 388 1247 577 1523 
Q 766 1800 1228 2134 
z
M 1719 2469 
Q 2094 2806 2194 3001 
Q 2294 3197 2294 3444 
Q 2294 3772 2109 3958 
Q 1925 4144 1606 4144 
Q 1288 4144 1088 3959 
Q 888 3775 888 3528 
Q 888 3366 970 3203 
Q 1053 3041 1206 2894 
L 1719 2469 
z
M 1375 2016 
Q 1116 1797 991 1539 
Q 866 1281 866 981 
Q 866 578 1086 336 
Q 1306 94 1647 94 
Q 1984 94 2187 284 
Q 2391 475 2391 747 
Q 2391 972 2272 1150 
Q 2050 1481 1375 2016 
z
" transform="scale(0.015625)"/>
       </defs>
       <use xlink:href="#TimesNewRomanPSMT-30"/>
       <use xlink:href="#TimesNewRomanPSMT-2e" x="50"/>
       <use xlink:href="#TimesNewRomanPSMT-38" x="75"/>
      </g>
     </g>
    </g>
    <g id="xtick_6">
     <g id="line2d_6">
      <g>
       <use xlink:href="#m5f54e7fa4b" x="747.163636" y="384.48" style="fill: #58544f; stroke: #58544f; stroke-width: 0.8"/>
      </g>
     </g>
     <g id="text_6">
      <!-- 1.0 -->
      <g style="fill: #58544f" transform="translate(737.163636 402.59) scale(0.16 -0.16)">
       <defs>
        <path id="TimesNewRomanPSMT-31" d="M 750 3822 
L 1781 4325 
L 1884 4325 
L 1884 747 
Q 1884 391 1914 303 
Q 1944 216 2037 169 
Q 2131 122 2419 116 
L 2419 0 
L 825 0 
L 825 116 
Q 1125 122 1212 167 
Q 1300 213 1334 289 
Q 1369 366 1369 747 
L 1369 3034 
Q 1369 3497 1338 3628 
Q 1316 3728 1258 3775 
Q 1200 3822 1119 3822 
Q 1003 3822 797 3725 
L 750 3822 
z
" transform="scale(0.015625)"/>
       </defs>
       <use xlink:href="#TimesNewRomanPSMT-31"/>
       <use xlink:href="#TimesNewRomanPSMT-2e" x="50"/>
       <use xlink:href="#TimesNewRomanPSMT-30" x="75"/>
      </g>
     </g>
    </g>
    <g id="text_7">
     <!-- RoadType:Two-Lane,Two-WayRoadways(&gt;70km/h)_onehot -->
     <g style="fill: #58544f" transform="translate(199.848437 423.9) scale(0.2 -0.2)">
      <defs>
       <path id="TimesNewRomanPSMT-52" d="M 4325 0 
L 3194 0 
L 1759 1981 
Q 1600 1975 1500 1975 
Q 1459 1975 1412 1976 
Q 1366 1978 1316 1981 
L 1316 750 
Q 1316 350 1403 253 
Q 1522 116 1759 116 
L 1925 116 
L 1925 0 
L 109 0 
L 109 116 
L 269 116 
Q 538 116 653 291 
Q 719 388 719 750 
L 719 3488 
Q 719 3888 631 3984 
Q 509 4122 269 4122 
L 109 4122 
L 109 4238 
L 1653 4238 
Q 2328 4238 2648 4139 
Q 2969 4041 3192 3777 
Q 3416 3513 3416 3147 
Q 3416 2756 3161 2468 
Q 2906 2181 2372 2063 
L 3247 847 
Q 3547 428 3762 290 
Q 3978 153 4325 116 
L 4325 0 
z
M 1316 2178 
Q 1375 2178 1419 2176 
Q 1463 2175 1491 2175 
Q 2097 2175 2405 2437 
Q 2713 2700 2713 3106 
Q 2713 3503 2464 3751 
Q 2216 4000 1806 4000 
Q 1625 4000 1316 3941 
L 1316 2178 
z
" transform="scale(0.015625)"/>
       <path id="TimesNewRomanPSMT-6f" d="M 1600 2947 
Q 2250 2947 2644 2453 
Q 2978 2031 2978 1484 
Q 2978 1100 2793 706 
Q 2609 313 2286 112 
Q 1963 -88 1566 -88 
Q 919 -88 538 428 
Q 216 863 216 1403 
Q 216 1797 411 2186 
Q 606 2575 925 2761 
Q 1244 2947 1600 2947 
z
M 1503 2744 
Q 1338 2744 1170 2645 
Q 1003 2547 900 2300 
Q 797 2053 797 1666 
Q 797 1041 1045 587 
Q 1294 134 1700 134 
Q 2003 134 2200 384 
Q 2397 634 2397 1244 
Q 2397 2006 2069 2444 
Q 1847 2744 1503 2744 
z
" transform="scale(0.015625)"/>
       <path id="TimesNewRomanPSMT-61" d="M 1822 413 
Q 1381 72 1269 19 
Q 1100 -59 909 -59 
Q 613 -59 420 144 
Q 228 347 228 678 
Q 228 888 322 1041 
Q 450 1253 767 1440 
Q 1084 1628 1822 1897 
L 1822 2009 
Q 1822 2438 1686 2597 
Q 1550 2756 1291 2756 
Q 1094 2756 978 2650 
Q 859 2544 859 2406 
L 866 2225 
Q 866 2081 792 2003 
Q 719 1925 600 1925 
Q 484 1925 411 2006 
Q 338 2088 338 2228 
Q 338 2497 613 2722 
Q 888 2947 1384 2947 
Q 1766 2947 2009 2819 
Q 2194 2722 2281 2516 
Q 2338 2381 2338 1966 
L 2338 994 
Q 2338 584 2353 492 
Q 2369 400 2405 369 
Q 2441 338 2488 338 
Q 2538 338 2575 359 
Q 2641 400 2828 588 
L 2828 413 
Q 2478 -56 2159 -56 
Q 2006 -56 1915 50 
Q 1825 156 1822 413 
z
M 1822 616 
L 1822 1706 
Q 1350 1519 1213 1441 
Q 966 1303 859 1153 
Q 753 1003 753 825 
Q 753 600 887 451 
Q 1022 303 1197 303 
Q 1434 303 1822 616 
z
" transform="scale(0.015625)"/>
       <path id="TimesNewRomanPSMT-64" d="M 2222 322 
Q 2013 103 1813 7 
Q 1613 -88 1381 -88 
Q 913 -88 563 304 
Q 213 697 213 1313 
Q 213 1928 600 2439 
Q 988 2950 1597 2950 
Q 1975 2950 2222 2709 
L 2222 3238 
Q 2222 3728 2198 3840 
Q 2175 3953 2125 3993 
Q 2075 4034 2000 4034 
Q 1919 4034 1784 3984 
L 1744 4094 
L 2597 4444 
L 2738 4444 
L 2738 1134 
Q 2738 631 2761 520 
Q 2784 409 2836 365 
Q 2888 322 2956 322 
Q 3041 322 3181 375 
L 3216 266 
L 2366 -88 
L 2222 -88 
L 2222 322 
z
M 2222 541 
L 2222 2016 
Q 2203 2228 2109 2403 
Q 2016 2578 1861 2667 
Q 1706 2756 1559 2756 
Q 1284 2756 1069 2509 
Q 784 2184 784 1559 
Q 784 928 1059 592 
Q 1334 256 1672 256 
Q 1956 256 2222 541 
z
" transform="scale(0.015625)"/>
       <path id="TimesNewRomanPSMT-54" d="M 3703 4238 
L 3750 3244 
L 3631 3244 
Q 3597 3506 3538 3619 
Q 3441 3800 3280 3886 
Q 3119 3972 2856 3972 
L 2259 3972 
L 2259 734 
Q 2259 344 2344 247 
Q 2463 116 2709 116 
L 2856 116 
L 2856 0 
L 1059 0 
L 1059 116 
L 1209 116 
Q 1478 116 1591 278 
Q 1659 378 1659 734 
L 1659 3972 
L 1150 3972 
Q 853 3972 728 3928 
Q 566 3869 450 3700 
Q 334 3531 313 3244 
L 194 3244 
L 244 4238 
L 3703 4238 
z
" transform="scale(0.015625)"/>
       <path id="TimesNewRomanPSMT-79" d="M 38 2863 
L 1372 2863 
L 1372 2747 
L 1306 2747 
Q 1166 2747 1095 2686 
Q 1025 2625 1025 2534 
Q 1025 2413 1128 2197 
L 1825 753 
L 2466 2334 
Q 2519 2463 2519 2588 
Q 2519 2644 2497 2672 
Q 2472 2706 2419 2726 
Q 2366 2747 2231 2747 
L 2231 2863 
L 3163 2863 
L 3163 2747 
Q 3047 2734 2984 2696 
Q 2922 2659 2847 2556 
Q 2819 2513 2741 2316 
L 1575 -541 
Q 1406 -956 1132 -1168 
Q 859 -1381 606 -1381 
Q 422 -1381 303 -1275 
Q 184 -1169 184 -1031 
Q 184 -900 270 -820 
Q 356 -741 506 -741 
Q 609 -741 788 -809 
Q 913 -856 944 -856 
Q 1038 -856 1148 -759 
Q 1259 -663 1372 -384 
L 1575 113 
L 547 2272 
Q 500 2369 397 2513 
Q 319 2622 269 2659 
Q 197 2709 38 2747 
L 38 2863 
z
" transform="scale(0.015625)"/>
       <path id="TimesNewRomanPSMT-70" d="M -6 2578 
L 875 2934 
L 994 2934 
L 994 2266 
Q 1216 2644 1439 2795 
Q 1663 2947 1909 2947 
Q 2341 2947 2628 2609 
Q 2981 2197 2981 1534 
Q 2981 794 2556 309 
Q 2206 -88 1675 -88 
Q 1444 -88 1275 -22 
Q 1150 25 994 166 
L 994 -706 
Q 994 -1000 1030 -1079 
Q 1066 -1159 1155 -1206 
Q 1244 -1253 1478 -1253 
L 1478 -1369 
L -22 -1369 
L -22 -1253 
L 56 -1253 
Q 228 -1256 350 -1188 
Q 409 -1153 442 -1076 
Q 475 -1000 475 -688 
L 475 2019 
Q 475 2297 450 2372 
Q 425 2447 370 2484 
Q 316 2522 222 2522 
Q 147 2522 31 2478 
L -6 2578 
z
M 994 2081 
L 994 1013 
Q 994 666 1022 556 
Q 1066 375 1236 237 
Q 1406 100 1666 100 
Q 1978 100 2172 344 
Q 2425 663 2425 1241 
Q 2425 1897 2138 2250 
Q 1938 2494 1663 2494 
Q 1513 2494 1366 2419 
Q 1253 2363 994 2081 
z
" transform="scale(0.015625)"/>
       <path id="TimesNewRomanPSMT-65" d="M 681 1784 
Q 678 1147 991 784 
Q 1303 422 1725 422 
Q 2006 422 2214 576 
Q 2422 731 2563 1106 
L 2659 1044 
Q 2594 616 2278 264 
Q 1963 -88 1488 -88 
Q 972 -88 605 314 
Q 238 716 238 1394 
Q 238 2128 614 2539 
Q 991 2950 1559 2950 
Q 2041 2950 2350 2633 
Q 2659 2316 2659 1784 
L 681 1784 
z
M 681 1966 
L 2006 1966 
Q 1991 2241 1941 2353 
Q 1863 2528 1708 2628 
Q 1553 2728 1384 2728 
Q 1125 2728 920 2526 
Q 716 2325 681 1966 
z
" transform="scale(0.015625)"/>
       <path id="TimesNewRomanPSMT-3a" d="M 903 2950 
Q 1047 2950 1148 2848 
Q 1250 2747 1250 2603 
Q 1250 2459 1148 2357 
Q 1047 2256 903 2256 
Q 759 2256 657 2357 
Q 556 2459 556 2603 
Q 556 2747 657 2848 
Q 759 2950 903 2950 
z
M 897 609 
Q 1044 609 1145 506 
Q 1247 403 1247 259 
Q 1247 116 1144 14 
Q 1041 -88 897 -88 
Q 753 -88 651 14 
Q 550 116 550 259 
Q 550 403 651 506 
Q 753 609 897 609 
z
" transform="scale(0.015625)"/>
       <path id="TimesNewRomanPSMT-77" d="M 41 2863 
L 1241 2863 
L 1241 2747 
Q 1075 2734 1023 2687 
Q 972 2641 972 2553 
Q 972 2456 1025 2319 
L 1638 672 
L 2253 2013 
L 2091 2434 
Q 2016 2622 1894 2694 
Q 1825 2738 1638 2747 
L 1638 2863 
L 3000 2863 
L 3000 2747 
Q 2775 2738 2681 2666 
Q 2619 2616 2619 2506 
Q 2619 2444 2644 2378 
L 3294 734 
L 3897 2319 
Q 3959 2488 3959 2588 
Q 3959 2647 3898 2694 
Q 3838 2741 3659 2747 
L 3659 2863 
L 4563 2863 
L 4563 2747 
Q 4291 2706 4163 2378 
L 3206 -88 
L 3078 -88 
L 2363 1741 
L 1528 -88 
L 1413 -88 
L 494 2319 
Q 403 2547 315 2626 
Q 228 2706 41 2747 
L 41 2863 
z
" transform="scale(0.015625)"/>
       <path id="TimesNewRomanPSMT-2d" d="M 259 1672 
L 1875 1672 
L 1875 1200 
L 259 1200 
L 259 1672 
z
" transform="scale(0.015625)"/>
       <path id="TimesNewRomanPSMT-4c" d="M 3669 1172 
L 3772 1150 
L 3409 0 
L 128 0 
L 128 116 
L 288 116 
Q 556 116 672 291 
Q 738 391 738 753 
L 738 3488 
Q 738 3884 650 3984 
Q 528 4122 288 4122 
L 128 4122 
L 128 4238 
L 2047 4238 
L 2047 4122 
Q 1709 4125 1573 4059 
Q 1438 3994 1388 3894 
Q 1338 3794 1338 3416 
L 1338 753 
Q 1338 494 1388 397 
Q 1425 331 1503 300 
Q 1581 269 1991 269 
L 2300 269 
Q 2788 269 2984 341 
Q 3181 413 3343 595 
Q 3506 778 3669 1172 
z
" transform="scale(0.015625)"/>
       <path id="TimesNewRomanPSMT-6e" d="M 1034 2341 
Q 1538 2947 1994 2947 
Q 2228 2947 2397 2830 
Q 2566 2713 2666 2444 
Q 2734 2256 2734 1869 
L 2734 647 
Q 2734 375 2778 278 
Q 2813 200 2889 156 
Q 2966 113 3172 113 
L 3172 0 
L 1756 0 
L 1756 113 
L 1816 113 
Q 2016 113 2095 173 
Q 2175 234 2206 353 
Q 2219 400 2219 647 
L 2219 1819 
Q 2219 2209 2117 2386 
Q 2016 2563 1775 2563 
Q 1403 2563 1034 2156 
L 1034 647 
Q 1034 356 1069 288 
Q 1113 197 1189 155 
Q 1266 113 1500 113 
L 1500 0 
L 84 0 
L 84 113 
L 147 113 
Q 366 113 442 223 
Q 519 334 519 647 
L 519 1709 
Q 519 2225 495 2337 
Q 472 2450 423 2490 
Q 375 2531 294 2531 
Q 206 2531 84 2484 
L 38 2597 
L 900 2947 
L 1034 2947 
L 1034 2341 
z
" transform="scale(0.015625)"/>
       <path id="TimesNewRomanPSMT-2c" d="M 344 -1066 
L 344 -928 
Q 666 -822 842 -598 
Q 1019 -375 1019 -125 
Q 1019 -66 991 -25 
Q 969 3 947 3 
Q 913 3 797 -59 
Q 741 -88 678 -88 
Q 525 -88 434 3 
Q 344 94 344 253 
Q 344 406 461 515 
Q 578 625 747 625 
Q 953 625 1114 445 
Q 1275 266 1275 -31 
Q 1275 -353 1051 -629 
Q 828 -906 344 -1066 
z
" transform="scale(0.015625)"/>
       <path id="TimesNewRomanPSMT-57" d="M 5991 4238 
L 5991 4122 
Q 5825 4122 5722 4062 
Q 5619 4003 5525 3841 
Q 5463 3731 5328 3319 
L 4147 -97 
L 4022 -97 
L 3056 2613 
L 2097 -97 
L 1984 -97 
L 725 3422 
Q 584 3816 547 3888 
Q 484 4006 376 4064 
Q 269 4122 84 4122 
L 84 4238 
L 1653 4238 
L 1653 4122 
L 1578 4122 
Q 1413 4122 1325 4047 
Q 1238 3972 1238 3866 
Q 1238 3756 1375 3363 
L 2209 984 
L 2913 3006 
L 2788 3363 
L 2688 3647 
Q 2622 3803 2541 3922 
Q 2500 3981 2441 4022 
Q 2363 4078 2284 4103 
Q 2225 4122 2097 4122 
L 2097 4238 
L 3747 4238 
L 3747 4122 
L 3634 4122 
Q 3459 4122 3378 4047 
Q 3297 3972 3297 3844 
Q 3297 3684 3438 3288 
L 4250 984 
L 5056 3319 
Q 5194 3706 5194 3856 
Q 5194 3928 5148 3990 
Q 5103 4053 5034 4078 
Q 4916 4122 4725 4122 
L 4725 4238 
L 5991 4238 
z
" transform="scale(0.015625)"/>
       <path id="TimesNewRomanPSMT-73" d="M 2050 2947 
L 2050 1972 
L 1947 1972 
Q 1828 2431 1642 2597 
Q 1456 2763 1169 2763 
Q 950 2763 815 2647 
Q 681 2531 681 2391 
Q 681 2216 781 2091 
Q 878 1963 1175 1819 
L 1631 1597 
Q 2266 1288 2266 781 
Q 2266 391 1970 151 
Q 1675 -88 1309 -88 
Q 1047 -88 709 6 
Q 606 38 541 38 
Q 469 38 428 -44 
L 325 -44 
L 325 978 
L 428 978 
Q 516 541 762 319 
Q 1009 97 1316 97 
Q 1531 97 1667 223 
Q 1803 350 1803 528 
Q 1803 744 1651 891 
Q 1500 1038 1047 1263 
Q 594 1488 453 1669 
Q 313 1847 313 2119 
Q 313 2472 555 2709 
Q 797 2947 1181 2947 
Q 1350 2947 1591 2875 
Q 1750 2828 1803 2828 
Q 1853 2828 1881 2850 
Q 1909 2872 1947 2947 
L 2050 2947 
z
" transform="scale(0.015625)"/>
       <path id="TimesNewRomanPSMT-28" d="M 1988 -1253 
L 1988 -1369 
Q 1516 -1131 1200 -813 
Q 750 -359 506 256 
Q 263 872 263 1534 
Q 263 2503 741 3301 
Q 1219 4100 1988 4444 
L 1988 4313 
Q 1603 4100 1356 3731 
Q 1109 3363 987 2797 
Q 866 2231 866 1616 
Q 866 947 969 400 
Q 1050 -31 1165 -292 
Q 1281 -553 1476 -793 
Q 1672 -1034 1988 -1253 
z
" transform="scale(0.015625)"/>
       <path id="TimesNewRomanPSMT-3e" d="M 3478 2041 
L 116 584 
L 116 853 
L 3013 2109 
L 116 3378 
L 116 3663 
L 3478 2194 
L 3478 2041 
z
" transform="scale(0.015625)"/>
       <path id="TimesNewRomanPSMT-37" d="M 644 4238 
L 2916 4238 
L 2916 4119 
L 1503 -88 
L 1153 -88 
L 2419 3728 
L 1253 3728 
Q 900 3728 750 3644 
Q 488 3500 328 3200 
L 238 3234 
L 644 4238 
z
" transform="scale(0.015625)"/>
       <path id="TimesNewRomanPSMT-6b" d="M 1047 4444 
L 1047 1597 
L 1775 2259 
Q 2006 2472 2044 2528 
Q 2069 2566 2069 2603 
Q 2069 2666 2017 2711 
Q 1966 2756 1847 2763 
L 1847 2863 
L 3091 2863 
L 3091 2763 
Q 2834 2756 2664 2684 
Q 2494 2613 2291 2428 
L 1556 1750 
L 2291 822 
Q 2597 438 2703 334 
Q 2853 188 2966 144 
Q 3044 113 3238 113 
L 3238 0 
L 1847 0 
L 1847 113 
Q 1966 116 2008 148 
Q 2050 181 2050 241 
Q 2050 313 1925 472 
L 1047 1594 
L 1047 644 
Q 1047 366 1086 278 
Q 1125 191 1197 153 
Q 1269 116 1509 113 
L 1509 0 
L 53 0 
L 53 113 
Q 272 113 381 166 
Q 447 200 481 272 
Q 528 375 528 628 
L 528 3234 
Q 528 3731 506 3842 
Q 484 3953 434 3995 
Q 384 4038 303 4038 
Q 238 4038 106 3984 
L 53 4094 
L 903 4444 
L 1047 4444 
z
" transform="scale(0.015625)"/>
       <path id="TimesNewRomanPSMT-6d" d="M 1050 2338 
Q 1363 2650 1419 2697 
Q 1559 2816 1721 2881 
Q 1884 2947 2044 2947 
Q 2313 2947 2506 2790 
Q 2700 2634 2766 2338 
Q 3088 2713 3309 2830 
Q 3531 2947 3766 2947 
Q 3994 2947 4170 2830 
Q 4347 2713 4450 2447 
Q 4519 2266 4519 1878 
L 4519 647 
Q 4519 378 4559 278 
Q 4591 209 4675 161 
Q 4759 113 4950 113 
L 4950 0 
L 3538 0 
L 3538 113 
L 3597 113 
Q 3781 113 3884 184 
Q 3956 234 3988 344 
Q 4000 397 4000 647 
L 4000 1878 
Q 4000 2228 3916 2372 
Q 3794 2572 3525 2572 
Q 3359 2572 3192 2489 
Q 3025 2406 2788 2181 
L 2781 2147 
L 2788 2013 
L 2788 647 
Q 2788 353 2820 281 
Q 2853 209 2943 161 
Q 3034 113 3253 113 
L 3253 0 
L 1806 0 
L 1806 113 
Q 2044 113 2133 169 
Q 2222 225 2256 338 
Q 2272 391 2272 647 
L 2272 1878 
Q 2272 2228 2169 2381 
Q 2031 2581 1784 2581 
Q 1616 2581 1450 2491 
Q 1191 2353 1050 2181 
L 1050 647 
Q 1050 366 1089 281 
Q 1128 197 1204 155 
Q 1281 113 1516 113 
L 1516 0 
L 100 0 
L 100 113 
Q 297 113 375 155 
Q 453 197 493 289 
Q 534 381 534 647 
L 534 1741 
Q 534 2213 506 2350 
Q 484 2453 437 2492 
Q 391 2531 309 2531 
Q 222 2531 100 2484 
L 53 2597 
L 916 2947 
L 1050 2947 
L 1050 2338 
z
" transform="scale(0.015625)"/>
       <path id="TimesNewRomanPSMT-2f" d="M 1794 4444 
L 259 -88 
L 9 -88 
L 1544 4444 
L 1794 4444 
z
" transform="scale(0.015625)"/>
       <path id="TimesNewRomanPSMT-68" d="M 1041 4444 
L 1041 2350 
Q 1388 2731 1591 2839 
Q 1794 2947 1997 2947 
Q 2241 2947 2416 2812 
Q 2591 2678 2675 2391 
Q 2734 2191 2734 1659 
L 2734 647 
Q 2734 375 2778 275 
Q 2809 200 2884 156 
Q 2959 113 3159 113 
L 3159 0 
L 1753 0 
L 1753 113 
L 1819 113 
Q 2019 113 2097 173 
Q 2175 234 2206 353 
Q 2216 403 2216 647 
L 2216 1659 
Q 2216 2128 2167 2275 
Q 2119 2422 2012 2495 
Q 1906 2569 1756 2569 
Q 1603 2569 1437 2487 
Q 1272 2406 1041 2159 
L 1041 647 
Q 1041 353 1073 281 
Q 1106 209 1195 161 
Q 1284 113 1503 113 
L 1503 0 
L 84 0 
L 84 113 
Q 275 113 384 172 
Q 447 203 484 290 
Q 522 378 522 647 
L 522 3238 
Q 522 3728 498 3840 
Q 475 3953 426 3993 
Q 378 4034 297 4034 
Q 231 4034 84 3984 
L 41 4094 
L 897 4444 
L 1041 4444 
z
" transform="scale(0.015625)"/>
       <path id="TimesNewRomanPSMT-29" d="M 144 4313 
L 144 4444 
Q 619 4209 934 3891 
Q 1381 3434 1625 2820 
Q 1869 2206 1869 1541 
Q 1869 572 1392 -226 
Q 916 -1025 144 -1369 
L 144 -1253 
Q 528 -1038 776 -670 
Q 1025 -303 1145 264 
Q 1266 831 1266 1447 
Q 1266 2113 1163 2663 
Q 1084 3094 967 3353 
Q 850 3613 656 3853 
Q 463 4094 144 4313 
z
" transform="scale(0.015625)"/>
       <path id="TimesNewRomanPSMT-5f" d="M 3256 -1381 
L -53 -1381 
L -53 -1119 
L 3256 -1119 
L 3256 -1381 
z
" transform="scale(0.015625)"/>
       <path id="TimesNewRomanPSMT-74" d="M 1031 3803 
L 1031 2863 
L 1700 2863 
L 1700 2644 
L 1031 2644 
L 1031 788 
Q 1031 509 1111 412 
Q 1191 316 1316 316 
Q 1419 316 1516 380 
Q 1613 444 1666 569 
L 1788 569 
Q 1678 263 1478 108 
Q 1278 -47 1066 -47 
Q 922 -47 784 33 
Q 647 113 581 261 
Q 516 409 516 719 
L 516 2644 
L 63 2644 
L 63 2747 
Q 234 2816 414 2980 
Q 594 3144 734 3369 
Q 806 3488 934 3803 
L 1031 3803 
z
" transform="scale(0.015625)"/>
      </defs>
      <use xlink:href="#TimesNewRomanPSMT-52"/>
      <use xlink:href="#TimesNewRomanPSMT-6f" x="66.699219"/>
      <use xlink:href="#TimesNewRomanPSMT-61" x="116.699219"/>
      <use xlink:href="#TimesNewRomanPSMT-64" x="161.083984"/>
      <use xlink:href="#TimesNewRomanPSMT-54" x="211.083984"/>
      <use xlink:href="#TimesNewRomanPSMT-79" x="265.167969"/>
      <use xlink:href="#TimesNewRomanPSMT-70" x="315.167969"/>
      <use xlink:href="#TimesNewRomanPSMT-65" x="365.167969"/>
      <use xlink:href="#TimesNewRomanPSMT-3a" x="409.552734"/>
      <use xlink:href="#TimesNewRomanPSMT-54" x="437.335938"/>
      <use xlink:href="#TimesNewRomanPSMT-77" x="491.419922"/>
      <use xlink:href="#TimesNewRomanPSMT-6f" x="563.636719"/>
      <use xlink:href="#TimesNewRomanPSMT-2d" x="613.636719"/>
      <use xlink:href="#TimesNewRomanPSMT-4c" x="646.9375"/>
      <use xlink:href="#TimesNewRomanPSMT-61" x="708.021484"/>
      <use xlink:href="#TimesNewRomanPSMT-6e" x="752.40625"/>
      <use xlink:href="#TimesNewRomanPSMT-65" x="802.40625"/>
      <use xlink:href="#TimesNewRomanPSMT-2c" x="846.791016"/>
      <use xlink:href="#TimesNewRomanPSMT-54" x="871.791016"/>
      <use xlink:href="#TimesNewRomanPSMT-77" x="925.875"/>
      <use xlink:href="#TimesNewRomanPSMT-6f" x="998.091797"/>
      <use xlink:href="#TimesNewRomanPSMT-2d" x="1048.091797"/>
      <use xlink:href="#TimesNewRomanPSMT-57" x="1081.392578"/>
      <use xlink:href="#TimesNewRomanPSMT-61" x="1167.777344"/>
      <use xlink:href="#TimesNewRomanPSMT-79" x="1212.162109"/>
      <use xlink:href="#TimesNewRomanPSMT-52" x="1262.162109"/>
      <use xlink:href="#TimesNewRomanPSMT-6f" x="1328.861328"/>
      <use xlink:href="#TimesNewRomanPSMT-61" x="1378.861328"/>
      <use xlink:href="#TimesNewRomanPSMT-64" x="1423.246094"/>
      <use xlink:href="#TimesNewRomanPSMT-77" x="1473.246094"/>
      <use xlink:href="#TimesNewRomanPSMT-61" x="1545.462891"/>
      <use xlink:href="#TimesNewRomanPSMT-79" x="1589.847656"/>
      <use xlink:href="#TimesNewRomanPSMT-73" x="1639.847656"/>
      <use xlink:href="#TimesNewRomanPSMT-28" x="1678.763672"/>
      <use xlink:href="#TimesNewRomanPSMT-3e" x="1712.064453"/>
      <use xlink:href="#TimesNewRomanPSMT-37" x="1768.460938"/>
      <use xlink:href="#TimesNewRomanPSMT-30" x="1818.460938"/>
      <use xlink:href="#TimesNewRomanPSMT-6b" x="1868.460938"/>
      <use xlink:href="#TimesNewRomanPSMT-6d" x="1918.460938"/>
      <use xlink:href="#TimesNewRomanPSMT-2f" x="1996.244141"/>
      <use xlink:href="#TimesNewRomanPSMT-68" x="2024.027344"/>
      <use xlink:href="#TimesNewRomanPSMT-29" x="2074.027344"/>
      <use xlink:href="#TimesNewRomanPSMT-5f" x="2107.328125"/>
      <use xlink:href="#TimesNewRomanPSMT-6f" x="2157.328125"/>
      <use xlink:href="#TimesNewRomanPSMT-6e" x="2207.328125"/>
      <use xlink:href="#TimesNewRomanPSMT-65" x="2257.328125"/>
      <use xlink:href="#TimesNewRomanPSMT-68" x="2301.712891"/>
      <use xlink:href="#TimesNewRomanPSMT-6f" x="2351.712891"/>
      <use xlink:href="#TimesNewRomanPSMT-74" x="2401.712891"/>
     </g>
    </g>
   </g>
   <g id="matplotlib.axis_2">
    <g id="ytick_1">
     <g id="line2d_7">
      <defs>
       <path id="m1f6d1390ad" d="M 0 0 
L -3.5 0 
" style="stroke: #ff0000; stroke-width: 0.8"/>
      </defs>
      <g>
       <use xlink:href="#m1f6d1390ad" x="108" y="331.196514" style="fill: #ff0000; stroke: #ff0000; stroke-width: 0.8"/>
      </g>
     </g>
     <g id="text_8">
      <!-- 2.55 -->
      <g style="fill: #ff0000" transform="translate(73 336.751514) scale(0.16 -0.16)">
       <defs>
        <path id="TimesNewRomanPSMT-35" d="M 2778 4238 
L 2534 3706 
L 1259 3706 
L 981 3138 
Q 1809 3016 2294 2522 
Q 2709 2097 2709 1522 
Q 2709 1188 2573 903 
Q 2438 619 2231 419 
Q 2025 219 1772 97 
Q 1413 -75 1034 -75 
Q 653 -75 479 54 
Q 306 184 306 341 
Q 306 428 378 495 
Q 450 563 559 563 
Q 641 563 702 538 
Q 763 513 909 409 
Q 1144 247 1384 247 
Q 1750 247 2026 523 
Q 2303 800 2303 1197 
Q 2303 1581 2056 1914 
Q 1809 2247 1375 2428 
Q 1034 2569 447 2591 
L 1259 4238 
L 2778 4238 
z
" transform="scale(0.015625)"/>
       </defs>
       <use xlink:href="#TimesNewRomanPSMT-32"/>
       <use xlink:href="#TimesNewRomanPSMT-2e" x="50"/>
       <use xlink:href="#TimesNewRomanPSMT-35" x="75"/>
       <use xlink:href="#TimesNewRomanPSMT-35" x="125"/>
      </g>
     </g>
    </g>
    <g id="ytick_2">
     <g id="line2d_8">
      <g>
       <use xlink:href="#m1f6d1390ad" x="108" y="265.7404" style="fill: #ff0000; stroke: #ff0000; stroke-width: 0.8"/>
      </g>
     </g>
     <g id="text_9">
      <!-- 2.60 -->
      <g style="fill: #ff0000" transform="translate(73 271.2954) scale(0.16 -0.16)">
       <use xlink:href="#TimesNewRomanPSMT-32"/>
       <use xlink:href="#TimesNewRomanPSMT-2e" x="50"/>
       <use xlink:href="#TimesNewRomanPSMT-36" x="75"/>
       <use xlink:href="#TimesNewRomanPSMT-30" x="125"/>
      </g>
     </g>
    </g>
    <g id="ytick_3">
     <g id="line2d_9">
      <g>
       <use xlink:href="#m1f6d1390ad" x="108" y="200.284285" style="fill: #ff0000; stroke: #ff0000; stroke-width: 0.8"/>
      </g>
     </g>
     <g id="text_10">
      <!-- 2.65 -->
      <g style="fill: #ff0000" transform="translate(73 205.839285) scale(0.16 -0.16)">
       <use xlink:href="#TimesNewRomanPSMT-32"/>
       <use xlink:href="#TimesNewRomanPSMT-2e" x="50"/>
       <use xlink:href="#TimesNewRomanPSMT-36" x="75"/>
       <use xlink:href="#TimesNewRomanPSMT-35" x="125"/>
      </g>
     </g>
    </g>
    <g id="ytick_4">
     <g id="line2d_10">
      <g>
       <use xlink:href="#m1f6d1390ad" x="108" y="134.828171" style="fill: #ff0000; stroke: #ff0000; stroke-width: 0.8"/>
      </g>
     </g>
     <g id="text_11">
      <!-- 2.70 -->
      <g style="fill: #ff0000" transform="translate(73 140.383171) scale(0.16 -0.16)">
       <use xlink:href="#TimesNewRomanPSMT-32"/>
       <use xlink:href="#TimesNewRomanPSMT-2e" x="50"/>
       <use xlink:href="#TimesNewRomanPSMT-37" x="75"/>
       <use xlink:href="#TimesNewRomanPSMT-30" x="125"/>
      </g>
     </g>
    </g>
    <g id="ytick_5">
     <g id="line2d_11">
      <g>
       <use xlink:href="#m1f6d1390ad" x="108" y="69.372056" style="fill: #ff0000; stroke: #ff0000; stroke-width: 0.8"/>
      </g>
     </g>
     <g id="text_12">
      <!-- 2.75 -->
      <g style="fill: #ff0000" transform="translate(73 74.927056) scale(0.16 -0.16)">
       <use xlink:href="#TimesNewRomanPSMT-32"/>
       <use xlink:href="#TimesNewRomanPSMT-2e" x="50"/>
       <use xlink:href="#TimesNewRomanPSMT-37" x="75"/>
       <use xlink:href="#TimesNewRomanPSMT-35" x="125"/>
      </g>
     </g>
    </g>
    <g id="text_13">
     <!-- UnderConstructionTime -->
     <g style="fill: #ff0000" transform="translate(64.721875 315.569375) rotate(-90) scale(0.2 -0.2)">
      <defs>
       <path id="TimesNewRomanPSMT-55" d="M 3053 4122 
L 3053 4238 
L 4553 4238 
L 4553 4122 
L 4394 4122 
Q 4144 4122 4009 3913 
Q 3944 3816 3944 3463 
L 3944 1744 
Q 3944 1106 3817 754 
Q 3691 403 3320 151 
Q 2950 -100 2313 -100 
Q 1619 -100 1259 140 
Q 900 381 750 788 
Q 650 1066 650 1831 
L 650 3488 
Q 650 3878 542 4000 
Q 434 4122 194 4122 
L 34 4122 
L 34 4238 
L 1866 4238 
L 1866 4122 
L 1703 4122 
Q 1441 4122 1328 3956 
Q 1250 3844 1250 3488 
L 1250 1641 
Q 1250 1394 1295 1075 
Q 1341 756 1459 578 
Q 1578 400 1801 284 
Q 2025 169 2350 169 
Q 2766 169 3094 350 
Q 3422 531 3542 814 
Q 3663 1097 3663 1772 
L 3663 3488 
Q 3663 3884 3575 3984 
Q 3453 4122 3213 4122 
L 3053 4122 
z
" transform="scale(0.015625)"/>
       <path id="TimesNewRomanPSMT-72" d="M 1038 2947 
L 1038 2303 
Q 1397 2947 1775 2947 
Q 1947 2947 2059 2842 
Q 2172 2738 2172 2600 
Q 2172 2478 2090 2393 
Q 2009 2309 1897 2309 
Q 1788 2309 1652 2417 
Q 1516 2525 1450 2525 
Q 1394 2525 1328 2463 
Q 1188 2334 1038 2041 
L 1038 669 
Q 1038 431 1097 309 
Q 1138 225 1241 169 
Q 1344 113 1538 113 
L 1538 0 
L 72 0 
L 72 113 
Q 291 113 397 181 
Q 475 231 506 341 
Q 522 394 522 644 
L 522 1753 
Q 522 2253 501 2348 
Q 481 2444 426 2487 
Q 372 2531 291 2531 
Q 194 2531 72 2484 
L 41 2597 
L 906 2947 
L 1038 2947 
z
" transform="scale(0.015625)"/>
       <path id="TimesNewRomanPSMT-43" d="M 3853 4334 
L 3950 2894 
L 3853 2894 
Q 3659 3541 3300 3825 
Q 2941 4109 2438 4109 
Q 2016 4109 1675 3895 
Q 1334 3681 1139 3212 
Q 944 2744 944 2047 
Q 944 1472 1128 1050 
Q 1313 628 1683 403 
Q 2053 178 2528 178 
Q 2941 178 3256 354 
Q 3572 531 3950 1056 
L 4047 994 
Q 3728 428 3303 165 
Q 2878 -97 2294 -97 
Q 1241 -97 663 684 
Q 231 1266 231 2053 
Q 231 2688 515 3219 
Q 800 3750 1298 4042 
Q 1797 4334 2388 4334 
Q 2847 4334 3294 4109 
Q 3425 4041 3481 4041 
Q 3566 4041 3628 4100 
Q 3709 4184 3744 4334 
L 3853 4334 
z
" transform="scale(0.015625)"/>
       <path id="TimesNewRomanPSMT-75" d="M 2709 2863 
L 2709 1128 
Q 2709 631 2732 520 
Q 2756 409 2807 365 
Q 2859 322 2928 322 
Q 3025 322 3147 375 
L 3191 266 
L 2334 -88 
L 2194 -88 
L 2194 519 
Q 1825 119 1631 15 
Q 1438 -88 1222 -88 
Q 981 -88 804 51 
Q 628 191 559 409 
Q 491 628 491 1028 
L 491 2306 
Q 491 2509 447 2587 
Q 403 2666 317 2708 
Q 231 2750 6 2747 
L 6 2863 
L 1009 2863 
L 1009 947 
Q 1009 547 1148 422 
Q 1288 297 1484 297 
Q 1619 297 1789 381 
Q 1959 466 2194 703 
L 2194 2325 
Q 2194 2569 2105 2655 
Q 2016 2741 1734 2747 
L 1734 2863 
L 2709 2863 
z
" transform="scale(0.015625)"/>
       <path id="TimesNewRomanPSMT-63" d="M 2631 1088 
Q 2516 522 2178 217 
Q 1841 -88 1431 -88 
Q 944 -88 581 321 
Q 219 731 219 1428 
Q 219 2103 620 2525 
Q 1022 2947 1584 2947 
Q 2006 2947 2278 2723 
Q 2550 2500 2550 2259 
Q 2550 2141 2473 2067 
Q 2397 1994 2259 1994 
Q 2075 1994 1981 2113 
Q 1928 2178 1911 2362 
Q 1894 2547 1784 2644 
Q 1675 2738 1481 2738 
Q 1169 2738 978 2506 
Q 725 2200 725 1697 
Q 725 1184 976 792 
Q 1228 400 1656 400 
Q 1963 400 2206 609 
Q 2378 753 2541 1131 
L 2631 1088 
z
" transform="scale(0.015625)"/>
       <path id="TimesNewRomanPSMT-69" d="M 928 4444 
Q 1059 4444 1151 4351 
Q 1244 4259 1244 4128 
Q 1244 3997 1151 3903 
Q 1059 3809 928 3809 
Q 797 3809 703 3903 
Q 609 3997 609 4128 
Q 609 4259 701 4351 
Q 794 4444 928 4444 
z
M 1188 2947 
L 1188 647 
Q 1188 378 1227 289 
Q 1266 200 1342 156 
Q 1419 113 1622 113 
L 1622 0 
L 231 0 
L 231 113 
Q 441 113 512 153 
Q 584 194 626 287 
Q 669 381 669 647 
L 669 1750 
Q 669 2216 641 2353 
Q 619 2453 572 2492 
Q 525 2531 444 2531 
Q 356 2531 231 2484 
L 188 2597 
L 1050 2947 
L 1188 2947 
z
" transform="scale(0.015625)"/>
      </defs>
      <use xlink:href="#TimesNewRomanPSMT-55"/>
      <use xlink:href="#TimesNewRomanPSMT-6e" x="72.216797"/>
      <use xlink:href="#TimesNewRomanPSMT-64" x="122.216797"/>
      <use xlink:href="#TimesNewRomanPSMT-65" x="172.216797"/>
      <use xlink:href="#TimesNewRomanPSMT-72" x="216.601562"/>
      <use xlink:href="#TimesNewRomanPSMT-43" x="249.902344"/>
      <use xlink:href="#TimesNewRomanPSMT-6f" x="316.601562"/>
      <use xlink:href="#TimesNewRomanPSMT-6e" x="366.601562"/>
      <use xlink:href="#TimesNewRomanPSMT-73" x="416.601562"/>
      <use xlink:href="#TimesNewRomanPSMT-74" x="455.517578"/>
      <use xlink:href="#TimesNewRomanPSMT-72" x="483.300781"/>
      <use xlink:href="#TimesNewRomanPSMT-75" x="516.601562"/>
      <use xlink:href="#TimesNewRomanPSMT-63" x="566.601562"/>
      <use xlink:href="#TimesNewRomanPSMT-74" x="610.986328"/>
      <use xlink:href="#TimesNewRomanPSMT-69" x="638.769531"/>
      <use xlink:href="#TimesNewRomanPSMT-6f" x="666.552734"/>
      <use xlink:href="#TimesNewRomanPSMT-6e" x="716.552734"/>
      <use xlink:href="#TimesNewRomanPSMT-54" x="766.552734"/>
      <use xlink:href="#TimesNewRomanPSMT-69" x="824.136719"/>
      <use xlink:href="#TimesNewRomanPSMT-6d" x="851.919922"/>
      <use xlink:href="#TimesNewRomanPSMT-65" x="929.703125"/>
     </g>
    </g>
   </g>
   <g id="line2d_12">
    <path d="M 138.436364 369.36 
L 144.585124 369.051429 
L 150.733884 368.736495 
L 156.882645 368.415 
L 163.031405 368.086737 
L 169.180165 367.751489 
L 175.328926 367.409032 
L 181.477686 367.05913 
L 187.626446 366.701538 
L 193.775207 366.336 
L 199.923967 365.962247 
L 206.072727 365.58 
L 212.221488 365.188966 
L 218.370248 364.788837 
L 224.519008 364.379294 
L 230.667769 363.96 
L 236.816529 363.530602 
L 242.965289 363.090732 
L 249.11405 362.64 
L 255.26281 362.178 
L 261.41157 361.704305 
L 267.560331 361.218463 
L 273.709091 360.720003 
L 279.857851 360.208425 
L 286.006612 359.683207 
L 292.155372 359.143795 
L 298.304132 358.589606 
L 304.452893 358.020026 
L 310.601653 357.434405 
L 316.750413 356.832058 
L 322.899174 356.21226 
L 329.047934 355.574243 
L 335.196694 354.917195 
L 341.345455 354.240256 
L 347.494215 353.542515 
L 353.642975 352.823004 
L 359.791736 352.080699 
L 365.940496 351.314508 
L 372.089256 350.523275 
L 378.238017 349.705769 
L 384.386777 348.860682 
L 390.535537 347.986621 
L 396.684298 347.082103 
L 402.833058 346.145549 
L 408.981818 345.175275 
L 415.130579 344.169488 
L 421.279339 343.126273 
L 427.428099 342.043589 
L 433.57686 340.919256 
L 439.72562 339.750947 
L 445.87438 338.536177 
L 452.02314 337.272292 
L 458.171901 335.956456 
L 464.320661 334.585637 
L 470.469421 333.156596 
L 476.618182 331.665868 
L 482.766942 330.109752 
L 488.915702 328.484287 
L 495.064463 326.78524 
L 501.213223 325.008082 
L 507.361983 323.147972 
L 513.510744 321.199732 
L 519.659504 319.157826 
L 525.808264 317.016333 
L 531.957025 314.768923 
L 538.105785 312.408828 
L 544.254545 309.928816 
L 550.403306 307.321153 
L 556.552066 304.577577 
L 562.700826 301.689259 
L 568.849587 298.646768 
L 574.998347 295.440029 
L 581.147107 292.058286 
L 587.295868 288.490054 
L 593.444628 284.723075 
L 599.593388 280.744269 
L 605.742149 276.53968 
L 611.890909 272.094428 
L 618.039669 267.392642 
L 624.18843 262.417408 
L 630.33719 257.150701 
L 636.48595 251.573321 
L 642.634711 245.664817 
L 648.783471 239.403419 
L 654.932231 232.765957 
L 661.080992 225.727776 
L 667.229752 218.262658 
L 673.378512 210.342721 
L 679.527273 201.938332 
L 685.676033 193.018004 
L 691.824793 183.548291 
L 697.973554 173.493679 
L 704.122314 162.816472 
L 710.271074 151.476669 
L 716.419835 139.43184 
L 722.568595 126.636993 
L 728.717355 113.044437 
L 734.866116 98.603633 
L 741.014876 83.26105 
L 747.163636 66.96 
" clip-path="url(#pbef0c34e19)" style="fill: none; stroke: #ff0000; stroke-width: 1.5; stroke-linecap: square"/>
   </g>
   <g id="patch_3">
    <path d="M 108 384.48 
L 108 51.84 
" style="fill: none; stroke: #58544f; stroke-width: 0.8; stroke-linejoin: miter; stroke-linecap: square"/>
   </g>
   <g id="patch_4">
    <path d="M 777.6 384.48 
L 777.6 51.84 
" style="fill: none; stroke: #58544f; stroke-width: 0.8; stroke-linejoin: miter; stroke-linecap: square"/>
   </g>
   <g id="patch_5">
    <path d="M 108 384.48 
L 777.6 384.48 
" style="fill: none; stroke: #58544f; stroke-width: 0.8; stroke-linejoin: miter; stroke-linecap: square"/>
   </g>
   <g id="patch_6">
    <path d="M 108 51.84 
L 777.6 51.84 
" style="fill: none; stroke: #58544f; stroke-width: 0.8; stroke-linejoin: miter; stroke-linecap: square"/>
   </g>
  </g>
  <g id="axes_2">
   <g id="patch_7">
    <path d="M 138.436364 384.48 
L 153.654545 384.48 
L 153.654545 67.68 
L 138.436364 67.68 
z
" clip-path="url(#pbef0c34e19)" style="fill: #0088ed; opacity: 0.4"/>
   </g>
   <g id="patch_8">
    <path d="M 153.654545 384.48 
L 168.872727 384.48 
L 168.872727 384.48 
L 153.654545 384.48 
z
" clip-path="url(#pbef0c34e19)" style="fill: #0088ed; opacity: 0.4"/>
   </g>
   <g id="patch_9">
    <path d="M 168.872727 384.48 
L 184.090909 384.48 
L 184.090909 384.48 
L 168.872727 384.48 
z
" clip-path="url(#pbef0c34e19)" style="fill: #0088ed; opacity: 0.4"/>
   </g>
   <g id="patch_10">
    <path d="M 184.090909 384.48 
L 199.309091 384.48 
L 199.309091 384.48 
L 184.090909 384.48 
z
" clip-path="url(#pbef0c34e19)" style="fill: #0088ed; opacity: 0.4"/>
   </g>
   <g id="patch_11">
    <path d="M 199.309091 384.48 
L 214.527273 384.48 
L 214.527273 384.48 
L 199.309091 384.48 
z
" clip-path="url(#pbef0c34e19)" style="fill: #0088ed; opacity: 0.4"/>
   </g>
   <g id="patch_12">
    <path d="M 214.527273 384.48 
L 229.745455 384.48 
L 229.745455 384.48 
L 214.527273 384.48 
z
" clip-path="url(#pbef0c34e19)" style="fill: #0088ed; opacity: 0.4"/>
   </g>
   <g id="patch_13">
    <path d="M 229.745455 384.48 
L 244.963636 384.48 
L 244.963636 384.48 
L 229.745455 384.48 
z
" clip-path="url(#pbef0c34e19)" style="fill: #0088ed; opacity: 0.4"/>
   </g>
   <g id="patch_14">
    <path d="M 244.963636 384.48 
L 260.181818 384.48 
L 260.181818 384.48 
L 244.963636 384.48 
z
" clip-path="url(#pbef0c34e19)" style="fill: #0088ed; opacity: 0.4"/>
   </g>
   <g id="patch_15">
    <path d="M 260.181818 384.48 
L 275.4 384.48 
L 275.4 384.48 
L 260.181818 384.48 
z
" clip-path="url(#pbef0c34e19)" style="fill: #0088ed; opacity: 0.4"/>
   </g>
   <g id="patch_16">
    <path d="M 275.4 384.48 
L 290.618182 384.48 
L 290.618182 384.48 
L 275.4 384.48 
z
" clip-path="url(#pbef0c34e19)" style="fill: #0088ed; opacity: 0.4"/>
   </g>
   <g id="patch_17">
    <path d="M 290.618182 384.48 
L 305.836364 384.48 
L 305.836364 384.48 
L 290.618182 384.48 
z
" clip-path="url(#pbef0c34e19)" style="fill: #0088ed; opacity: 0.4"/>
   </g>
   <g id="patch_18">
    <path d="M 305.836364 384.48 
L 321.054545 384.48 
L 321.054545 384.48 
L 305.836364 384.48 
z
" clip-path="url(#pbef0c34e19)" style="fill: #0088ed; opacity: 0.4"/>
   </g>
   <g id="patch_19">
    <path d="M 321.054545 384.48 
L 336.272727 384.48 
L 336.272727 384.48 
L 321.054545 384.48 
z
" clip-path="url(#pbef0c34e19)" style="fill: #0088ed; opacity: 0.4"/>
   </g>
   <g id="patch_20">
    <path d="M 336.272727 384.48 
L 351.490909 384.48 
L 351.490909 384.48 
L 336.272727 384.48 
z
" clip-path="url(#pbef0c34e19)" style="fill: #0088ed; opacity: 0.4"/>
   </g>
   <g id="patch_21">
    <path d="M 351.490909 384.48 
L 366.709091 384.48 
L 366.709091 384.48 
L 351.490909 384.48 
z
" clip-path="url(#pbef0c34e19)" style="fill: #0088ed; opacity: 0.4"/>
   </g>
   <g id="patch_22">
    <path d="M 366.709091 384.48 
L 381.927273 384.48 
L 381.927273 384.48 
L 366.709091 384.48 
z
" clip-path="url(#pbef0c34e19)" style="fill: #0088ed; opacity: 0.4"/>
   </g>
   <g id="patch_23">
    <path d="M 381.927273 384.48 
L 397.145455 384.48 
L 397.145455 384.48 
L 381.927273 384.48 
z
" clip-path="url(#pbef0c34e19)" style="fill: #0088ed; opacity: 0.4"/>
   </g>
   <g id="patch_24">
    <path d="M 397.145455 384.48 
L 412.363636 384.48 
L 412.363636 384.48 
L 397.145455 384.48 
z
" clip-path="url(#pbef0c34e19)" style="fill: #0088ed; opacity: 0.4"/>
   </g>
   <g id="patch_25">
    <path d="M 412.363636 384.48 
L 427.581818 384.48 
L 427.581818 384.48 
L 412.363636 384.48 
z
" clip-path="url(#pbef0c34e19)" style="fill: #0088ed; opacity: 0.4"/>
   </g>
   <g id="patch_26">
    <path d="M 427.581818 384.48 
L 442.8 384.48 
L 442.8 384.48 
L 427.581818 384.48 
z
" clip-path="url(#pbef0c34e19)" style="fill: #0088ed; opacity: 0.4"/>
   </g>
   <g id="patch_27">
    <path d="M 442.8 384.48 
L 458.018182 384.48 
L 458.018182 384.48 
L 442.8 384.48 
z
" clip-path="url(#pbef0c34e19)" style="fill: #0088ed; opacity: 0.4"/>
   </g>
   <g id="patch_28">
    <path d="M 458.018182 384.48 
L 473.236364 384.48 
L 473.236364 384.48 
L 458.018182 384.48 
z
" clip-path="url(#pbef0c34e19)" style="fill: #0088ed; opacity: 0.4"/>
   </g>
   <g id="patch_29">
    <path d="M 473.236364 384.48 
L 488.454545 384.48 
L 488.454545 384.48 
L 473.236364 384.48 
z
" clip-path="url(#pbef0c34e19)" style="fill: #0088ed; opacity: 0.4"/>
   </g>
   <g id="patch_30">
    <path d="M 488.454545 384.48 
L 503.672727 384.48 
L 503.672727 384.48 
L 488.454545 384.48 
z
" clip-path="url(#pbef0c34e19)" style="fill: #0088ed; opacity: 0.4"/>
   </g>
   <g id="patch_31">
    <path d="M 503.672727 384.48 
L 518.890909 384.48 
L 518.890909 384.48 
L 503.672727 384.48 
z
" clip-path="url(#pbef0c34e19)" style="fill: #0088ed; opacity: 0.4"/>
   </g>
   <g id="patch_32">
    <path d="M 518.890909 384.48 
L 534.109091 384.48 
L 534.109091 384.48 
L 518.890909 384.48 
z
" clip-path="url(#pbef0c34e19)" style="fill: #0088ed; opacity: 0.4"/>
   </g>
   <g id="patch_33">
    <path d="M 534.109091 384.48 
L 549.327273 384.48 
L 549.327273 384.48 
L 534.109091 384.48 
z
" clip-path="url(#pbef0c34e19)" style="fill: #0088ed; opacity: 0.4"/>
   </g>
   <g id="patch_34">
    <path d="M 549.327273 384.48 
L 564.545455 384.48 
L 564.545455 384.48 
L 549.327273 384.48 
z
" clip-path="url(#pbef0c34e19)" style="fill: #0088ed; opacity: 0.4"/>
   </g>
   <g id="patch_35">
    <path d="M 564.545455 384.48 
L 579.763636 384.48 
L 579.763636 384.48 
L 564.545455 384.48 
z
" clip-path="url(#pbef0c34e19)" style="fill: #0088ed; opacity: 0.4"/>
   </g>
   <g id="patch_36">
    <path d="M 579.763636 384.48 
L 594.981818 384.48 
L 594.981818 384.48 
L 579.763636 384.48 
z
" clip-path="url(#pbef0c34e19)" style="fill: #0088ed; opacity: 0.4"/>
   </g>
   <g id="patch_37">
    <path d="M 594.981818 384.48 
L 610.2 384.48 
L 610.2 384.48 
L 594.981818 384.48 
z
" clip-path="url(#pbef0c34e19)" style="fill: #0088ed; opacity: 0.4"/>
   </g>
   <g id="patch_38">
    <path d="M 610.2 384.48 
L 625.418182 384.48 
L 625.418182 384.48 
L 610.2 384.48 
z
" clip-path="url(#pbef0c34e19)" style="fill: #0088ed; opacity: 0.4"/>
   </g>
   <g id="patch_39">
    <path d="M 625.418182 384.48 
L 640.636364 384.48 
L 640.636364 384.48 
L 625.418182 384.48 
z
" clip-path="url(#pbef0c34e19)" style="fill: #0088ed; opacity: 0.4"/>
   </g>
   <g id="patch_40">
    <path d="M 640.636364 384.48 
L 655.854545 384.48 
L 655.854545 384.48 
L 640.636364 384.48 
z
" clip-path="url(#pbef0c34e19)" style="fill: #0088ed; opacity: 0.4"/>
   </g>
   <g id="patch_41">
    <path d="M 655.854545 384.48 
L 671.072727 384.48 
L 671.072727 384.48 
L 655.854545 384.48 
z
" clip-path="url(#pbef0c34e19)" style="fill: #0088ed; opacity: 0.4"/>
   </g>
   <g id="patch_42">
    <path d="M 671.072727 384.48 
L 686.290909 384.48 
L 686.290909 384.48 
L 671.072727 384.48 
z
" clip-path="url(#pbef0c34e19)" style="fill: #0088ed; opacity: 0.4"/>
   </g>
   <g id="patch_43">
    <path d="M 686.290909 384.48 
L 701.509091 384.48 
L 701.509091 384.48 
L 686.290909 384.48 
z
" clip-path="url(#pbef0c34e19)" style="fill: #0088ed; opacity: 0.4"/>
   </g>
   <g id="patch_44">
    <path d="M 701.509091 384.48 
L 716.727273 384.48 
L 716.727273 384.48 
L 701.509091 384.48 
z
" clip-path="url(#pbef0c34e19)" style="fill: #0088ed; opacity: 0.4"/>
   </g>
   <g id="patch_45">
    <path d="M 716.727273 384.48 
L 731.945455 384.48 
L 731.945455 384.48 
L 716.727273 384.48 
z
" clip-path="url(#pbef0c34e19)" style="fill: #0088ed; opacity: 0.4"/>
   </g>
   <g id="patch_46">
    <path d="M 731.945455 384.48 
L 747.163636 384.48 
L 747.163636 124.094762 
L 731.945455 124.094762 
z
" clip-path="url(#pbef0c34e19)" style="fill: #0088ed; opacity: 0.4"/>
   </g>
   <g id="matplotlib.axis_3">
    <g id="ytick_6">
     <g id="line2d_13">
      <defs>
       <path id="me705613ad9" d="M 0 0 
L 3.5 0 
" style="stroke: #0088ed; stroke-width: 0.8"/>
      </defs>
      <g>
       <use xlink:href="#me705613ad9" x="777.6" y="384.48" style="fill: #0088ed; stroke: #0088ed; stroke-width: 0.8"/>
      </g>
     </g>
     <g id="text_14">
      <!-- 0 -->
      <g style="fill: #0088ed" transform="translate(784.6 390.035) scale(0.16 -0.16)">
       <use xlink:href="#TimesNewRomanPSMT-30"/>
      </g>
     </g>
    </g>
    <g id="ytick_7">
     <g id="line2d_14">
      <g>
       <use xlink:href="#me705613ad9" x="777.6" y="325.072277" style="fill: #0088ed; stroke: #0088ed; stroke-width: 0.8"/>
      </g>
     </g>
     <g id="text_15">
      <!-- 50000 -->
      <g style="fill: #0088ed" transform="translate(784.6 330.627277) scale(0.16 -0.16)">
       <use xlink:href="#TimesNewRomanPSMT-35"/>
       <use xlink:href="#TimesNewRomanPSMT-30" x="50"/>
       <use xlink:href="#TimesNewRomanPSMT-30" x="100"/>
       <use xlink:href="#TimesNewRomanPSMT-30" x="150"/>
       <use xlink:href="#TimesNewRomanPSMT-30" x="200"/>
      </g>
     </g>
    </g>
    <g id="ytick_8">
     <g id="line2d_15">
      <g>
       <use xlink:href="#me705613ad9" x="777.6" y="265.664554" style="fill: #0088ed; stroke: #0088ed; stroke-width: 0.8"/>
      </g>
     </g>
     <g id="text_16">
      <!-- 100000 -->
      <g style="fill: #0088ed" transform="translate(784.6 271.219554) scale(0.16 -0.16)">
       <use xlink:href="#TimesNewRomanPSMT-31"/>
       <use xlink:href="#TimesNewRomanPSMT-30" x="50"/>
       <use xlink:href="#TimesNewRomanPSMT-30" x="100"/>
       <use xlink:href="#TimesNewRomanPSMT-30" x="150"/>
       <use xlink:href="#TimesNewRomanPSMT-30" x="200"/>
       <use xlink:href="#TimesNewRomanPSMT-30" x="250"/>
      </g>
     </g>
    </g>
    <g id="ytick_9">
     <g id="line2d_16">
      <g>
       <use xlink:href="#me705613ad9" x="777.6" y="206.256831" style="fill: #0088ed; stroke: #0088ed; stroke-width: 0.8"/>
      </g>
     </g>
     <g id="text_17">
      <!-- 150000 -->
      <g style="fill: #0088ed" transform="translate(784.6 211.811831) scale(0.16 -0.16)">
       <use xlink:href="#TimesNewRomanPSMT-31"/>
       <use xlink:href="#TimesNewRomanPSMT-35" x="50"/>
       <use xlink:href="#TimesNewRomanPSMT-30" x="100"/>
       <use xlink:href="#TimesNewRomanPSMT-30" x="150"/>
       <use xlink:href="#TimesNewRomanPSMT-30" x="200"/>
       <use xlink:href="#TimesNewRomanPSMT-30" x="250"/>
      </g>
     </g>
    </g>
    <g id="ytick_10">
     <g id="line2d_17">
      <g>
       <use xlink:href="#me705613ad9" x="777.6" y="146.849108" style="fill: #0088ed; stroke: #0088ed; stroke-width: 0.8"/>
      </g>
     </g>
     <g id="text_18">
      <!-- 200000 -->
      <g style="fill: #0088ed" transform="translate(784.6 152.404108) scale(0.16 -0.16)">
       <use xlink:href="#TimesNewRomanPSMT-32"/>
       <use xlink:href="#TimesNewRomanPSMT-30" x="50"/>
       <use xlink:href="#TimesNewRomanPSMT-30" x="100"/>
       <use xlink:href="#TimesNewRomanPSMT-30" x="150"/>
       <use xlink:href="#TimesNewRomanPSMT-30" x="200"/>
       <use xlink:href="#TimesNewRomanPSMT-30" x="250"/>
      </g>
     </g>
    </g>
    <g id="ytick_11">
     <g id="line2d_18">
      <g>
       <use xlink:href="#me705613ad9" x="777.6" y="87.441385" style="fill: #0088ed; stroke: #0088ed; stroke-width: 0.8"/>
      </g>
     </g>
     <g id="text_19">
      <!-- 250000 -->
      <g style="fill: #0088ed" transform="translate(784.6 92.996385) scale(0.16 -0.16)">
       <use xlink:href="#TimesNewRomanPSMT-32"/>
       <use xlink:href="#TimesNewRomanPSMT-35" x="50"/>
       <use xlink:href="#TimesNewRomanPSMT-30" x="100"/>
       <use xlink:href="#TimesNewRomanPSMT-30" x="150"/>
       <use xlink:href="#TimesNewRomanPSMT-30" x="200"/>
       <use xlink:href="#TimesNewRomanPSMT-30" x="250"/>
      </g>
     </g>
    </g>
    <g id="text_20">
     <!-- Distribution of RoadType:Two-Lane,Two-WayRoadways(&gt;70km/h)_onehot -->
     <g style="fill: #0088ed" transform="translate(853.4875 522.775625) rotate(-90) scale(0.2 -0.2)">
      <defs>
       <path id="TimesNewRomanPSMT-44" d="M 109 0 
L 109 116 
L 269 116 
Q 538 116 650 288 
Q 719 391 719 750 
L 719 3488 
Q 719 3884 631 3984 
Q 509 4122 269 4122 
L 109 4122 
L 109 4238 
L 1834 4238 
Q 2784 4238 3279 4022 
Q 3775 3806 4076 3303 
Q 4378 2800 4378 2141 
Q 4378 1256 3841 663 
Q 3238 0 2003 0 
L 109 0 
z
M 1319 306 
Q 1716 219 1984 219 
Q 2709 219 3187 728 
Q 3666 1238 3666 2109 
Q 3666 2988 3187 3494 
Q 2709 4000 1959 4000 
Q 1678 4000 1319 3909 
L 1319 306 
z
" transform="scale(0.015625)"/>
       <path id="TimesNewRomanPSMT-62" d="M 984 2369 
Q 1400 2947 1881 2947 
Q 2322 2947 2650 2570 
Q 2978 2194 2978 1541 
Q 2978 778 2472 313 
Q 2038 -88 1503 -88 
Q 1253 -88 995 3 
Q 738 94 469 275 
L 469 3241 
Q 469 3728 445 3840 
Q 422 3953 372 3993 
Q 322 4034 247 4034 
Q 159 4034 28 3984 
L -16 4094 
L 844 4444 
L 984 4444 
L 984 2369 
z
M 984 2169 
L 984 456 
Q 1144 300 1314 220 
Q 1484 141 1663 141 
Q 1947 141 2192 453 
Q 2438 766 2438 1363 
Q 2438 1913 2192 2208 
Q 1947 2503 1634 2503 
Q 1469 2503 1303 2419 
Q 1178 2356 984 2169 
z
" transform="scale(0.015625)"/>
       <path id="TimesNewRomanPSMT-20" transform="scale(0.015625)"/>
       <path id="TimesNewRomanPSMT-66" d="M 1319 2638 
L 1319 756 
Q 1319 356 1406 250 
Q 1522 113 1716 113 
L 1975 113 
L 1975 0 
L 266 0 
L 266 113 
L 394 113 
Q 519 113 622 175 
Q 725 238 764 344 
Q 803 450 803 756 
L 803 2638 
L 247 2638 
L 247 2863 
L 803 2863 
L 803 3050 
Q 803 3478 940 3775 
Q 1078 4072 1361 4255 
Q 1644 4438 1997 4438 
Q 2325 4438 2600 4225 
Q 2781 4084 2781 3909 
Q 2781 3816 2700 3733 
Q 2619 3650 2525 3650 
Q 2453 3650 2373 3701 
Q 2294 3753 2178 3923 
Q 2063 4094 1966 4153 
Q 1869 4213 1750 4213 
Q 1606 4213 1506 4136 
Q 1406 4059 1362 3898 
Q 1319 3738 1319 3069 
L 1319 2863 
L 2056 2863 
L 2056 2638 
L 1319 2638 
z
" transform="scale(0.015625)"/>
      </defs>
      <use xlink:href="#TimesNewRomanPSMT-44"/>
      <use xlink:href="#TimesNewRomanPSMT-69" x="72.216797"/>
      <use xlink:href="#TimesNewRomanPSMT-73" x="100"/>
      <use xlink:href="#TimesNewRomanPSMT-74" x="138.916016"/>
      <use xlink:href="#TimesNewRomanPSMT-72" x="166.699219"/>
      <use xlink:href="#TimesNewRomanPSMT-69" x="200"/>
      <use xlink:href="#TimesNewRomanPSMT-62" x="227.783203"/>
      <use xlink:href="#TimesNewRomanPSMT-75" x="277.783203"/>
      <use xlink:href="#TimesNewRomanPSMT-74" x="327.783203"/>
      <use xlink:href="#TimesNewRomanPSMT-69" x="355.566406"/>
      <use xlink:href="#TimesNewRomanPSMT-6f" x="383.349609"/>
      <use xlink:href="#TimesNewRomanPSMT-6e" x="433.349609"/>
      <use xlink:href="#TimesNewRomanPSMT-20" x="483.349609"/>
      <use xlink:href="#TimesNewRomanPSMT-6f" x="508.349609"/>
      <use xlink:href="#TimesNewRomanPSMT-66" x="558.349609"/>
      <use xlink:href="#TimesNewRomanPSMT-20" x="591.650391"/>
      <use xlink:href="#TimesNewRomanPSMT-52" x="616.650391"/>
      <use xlink:href="#TimesNewRomanPSMT-6f" x="683.349609"/>
      <use xlink:href="#TimesNewRomanPSMT-61" x="733.349609"/>
      <use xlink:href="#TimesNewRomanPSMT-64" x="777.734375"/>
      <use xlink:href="#TimesNewRomanPSMT-54" x="827.734375"/>
      <use xlink:href="#TimesNewRomanPSMT-79" x="881.818359"/>
      <use xlink:href="#TimesNewRomanPSMT-70" x="931.818359"/>
      <use xlink:href="#TimesNewRomanPSMT-65" x="981.818359"/>
      <use xlink:href="#TimesNewRomanPSMT-3a" x="1026.203125"/>
      <use xlink:href="#TimesNewRomanPSMT-54" x="1053.986328"/>
      <use xlink:href="#TimesNewRomanPSMT-77" x="1108.070312"/>
      <use xlink:href="#TimesNewRomanPSMT-6f" x="1180.287109"/>
      <use xlink:href="#TimesNewRomanPSMT-2d" x="1230.287109"/>
      <use xlink:href="#TimesNewRomanPSMT-4c" x="1263.587891"/>
      <use xlink:href="#TimesNewRomanPSMT-61" x="1324.671875"/>
      <use xlink:href="#TimesNewRomanPSMT-6e" x="1369.056641"/>
      <use xlink:href="#TimesNewRomanPSMT-65" x="1419.056641"/>
      <use xlink:href="#TimesNewRomanPSMT-2c" x="1463.441406"/>
      <use xlink:href="#TimesNewRomanPSMT-54" x="1488.441406"/>
      <use xlink:href="#TimesNewRomanPSMT-77" x="1542.525391"/>
      <use xlink:href="#TimesNewRomanPSMT-6f" x="1614.742188"/>
      <use xlink:href="#TimesNewRomanPSMT-2d" x="1664.742188"/>
      <use xlink:href="#TimesNewRomanPSMT-57" x="1698.042969"/>
      <use xlink:href="#TimesNewRomanPSMT-61" x="1784.427734"/>
      <use xlink:href="#TimesNewRomanPSMT-79" x="1828.8125"/>
      <use xlink:href="#TimesNewRomanPSMT-52" x="1878.8125"/>
      <use xlink:href="#TimesNewRomanPSMT-6f" x="1945.511719"/>
      <use xlink:href="#TimesNewRomanPSMT-61" x="1995.511719"/>
      <use xlink:href="#TimesNewRomanPSMT-64" x="2039.896484"/>
      <use xlink:href="#TimesNewRomanPSMT-77" x="2089.896484"/>
      <use xlink:href="#TimesNewRomanPSMT-61" x="2162.113281"/>
      <use xlink:href="#TimesNewRomanPSMT-79" x="2206.498047"/>
      <use xlink:href="#TimesNewRomanPSMT-73" x="2256.498047"/>
      <use xlink:href="#TimesNewRomanPSMT-28" x="2295.414062"/>
      <use xlink:href="#TimesNewRomanPSMT-3e" x="2328.714844"/>
      <use xlink:href="#TimesNewRomanPSMT-37" x="2385.111328"/>
      <use xlink:href="#TimesNewRomanPSMT-30" x="2435.111328"/>
      <use xlink:href="#TimesNewRomanPSMT-6b" x="2485.111328"/>
      <use xlink:href="#TimesNewRomanPSMT-6d" x="2535.111328"/>
      <use xlink:href="#TimesNewRomanPSMT-2f" x="2612.894531"/>
      <use xlink:href="#TimesNewRomanPSMT-68" x="2640.677734"/>
      <use xlink:href="#TimesNewRomanPSMT-29" x="2690.677734"/>
      <use xlink:href="#TimesNewRomanPSMT-5f" x="2723.978516"/>
      <use xlink:href="#TimesNewRomanPSMT-6f" x="2773.978516"/>
      <use xlink:href="#TimesNewRomanPSMT-6e" x="2823.978516"/>
      <use xlink:href="#TimesNewRomanPSMT-65" x="2873.978516"/>
      <use xlink:href="#TimesNewRomanPSMT-68" x="2918.363281"/>
      <use xlink:href="#TimesNewRomanPSMT-6f" x="2968.363281"/>
      <use xlink:href="#TimesNewRomanPSMT-74" x="3018.363281"/>
     </g>
    </g>
   </g>
   <g id="patch_47">
    <path d="M 108 384.48 
L 108 51.84 
" style="fill: none; stroke: #58544f; stroke-width: 0.8; stroke-linejoin: miter; stroke-linecap: square"/>
   </g>
   <g id="patch_48">
    <path d="M 777.6 384.48 
L 777.6 51.84 
" style="fill: none; stroke: #58544f; stroke-width: 0.8; stroke-linejoin: miter; stroke-linecap: square"/>
   </g>
   <g id="patch_49">
    <path d="M 108 384.48 
L 777.6 384.48 
" style="fill: none; stroke: #58544f; stroke-width: 0.8; stroke-linejoin: miter; stroke-linecap: square"/>
   </g>
   <g id="patch_50">
    <path d="M 108 51.84 
L 777.6 51.84 
" style="fill: none; stroke: #58544f; stroke-width: 0.8; stroke-linejoin: miter; stroke-linecap: square"/>
   </g>
   <g id="text_21">
    <!-- Impact of RoadType:Two-Lane,Two-WayRoadways(&gt;70km/h)_onehot on UnderConstructionTime -->
    <g style="fill: #262626" transform="translate(46.345312 38.84) scale(0.2 -0.2)">
     <defs>
      <path id="TimesNewRomanPSMT-49" d="M 1975 116 
L 1975 0 
L 159 0 
L 159 116 
L 309 116 
Q 572 116 691 269 
Q 766 369 766 750 
L 766 3488 
Q 766 3809 725 3913 
Q 694 3991 597 4047 
Q 459 4122 309 4122 
L 159 4122 
L 159 4238 
L 1975 4238 
L 1975 4122 
L 1822 4122 
Q 1563 4122 1444 3969 
Q 1366 3869 1366 3488 
L 1366 750 
Q 1366 428 1406 325 
Q 1438 247 1538 191 
Q 1672 116 1822 116 
L 1975 116 
z
" transform="scale(0.015625)"/>
     </defs>
     <use xlink:href="#TimesNewRomanPSMT-49"/>
     <use xlink:href="#TimesNewRomanPSMT-6d" x="33.300781"/>
     <use xlink:href="#TimesNewRomanPSMT-70" x="111.083984"/>
     <use xlink:href="#TimesNewRomanPSMT-61" x="161.083984"/>
     <use xlink:href="#TimesNewRomanPSMT-63" x="205.46875"/>
     <use xlink:href="#TimesNewRomanPSMT-74" x="249.853516"/>
     <use xlink:href="#TimesNewRomanPSMT-20" x="277.636719"/>
     <use xlink:href="#TimesNewRomanPSMT-6f" x="302.636719"/>
     <use xlink:href="#TimesNewRomanPSMT-66" x="352.636719"/>
     <use xlink:href="#TimesNewRomanPSMT-20" x="385.9375"/>
     <use xlink:href="#TimesNewRomanPSMT-52" x="410.9375"/>
     <use xlink:href="#TimesNewRomanPSMT-6f" x="477.636719"/>
     <use xlink:href="#TimesNewRomanPSMT-61" x="527.636719"/>
     <use xlink:href="#TimesNewRomanPSMT-64" x="572.021484"/>
     <use xlink:href="#TimesNewRomanPSMT-54" x="622.021484"/>
     <use xlink:href="#TimesNewRomanPSMT-79" x="676.105469"/>
     <use xlink:href="#TimesNewRomanPSMT-70" x="726.105469"/>
     <use xlink:href="#TimesNewRomanPSMT-65" x="776.105469"/>
     <use xlink:href="#TimesNewRomanPSMT-3a" x="820.490234"/>
     <use xlink:href="#TimesNewRomanPSMT-54" x="848.273438"/>
     <use xlink:href="#TimesNewRomanPSMT-77" x="902.357422"/>
     <use xlink:href="#TimesNewRomanPSMT-6f" x="974.574219"/>
     <use xlink:href="#TimesNewRomanPSMT-2d" x="1024.574219"/>
     <use xlink:href="#TimesNewRomanPSMT-4c" x="1057.875"/>
     <use xlink:href="#TimesNewRomanPSMT-61" x="1118.958984"/>
     <use xlink:href="#TimesNewRomanPSMT-6e" x="1163.34375"/>
     <use xlink:href="#TimesNewRomanPSMT-65" x="1213.34375"/>
     <use xlink:href="#TimesNewRomanPSMT-2c" x="1257.728516"/>
     <use xlink:href="#TimesNewRomanPSMT-54" x="1282.728516"/>
     <use xlink:href="#TimesNewRomanPSMT-77" x="1336.8125"/>
     <use xlink:href="#TimesNewRomanPSMT-6f" x="1409.029297"/>
     <use xlink:href="#TimesNewRomanPSMT-2d" x="1459.029297"/>
     <use xlink:href="#TimesNewRomanPSMT-57" x="1492.330078"/>
     <use xlink:href="#TimesNewRomanPSMT-61" x="1578.714844"/>
     <use xlink:href="#TimesNewRomanPSMT-79" x="1623.099609"/>
     <use xlink:href="#TimesNewRomanPSMT-52" x="1673.099609"/>
     <use xlink:href="#TimesNewRomanPSMT-6f" x="1739.798828"/>
     <use xlink:href="#TimesNewRomanPSMT-61" x="1789.798828"/>
     <use xlink:href="#TimesNewRomanPSMT-64" x="1834.183594"/>
     <use xlink:href="#TimesNewRomanPSMT-77" x="1884.183594"/>
     <use xlink:href="#TimesNewRomanPSMT-61" x="1956.400391"/>
     <use xlink:href="#TimesNewRomanPSMT-79" x="2000.785156"/>
     <use xlink:href="#TimesNewRomanPSMT-73" x="2050.785156"/>
     <use xlink:href="#TimesNewRomanPSMT-28" x="2089.701172"/>
     <use xlink:href="#TimesNewRomanPSMT-3e" x="2123.001953"/>
     <use xlink:href="#TimesNewRomanPSMT-37" x="2179.398438"/>
     <use xlink:href="#TimesNewRomanPSMT-30" x="2229.398438"/>
     <use xlink:href="#TimesNewRomanPSMT-6b" x="2279.398438"/>
     <use xlink:href="#TimesNewRomanPSMT-6d" x="2329.398438"/>
     <use xlink:href="#TimesNewRomanPSMT-2f" x="2407.181641"/>
     <use xlink:href="#TimesNewRomanPSMT-68" x="2434.964844"/>
     <use xlink:href="#TimesNewRomanPSMT-29" x="2484.964844"/>
     <use xlink:href="#TimesNewRomanPSMT-5f" x="2518.265625"/>
     <use xlink:href="#TimesNewRomanPSMT-6f" x="2568.265625"/>
     <use xlink:href="#TimesNewRomanPSMT-6e" x="2618.265625"/>
     <use xlink:href="#TimesNewRomanPSMT-65" x="2668.265625"/>
     <use xlink:href="#TimesNewRomanPSMT-68" x="2712.650391"/>
     <use xlink:href="#TimesNewRomanPSMT-6f" x="2762.650391"/>
     <use xlink:href="#TimesNewRomanPSMT-74" x="2812.650391"/>
     <use xlink:href="#TimesNewRomanPSMT-20" x="2840.433594"/>
     <use xlink:href="#TimesNewRomanPSMT-6f" x="2865.433594"/>
     <use xlink:href="#TimesNewRomanPSMT-6e" x="2915.433594"/>
     <use xlink:href="#TimesNewRomanPSMT-20" x="2965.433594"/>
     <use xlink:href="#TimesNewRomanPSMT-55" x="2990.433594"/>
     <use xlink:href="#TimesNewRomanPSMT-6e" x="3062.650391"/>
     <use xlink:href="#TimesNewRomanPSMT-64" x="3112.650391"/>
     <use xlink:href="#TimesNewRomanPSMT-65" x="3162.650391"/>
     <use xlink:href="#TimesNewRomanPSMT-72" x="3207.035156"/>
     <use xlink:href="#TimesNewRomanPSMT-43" x="3240.335938"/>
     <use xlink:href="#TimesNewRomanPSMT-6f" x="3307.035156"/>
     <use xlink:href="#TimesNewRomanPSMT-6e" x="3357.035156"/>
     <use xlink:href="#TimesNewRomanPSMT-73" x="3407.035156"/>
     <use xlink:href="#TimesNewRomanPSMT-74" x="3445.951172"/>
     <use xlink:href="#TimesNewRomanPSMT-72" x="3473.734375"/>
     <use xlink:href="#TimesNewRomanPSMT-75" x="3507.035156"/>
     <use xlink:href="#TimesNewRomanPSMT-63" x="3557.035156"/>
     <use xlink:href="#TimesNewRomanPSMT-74" x="3601.419922"/>
     <use xlink:href="#TimesNewRomanPSMT-69" x="3629.203125"/>
     <use xlink:href="#TimesNewRomanPSMT-6f" x="3656.986328"/>
     <use xlink:href="#TimesNewRomanPSMT-6e" x="3706.986328"/>
     <use xlink:href="#TimesNewRomanPSMT-54" x="3756.986328"/>
     <use xlink:href="#TimesNewRomanPSMT-69" x="3814.570312"/>
     <use xlink:href="#TimesNewRomanPSMT-6d" x="3842.353516"/>
     <use xlink:href="#TimesNewRomanPSMT-65" x="3920.136719"/>
    </g>
   </g>
  </g>
 </g>
 <defs>
  <clipPath id="pbef0c34e19">
   <rect x="108" y="51.84" width="669.6" height="332.64"/>
  </clipPath>
 </defs>
</svg>
