<?xml version="1.0" encoding="utf-8" standalone="no"?>
<!DOCTYPE svg PUBLIC "-//W3C//DTD SVG 1.1//EN"
  "http://www.w3.org/Graphics/SVG/1.1/DTD/svg11.dtd">
<svg xmlns:xlink="http://www.w3.org/1999/xlink" width="864pt" height="432pt" viewBox="0 0 864 432" xmlns="http://www.w3.org/2000/svg" version="1.1">
 <metadata>
  <rdf:RDF xmlns:dc="http://purl.org/dc/elements/1.1/" xmlns:cc="http://creativecommons.org/ns#" xmlns:rdf="http://www.w3.org/1999/02/22-rdf-syntax-ns#">
   <cc:Work>
    <dc:type rdf:resource="http://purl.org/dc/dcmitype/StillImage"/>
    <dc:date>2023-11-03T10:55:49.436096</dc:date>
    <dc:format>image/svg+xml</dc:format>
    <dc:creator>
     <cc:Agent>
      <dc:title>Matplotlib v3.7.2, https://matplotlib.org/</dc:title>
     </cc:Agent>
    </dc:creator>
   </cc:Work>
  </rdf:RDF>
 </metadata>
 <defs>
  <style type="text/css">*{stroke-linejoin: round; stroke-linecap: butt}</style>
 </defs>
 <g id="figure_1">
  <g id="patch_1">
   <path d="M 0 432 
L 864 432 
L 864 0 
L 0 0 
z
" style="fill: #ffffff"/>
  </g>
  <g id="axes_1">
   <g id="patch_2">
    <path d="M 108 384.48 
L 777.6 384.48 
L 777.6 51.84 
L 108 51.84 
z
" style="fill: #ffffff"/>
   </g>
   <g id="matplotlib.axis_1">
    <g id="xtick_1">
     <g id="line2d_1">
      <defs>
       <path id="m747203a4c2" d="M 0 0 
L 0 3.5 
" style="stroke: #58544f; stroke-width: 0.8"/>
      </defs>
      <g>
       <use xlink:href="#m747203a4c2" x="161.36787" y="384.48" style="fill: #58544f; stroke: #58544f; stroke-width: 0.8"/>
      </g>
     </g>
     <g id="text_1">
      <!-- −5 -->
      <g style="fill: #58544f" transform="translate(153.441464 401.98) scale(0.14 -0.14)">
       <defs>
        <path id="Roboto-Medium-2212" d="M 3147 1941 
L 494 1941 
L 494 2553 
L 3147 2553 
L 3147 1941 
z
" transform="scale(0.015625)"/>
        <path id="Roboto-Medium-35" d="M 544 2256 
L 791 4550 
L 3234 4550 
L 3234 3894 
L 1422 3894 
L 1297 2806 
Q 1613 2988 2009 2988 
Q 2659 2988 3020 2572 
Q 3381 2156 3381 1453 
Q 3381 759 2981 348 
Q 2581 -63 1884 -63 
Q 1259 -63 848 292 
Q 438 647 403 1228 
L 1138 1228 
Q 1181 897 1375 720 
Q 1569 544 1881 544 
Q 2231 544 2426 794 
Q 2622 1044 2622 1475 
Q 2622 1891 2406 2133 
Q 2191 2375 1813 2375 
Q 1606 2375 1462 2320 
Q 1319 2266 1150 2106 
L 544 2256 
z
" transform="scale(0.015625)"/>
       </defs>
       <use xlink:href="#Roboto-Medium-2212"/>
       <use xlink:href="#Roboto-Medium-35" x="56.396484"/>
      </g>
     </g>
    </g>
    <g id="xtick_2">
     <g id="line2d_2">
      <g>
       <use xlink:href="#m747203a4c2" x="265.601993" y="384.48" style="fill: #58544f; stroke: #58544f; stroke-width: 0.8"/>
      </g>
     </g>
     <g id="text_2">
      <!-- 0 -->
      <g style="fill: #58544f" transform="translate(261.62293 401.98) scale(0.14 -0.14)">
       <defs>
        <path id="Roboto-Medium-30" d="M 3306 1916 
Q 3306 934 2939 435 
Q 2572 -63 1822 -63 
Q 1084 -63 711 423 
Q 338 909 328 1863 
L 328 2650 
Q 328 3631 695 4122 
Q 1063 4613 1816 4613 
Q 2563 4613 2930 4134 
Q 3297 3656 3306 2703 
L 3306 1916 
z
M 2547 2766 
Q 2547 3406 2372 3704 
Q 2197 4003 1816 4003 
Q 1444 4003 1269 3720 
Q 1094 3438 1084 2838 
L 1084 1806 
Q 1084 1169 1262 856 
Q 1441 544 1822 544 
Q 2188 544 2363 833 
Q 2538 1122 2547 1738 
L 2547 2766 
z
" transform="scale(0.015625)"/>
       </defs>
       <use xlink:href="#Roboto-Medium-30"/>
      </g>
     </g>
    </g>
    <g id="xtick_3">
     <g id="line2d_3">
      <g>
       <use xlink:href="#m747203a4c2" x="369.836115" y="384.48" style="fill: #58544f; stroke: #58544f; stroke-width: 0.8"/>
      </g>
     </g>
     <g id="text_3">
      <!-- 5 -->
      <g style="fill: #58544f" transform="translate(365.857052 401.98) scale(0.14 -0.14)">
       <use xlink:href="#Roboto-Medium-35"/>
      </g>
     </g>
    </g>
    <g id="xtick_4">
     <g id="line2d_4">
      <g>
       <use xlink:href="#m747203a4c2" x="474.070237" y="384.48" style="fill: #58544f; stroke: #58544f; stroke-width: 0.8"/>
      </g>
     </g>
     <g id="text_4">
      <!-- 10 -->
      <g style="fill: #58544f" transform="translate(466.112112 401.98) scale(0.14 -0.14)">
       <defs>
        <path id="Roboto-Medium-31" d="M 2397 0 
L 1641 0 
L 1641 3653 
L 525 3272 
L 525 3913 
L 2300 4566 
L 2397 4566 
L 2397 0 
z
" transform="scale(0.015625)"/>
       </defs>
       <use xlink:href="#Roboto-Medium-31"/>
       <use xlink:href="#Roboto-Medium-30" x="56.835938"/>
      </g>
     </g>
    </g>
    <g id="xtick_5">
     <g id="line2d_5">
      <g>
       <use xlink:href="#m747203a4c2" x="578.304359" y="384.48" style="fill: #58544f; stroke: #58544f; stroke-width: 0.8"/>
      </g>
     </g>
     <g id="text_5">
      <!-- 15 -->
      <g style="fill: #58544f" transform="translate(570.346234 401.98) scale(0.14 -0.14)">
       <use xlink:href="#Roboto-Medium-31"/>
       <use xlink:href="#Roboto-Medium-35" x="56.835938"/>
      </g>
     </g>
    </g>
    <g id="xtick_6">
     <g id="line2d_6">
      <g>
       <use xlink:href="#m747203a4c2" x="682.538481" y="384.48" style="fill: #58544f; stroke: #58544f; stroke-width: 0.8"/>
      </g>
     </g>
     <g id="text_6">
      <!-- 20 -->
      <g style="fill: #58544f" transform="translate(674.580356 401.98) scale(0.14 -0.14)">
       <defs>
        <path id="Roboto-Medium-32" d="M 3400 0 
L 341 0 
L 341 522 
L 1856 2175 
Q 2184 2541 2323 2786 
Q 2463 3031 2463 3278 
Q 2463 3603 2280 3803 
Q 2097 4003 1788 4003 
Q 1419 4003 1216 3778 
Q 1013 3553 1013 3163 
L 253 3163 
Q 253 3578 442 3911 
Q 631 4244 982 4428 
Q 1334 4613 1794 4613 
Q 2456 4613 2839 4280 
Q 3222 3947 3222 3359 
Q 3222 3019 3030 2645 
Q 2838 2272 2400 1797 
L 1288 606 
L 3400 606 
L 3400 0 
z
" transform="scale(0.015625)"/>
       </defs>
       <use xlink:href="#Roboto-Medium-32"/>
       <use xlink:href="#Roboto-Medium-30" x="56.835938"/>
      </g>
     </g>
    </g>
    <g id="text_7">
     <!-- Weather: Temp -->
     <g style="fill: #58544f" transform="translate(381.383438 422.32375) scale(0.18 -0.18)">
      <defs>
       <path id="Roboto-Medium-57" d="M 4031 1125 
L 4731 4550 
L 5516 4550 
L 4466 0 
L 3709 0 
L 2844 3322 
L 1959 0 
L 1200 0 
L 150 4550 
L 934 4550 
L 1641 1131 
L 2509 4550 
L 3172 4550 
L 4031 1125 
z
" transform="scale(0.015625)"/>
       <path id="Roboto-Medium-65" d="M 1878 -63 
Q 1156 -63 707 392 
Q 259 847 259 1603 
L 259 1697 
Q 259 2203 454 2601 
Q 650 3000 1003 3222 
Q 1356 3444 1791 3444 
Q 2481 3444 2857 3003 
Q 3234 2563 3234 1756 
L 3234 1450 
L 1025 1450 
Q 1059 1031 1304 787 
Q 1550 544 1922 544 
Q 2444 544 2772 966 
L 3181 575 
Q 2978 272 2639 104 
Q 2300 -63 1878 -63 
z
M 1788 2834 
Q 1475 2834 1283 2615 
Q 1091 2397 1038 2006 
L 2484 2006 
L 2484 2063 
Q 2459 2444 2281 2639 
Q 2103 2834 1788 2834 
z
" transform="scale(0.015625)"/>
       <path id="Roboto-Medium-61" d="M 2409 0 
Q 2359 97 2322 316 
Q 1959 -63 1434 -63 
Q 925 -63 603 228 
Q 281 519 281 947 
Q 281 1488 682 1777 
Q 1084 2066 1831 2066 
L 2297 2066 
L 2297 2288 
Q 2297 2550 2150 2708 
Q 2003 2866 1703 2866 
Q 1444 2866 1278 2736 
Q 1113 2606 1113 2406 
L 353 2406 
Q 353 2684 537 2926 
Q 722 3169 1039 3306 
Q 1356 3444 1747 3444 
Q 2341 3444 2694 3145 
Q 3047 2847 3056 2306 
L 3056 781 
Q 3056 325 3184 53 
L 3184 0 
L 2409 0 
z
M 1575 547 
Q 1800 547 1998 656 
Q 2197 766 2297 950 
L 2297 1588 
L 1888 1588 
Q 1466 1588 1253 1441 
Q 1041 1294 1041 1025 
Q 1041 806 1186 676 
Q 1331 547 1575 547 
z
" transform="scale(0.015625)"/>
       <path id="Roboto-Medium-74" d="M 1341 4203 
L 1341 3381 
L 1938 3381 
L 1938 2819 
L 1341 2819 
L 1341 931 
Q 1341 738 1417 652 
Q 1494 566 1691 566 
Q 1822 566 1956 597 
L 1956 9 
Q 1697 -63 1456 -63 
Q 581 -63 581 903 
L 581 2819 
L 25 2819 
L 25 3381 
L 581 3381 
L 581 4203 
L 1341 4203 
z
" transform="scale(0.015625)"/>
       <path id="Roboto-Medium-68" d="M 1138 3013 
Q 1509 3444 2078 3444 
Q 3159 3444 3175 2209 
L 3175 0 
L 2416 0 
L 2416 2181 
Q 2416 2531 2264 2676 
Q 2113 2822 1819 2822 
Q 1363 2822 1138 2416 
L 1138 0 
L 378 0 
L 378 4800 
L 1138 4800 
L 1138 3013 
z
" transform="scale(0.015625)"/>
       <path id="Roboto-Medium-72" d="M 2159 2688 
Q 2009 2713 1850 2713 
Q 1328 2713 1147 2313 
L 1147 0 
L 388 0 
L 388 3381 
L 1113 3381 
L 1131 3003 
Q 1406 3444 1894 3444 
Q 2056 3444 2163 3400 
L 2159 2688 
z
" transform="scale(0.015625)"/>
       <path id="Roboto-Medium-3a" d="M 847 800 
Q 1059 800 1174 679 
Q 1290 559 1290 378 
Q 1290 200 1174 83 
Q 1059 -34 847 -34 
Q 643 -34 524 81 
Q 406 197 406 378 
Q 406 559 521 679 
Q 637 800 847 800 
z
M 847 3424 
Q 1059 3424 1174 3303 
Q 1290 3183 1290 3002 
Q 1290 2824 1174 2707 
Q 1059 2590 847 2590 
Q 643 2590 524 2705 
Q 406 2821 406 3002 
Q 406 3183 521 3303 
Q 637 3424 847 3424 
z
" transform="scale(0.015625)"/>
       <path id="Roboto-Medium-20" transform="scale(0.015625)"/>
       <path id="Roboto-Medium-54" d="M 3750 3913 
L 2331 3913 
L 2331 0 
L 1547 0 
L 1547 3913 
L 141 3913 
L 141 4550 
L 3750 4550 
L 3750 3913 
z
" transform="scale(0.015625)"/>
       <path id="Roboto-Medium-6d" d="M 1103 3381 
L 1125 3028 
Q 1481 3444 2100 3444 
Q 2778 3444 3028 2925 
Q 3397 3444 4066 3444 
Q 4625 3444 4898 3134 
Q 5172 2825 5178 2222 
L 5178 0 
L 4419 0 
L 4419 2200 
Q 4419 2522 4278 2672 
Q 4138 2822 3813 2822 
Q 3553 2822 3389 2683 
Q 3225 2544 3159 2319 
L 3163 0 
L 2403 0 
L 2403 2225 
Q 2388 2822 1794 2822 
Q 1338 2822 1147 2450 
L 1147 0 
L 388 0 
L 388 3381 
L 1103 3381 
z
" transform="scale(0.015625)"/>
       <path id="Roboto-Medium-70" d="M 3350 1656 
Q 3350 872 2994 404 
Q 2638 -63 2038 -63 
Q 1481 -63 1147 303 
L 1147 -1300 
L 388 -1300 
L 388 3381 
L 1088 3381 
L 1119 3038 
Q 1453 3444 2028 3444 
Q 2647 3444 2998 2983 
Q 3350 2522 3350 1703 
L 3350 1656 
z
M 2594 1722 
Q 2594 2228 2392 2525 
Q 2191 2822 1816 2822 
Q 1350 2822 1147 2438 
L 1147 938 
Q 1353 544 1822 544 
Q 2184 544 2389 836 
Q 2594 1128 2594 1722 
z
" transform="scale(0.015625)"/>
      </defs>
      <use xlink:href="#Roboto-Medium-57"/>
      <use xlink:href="#Roboto-Medium-65" x="87.988281"/>
      <use xlink:href="#Roboto-Medium-61" x="141.650391"/>
      <use xlink:href="#Roboto-Medium-74" x="195.751953"/>
      <use xlink:href="#Roboto-Medium-68" x="229.003906"/>
      <use xlink:href="#Roboto-Medium-65" x="284.521484"/>
      <use xlink:href="#Roboto-Medium-72" x="338.183594"/>
      <use xlink:href="#Roboto-Medium-3a" x="373.339844"/>
      <use xlink:href="#Roboto-Medium-20" x="399.853516"/>
      <use xlink:href="#Roboto-Medium-54" x="424.755859"/>
      <use xlink:href="#Roboto-Medium-65" x="485.449219"/>
      <use xlink:href="#Roboto-Medium-6d" x="539.111328"/>
      <use xlink:href="#Roboto-Medium-70" x="626.123047"/>
     </g>
    </g>
   </g>
   <g id="matplotlib.axis_2">
    <g id="ytick_1">
     <g id="line2d_7">
      <defs>
       <path id="m8ce9e758c9" d="M 0 0 
L -3.5 0 
" style="stroke: #ff0000; stroke-width: 0.8"/>
      </defs>
      <g>
       <use xlink:href="#m8ce9e758c9" x="108" y="348.305897" style="fill: #ff0000; stroke: #ff0000; stroke-width: 0.8"/>
      </g>
     </g>
     <g id="text_8">
      <!-- 2.15 -->
      <g style="fill: #ff0000" transform="translate(73.214375 353.555897) scale(0.14 -0.14)">
       <defs>
        <path id="Roboto-Medium-2e" d="M 863 800 
Q 1075 800 1190 679 
Q 1306 559 1306 378 
Q 1306 200 1190 83 
Q 1075 -34 863 -34 
Q 659 -34 540 81 
Q 422 197 422 378 
Q 422 559 537 679 
Q 653 800 863 800 
z
" transform="scale(0.015625)"/>
       </defs>
       <use xlink:href="#Roboto-Medium-32"/>
       <use xlink:href="#Roboto-Medium-2e" x="56.835938"/>
       <use xlink:href="#Roboto-Medium-31" x="84.765625"/>
       <use xlink:href="#Roboto-Medium-35" x="141.601562"/>
      </g>
     </g>
    </g>
    <g id="ytick_2">
     <g id="line2d_8">
      <g>
       <use xlink:href="#m8ce9e758c9" x="108" y="309.800935" style="fill: #ff0000; stroke: #ff0000; stroke-width: 0.8"/>
      </g>
     </g>
     <g id="text_9">
      <!-- 2.20 -->
      <g style="fill: #ff0000" transform="translate(73.214375 315.050935) scale(0.14 -0.14)">
       <use xlink:href="#Roboto-Medium-32"/>
       <use xlink:href="#Roboto-Medium-2e" x="56.835938"/>
       <use xlink:href="#Roboto-Medium-32" x="84.765625"/>
       <use xlink:href="#Roboto-Medium-30" x="141.601562"/>
      </g>
     </g>
    </g>
    <g id="ytick_3">
     <g id="line2d_9">
      <g>
       <use xlink:href="#m8ce9e758c9" x="108" y="271.295973" style="fill: #ff0000; stroke: #ff0000; stroke-width: 0.8"/>
      </g>
     </g>
     <g id="text_10">
      <!-- 2.25 -->
      <g style="fill: #ff0000" transform="translate(73.214375 276.545973) scale(0.14 -0.14)">
       <use xlink:href="#Roboto-Medium-32"/>
       <use xlink:href="#Roboto-Medium-2e" x="56.835938"/>
       <use xlink:href="#Roboto-Medium-32" x="84.765625"/>
       <use xlink:href="#Roboto-Medium-35" x="141.601562"/>
      </g>
     </g>
    </g>
    <g id="ytick_4">
     <g id="line2d_10">
      <g>
       <use xlink:href="#m8ce9e758c9" x="108" y="232.791011" style="fill: #ff0000; stroke: #ff0000; stroke-width: 0.8"/>
      </g>
     </g>
     <g id="text_11">
      <!-- 2.30 -->
      <g style="fill: #ff0000" transform="translate(73.214375 238.041011) scale(0.14 -0.14)">
       <defs>
        <path id="Roboto-Medium-33" d="M 1219 2622 
L 1681 2622 
Q 2031 2625 2236 2803 
Q 2441 2981 2441 3319 
Q 2441 3644 2270 3823 
Q 2100 4003 1750 4003 
Q 1444 4003 1247 3826 
Q 1050 3650 1050 3366 
L 291 3366 
Q 291 3716 477 4003 
Q 663 4291 995 4452 
Q 1328 4613 1741 4613 
Q 2422 4613 2811 4270 
Q 3200 3928 3200 3319 
Q 3200 3013 3004 2742 
Q 2809 2472 2500 2334 
Q 2875 2206 3070 1931 
Q 3266 1656 3266 1275 
Q 3266 663 2845 300 
Q 2425 -63 1741 -63 
Q 1084 -63 665 287 
Q 247 638 247 1219 
L 1006 1219 
Q 1006 919 1207 731 
Q 1409 544 1750 544 
Q 2103 544 2306 731 
Q 2509 919 2509 1275 
Q 2509 1634 2296 1828 
Q 2084 2022 1666 2022 
L 1219 2022 
L 1219 2622 
z
" transform="scale(0.015625)"/>
       </defs>
       <use xlink:href="#Roboto-Medium-32"/>
       <use xlink:href="#Roboto-Medium-2e" x="56.835938"/>
       <use xlink:href="#Roboto-Medium-33" x="84.765625"/>
       <use xlink:href="#Roboto-Medium-30" x="141.601562"/>
      </g>
     </g>
    </g>
    <g id="ytick_5">
     <g id="line2d_11">
      <g>
       <use xlink:href="#m8ce9e758c9" x="108" y="194.286048" style="fill: #ff0000; stroke: #ff0000; stroke-width: 0.8"/>
      </g>
     </g>
     <g id="text_12">
      <!-- 2.35 -->
      <g style="fill: #ff0000" transform="translate(73.214375 199.536048) scale(0.14 -0.14)">
       <use xlink:href="#Roboto-Medium-32"/>
       <use xlink:href="#Roboto-Medium-2e" x="56.835938"/>
       <use xlink:href="#Roboto-Medium-33" x="84.765625"/>
       <use xlink:href="#Roboto-Medium-35" x="141.601562"/>
      </g>
     </g>
    </g>
    <g id="ytick_6">
     <g id="line2d_12">
      <g>
       <use xlink:href="#m8ce9e758c9" x="108" y="155.781086" style="fill: #ff0000; stroke: #ff0000; stroke-width: 0.8"/>
      </g>
     </g>
     <g id="text_13">
      <!-- 2.40 -->
      <g style="fill: #ff0000" transform="translate(73.214375 161.031086) scale(0.14 -0.14)">
       <defs>
        <path id="Roboto-Medium-34" d="M 2909 1622 
L 3475 1622 
L 3475 1013 
L 2909 1013 
L 2909 0 
L 2150 0 
L 2150 1013 
L 184 1013 
L 163 1475 
L 2125 4550 
L 2909 4550 
L 2909 1622 
z
M 959 1622 
L 2150 1622 
L 2150 3522 
L 2094 3422 
L 959 1622 
z
" transform="scale(0.015625)"/>
       </defs>
       <use xlink:href="#Roboto-Medium-32"/>
       <use xlink:href="#Roboto-Medium-2e" x="56.835938"/>
       <use xlink:href="#Roboto-Medium-34" x="84.765625"/>
       <use xlink:href="#Roboto-Medium-30" x="141.601562"/>
      </g>
     </g>
    </g>
    <g id="ytick_7">
     <g id="line2d_13">
      <g>
       <use xlink:href="#m8ce9e758c9" x="108" y="117.276124" style="fill: #ff0000; stroke: #ff0000; stroke-width: 0.8"/>
      </g>
     </g>
     <g id="text_14">
      <!-- 2.45 -->
      <g style="fill: #ff0000" transform="translate(73.214375 122.526124) scale(0.14 -0.14)">
       <use xlink:href="#Roboto-Medium-32"/>
       <use xlink:href="#Roboto-Medium-2e" x="56.835938"/>
       <use xlink:href="#Roboto-Medium-34" x="84.765625"/>
       <use xlink:href="#Roboto-Medium-35" x="141.601562"/>
      </g>
     </g>
    </g>
    <g id="ytick_8">
     <g id="line2d_14">
      <g>
       <use xlink:href="#m8ce9e758c9" x="108" y="78.771162" style="fill: #ff0000; stroke: #ff0000; stroke-width: 0.8"/>
      </g>
     </g>
     <g id="text_15">
      <!-- 2.50 -->
      <g style="fill: #ff0000" transform="translate(73.214375 84.021162) scale(0.14 -0.14)">
       <use xlink:href="#Roboto-Medium-32"/>
       <use xlink:href="#Roboto-Medium-2e" x="56.835938"/>
       <use xlink:href="#Roboto-Medium-35" x="84.765625"/>
       <use xlink:href="#Roboto-Medium-30" x="141.601562"/>
      </g>
     </g>
    </g>
    <g id="text_16">
     <!-- Under Construction Time -->
     <g style="fill: #ff0000" transform="translate(65.558125 318.945937) rotate(-90) scale(0.18 -0.18)">
      <defs>
       <path id="Roboto-Medium-55" d="M 3791 4550 
L 3791 1509 
Q 3791 784 3327 360 
Q 2863 -63 2091 -63 
Q 1309 -63 850 354 
Q 391 772 391 1513 
L 391 4550 
L 1178 4550 
L 1178 1506 
Q 1178 1050 1409 809 
Q 1641 569 2091 569 
Q 3003 569 3003 1531 
L 3003 4550 
L 3791 4550 
z
" transform="scale(0.015625)"/>
       <path id="Roboto-Medium-6e" d="M 1094 3381 
L 1116 2991 
Q 1491 3444 2100 3444 
Q 3156 3444 3175 2234 
L 3175 0 
L 2416 0 
L 2416 2191 
Q 2416 2513 2277 2667 
Q 2138 2822 1822 2822 
Q 1363 2822 1138 2406 
L 1138 0 
L 378 0 
L 378 3381 
L 1094 3381 
z
" transform="scale(0.015625)"/>
       <path id="Roboto-Medium-64" d="M 247 1716 
Q 247 2497 609 2970 
Q 972 3444 1581 3444 
Q 2119 3444 2450 3069 
L 2450 4800 
L 3209 4800 
L 3209 0 
L 2522 0 
L 2484 350 
Q 2144 -63 1575 -63 
Q 981 -63 614 415 
Q 247 894 247 1716 
z
M 1006 1650 
Q 1006 1134 1204 845 
Q 1403 556 1769 556 
Q 2234 556 2450 972 
L 2450 2416 
Q 2241 2822 1775 2822 
Q 1406 2822 1206 2530 
Q 1006 2238 1006 1650 
z
" transform="scale(0.015625)"/>
       <path id="Roboto-Medium-43" d="M 3934 1481 
Q 3866 753 3397 345 
Q 2928 -63 2150 -63 
Q 1606 -63 1192 195 
Q 778 453 553 928 
Q 328 1403 319 2031 
L 319 2456 
Q 319 3100 547 3590 
Q 775 4081 1201 4347 
Q 1628 4613 2188 4613 
Q 2941 4613 3400 4203 
Q 3859 3794 3934 3047 
L 3147 3047 
Q 3091 3538 2861 3755 
Q 2631 3972 2188 3972 
Q 1672 3972 1395 3595 
Q 1119 3219 1113 2491 
L 1113 2088 
Q 1113 1350 1377 962 
Q 1641 575 2150 575 
Q 2616 575 2850 784 
Q 3084 994 3147 1481 
L 3934 1481 
z
" transform="scale(0.015625)"/>
       <path id="Roboto-Medium-6f" d="M 247 1722 
Q 247 2219 444 2617 
Q 641 3016 997 3230 
Q 1353 3444 1816 3444 
Q 2500 3444 2926 3003 
Q 3353 2563 3388 1834 
L 3391 1656 
Q 3391 1156 3198 762 
Q 3006 369 2648 153 
Q 2291 -63 1822 -63 
Q 1106 -63 676 414 
Q 247 891 247 1684 
L 247 1722 
z
M 1006 1656 
Q 1006 1134 1222 839 
Q 1438 544 1822 544 
Q 2206 544 2420 844 
Q 2634 1144 2634 1722 
Q 2634 2234 2414 2534 
Q 2194 2834 1816 2834 
Q 1444 2834 1225 2539 
Q 1006 2244 1006 1656 
z
" transform="scale(0.015625)"/>
       <path id="Roboto-Medium-73" d="M 2284 919 
Q 2284 1122 2117 1228 
Q 1950 1334 1562 1415 
Q 1175 1497 916 1622 
Q 347 1897 347 2419 
Q 347 2856 715 3150 
Q 1084 3444 1653 3444 
Q 2259 3444 2632 3144 
Q 3006 2844 3006 2366 
L 2247 2366 
Q 2247 2584 2084 2729 
Q 1922 2875 1653 2875 
Q 1403 2875 1245 2759 
Q 1088 2644 1088 2450 
Q 1088 2275 1234 2178 
Q 1381 2081 1828 1982 
Q 2275 1884 2529 1748 
Q 2784 1613 2907 1422 
Q 3031 1231 3031 959 
Q 3031 503 2653 220 
Q 2275 -63 1663 -63 
Q 1247 -63 922 87 
Q 597 238 415 500 
Q 234 763 234 1066 
L 972 1066 
Q 988 797 1175 651 
Q 1363 506 1672 506 
Q 1972 506 2128 620 
Q 2284 734 2284 919 
z
" transform="scale(0.015625)"/>
       <path id="Roboto-Medium-75" d="M 2438 331 
Q 2103 -63 1488 -63 
Q 938 -63 655 259 
Q 372 581 372 1191 
L 372 3381 
L 1131 3381 
L 1131 1200 
Q 1131 556 1666 556 
Q 2219 556 2413 953 
L 2413 3381 
L 3172 3381 
L 3172 0 
L 2456 0 
L 2438 331 
z
" transform="scale(0.015625)"/>
       <path id="Roboto-Medium-63" d="M 1778 544 
Q 2063 544 2250 709 
Q 2438 875 2450 1119 
L 3166 1119 
Q 3153 803 2968 529 
Q 2784 256 2468 96 
Q 2153 -63 1788 -63 
Q 1078 -63 662 396 
Q 247 856 247 1666 
L 247 1744 
Q 247 2516 659 2980 
Q 1072 3444 1784 3444 
Q 2388 3444 2767 3092 
Q 3147 2741 3166 2169 
L 2450 2169 
Q 2438 2459 2252 2646 
Q 2066 2834 1778 2834 
Q 1409 2834 1209 2567 
Q 1009 2300 1006 1756 
L 1006 1634 
Q 1006 1084 1204 814 
Q 1403 544 1778 544 
z
" transform="scale(0.015625)"/>
       <path id="Roboto-Medium-69" d="M 1197 0 
L 438 0 
L 438 3381 
L 1197 3381 
L 1197 0 
z
M 391 4259 
Q 391 4434 502 4550 
Q 613 4666 819 4666 
Q 1025 4666 1137 4550 
Q 1250 4434 1250 4259 
Q 1250 4088 1137 3973 
Q 1025 3859 819 3859 
Q 613 3859 502 3973 
Q 391 4088 391 4259 
z
" transform="scale(0.015625)"/>
      </defs>
      <use xlink:href="#Roboto-Medium-55"/>
      <use xlink:href="#Roboto-Medium-6e" x="65.185547"/>
      <use xlink:href="#Roboto-Medium-64" x="120.800781"/>
      <use xlink:href="#Roboto-Medium-65" x="177.246094"/>
      <use xlink:href="#Roboto-Medium-72" x="230.908203"/>
      <use xlink:href="#Roboto-Medium-20" x="266.064453"/>
      <use xlink:href="#Roboto-Medium-43" x="290.966797"/>
      <use xlink:href="#Roboto-Medium-6f" x="356.25"/>
      <use xlink:href="#Roboto-Medium-6e" x="413.183594"/>
      <use xlink:href="#Roboto-Medium-73" x="468.798828"/>
      <use xlink:href="#Roboto-Medium-74" x="520.410156"/>
      <use xlink:href="#Roboto-Medium-72" x="553.662109"/>
      <use xlink:href="#Roboto-Medium-75" x="588.818359"/>
      <use xlink:href="#Roboto-Medium-63" x="644.384766"/>
      <use xlink:href="#Roboto-Medium-74" x="696.728516"/>
      <use xlink:href="#Roboto-Medium-69" x="729.980469"/>
      <use xlink:href="#Roboto-Medium-6f" x="755.517578"/>
      <use xlink:href="#Roboto-Medium-6e" x="812.451172"/>
      <use xlink:href="#Roboto-Medium-20" x="868.066406"/>
      <use xlink:href="#Roboto-Medium-54" x="892.96875"/>
      <use xlink:href="#Roboto-Medium-69" x="953.662109"/>
      <use xlink:href="#Roboto-Medium-6d" x="979.199219"/>
      <use xlink:href="#Roboto-Medium-65" x="1066.210938"/>
     </g>
    </g>
   </g>
   <g id="line2d_15">
    <path d="M 138.436366 299.834144 
L 144.523638 287.482983 
L 150.610911 282.026069 
L 156.698184 281.30341 
L 162.785457 283.582315 
L 168.87273 287.507049 
L 174.960003 292.050582 
L 181.047275 296.468783 
L 187.134548 300.257326 
L 193.221821 303.111528 
L 199.309094 304.889267 
L 205.396367 305.577088 
L 211.48364 305.25956 
L 217.570912 304.091885 
L 223.658185 302.27575 
L 229.745458 300.038344 
L 235.832731 297.614469 
L 241.920004 295.231612 
L 248.007276 293.097843 
L 254.094549 291.392375 
L 260.181822 290.258611 
L 266.269095 289.799485 
L 272.356368 290.074887 
L 278.443641 291.10097 
L 284.530913 292.851124 
L 290.618186 295.258383 
L 296.705459 298.219072 
L 302.792732 301.597447 
L 308.880005 305.231142 
L 314.967278 308.9372 
L 321.05455 312.518493 
L 327.141823 315.770346 
L 333.229096 318.487181 
L 339.316369 320.469017 
L 345.403642 321.527677 
L 351.490915 321.49256 
L 357.578187 320.215857 
L 363.66546 317.577106 
L 369.752733 313.486997 
L 375.840006 307.890358 
L 381.927279 300.768261 
L 388.014551 292.139223 
L 394.101824 282.059468 
L 400.189097 270.622275 
L 406.27637 257.956401 
L 412.363643 244.223627 
L 418.450916 229.61549 
L 424.538188 214.349236 
L 430.625461 198.663109 
L 436.712734 182.811048 
L 442.800007 167.056908 
L 448.88728 151.668327 
L 454.974553 136.910362 
L 461.061825 123.039034 
L 467.149098 110.294922 
L 473.236371 98.896967 
L 479.323644 89.036611 
L 485.410917 80.87245 
L 491.49819 74.525532 
L 497.585462 70.075445 
L 503.672735 67.557338 
L 509.760008 66.96 
L 515.847281 68.2251 
L 521.934554 71.247704 
L 528.021826 75.878121 
L 534.109099 81.925162 
L 540.196372 89.160812 
L 546.283645 97.326329 
L 552.370918 106.139731 
L 558.458191 115.304596 
L 564.545463 124.520049 
L 570.632736 133.491793 
L 576.720009 141.943949 
L 582.807282 149.631442 
L 588.894555 156.352614 
L 594.981828 161.961651 
L 601.0691 166.380363 
L 607.156373 169.608788 
L 613.243646 171.733976 
L 619.330919 172.936268 
L 625.418192 173.492243 
L 631.505465 173.773461 
L 637.592737 174.239978 
L 643.68001 175.427535 
L 649.767283 177.927179 
L 655.854556 182.355982 
L 661.941829 189.317359 
L 668.029101 199.349387 
L 674.116374 212.859345 
L 680.203647 230.042595 
L 686.29092 250.78371 
L 692.378193 274.53764 
L 698.465466 300.188503 
L 704.552738 325.883433 
L 710.640011 348.838709 
L 716.727284 365.115204 
L 722.814557 369.36 
L 728.90183 354.510777 
L 734.989103 311.459403 
L 741.076375 228.670883 
" clip-path="url(#p5370eba684)" style="fill: none; stroke: #ff0000; stroke-width: 1.5; stroke-linecap: square"/>
   </g>
   <g id="patch_3">
    <path d="M 108 384.48 
L 108 51.84 
" style="fill: none; stroke: #58544f; stroke-width: 0.8; stroke-linejoin: miter; stroke-linecap: square"/>
   </g>
   <g id="patch_4">
    <path d="M 777.6 384.48 
L 777.6 51.84 
" style="fill: none; stroke: #58544f; stroke-width: 0.8; stroke-linejoin: miter; stroke-linecap: square"/>
   </g>
   <g id="patch_5">
    <path d="M 108 384.48 
L 777.6 384.48 
" style="fill: none; stroke: #58544f; stroke-width: 0.8; stroke-linejoin: miter; stroke-linecap: square"/>
   </g>
   <g id="patch_6">
    <path d="M 108 51.84 
L 777.6 51.84 
" style="fill: none; stroke: #58544f; stroke-width: 0.8; stroke-linejoin: miter; stroke-linecap: square"/>
   </g>
  </g>
  <g id="axes_2">
   <g id="patch_7">
    <path d="M 138.436364 384.48 
L 150.610909 384.48 
L 150.610909 384.139387 
L 138.436364 384.139387 
z
" clip-path="url(#p5370eba684)" style="fill: #0088ed; opacity: 0.4"/>
   </g>
   <g id="patch_8">
    <path d="M 150.610909 384.48 
L 162.785455 384.48 
L 162.785455 384.48 
L 150.610909 384.48 
z
" clip-path="url(#p5370eba684)" style="fill: #0088ed; opacity: 0.4"/>
   </g>
   <g id="patch_9">
    <path d="M 162.785455 384.48 
L 174.96 384.48 
L 174.96 384.48 
L 162.785455 384.48 
z
" clip-path="url(#p5370eba684)" style="fill: #0088ed; opacity: 0.4"/>
   </g>
   <g id="patch_10">
    <path d="M 174.96 384.48 
L 187.134545 384.48 
L 187.134545 384.419892 
L 174.96 384.419892 
z
" clip-path="url(#p5370eba684)" style="fill: #0088ed; opacity: 0.4"/>
   </g>
   <g id="patch_11">
    <path d="M 187.134545 384.48 
L 199.309091 384.48 
L 199.309091 383.51827 
L 187.134545 383.51827 
z
" clip-path="url(#p5370eba684)" style="fill: #0088ed; opacity: 0.4"/>
   </g>
   <g id="patch_12">
    <path d="M 199.309091 384.48 
L 211.483636 384.48 
L 211.483636 381.113944 
L 199.309091 381.113944 
z
" clip-path="url(#p5370eba684)" style="fill: #0088ed; opacity: 0.4"/>
   </g>
   <g id="patch_13">
    <path d="M 211.483636 384.48 
L 223.658182 384.48 
L 223.658182 374.321723 
L 211.483636 374.321723 
z
" clip-path="url(#p5370eba684)" style="fill: #0088ed; opacity: 0.4"/>
   </g>
   <g id="patch_14">
    <path d="M 223.658182 384.48 
L 235.832727 384.48 
L 235.832727 349.386859 
L 223.658182 349.386859 
z
" clip-path="url(#p5370eba684)" style="fill: #0088ed; opacity: 0.4"/>
   </g>
   <g id="patch_15">
    <path d="M 235.832727 384.48 
L 248.007273 384.48 
L 248.007273 377.046626 
L 235.832727 377.046626 
z
" clip-path="url(#p5370eba684)" style="fill: #0088ed; opacity: 0.4"/>
   </g>
   <g id="patch_16">
    <path d="M 248.007273 384.48 
L 260.181818 384.48 
L 260.181818 359.755515 
L 248.007273 359.755515 
z
" clip-path="url(#p5370eba684)" style="fill: #0088ed; opacity: 0.4"/>
   </g>
   <g id="patch_17">
    <path d="M 260.181818 384.48 
L 272.356364 384.48 
L 272.356364 354.746502 
L 260.181818 354.746502 
z
" clip-path="url(#p5370eba684)" style="fill: #0088ed; opacity: 0.4"/>
   </g>
   <g id="patch_18">
    <path d="M 272.356364 384.48 
L 284.530909 384.48 
L 284.530909 323.119598 
L 272.356364 323.119598 
z
" clip-path="url(#p5370eba684)" style="fill: #0088ed; opacity: 0.4"/>
   </g>
   <g id="patch_19">
    <path d="M 284.530909 384.48 
L 296.705455 384.48 
L 296.705455 335.682201 
L 284.530909 335.682201 
z
" clip-path="url(#p5370eba684)" style="fill: #0088ed; opacity: 0.4"/>
   </g>
   <g id="patch_20">
    <path d="M 296.705455 384.48 
L 308.88 384.48 
L 308.88 314.584241 
L 296.705455 314.584241 
z
" clip-path="url(#p5370eba684)" style="fill: #0088ed; opacity: 0.4"/>
   </g>
   <g id="patch_21">
    <path d="M 308.88 384.48 
L 321.054545 384.48 
L 321.054545 319.142442 
L 308.88 319.142442 
z
" clip-path="url(#p5370eba684)" style="fill: #0088ed; opacity: 0.4"/>
   </g>
   <g id="patch_22">
    <path d="M 321.054545 384.48 
L 333.229091 384.48 
L 333.229091 305.127225 
L 321.054545 305.127225 
z
" clip-path="url(#p5370eba684)" style="fill: #0088ed; opacity: 0.4"/>
   </g>
   <g id="patch_23">
    <path d="M 333.229091 384.48 
L 345.403636 384.48 
L 345.403636 285.301554 
L 333.229091 285.301554 
z
" clip-path="url(#p5370eba684)" style="fill: #0088ed; opacity: 0.4"/>
   </g>
   <g id="patch_24">
    <path d="M 345.403636 384.48 
L 357.578182 384.48 
L 357.578182 260.336636 
L 345.403636 260.336636 
z
" clip-path="url(#p5370eba684)" style="fill: #0088ed; opacity: 0.4"/>
   </g>
   <g id="patch_25">
    <path d="M 357.578182 384.48 
L 369.752727 384.48 
L 369.752727 280.733335 
L 357.578182 280.733335 
z
" clip-path="url(#p5370eba684)" style="fill: #0088ed; opacity: 0.4"/>
   </g>
   <g id="patch_26">
    <path d="M 369.752727 384.48 
L 381.927273 384.48 
L 381.927273 234.991033 
L 369.752727 234.991033 
z
" clip-path="url(#p5370eba684)" style="fill: #0088ed; opacity: 0.4"/>
   </g>
   <g id="patch_27">
    <path d="M 381.927273 384.48 
L 394.101818 384.48 
L 394.101818 234.339861 
L 381.927273 234.339861 
z
" clip-path="url(#p5370eba684)" style="fill: #0088ed; opacity: 0.4"/>
   </g>
   <g id="patch_28">
    <path d="M 394.101818 384.48 
L 406.276364 384.48 
L 406.276364 191.152156 
L 394.101818 191.152156 
z
" clip-path="url(#p5370eba684)" style="fill: #0088ed; opacity: 0.4"/>
   </g>
   <g id="patch_29">
    <path d="M 406.276364 384.48 
L 418.450909 384.48 
L 418.450909 128.08869 
L 406.276364 128.08869 
z
" clip-path="url(#p5370eba684)" style="fill: #0088ed; opacity: 0.4"/>
   </g>
   <g id="patch_30">
    <path d="M 418.450909 384.48 
L 430.625455 384.48 
L 430.625455 130.963863 
L 418.450909 130.963863 
z
" clip-path="url(#p5370eba684)" style="fill: #0088ed; opacity: 0.4"/>
   </g>
   <g id="patch_31">
    <path d="M 430.625455 384.48 
L 442.8 384.48 
L 442.8 128.449339 
L 430.625455 128.449339 
z
" clip-path="url(#p5370eba684)" style="fill: #0088ed; opacity: 0.4"/>
   </g>
   <g id="patch_32">
    <path d="M 442.8 384.48 
L 454.974545 384.48 
L 454.974545 212.059774 
L 442.8 212.059774 
z
" clip-path="url(#p5370eba684)" style="fill: #0088ed; opacity: 0.4"/>
   </g>
   <g id="patch_33">
    <path d="M 454.974545 384.48 
L 467.149091 384.48 
L 467.149091 67.68 
L 454.974545 67.68 
z
" clip-path="url(#p5370eba684)" style="fill: #0088ed; opacity: 0.4"/>
   </g>
   <g id="patch_34">
    <path d="M 467.149091 384.48 
L 479.323636 384.48 
L 479.323636 172.779099 
L 467.149091 172.779099 
z
" clip-path="url(#p5370eba684)" style="fill: #0088ed; opacity: 0.4"/>
   </g>
   <g id="patch_35">
    <path d="M 479.323636 384.48 
L 491.498182 384.48 
L 491.498182 140.821599 
L 479.323636 140.821599 
z
" clip-path="url(#p5370eba684)" style="fill: #0088ed; opacity: 0.4"/>
   </g>
   <g id="patch_36">
    <path d="M 491.498182 384.48 
L 503.672727 384.48 
L 503.672727 166.07704 
L 491.498182 166.07704 
z
" clip-path="url(#p5370eba684)" style="fill: #0088ed; opacity: 0.4"/>
   </g>
   <g id="patch_37">
    <path d="M 503.672727 384.48 
L 515.847273 384.48 
L 515.847273 240.99183 
L 503.672727 240.99183 
z
" clip-path="url(#p5370eba684)" style="fill: #0088ed; opacity: 0.4"/>
   </g>
   <g id="patch_38">
    <path d="M 515.847273 384.48 
L 528.021818 384.48 
L 528.021818 190.651255 
L 515.847273 190.651255 
z
" clip-path="url(#p5370eba684)" style="fill: #0088ed; opacity: 0.4"/>
   </g>
   <g id="patch_39">
    <path d="M 528.021818 384.48 
L 540.196364 384.48 
L 540.196364 223.550449 
L 528.021818 223.550449 
z
" clip-path="url(#p5370eba684)" style="fill: #0088ed; opacity: 0.4"/>
   </g>
   <g id="patch_40">
    <path d="M 540.196364 384.48 
L 552.370909 384.48 
L 552.370909 253.173748 
L 540.196364 253.173748 
z
" clip-path="url(#p5370eba684)" style="fill: #0088ed; opacity: 0.4"/>
   </g>
   <g id="patch_41">
    <path d="M 552.370909 384.48 
L 564.545455 384.48 
L 564.545455 193.045563 
L 552.370909 193.045563 
z
" clip-path="url(#p5370eba684)" style="fill: #0088ed; opacity: 0.4"/>
   </g>
   <g id="patch_42">
    <path d="M 564.545455 384.48 
L 576.72 384.48 
L 576.72 249.827728 
L 564.545455 249.827728 
z
" clip-path="url(#p5370eba684)" style="fill: #0088ed; opacity: 0.4"/>
   </g>
   <g id="patch_43">
    <path d="M 576.72 384.48 
L 588.894545 384.48 
L 588.894545 264.684459 
L 576.72 264.684459 
z
" clip-path="url(#p5370eba684)" style="fill: #0088ed; opacity: 0.4"/>
   </g>
   <g id="patch_44">
    <path d="M 588.894545 384.48 
L 601.069091 384.48 
L 601.069091 299.276699 
L 588.894545 299.276699 
z
" clip-path="url(#p5370eba684)" style="fill: #0088ed; opacity: 0.4"/>
   </g>
   <g id="patch_45">
    <path d="M 601.069091 384.48 
L 613.243636 384.48 
L 613.243636 347.413308 
L 601.069091 347.413308 
z
" clip-path="url(#p5370eba684)" style="fill: #0088ed; opacity: 0.4"/>
   </g>
   <g id="patch_46">
    <path d="M 613.243636 384.48 
L 625.418182 384.48 
L 625.418182 319.422947 
L 613.243636 319.422947 
z
" clip-path="url(#p5370eba684)" style="fill: #0088ed; opacity: 0.4"/>
   </g>
   <g id="patch_47">
    <path d="M 625.418182 384.48 
L 637.592727 384.48 
L 637.592727 302.602683 
L 625.418182 302.602683 
z
" clip-path="url(#p5370eba684)" style="fill: #0088ed; opacity: 0.4"/>
   </g>
   <g id="patch_48">
    <path d="M 637.592727 384.48 
L 649.767273 384.48 
L 649.767273 329.85171 
L 637.592727 329.85171 
z
" clip-path="url(#p5370eba684)" style="fill: #0088ed; opacity: 0.4"/>
   </g>
   <g id="patch_49">
    <path d="M 649.767273 384.48 
L 661.941818 384.48 
L 661.941818 307.13083 
L 649.767273 307.13083 
z
" clip-path="url(#p5370eba684)" style="fill: #0088ed; opacity: 0.4"/>
   </g>
   <g id="patch_50">
    <path d="M 661.941818 384.48 
L 674.116364 384.48 
L 674.116364 327.377258 
L 661.941818 327.377258 
z
" clip-path="url(#p5370eba684)" style="fill: #0088ed; opacity: 0.4"/>
   </g>
   <g id="patch_51">
    <path d="M 674.116364 384.48 
L 686.290909 384.48 
L 686.290909 346.381451 
L 674.116364 346.381451 
z
" clip-path="url(#p5370eba684)" style="fill: #0088ed; opacity: 0.4"/>
   </g>
   <g id="patch_52">
    <path d="M 686.290909 384.48 
L 698.465455 384.48 
L 698.465455 326.525726 
L 686.290909 326.525726 
z
" clip-path="url(#p5370eba684)" style="fill: #0088ed; opacity: 0.4"/>
   </g>
   <g id="patch_53">
    <path d="M 698.465455 384.48 
L 710.64 384.48 
L 710.64 367.329141 
L 698.465455 367.329141 
z
" clip-path="url(#p5370eba684)" style="fill: #0088ed; opacity: 0.4"/>
   </g>
   <g id="patch_54">
    <path d="M 710.64 384.48 
L 722.814545 384.48 
L 722.814545 371.907379 
L 710.64 371.907379 
z
" clip-path="url(#p5370eba684)" style="fill: #0088ed; opacity: 0.4"/>
   </g>
   <g id="patch_55">
    <path d="M 722.814545 384.48 
L 734.989091 384.48 
L 734.989091 370.78536 
L 722.814545 370.78536 
z
" clip-path="url(#p5370eba684)" style="fill: #0088ed; opacity: 0.4"/>
   </g>
   <g id="patch_56">
    <path d="M 734.989091 384.48 
L 747.163636 384.48 
L 747.163636 376.645905 
L 734.989091 376.645905 
z
" clip-path="url(#p5370eba684)" style="fill: #0088ed; opacity: 0.4"/>
   </g>
   <g id="matplotlib.axis_3">
    <g id="ytick_9">
     <g id="line2d_16">
      <defs>
       <path id="m615f6c85a6" d="M 0 0 
L 3.5 0 
" style="stroke: #0088ed; stroke-width: 0.8"/>
      </defs>
      <g>
       <use xlink:href="#m615f6c85a6" x="777.6" y="384.48" style="fill: #0088ed; stroke: #0088ed; stroke-width: 0.8"/>
      </g>
     </g>
     <g id="text_17">
      <!-- 0k -->
      <g style="fill: #0088ed" transform="translate(784.6 389.73) scale(0.14 -0.14)">
       <defs>
        <path id="Roboto-Medium-6b" d="M 1488 1450 
L 1150 1103 
L 1150 0 
L 391 0 
L 391 4800 
L 1150 4800 
L 1150 2031 
L 1388 2328 
L 2322 3381 
L 3234 3381 
L 1978 1972 
L 3369 0 
L 2491 0 
L 1488 1450 
z
" transform="scale(0.015625)"/>
       </defs>
       <use xlink:href="#Roboto-Medium-30"/>
       <use xlink:href="#Roboto-Medium-6b" x="56.835938"/>
      </g>
     </g>
    </g>
    <g id="ytick_10">
     <g id="line2d_17">
      <g>
       <use xlink:href="#m615f6c85a6" x="777.6" y="334.389876" style="fill: #0088ed; stroke: #0088ed; stroke-width: 0.8"/>
      </g>
     </g>
     <g id="text_18">
      <!-- 5k -->
      <g style="fill: #0088ed" transform="translate(784.6 339.639876) scale(0.14 -0.14)">
       <use xlink:href="#Roboto-Medium-35"/>
       <use xlink:href="#Roboto-Medium-6b" x="56.835938"/>
      </g>
     </g>
    </g>
    <g id="ytick_11">
     <g id="line2d_18">
      <g>
       <use xlink:href="#m615f6c85a6" x="777.6" y="284.299751" style="fill: #0088ed; stroke: #0088ed; stroke-width: 0.8"/>
      </g>
     </g>
     <g id="text_19">
      <!-- 10k -->
      <g style="fill: #0088ed" transform="translate(784.6 289.549751) scale(0.14 -0.14)">
       <use xlink:href="#Roboto-Medium-31"/>
       <use xlink:href="#Roboto-Medium-30" x="56.835938"/>
       <use xlink:href="#Roboto-Medium-6b" x="113.671875"/>
      </g>
     </g>
    </g>
    <g id="ytick_12">
     <g id="line2d_19">
      <g>
       <use xlink:href="#m615f6c85a6" x="777.6" y="234.209627" style="fill: #0088ed; stroke: #0088ed; stroke-width: 0.8"/>
      </g>
     </g>
     <g id="text_20">
      <!-- 15k -->
      <g style="fill: #0088ed" transform="translate(784.6 239.459627) scale(0.14 -0.14)">
       <use xlink:href="#Roboto-Medium-31"/>
       <use xlink:href="#Roboto-Medium-35" x="56.835938"/>
       <use xlink:href="#Roboto-Medium-6b" x="113.671875"/>
      </g>
     </g>
    </g>
    <g id="ytick_13">
     <g id="line2d_20">
      <g>
       <use xlink:href="#m615f6c85a6" x="777.6" y="184.119503" style="fill: #0088ed; stroke: #0088ed; stroke-width: 0.8"/>
      </g>
     </g>
     <g id="text_21">
      <!-- 20k -->
      <g style="fill: #0088ed" transform="translate(784.6 189.369503) scale(0.14 -0.14)">
       <use xlink:href="#Roboto-Medium-32"/>
       <use xlink:href="#Roboto-Medium-30" x="56.835938"/>
       <use xlink:href="#Roboto-Medium-6b" x="113.671875"/>
      </g>
     </g>
    </g>
    <g id="ytick_14">
     <g id="line2d_21">
      <g>
       <use xlink:href="#m615f6c85a6" x="777.6" y="134.029379" style="fill: #0088ed; stroke: #0088ed; stroke-width: 0.8"/>
      </g>
     </g>
     <g id="text_22">
      <!-- 25k -->
      <g style="fill: #0088ed" transform="translate(784.6 139.279379) scale(0.14 -0.14)">
       <use xlink:href="#Roboto-Medium-32"/>
       <use xlink:href="#Roboto-Medium-35" x="56.835938"/>
       <use xlink:href="#Roboto-Medium-6b" x="113.671875"/>
      </g>
     </g>
    </g>
    <g id="ytick_15">
     <g id="line2d_22">
      <g>
       <use xlink:href="#m615f6c85a6" x="777.6" y="83.939254" style="fill: #0088ed; stroke: #0088ed; stroke-width: 0.8"/>
      </g>
     </g>
     <g id="text_23">
      <!-- 30k -->
      <g style="fill: #0088ed" transform="translate(784.6 89.189254) scale(0.14 -0.14)">
       <use xlink:href="#Roboto-Medium-33"/>
       <use xlink:href="#Roboto-Medium-30" x="56.835938"/>
       <use xlink:href="#Roboto-Medium-6b" x="113.671875"/>
      </g>
     </g>
    </g>
    <g id="text_24">
     <!-- Distribution of Weather: Temp -->
     <g style="fill: #0088ed" transform="translate(828.510312 339.138281) rotate(-90) scale(0.18 -0.18)">
      <defs>
       <path id="Roboto-Medium-44" d="M 463 0 
L 463 4550 
L 1806 4550 
Q 2409 4550 2876 4281 
Q 3344 4013 3600 3519 
Q 3856 3025 3856 2388 
L 3856 2159 
Q 3856 1513 3598 1022 
Q 3341 531 2864 265 
Q 2388 0 1772 0 
L 463 0 
z
M 1253 3913 
L 1253 631 
L 1769 631 
Q 2391 631 2723 1020 
Q 3056 1409 3063 2138 
L 3063 2391 
Q 3063 3131 2741 3522 
Q 2419 3913 1806 3913 
L 1253 3913 
z
" transform="scale(0.015625)"/>
       <path id="Roboto-Medium-62" d="M 3356 1656 
Q 3356 869 3004 403 
Q 2653 -63 2038 -63 
Q 1444 -63 1113 366 
L 1075 0 
L 388 0 
L 388 4800 
L 1147 4800 
L 1147 3056 
Q 1475 3444 2031 3444 
Q 2650 3444 3003 2984 
Q 3356 2525 3356 1700 
L 3356 1656 
z
M 2597 1722 
Q 2597 2272 2403 2547 
Q 2209 2822 1841 2822 
Q 1347 2822 1147 2391 
L 1147 997 
Q 1350 556 1847 556 
Q 2203 556 2397 822 
Q 2591 1088 2597 1625 
L 2597 1722 
z
" transform="scale(0.015625)"/>
       <path id="Roboto-Medium-66" d="M 656 0 
L 656 2819 
L 141 2819 
L 141 3381 
L 656 3381 
L 656 3691 
Q 656 4253 968 4559 
Q 1281 4866 1844 4866 
Q 2044 4866 2269 4809 
L 2250 4216 
Q 2125 4241 1959 4241 
Q 1416 4241 1416 3681 
L 1416 3381 
L 2103 3381 
L 2103 2819 
L 1416 2819 
L 1416 0 
L 656 0 
z
" transform="scale(0.015625)"/>
      </defs>
      <use xlink:href="#Roboto-Medium-44"/>
      <use xlink:href="#Roboto-Medium-69" x="65.332031"/>
      <use xlink:href="#Roboto-Medium-73" x="90.869141"/>
      <use xlink:href="#Roboto-Medium-74" x="142.480469"/>
      <use xlink:href="#Roboto-Medium-72" x="175.732422"/>
      <use xlink:href="#Roboto-Medium-69" x="210.888672"/>
      <use xlink:href="#Roboto-Medium-62" x="236.425781"/>
      <use xlink:href="#Roboto-Medium-75" x="292.724609"/>
      <use xlink:href="#Roboto-Medium-74" x="348.291016"/>
      <use xlink:href="#Roboto-Medium-69" x="381.542969"/>
      <use xlink:href="#Roboto-Medium-6f" x="407.080078"/>
      <use xlink:href="#Roboto-Medium-6e" x="464.013672"/>
      <use xlink:href="#Roboto-Medium-20" x="519.628906"/>
      <use xlink:href="#Roboto-Medium-6f" x="544.53125"/>
      <use xlink:href="#Roboto-Medium-66" x="601.464844"/>
      <use xlink:href="#Roboto-Medium-20" x="636.914062"/>
      <use xlink:href="#Roboto-Medium-57" x="661.816406"/>
      <use xlink:href="#Roboto-Medium-65" x="749.804688"/>
      <use xlink:href="#Roboto-Medium-61" x="803.466797"/>
      <use xlink:href="#Roboto-Medium-74" x="857.568359"/>
      <use xlink:href="#Roboto-Medium-68" x="890.820312"/>
      <use xlink:href="#Roboto-Medium-65" x="946.337891"/>
      <use xlink:href="#Roboto-Medium-72" x="1000"/>
      <use xlink:href="#Roboto-Medium-3a" x="1035.15625"/>
      <use xlink:href="#Roboto-Medium-20" x="1061.669922"/>
      <use xlink:href="#Roboto-Medium-54" x="1086.572266"/>
      <use xlink:href="#Roboto-Medium-65" x="1147.265625"/>
      <use xlink:href="#Roboto-Medium-6d" x="1200.927734"/>
      <use xlink:href="#Roboto-Medium-70" x="1287.939453"/>
     </g>
    </g>
   </g>
   <g id="patch_57">
    <path d="M 108 384.48 
L 108 51.84 
" style="fill: none; stroke: #58544f; stroke-width: 0.8; stroke-linejoin: miter; stroke-linecap: square"/>
   </g>
   <g id="patch_58">
    <path d="M 777.6 384.48 
L 777.6 51.84 
" style="fill: none; stroke: #58544f; stroke-width: 0.8; stroke-linejoin: miter; stroke-linecap: square"/>
   </g>
   <g id="patch_59">
    <path d="M 108 384.48 
L 777.6 384.48 
" style="fill: none; stroke: #58544f; stroke-width: 0.8; stroke-linejoin: miter; stroke-linecap: square"/>
   </g>
   <g id="patch_60">
    <path d="M 108 51.84 
L 777.6 51.84 
" style="fill: none; stroke: #58544f; stroke-width: 0.8; stroke-linejoin: miter; stroke-linecap: square"/>
   </g>
   <g id="text_25">
    <!-- Impact of Weather: Temp on Under Construction Time -->
    <g style="fill: #262626" transform="translate(200.995313 38.84) scale(0.2 -0.2)">
     <defs>
      <path id="Roboto-Medium-49" d="M 1297 0 
L 509 0 
L 509 4550 
L 1297 4550 
L 1297 0 
z
" transform="scale(0.015625)"/>
     </defs>
     <use xlink:href="#Roboto-Medium-49"/>
     <use xlink:href="#Roboto-Medium-6d" x="28.222656"/>
     <use xlink:href="#Roboto-Medium-70" x="115.234375"/>
     <use xlink:href="#Roboto-Medium-61" x="171.533203"/>
     <use xlink:href="#Roboto-Medium-63" x="225.634766"/>
     <use xlink:href="#Roboto-Medium-74" x="277.978516"/>
     <use xlink:href="#Roboto-Medium-20" x="311.230469"/>
     <use xlink:href="#Roboto-Medium-6f" x="336.132812"/>
     <use xlink:href="#Roboto-Medium-66" x="393.066406"/>
     <use xlink:href="#Roboto-Medium-20" x="428.515625"/>
     <use xlink:href="#Roboto-Medium-57" x="453.417969"/>
     <use xlink:href="#Roboto-Medium-65" x="541.40625"/>
     <use xlink:href="#Roboto-Medium-61" x="595.068359"/>
     <use xlink:href="#Roboto-Medium-74" x="649.169922"/>
     <use xlink:href="#Roboto-Medium-68" x="682.421875"/>
     <use xlink:href="#Roboto-Medium-65" x="737.939453"/>
     <use xlink:href="#Roboto-Medium-72" x="791.601562"/>
     <use xlink:href="#Roboto-Medium-3a" x="826.757812"/>
     <use xlink:href="#Roboto-Medium-20" x="853.271484"/>
     <use xlink:href="#Roboto-Medium-54" x="878.173828"/>
     <use xlink:href="#Roboto-Medium-65" x="938.867188"/>
     <use xlink:href="#Roboto-Medium-6d" x="992.529297"/>
     <use xlink:href="#Roboto-Medium-70" x="1079.541016"/>
     <use xlink:href="#Roboto-Medium-20" x="1135.839844"/>
     <use xlink:href="#Roboto-Medium-6f" x="1160.742188"/>
     <use xlink:href="#Roboto-Medium-6e" x="1217.675781"/>
     <use xlink:href="#Roboto-Medium-20" x="1273.291016"/>
     <use xlink:href="#Roboto-Medium-55" x="1298.193359"/>
     <use xlink:href="#Roboto-Medium-6e" x="1363.378906"/>
     <use xlink:href="#Roboto-Medium-64" x="1418.994141"/>
     <use xlink:href="#Roboto-Medium-65" x="1475.439453"/>
     <use xlink:href="#Roboto-Medium-72" x="1529.101562"/>
     <use xlink:href="#Roboto-Medium-20" x="1564.257812"/>
     <use xlink:href="#Roboto-Medium-43" x="1589.160156"/>
     <use xlink:href="#Roboto-Medium-6f" x="1654.443359"/>
     <use xlink:href="#Roboto-Medium-6e" x="1711.376953"/>
     <use xlink:href="#Roboto-Medium-73" x="1766.992188"/>
     <use xlink:href="#Roboto-Medium-74" x="1818.603516"/>
     <use xlink:href="#Roboto-Medium-72" x="1851.855469"/>
     <use xlink:href="#Roboto-Medium-75" x="1887.011719"/>
     <use xlink:href="#Roboto-Medium-63" x="1942.578125"/>
     <use xlink:href="#Roboto-Medium-74" x="1994.921875"/>
     <use xlink:href="#Roboto-Medium-69" x="2028.173828"/>
     <use xlink:href="#Roboto-Medium-6f" x="2053.710938"/>
     <use xlink:href="#Roboto-Medium-6e" x="2110.644531"/>
     <use xlink:href="#Roboto-Medium-20" x="2166.259766"/>
     <use xlink:href="#Roboto-Medium-54" x="2191.162109"/>
     <use xlink:href="#Roboto-Medium-69" x="2251.855469"/>
     <use xlink:href="#Roboto-Medium-6d" x="2277.392578"/>
     <use xlink:href="#Roboto-Medium-65" x="2364.404297"/>
    </g>
   </g>
  </g>
 </g>
 <defs>
  <clipPath id="p5370eba684">
   <rect x="108" y="51.84" width="669.6" height="332.64"/>
  </clipPath>
 </defs>
</svg>
